<svg xmlns="http://www.w3.org/2000/svg" xmlns:xlink="http://www.w3.org/1999/xlink" width="500" zoomAndPan="magnify" viewBox="0 0 375 374.999991" height="500" preserveAspectRatio="xMidYMid meet" version="1.0"><defs><clipPath id="0422f2d5b4"><path d="M 101.769531 63.847656 L 273 63.847656 L 273 311.347656 L 101.769531 311.347656 Z M 101.769531 63.847656 " clip-rule="nonzero"/></clipPath></defs><path fill="#000000" d="M 173.816406 91.398438 C 173.464844 91.398438 173.113281 91.265625 172.871094 91.023438 C 172.46875 90.644531 172.277344 90.429688 173.058594 89 C 173.058594 89 173.085938 88.949219 173.113281 88.921875 C 174.085938 87.171875 176.484375 83.667969 181.710938 76.046875 C 182.144531 75.429688 182.519531 74.863281 182.871094 74.378906 L 182.546875 74.027344 C 182.546875 74.027344 183.195312 73.382812 183.625 72.925781 C 184.730469 71.820312 184.8125 71.765625 185.40625 71.765625 C 185.730469 71.765625 186.027344 71.902344 186.269531 72.117188 C 186.808594 72.628906 187.023438 72.816406 186.269531 74.082031 C 186.269531 74.082031 186.269531 74.109375 186.242188 74.136719 C 185.808594 74.863281 185.082031 75.941406 183.921875 77.582031 C 183.574219 78.066406 183.222656 78.632812 182.816406 79.199219 C 183.007812 79.011719 183.195312 78.792969 183.382812 78.605469 C 187.894531 74.027344 190.355469 71.738281 190.769531 71.738281 L 190.769531 73.085938 C 190.769531 73.085938 189.828125 74.027344 189.828125 74.027344 L 190.769531 73.085938 L 191.632812 74.136719 C 191.308594 74.433594 188.234375 77.527344 185.296875 80.492188 C 178.128906 87.746094 174.300781 91.371094 173.816406 91.371094 Z M 173.816406 91.398438 " fill-opacity="1" fill-rule="nonzero"/><path fill="#000000" d="M 236.054688 302.890625 C 235.785156 302.890625 235.597656 302.703125 235.328125 302.460938 C 234.816406 301.949219 234.601562 301.734375 235.433594 300.46875 C 235.433594 300.46875 235.515625 300.386719 235.570312 300.332031 C 236.054688 299.632812 236.835938 298.664062 238.023438 297.183594 C 232.390625 302.835938 232.28125 302.835938 231.769531 302.835938 C 231.417969 302.835938 231.070312 302.703125 230.824219 302.433594 C 230.421875 302.03125 230.179688 301.789062 230.988281 300.496094 L 230.933594 300.441406 C 230.933594 300.441406 231.042969 300.332031 231.175781 300.226562 C 231.796875 299.308594 232.875 297.910156 234.679688 295.699219 C 227.539062 302.835938 227.320312 302.835938 226.753906 302.863281 C 226.40625 302.863281 226.054688 302.730469 225.785156 302.460938 C 225.355469 302.03125 225.136719 301.8125 226.054688 300.46875 L 226 300.414062 C 226 300.414062 226.109375 300.332031 226.191406 300.253906 C 227.292969 298.664062 229.800781 295.699219 234.816406 289.695312 C 221.796875 302.890625 221.6875 302.890625 220.933594 302.890625 C 220.582031 302.890625 220.230469 302.757812 219.960938 302.488281 C 219.667969 302.191406 219.476562 302.003906 219.667969 301.492188 C 218.15625 302.890625 217.941406 302.890625 217.644531 302.890625 C 217.292969 302.890625 216.945312 302.757812 216.675781 302.488281 C 216.269531 302.082031 216.027344 301.839844 216.917969 300.46875 L 216.917969 300.414062 C 216.917969 300.414062 216.972656 300.332031 217.050781 300.277344 C 217.96875 298.988281 219.828125 296.75 223.386719 292.710938 C 213.222656 302.890625 213.0625 302.890625 212.496094 302.890625 C 212.144531 302.890625 211.796875 302.757812 211.550781 302.515625 C 211.09375 302.054688 210.851562 301.8125 211.742188 300.523438 L 211.742188 300.46875 C 211.742188 300.46875 211.796875 300.386719 211.875 300.332031 C 213.035156 298.691406 215.785156 295.566406 221.605469 288.96875 C 222.199219 288.292969 222.820312 287.59375 223.441406 286.867188 C 207.429688 302.890625 207.160156 302.890625 206.59375 302.890625 C 206.242188 302.890625 205.890625 302.757812 205.648438 302.488281 C 205.246094 302.082031 205.003906 301.839844 205.890625 300.496094 L 205.839844 300.441406 C 205.839844 300.441406 205.945312 300.332031 206.054688 300.253906 C 207.507812 298.179688 211.363281 293.871094 220.394531 283.933594 C 208.183594 296.210938 203.84375 300.546875 202.117188 302.054688 C 201.929688 302.246094 201.847656 302.378906 201.792969 302.40625 L 201.742188 302.40625 C 201.121094 302.890625 200.960938 302.890625 200.769531 302.890625 C 200.417969 302.890625 200.070312 302.757812 199.828125 302.488281 C 199.316406 301.976562 199.097656 301.761719 200.015625 300.496094 L 200.015625 300.441406 C 200.015625 300.441406 200.125 300.304688 200.257812 300.199219 C 201.039062 299.230469 202.386719 297.71875 204.625 295.269531 C 208.855469 290.609375 216.1875 282.53125 223.925781 273.96875 C 205.558594 292.476562 196.089844 301.734375 195.515625 301.734375 C 195.164062 301.734375 194.8125 301.597656 194.542969 301.328125 C 194.113281 300.898438 193.84375 300.628906 194.785156 299.308594 L 194.785156 299.253906 C 194.785156 299.253906 194.839844 299.175781 194.921875 299.121094 C 195.757812 297.964844 197.453125 296.023438 200.527344 292.628906 C 193.601562 299.472656 193.277344 299.472656 192.738281 299.472656 C 192.304688 299.578125 192.007812 299.335938 191.765625 299.066406 C 191.523438 298.851562 191.363281 298.664062 191.445312 298.257812 C 191.09375 298.285156 190.582031 298.179688 190.285156 297.882812 C 189.800781 297.398438 189.558594 297.128906 190.339844 296.023438 L 190.285156 295.96875 L 190.609375 295.648438 C 191.578125 294.40625 193.546875 292.308594 197.210938 288.375 C 198.777344 286.707031 200.554688 284.792969 202.523438 282.746094 C 194.785156 290.476562 191.46875 293.707031 189.960938 295.082031 C 189.800781 295.269531 189.664062 295.40625 189.609375 295.484375 L 189.558594 295.429688 C 188.800781 296.078125 188.640625 296.078125 188.503906 296.078125 C 188.15625 296.078125 187.804688 295.941406 187.5625 295.699219 C 187.078125 295.214844 186.835938 294.972656 187.722656 293.761719 L 187.667969 293.707031 C 187.667969 293.707031 187.832031 293.546875 187.992188 293.410156 C 189.070312 292.039062 191.363281 289.613281 195.648438 285.007812 C 196.699219 283.878906 197.859375 282.664062 199.070312 281.375 C 186.539062 293.871094 186.320312 293.921875 185.78125 293.921875 C 185.511719 293.921875 185.082031 293.789062 184.839844 293.519531 C 184.121094 292.800781 187.246094 288.699219 194.21875 281.210938 C 198.667969 276.417969 204.328125 270.359375 210.421875 263.867188 C 192.378906 282.128906 183.085938 291.257812 182.546875 291.257812 C 182.199219 291.257812 181.847656 291.121094 181.605469 290.851562 C 181.171875 290.421875 180.902344 290.152344 181.847656 288.859375 L 181.792969 288.804688 C 181.792969 288.804688 181.929688 288.699219 182.0625 288.589844 C 182.765625 287.675781 184.003906 286.273438 186 284.09375 C 180.742188 289.265625 180.5 289.265625 180.066406 289.265625 C 179.71875 289.265625 179.367188 289.128906 179.125 288.859375 C 178.695312 288.429688 178.425781 288.160156 179.367188 286.839844 L 179.367188 286.785156 C 179.367188 286.785156 179.421875 286.734375 179.476562 286.679688 C 180.984375 284.578125 185.164062 280.082031 195.269531 269.144531 C 199.585938 264.488281 204.464844 259.234375 209.503906 253.796875 C 206.269531 257.082031 203.117188 260.257812 200.175781 263.222656 C 185.757812 277.792969 180.390625 283.203125 178.234375 285.222656 C 177.886719 285.601562 177.640625 285.84375 177.589844 285.925781 L 177.535156 285.871094 C 176.886719 286.4375 176.699219 286.410156 176.539062 286.4375 C 176.1875 286.4375 175.835938 286.300781 175.59375 286.03125 C 175.214844 285.65625 175 285.441406 175.164062 284.980469 C 175 285.0625 174.917969 285.0625 174.839844 285.0625 C 174.488281 285.0625 174.136719 284.929688 173.894531 284.660156 C 173.464844 284.226562 173.195312 283.957031 174.03125 282.691406 C 174.03125 282.691406 174.109375 282.585938 174.164062 282.53125 C 175.703125 280.351562 180.3125 275.394531 192.144531 262.683594 C 194.382812 260.285156 196.78125 257.726562 199.234375 255.089844 C 172.441406 282.261719 172.25 282.261719 171.414062 282.261719 C 171.066406 282.261719 170.714844 282.128906 170.445312 281.859375 C 170.015625 281.425781 169.746094 281.15625 170.714844 279.785156 C 170.714844 279.785156 170.714844 279.757812 170.769531 279.730469 C 172.277344 277.65625 176.539062 273.132812 187.050781 261.957031 C 187.425781 261.550781 187.804688 261.148438 188.183594 260.742188 C 170.148438 278.867188 169.933594 278.867188 169.257812 278.867188 C 168.910156 278.867188 168.558594 278.734375 168.289062 278.464844 C 167.882812 278.0625 167.613281 277.792969 168.558594 276.445312 L 168.558594 276.390625 C 168.558594 276.390625 168.613281 276.308594 168.691406 276.257812 C 170.175781 274.210938 174.164062 269.925781 183.546875 259.988281 C 170.066406 273.535156 169.933594 273.535156 169.367188 273.535156 C 169.015625 273.535156 168.667969 273.402344 168.421875 273.132812 C 168.046875 272.753906 167.777344 272.484375 168.640625 271.21875 L 168.558594 271.113281 C 168.558594 271.113281 168.773438 270.925781 168.960938 270.734375 C 170.121094 269.144531 172.628906 266.320312 177.617188 261.011719 C 173.410156 265.132812 171.523438 266.882812 170.578125 267.613281 C 170.578125 267.613281 170.554688 267.636719 170.527344 267.664062 C 169.878906 268.148438 169.71875 268.148438 169.5 268.148438 C 169.125 268.148438 168.800781 268.015625 168.53125 267.746094 C 167.882812 267.074219 167.667969 266.882812 169.339844 265.027344 C 169.070312 264.972656 168.800781 264.835938 168.613281 264.648438 C 167.640625 263.679688 167.585938 263.625 176.320312 254.441406 C 170.554688 260.097656 170.230469 260.097656 169.691406 260.097656 C 169.339844 260.097656 168.960938 259.960938 168.71875 259.695312 C 168.179688 259.15625 167.910156 258.886719 169.394531 257.109375 C 169.179688 257.054688 168.960938 256.917969 168.773438 256.757812 C 168.316406 256.300781 168.046875 256.058594 169.070312 254.710938 L 169.070312 254.65625 C 169.070312 254.65625 169.125 254.601562 169.207031 254.550781 C 170.417969 252.988281 173.195312 250.023438 178.910156 243.964844 C 183.058594 239.574219 188.207031 234.109375 193.898438 228.128906 C 170.796875 251.34375 170.605469 251.34375 169.878906 251.34375 C 169.527344 251.34375 169.179688 251.210938 168.9375 250.941406 C 168.449219 250.457031 168.179688 250.1875 169.152344 248.894531 C 169.152344 248.894531 169.207031 248.839844 169.230469 248.785156 C 169.582031 248.328125 170.09375 247.734375 170.796875 246.953125 C 170.308594 247.332031 170.175781 247.332031 169.988281 247.332031 C 169.636719 247.332031 169.285156 247.195312 169.042969 246.929688 C 168.667969 246.550781 168.394531 246.28125 169.285156 244.988281 L 169.207031 244.882812 C 169.207031 244.882812 169.394531 244.71875 169.582031 244.53125 C 170.335938 243.507812 171.65625 241.972656 173.839844 239.546875 C 170.714844 242.457031 170.445312 242.347656 170.09375 242.457031 C 169.746094 242.457031 169.394531 242.324219 169.125 242.054688 C 168.476562 241.390625 170.875 238.210938 176.320312 232.519531 C 177.992188 230.796875 179.878906 228.804688 181.980469 226.621094 C 175.648438 232.949219 172.871094 235.699219 171.550781 236.882812 C 171.414062 237.015625 171.335938 237.125 171.28125 237.207031 L 171.226562 237.207031 C 170.5 237.796875 170.285156 237.796875 170.175781 237.796875 C 169.824219 237.796875 169.476562 237.664062 169.230469 237.394531 C 168.773438 236.9375 168.53125 236.695312 169.421875 235.457031 L 169.367188 235.375 C 169.367188 235.375 169.609375 235.160156 169.851562 234.917969 C 171.199219 233.246094 174.109375 230.203125 179.824219 224.171875 C 180.285156 223.6875 180.769531 223.203125 181.226562 222.691406 C 171.117188 232.816406 170.875 232.816406 170.308594 232.816406 C 169.960938 232.816406 169.609375 232.679688 169.339844 232.410156 C 168.910156 231.980469 168.640625 231.710938 169.609375 230.390625 L 169.609375 230.339844 C 169.609375 230.339844 169.691406 230.230469 169.796875 230.148438 C 171.308594 228.183594 175.109375 224.171875 183.789062 215.015625 C 184.542969 214.207031 185.324219 213.371094 186.132812 212.535156 C 185.082031 213.585938 184.085938 214.582031 183.140625 215.554688 C 176.832031 221.882812 173.652344 225.03125 171.953125 226.488281 C 171.765625 226.703125 171.632812 226.863281 171.578125 226.945312 L 171.496094 226.890625 C 170.203125 227.914062 169.960938 227.671875 169.5 227.214844 C 169.042969 226.757812 168.773438 226.488281 169.664062 225.25 L 169.609375 225.195312 C 169.609375 225.195312 169.769531 225.058594 169.90625 224.925781 C 170.066406 224.710938 170.257812 224.492188 170.445312 224.25 C 170.121094 224.25 169.796875 224.089844 169.554688 223.847656 C 168.910156 223.203125 170.992188 220.328125 175.808594 215.230469 C 179.773438 211.054688 185.324219 205.183594 191.6875 198.476562 C 197.078125 192.796875 203.277344 186.25 209.691406 179.519531 C 207.429688 181.808594 205.191406 184.070312 203.035156 186.222656 C 180.5 208.953125 174.03125 215.5 171.902344 217.355469 C 171.847656 217.410156 171.792969 217.464844 171.765625 217.519531 C 171.039062 218.109375 170.824219 218.109375 170.6875 218.109375 C 170.335938 218.109375 169.988281 217.976562 169.746094 217.707031 C 169.257812 217.222656 168.988281 216.953125 169.933594 215.714844 L 169.933594 215.660156 C 169.933594 215.660156 170.015625 215.554688 170.121094 215.445312 C 170.175781 215.363281 170.257812 215.285156 170.308594 215.203125 C 170.121094 215.148438 169.933594 215.042969 169.796875 214.878906 C 169.421875 214.503906 169.179688 214.261719 169.988281 213.019531 L 169.878906 212.914062 C 169.878906 212.914062 170.175781 212.644531 170.5 212.292969 C 172.683594 209.4375 178.800781 202.894531 194.355469 186.574219 C 178.695312 202.355469 173.816406 207.230469 172.0625 208.710938 C 172.007812 208.792969 171.953125 208.847656 171.925781 208.875 C 171.28125 209.386719 171.039062 209.386719 170.902344 209.386719 C 170.554688 209.386719 170.203125 209.25 169.960938 208.980469 C 169.5 208.523438 169.257812 208.28125 170.230469 207.015625 L 170.175781 206.933594 C 170.175781 206.933594 170.417969 206.71875 170.660156 206.476562 C 170.875 206.234375 171.117188 205.9375 171.414062 205.613281 C 171.226562 205.722656 171.117188 205.722656 171.011719 205.722656 C 170.632812 205.722656 170.285156 205.5625 170.039062 205.320312 C 169.636719 204.886719 169.394531 204.644531 170.308594 203.460938 L 170.203125 203.324219 C 170.203125 203.324219 170.472656 203.082031 170.742188 202.8125 C 170.527344 202.789062 170.363281 202.625 170.148438 202.410156 C 169.691406 201.925781 169.421875 201.683594 170.335938 200.472656 L 170.285156 200.390625 C 170.285156 200.390625 170.5 200.203125 170.714844 199.988281 C 170.527344 199.90625 170.363281 199.796875 170.203125 199.664062 C 169.796875 199.257812 169.527344 198.988281 170.472656 197.644531 L 170.472656 197.589844 C 170.472656 197.589844 170.527344 197.535156 170.578125 197.480469 C 170.6875 197.320312 170.824219 197.160156 170.984375 196.941406 C 170.714844 196.890625 170.472656 196.753906 170.308594 196.566406 C 169.824219 196.082031 169.582031 195.839844 170.632812 194.492188 L 170.632812 194.4375 C 170.632812 194.4375 170.714844 194.359375 170.769531 194.304688 C 170.824219 194.222656 170.902344 194.140625 170.957031 194.0625 C 170.742188 194.007812 170.527344 193.871094 170.363281 193.710938 C 169.90625 193.28125 169.664062 193.011719 170.769531 191.582031 C 170.769531 191.582031 170.796875 191.558594 170.824219 191.53125 C 170.957031 191.339844 171.144531 191.125 171.335938 190.910156 C 171.011719 190.910156 170.714844 190.75 170.472656 190.507812 C 170.09375 190.128906 169.824219 189.859375 170.824219 188.433594 L 170.824219 188.378906 C 170.824219 188.378906 170.875 188.324219 170.957031 188.269531 C 172.546875 186.117188 176.808594 181.484375 187.105469 170.65625 C 172.195312 185.632812 171.875 185.632812 171.171875 185.632812 C 170.824219 185.632812 170.472656 185.496094 170.203125 185.226562 C 169.574219 184.617188 171.003906 182.488281 174.488281 178.84375 L 179.933594 173.164062 C 169.457031 183.738281 163.992188 189.015625 163.542969 189 C 163.195312 189 162.84375 188.863281 162.601562 188.59375 C 162.492188 188.488281 162.386719 188.378906 162.304688 188.246094 C 161.28125 189.214844 160.632812 189.804688 160.175781 190.183594 C 160.175781 190.183594 160.175781 190.183594 160.148438 190.210938 C 159.421875 190.804688 159.257812 190.804688 159.070312 190.804688 C 158.71875 190.804688 158.367188 190.667969 158.125 190.398438 C 157.640625 189.914062 157.371094 189.671875 158.367188 188.351562 C 158.367188 188.351562 158.449219 188.246094 158.503906 188.191406 C 159.582031 186.789062 161.953125 184.3125 166.644531 179.382812 C 171.953125 173.78125 179.339844 166.027344 187.5625 157.40625 C 192.0625 152.695312 196.996094 147.523438 202.039062 142.21875 C 196.753906 147.550781 191.523438 152.855469 186.617188 157.8125 C 162.664062 182.050781 150.425781 194.152344 149.90625 194.117188 C 149.554688 194.117188 149.203125 193.980469 148.960938 193.710938 C 148.558594 193.308594 148.289062 193.039062 149.175781 191.71875 L 149.125 191.664062 C 149.125 191.664062 149.257812 191.558594 149.367188 191.449219 C 151.0625 189.105469 155.941406 183.882812 168.234375 170.875 C 143.542969 195.675781 141.710938 197.023438 140.792969 197.023438 C 140.441406 197.023438 140.066406 196.863281 139.824219 196.621094 C 139.042969 195.839844 138.851562 195.675781 145.214844 188.972656 C 139.070312 194.949219 138.691406 194.949219 138.207031 194.949219 C 137.746094 194.949219 137.476562 194.816406 137.234375 194.546875 C 136.832031 194.140625 136.589844 193.898438 137.613281 192.445312 L 137.613281 192.390625 C 137.613281 192.390625 137.667969 192.335938 137.695312 192.3125 C 138.582031 191.125 140.28125 189.160156 143.433594 185.792969 C 140.632812 188.621094 138.933594 190.316406 137.828125 191.339844 C 137.207031 191.988281 136.832031 192.363281 136.75 192.472656 L 136.667969 192.417969 C 136.050781 192.957031 135.914062 192.957031 135.726562 192.957031 C 135.375 192.957031 135.023438 192.824219 134.753906 192.554688 C 134.191406 191.988281 133.972656 191.773438 134.890625 190.613281 L 134.835938 190.558594 C 134.835938 190.558594 135.050781 190.34375 135.292969 190.101562 C 135.644531 189.726562 136.078125 189.242188 136.644531 188.648438 C 134 191.070312 133.703125 191.070312 133.382812 191.070312 C 133.03125 191.070312 132.652344 190.9375 132.410156 190.667969 C 131.953125 190.210938 131.710938 189.96875 132.789062 188.539062 C 134.191406 186.710938 137.746094 182.964844 145.863281 174.457031 C 147.101562 173.164062 148.394531 171.789062 149.769531 170.390625 C 131.519531 188.621094 131.0625 188.621094 130.335938 188.621094 C 129.984375 188.621094 129.605469 188.488281 129.363281 188.21875 C 128.421875 187.273438 128.339844 187.195312 136.589844 178.601562 C 128.5 186.46875 128.152344 186.332031 127.640625 186.441406 C 127.289062 186.441406 126.910156 186.304688 126.667969 186.035156 C 125.984375 185.355469 129.582031 180.882812 137.453125 172.625 C 141.816406 168.046875 147.234375 162.363281 153.273438 156.0625 C 125.589844 183.746094 124.945312 183.746094 124.296875 183.746094 C 123.945312 183.746094 123.570312 183.613281 123.328125 183.34375 C 122.921875 182.9375 122.679688 182.695312 123.703125 181.242188 L 123.703125 181.1875 C 123.703125 181.1875 123.757812 181.132812 123.8125 181.109375 C 125.589844 178.710938 130.738281 173.214844 143.921875 159.347656 C 122.058594 181.160156 121.683594 181.160156 121.089844 181.160156 C 120.738281 181.160156 120.386719 181.027344 120.117188 180.757812 C 119.5 180.136719 119.175781 179.816406 122.839844 175.585938 C 121.25 177.148438 120.308594 178.039062 119.714844 178.550781 C 118.988281 179.167969 118.878906 179.195312 118.609375 179.167969 C 118.257812 179.167969 117.910156 179.035156 117.664062 178.765625 C 117.207031 178.304688 116.964844 178.0625 117.910156 176.769531 L 117.855469 176.691406 C 117.855469 176.691406 118.015625 176.554688 118.179688 176.421875 C 119.472656 174.777344 122.410156 171.707031 128.449219 165.433594 C 122.761719 171.167969 119.820312 174.105469 118.257812 175.613281 C 117.664062 176.234375 117.289062 176.609375 117.207031 176.71875 L 117.125 176.636719 C 116.507812 177.175781 116.371094 177.230469 116.183594 177.175781 C 115.832031 177.175781 115.480469 177.039062 115.238281 176.769531 C 114.671875 176.207031 114.457031 175.992188 115.375 174.832031 L 115.320312 174.777344 C 115.320312 174.777344 115.535156 174.5625 115.804688 174.320312 C 116.507812 173.511719 117.613281 172.382812 119.28125 170.65625 L 128.285156 161.339844 C 119.335938 170.335938 116.101562 173.457031 114.78125 174.5625 C 114.082031 175.128906 113.917969 175.128906 113.703125 175.128906 C 113.351562 175.128906 113.003906 174.992188 112.734375 174.726562 C 112.355469 174.347656 112.113281 174.105469 112.8125 173.054688 C 112.542969 173 112.273438 172.894531 112.058594 172.679688 C 111.65625 172.273438 111.410156 172.03125 112.273438 170.792969 L 112.167969 170.65625 C 112.167969 170.65625 112.492188 170.363281 112.8125 170.039062 C 114.566406 167.804688 118.769531 163.359375 127.882812 153.71875 C 113.839844 167.777344 113.675781 167.777344 113.109375 167.777344 C 112.761719 167.777344 112.410156 167.640625 112.167969 167.371094 C 111.789062 166.996094 111.492188 166.699219 112.355469 165.378906 L 112.355469 165.324219 C 112.355469 165.324219 112.410156 165.246094 112.515625 165.164062 C 113.40625 163.871094 115.292969 161.664062 118.960938 157.703125 C 114.054688 162.445312 113.730469 162.445312 113.273438 162.445312 C 112.921875 162.445312 112.542969 162.308594 112.300781 162.039062 C 111.871094 161.609375 111.628906 161.367188 112.679688 159.964844 L 112.679688 159.914062 C 112.679688 159.914062 112.761719 159.832031 112.8125 159.777344 C 114.242188 157.917969 117.746094 154.230469 125.429688 146.097656 C 125.753906 145.773438 126.050781 145.421875 126.371094 145.074219 C 114.242188 157.21875 113.972656 157.21875 113.378906 157.191406 C 113.03125 157.191406 112.679688 157.058594 112.410156 156.789062 C 111.871094 156.25 111.574219 155.953125 113.191406 153.988281 C 112.921875 153.933594 112.679688 153.800781 112.492188 153.609375 C 112.113281 153.234375 111.871094 152.992188 112.707031 151.726562 L 112.597656 151.589844 C 112.597656 151.589844 112.867188 151.347656 113.164062 151.050781 C 113.40625 150.730469 113.703125 150.378906 114.027344 149.949219 C 113.785156 150.109375 113.648438 150.136719 113.515625 150.109375 C 113.164062 150.109375 112.8125 149.976562 112.542969 149.707031 C 112.167969 149.328125 111.949219 149.113281 112.761719 147.847656 L 112.652344 147.710938 C 112.652344 147.710938 112.921875 147.441406 113.246094 147.148438 C 114.269531 145.71875 116.183594 143.375 119.578125 139.28125 C 116.882812 141.976562 115.507812 143.269531 114.78125 143.886719 C 114.109375 144.453125 114 144.347656 113.703125 144.425781 C 113.324219 144.425781 112.976562 144.265625 112.734375 143.996094 C 112.246094 143.484375 112.03125 143.269531 112.949219 141.976562 C 113.460938 141.25 114.324219 140.171875 115.644531 138.527344 C 114.324219 139.820312 114.214844 139.820312 113.8125 139.820312 C 113.460938 139.820312 113.109375 139.6875 112.867188 139.417969 C 112.464844 139.011719 112.246094 138.796875 112.921875 137.503906 C 112.921875 137.503906 112.949219 137.453125 112.976562 137.425781 C 113.378906 136.644531 114.109375 135.457031 115.265625 133.628906 C 114.351562 134.488281 113.890625 134.703125 113.136719 134.085938 C 112.6875 133.636719 112.839844 131.886719 113.59375 128.832031 C 113.703125 128.429688 113.785156 128.027344 113.890625 127.648438 L 113.21875 126.894531 C 113.21875 126.894531 113.675781 126.4375 114 126.113281 C 114.835938 125.25 114.996094 125.089844 115.5625 125.117188 C 115.914062 125.117188 116.238281 125.25 116.480469 125.492188 C 117.019531 126.003906 117.046875 126.03125 116.425781 128.699219 C 119.308594 125.789062 120.980469 124.121094 122.03125 123.257812 C 122.03125 123.230469 122.058594 123.203125 122.085938 123.179688 L 122.113281 123.179688 C 123.433594 122.101562 123.675781 122.34375 124.214844 122.855469 C 124.753906 123.355469 123.9375 125.277344 121.761719 128.617188 C 131.332031 118.976562 131.441406 118.976562 132.058594 118.976562 C 132.382812 118.867188 132.761719 119.109375 133.03125 119.378906 C 133.40625 119.757812 133.652344 120 132.816406 121.320312 L 132.894531 121.398438 C 132.894531 121.398438 132.734375 121.535156 132.574219 121.695312 C 132.085938 122.421875 131.332031 123.445312 130.199219 124.902344 C 132.140625 122.933594 133.921875 121.15625 135.292969 119.757812 C 137.53125 117.496094 138.691406 116.335938 139.339844 115.746094 C 140.039062 115.125 140.171875 115.125 140.46875 115.125 C 140.820312 115.125 141.171875 115.261719 141.414062 115.53125 C 141.792969 115.90625 142.007812 116.121094 141.253906 117.332031 L 141.386719 117.46875 C 141.386719 117.46875 141.089844 117.765625 140.6875 118.167969 C 139.660156 119.597656 137.746094 121.910156 134.460938 125.871094 C 152.707031 107.449219 152.898438 107.449219 153.652344 107.449219 C 154.054688 107.394531 154.351562 107.585938 154.621094 107.855469 C 154.972656 108.203125 155.1875 108.417969 154.785156 109.148438 C 192.171875 71.390625 192.65625 71.390625 193.574219 71.390625 C 193.949219 71.335938 194.300781 71.523438 194.542969 71.792969 C 194.785156 72.035156 194.976562 72.222656 194.976562 72.492188 C 195.191406 72.277344 195.40625 72.117188 195.566406 71.980469 C 195.566406 71.980469 195.566406 71.980469 195.59375 71.953125 C 196.296875 71.390625 196.484375 71.363281 196.671875 71.390625 C 197.023438 71.390625 197.375 71.523438 197.644531 71.792969 C 198.074219 72.222656 198.316406 72.464844 197.347656 73.757812 L 197.429688 73.867188 C 197.429688 73.867188 197.183594 74.082031 196.941406 74.296875 C 195.40625 76.183594 191.984375 79.816406 184.894531 87.332031 C 182.519531 89.863281 179.878906 92.636719 177.078125 95.601562 C 193.015625 79.476562 201.246094 71.40625 201.769531 71.390625 C 202.117188 71.390625 202.46875 71.523438 202.738281 71.792969 C 203.222656 72.277344 203.492188 72.546875 202.578125 73.8125 C 201.417969 75.402344 198.453125 78.527344 191.792969 85.5 C 190.042969 87.332031 188.128906 89.324219 186.105469 91.453125 C 199.394531 78.121094 203.949219 73.625 205.703125 72.117188 C 205.8125 72.007812 205.890625 71.902344 205.917969 71.875 L 205.945312 71.875 C 206.621094 71.335938 206.78125 71.28125 206.96875 71.363281 C 207.320312 71.363281 207.671875 71.496094 207.941406 71.765625 C 208.398438 72.222656 208.640625 72.464844 207.699219 73.730469 L 207.75 73.8125 C 207.75 73.8125 207.535156 74 207.320312 74.214844 C 206.132812 75.644531 203.789062 78.121094 199.394531 82.726562 C 195.40625 86.929688 190.230469 92.339844 184.40625 98.429688 C 202.226562 80.574219 208.316406 74.511719 210.582031 72.4375 C 210.824219 72.195312 210.960938 72.007812 211.039062 71.925781 L 211.09375 71.980469 C 211.796875 71.363281 211.929688 71.363281 212.117188 71.363281 C 212.46875 71.363281 212.820312 71.496094 213.0625 71.765625 C 213.222656 71.925781 213.332031 72.035156 213.414062 72.195312 C 214.410156 71.363281 214.570312 71.335938 214.839844 71.363281 C 215.191406 71.363281 215.542969 71.496094 215.8125 71.765625 C 216.378906 72.332031 216.699219 72.65625 214.113281 75.671875 C 218.640625 71.363281 218.964844 71.226562 219.398438 71.363281 C 219.746094 71.363281 220.125 71.496094 220.367188 71.765625 C 220.90625 72.304688 221.203125 72.601562 219.179688 75.023438 C 221.09375 73.21875 222.171875 72.304688 222.820312 71.847656 C 223.359375 71.46875 223.574219 71.28125 223.789062 71.414062 C 224.140625 71.414062 224.519531 71.550781 224.761719 71.820312 C 225.390625 72.449219 223.53125 74.996094 219.179688 79.46875 C 210.851562 88.03125 203.195312 95.894531 196.1875 103.140625 C 200.472656 98.832031 204.4375 94.847656 207.914062 91.34375 L 221.929688 77.234375 C 224.195312 74.96875 225.652344 73.488281 226.621094 72.601562 C 226.972656 72.222656 227.1875 72.007812 227.242188 71.925781 L 227.320312 71.980469 C 228.480469 71.039062 228.722656 71.28125 229.234375 71.792969 C 229.695312 72.25 229.9375 72.492188 229.101562 73.652344 L 229.207031 73.757812 C 229.207031 73.757812 228.777344 74.191406 228.210938 74.753906 C 227 76.15625 224.894531 78.363281 221.417969 82 C 216.484375 87.171875 209.585938 94.386719 201.714844 102.628906 C 194.894531 109.792969 186.914062 118.113281 178.773438 126.652344 C 191.550781 113.777344 206.511719 98.671875 223.65625 81.300781 C 227.808594 77.097656 230.015625 74.835938 231.339844 73.730469 C 231.390625 73.652344 231.445312 73.570312 231.5 73.515625 L 231.554688 73.515625 C 232.902344 72.4375 233.117188 72.679688 233.628906 73.140625 C 234.0625 73.570312 234.332031 73.839844 233.574219 75.023438 L 233.628906 75.078125 C 233.628906 75.078125 233.496094 75.1875 233.359375 75.347656 C 231.609375 77.824219 226.082031 83.640625 211.230469 99.289062 C 206.402344 104.351562 201.09375 109.953125 195.539062 115.773438 C 203.089844 108.148438 210.097656 101.066406 215.839844 95.277344 C 228.902344 82.0625 235.652344 75.457031 236.082031 75.457031 C 236.433594 75.457031 236.78125 75.589844 237.027344 75.859375 C 237.375 76.210938 237.671875 76.503906 236.863281 77.746094 L 236.945312 77.824219 C 236.945312 77.824219 236.757812 78.015625 236.539062 78.203125 C 235.757812 79.304688 234.332031 81.003906 231.851562 83.75 C 237.996094 77.609375 238.238281 77.609375 238.722656 77.609375 C 239.074219 77.609375 239.425781 77.746094 239.667969 78.015625 C 240.097656 78.445312 240.339844 78.6875 239.425781 80.007812 L 239.425781 80.0625 C 239.425781 80.0625 239.34375 80.167969 239.234375 80.25 C 237.511719 82.566406 232.605469 87.710938 220.339844 100.554688 C 215.351562 105.78125 209.71875 111.703125 203.734375 117.925781 C 212.46875 109.09375 220.449219 101.011719 226.59375 94.820312 C 241.175781 80.0625 241.070312 80.035156 241.769531 80.0625 C 242.121094 80.0625 242.472656 80.195312 242.714844 80.464844 C 243.117188 80.867188 243.386719 81.136719 242.605469 82.375 L 242.660156 82.429688 C 242.660156 82.429688 242.523438 82.539062 242.390625 82.699219 C 242.253906 82.886719 242.09375 83.105469 241.90625 83.347656 C 242.390625 82.941406 242.742188 82.644531 243.035156 82.429688 C 243.601562 82.027344 243.871094 81.945312 244.035156 81.945312 C 244.382812 81.945312 244.761719 82.105469 245.003906 82.351562 C 245.617188 82.996094 244.023438 85.285156 240.234375 89.21875 L 230.015625 99.773438 C 240.234375 89.460938 243.871094 85.851562 245.328125 84.613281 C 246.082031 83.964844 246.296875 83.910156 246.460938 83.964844 C 246.8125 83.964844 247.160156 84.101562 247.429688 84.371094 C 247.835938 84.773438 248.078125 85.042969 247.1875 86.308594 L 247.269531 86.417969 C 247.269531 86.417969 247.027344 86.632812 246.785156 86.875 C 245.652344 88.328125 243.414062 90.753906 239.261719 95.117188 C 244.628906 89.730469 246.890625 87.546875 247.941406 86.660156 C 247.941406 86.660156 247.996094 86.605469 247.996094 86.605469 C 248.671875 86.066406 248.832031 86.066406 249.046875 86.066406 C 249.398438 86.066406 249.75 86.199219 249.992188 86.46875 C 250.476562 86.953125 250.71875 87.199219 249.722656 88.488281 L 249.722656 88.542969 C 249.722656 88.542969 249.613281 88.679688 249.480469 88.785156 C 248.402344 90.132812 246.164062 92.476562 242.011719 96.867188 C 237.027344 102.144531 230.042969 109.496094 222.144531 117.792969 C 220.449219 119.570312 218.722656 121.398438 216.945312 123.285156 C 251.125 88.839844 251.609375 88.839844 252.472656 88.839844 C 252.902344 88.8125 253.199219 88.976562 253.441406 89.246094 C 253.820312 89.621094 254.089844 89.890625 253.089844 91.371094 C 251.421875 93.796875 246.351562 99.398438 232.738281 113.777344 C 254.953125 91.453125 255.085938 91.453125 255.761719 91.453125 C 256.109375 91.453125 256.460938 91.585938 256.703125 91.855469 C 256.945312 92.097656 257.132812 92.289062 257.082031 92.664062 C 257.132812 92.664062 257.160156 92.609375 257.242188 92.664062 C 257.59375 92.664062 257.945312 92.800781 258.214844 93.070312 C 258.589844 93.445312 258.859375 93.714844 257.835938 95.117188 L 257.890625 95.195312 C 257.890625 95.195312 257.726562 95.304688 257.621094 95.410156 C 257.160156 96.003906 256.515625 96.785156 255.597656 97.808594 C 258.050781 95.492188 258.292969 95.492188 258.671875 95.492188 C 259.023438 95.492188 259.371094 95.628906 259.640625 95.894531 C 260.613281 96.867188 260.910156 97.160156 244.84375 114.15625 C 257.699219 101.203125 257.917969 101.203125 258.5625 101.203125 C 258.914062 101.203125 259.265625 101.335938 259.535156 101.605469 C 259.992188 102.0625 260.234375 102.304688 259.238281 103.597656 L 259.292969 103.679688 C 259.292969 103.679688 259.074219 103.839844 258.886719 104.03125 C 258.777344 104.164062 258.644531 104.324219 258.484375 104.488281 C 258.941406 104.300781 259.128906 104.488281 259.398438 104.785156 C 259.804688 105.1875 260.046875 105.457031 259.238281 106.613281 L 259.34375 106.75 C 259.34375 106.75 259.101562 106.992188 258.804688 107.289062 C 258.996094 107.34375 259.183594 107.476562 259.34375 107.613281 C 259.75 108.015625 260.019531 108.285156 259.128906 109.605469 L 259.128906 109.660156 C 259.128906 109.660156 259.074219 109.738281 258.996094 109.820312 C 258.886719 109.980469 258.753906 110.144531 258.617188 110.332031 C 258.859375 110.386719 259.101562 110.519531 259.292969 110.707031 C 259.804688 111.21875 260.074219 111.488281 258.777344 113.160156 C 258.941406 113.238281 259.101562 113.320312 259.238281 113.457031 C 259.613281 113.832031 259.882812 114.101562 258.96875 115.394531 L 259.046875 115.503906 C 259.046875 115.503906 258.777344 115.746094 258.484375 116.015625 C 258.726562 116.066406 258.96875 116.203125 259.15625 116.363281 C 259.5625 116.796875 259.832031 117.039062 258.777344 118.4375 L 258.777344 118.492188 C 258.777344 118.492188 258.699219 118.574219 258.617188 118.625 C 258.375 118.921875 258.105469 119.273438 257.753906 119.675781 C 257.917969 119.597656 257.96875 119.621094 258.132812 119.597656 C 258.484375 119.597656 258.832031 119.730469 259.101562 120 C 259.507812 120.402344 259.777344 120.671875 258.832031 122.074219 C 258.832031 122.074219 258.832031 122.074219 258.804688 122.101562 C 257.621094 123.824219 254.628906 127.21875 247.835938 134.460938 C 256.972656 125.492188 257.429688 125.492188 257.96875 125.492188 C 258.347656 125.441406 258.699219 125.628906 258.941406 125.898438 C 259.371094 126.328125 259.667969 126.625 258.375 128.375 C 258.5625 128.457031 258.753906 128.5625 258.886719 128.699219 C 259.265625 129.074219 259.535156 129.34375 258.589844 130.746094 L 258.589844 130.800781 C 258.589844 130.800781 258.535156 130.851562 258.507812 130.878906 C 256.839844 133.332031 251.796875 138.933594 238.480469 153.097656 C 256.945312 134.410156 257.054688 134.410156 257.78125 134.410156 C 258.132812 134.410156 258.484375 134.542969 258.726562 134.8125 C 259.183594 135.269531 259.453125 135.539062 258.507812 136.859375 C 258.507812 136.859375 258.507812 136.886719 258.484375 136.914062 C 258.292969 137.15625 258.078125 137.453125 257.808594 137.773438 C 258.132812 137.773438 258.429688 137.9375 258.644531 138.179688 C 259.074219 138.609375 259.34375 138.878906 258.429688 140.117188 L 258.484375 140.199219 C 258.484375 140.199219 258.265625 140.386719 258.050781 140.601562 C 256.59375 142.460938 253.199219 146.042969 246.082031 153.53125 C 245.921875 153.691406 245.785156 153.851562 245.625 154.015625 C 256.675781 143 256.972656 143 257.539062 143 C 257.890625 143 258.238281 143.132812 258.507812 143.402344 C 258.941406 143.859375 259.210938 144.105469 258.214844 145.476562 C 258.214844 145.476562 258.1875 145.503906 258.160156 145.53125 C 257.132812 146.929688 254.816406 149.464844 250.152344 154.390625 C 256.703125 147.953125 256.945312 147.953125 257.40625 147.953125 C 257.753906 147.953125 258.105469 148.089844 258.347656 148.359375 C 258.699219 148.707031 258.96875 148.976562 258.050781 150.324219 L 258.132812 150.433594 C 258.132812 150.433594 257.945312 150.59375 257.753906 150.753906 C 256.863281 151.996094 255.167969 153.960938 252.175781 157.21875 C 256.730469 152.613281 256.8125 152.613281 257.296875 152.613281 C 257.648438 152.613281 257.996094 152.75 258.238281 153.019531 C 258.589844 153.367188 258.832031 153.609375 258.050781 154.796875 L 258.1875 154.957031 C 258.1875 154.957031 257.753906 155.386719 257.132812 156.007812 C 256.273438 157.085938 254.925781 158.59375 252.902344 160.800781 C 256.40625 157.488281 256.730469 157.488281 257.132812 157.488281 C 257.484375 157.488281 257.863281 157.625 258.105469 157.890625 C 258.726562 158.511719 259.023438 158.808594 256.542969 161.664062 C 256.8125 161.5 256.917969 161.5 257.054688 161.5 C 257.402344 161.5 257.753906 161.636719 257.996094 161.90625 C 258.429688 162.335938 258.671875 162.578125 257.78125 163.871094 L 257.835938 163.953125 C 257.835938 163.953125 257.675781 164.085938 257.539062 164.222656 C 255.894531 166.429688 251.421875 171.144531 240.800781 182.425781 C 239.53125 183.773438 238.210938 185.175781 236.863281 186.601562 C 256.003906 167.320312 256.191406 167.320312 256.890625 167.320312 C 257.242188 167.320312 257.59375 167.453125 257.835938 167.722656 C 258.292969 168.179688 258.5625 168.449219 257.59375 169.796875 C 257.59375 169.796875 257.59375 169.796875 257.59375 169.824219 C 257.484375 169.984375 257.351562 170.144531 257.1875 170.335938 C 257.402344 170.390625 257.59375 170.523438 257.753906 170.683594 C 258.132812 171.0625 258.402344 171.332031 257.402344 172.785156 C 257.402344 172.785156 257.378906 172.839844 257.351562 172.839844 C 256.648438 173.808594 255.410156 175.316406 253.226562 177.714844 C 255.921875 175.210938 256.21875 175.210938 256.621094 175.210938 C 256.972656 175.210938 257.351562 175.34375 257.59375 175.613281 C 257.96875 175.992188 258.238281 176.261719 257.1875 177.714844 C 257.1875 177.714844 257.132812 177.792969 257.109375 177.792969 C 257 177.957031 256.863281 178.117188 256.730469 178.304688 C 257.027344 178.332031 257.296875 178.46875 257.511719 178.683594 C 257.890625 179.0625 258.132812 179.304688 257.296875 180.570312 L 257.378906 180.675781 C 257.378906 180.675781 257.109375 180.917969 256.839844 181.1875 C 255.4375 183.046875 252.28125 186.519531 245.785156 193.414062 C 251.636719 187.597656 254.117188 185.253906 255.246094 184.3125 C 255.300781 184.257812 255.355469 184.203125 255.382812 184.175781 C 256.054688 183.664062 256.21875 183.664062 256.40625 183.664062 C 256.757812 183.664062 257.109375 183.800781 257.378906 184.070312 C 257.890625 184.582031 258.132812 184.824219 257.109375 186.117188 C 257.109375 186.117188 257.027344 186.222656 256.972656 186.277344 C 256.054688 187.382812 254.332031 189.242188 251.203125 192.5 L 235.757812 208.710938 C 255.355469 189 255.542969 189 256.246094 188.972656 C 256.59375 188.972656 256.945312 189.105469 257.214844 189.375 C 257.671875 189.832031 257.945312 190.101562 256.945312 191.394531 L 256.945312 191.449219 C 256.945312 191.449219 256.863281 191.53125 256.785156 191.609375 C 255.570312 193.171875 252.820312 196.082031 247.214844 202.007812 C 244.574219 204.808594 241.527344 208.011719 238.210938 211.539062 C 255.003906 194.652344 255.355469 194.652344 256.082031 194.652344 C 256.433594 194.652344 256.785156 194.789062 257.054688 195.058594 C 257.699219 195.703125 255.140625 199.125 249.371094 205.320312 C 244.546875 210.460938 237.886719 217.574219 230.53125 225.410156 C 227.941406 228.183594 225.164062 231.121094 222.308594 234.164062 C 245.679688 210.730469 252.5 203.890625 254.734375 201.925781 C 254.734375 201.898438 254.761719 201.871094 254.789062 201.84375 C 255.625 201.117188 255.761719 201.117188 255.949219 201.117188 C 256.300781 201.117188 256.648438 201.253906 256.890625 201.523438 C 257.242188 201.871094 257.511719 202.140625 256.675781 203.378906 L 256.785156 203.515625 C 256.785156 203.515625 256.460938 203.8125 256.082031 204.1875 C 256.082031 204.1875 256.03125 204.242188 256.03125 204.269531 C 256.324219 204.296875 256.59375 204.457031 256.8125 204.644531 C 257.296875 205.128906 257.539062 205.371094 256.515625 206.746094 C 255.492188 208.066406 253.308594 210.4375 248.992188 215.09375 C 244.113281 220.347656 237.402344 227.5625 230.070312 235.457031 C 227.996094 237.691406 225.8125 240.007812 223.628906 242.375 C 224.625 241.378906 225.625 240.382812 226.59375 239.414062 C 234.167969 231.765625 241.203125 224.710938 246.351562 219.539062 C 250.613281 215.257812 252.929688 212.941406 254.277344 211.78125 C 254.464844 211.566406 254.574219 211.433594 254.628906 211.378906 L 254.707031 211.433594 C 255.949219 210.460938 256.191406 210.707031 256.675781 211.191406 C 257.132812 211.648438 257.378906 211.890625 256.488281 213.128906 L 256.542969 213.210938 C 256.542969 213.210938 256.324219 213.425781 256.082031 213.640625 C 255.300781 214.609375 253.980469 216.066406 251.851562 218.328125 C 254.925781 215.417969 255.195312 215.417969 255.570312 215.417969 C 255.921875 215.417969 256.273438 215.554688 256.542969 215.820312 C 256.945312 216.199219 257.214844 216.46875 256.21875 217.921875 C 256.21875 217.921875 256.191406 217.976562 256.164062 217.976562 C 254.464844 220.425781 249.210938 226.191406 235.140625 241.246094 L 248.292969 228.050781 C 251.339844 224.980469 253.089844 223.226562 254.167969 222.3125 C 254.222656 222.257812 254.25 222.203125 254.277344 222.152344 L 254.304688 222.152344 C 255.597656 221.101562 255.839844 221.34375 256.378906 221.855469 C 256.839844 222.3125 257.082031 222.554688 256.273438 223.765625 L 256.324219 223.820312 C 256.324219 223.820312 256.164062 223.980469 256.003906 224.144531 C 254.707031 225.867188 251.609375 229.207031 245.058594 236.234375 C 250.585938 230.714844 253.011719 228.316406 254.144531 227.292969 C 255.003906 226.515625 255.113281 226.539062 255.355469 226.515625 C 255.707031 226.515625 256.054688 226.648438 256.300781 226.917969 C 256.675781 227.292969 256.945312 227.5625 256.164062 228.777344 L 256.246094 228.882812 C 256.246094 228.882812 256.03125 229.097656 255.785156 229.339844 C 254.816406 230.6875 252.929688 232.898438 249.425781 236.722656 C 251.90625 234.296875 253.253906 233.003906 254.035156 232.332031 C 254.035156 232.332031 254.035156 232.332031 254.0625 232.304688 C 254.898438 231.605469 255.03125 231.605469 255.222656 231.605469 C 255.570312 231.605469 255.921875 231.738281 256.164062 232.007812 C 256.542969 232.386719 256.8125 232.652344 255.949219 233.894531 L 256.03125 234.027344 C 256.03125 234.027344 255.8125 234.214844 255.597656 234.433594 C 255.785156 234.484375 255.976562 234.621094 256.109375 234.753906 C 256.488281 235.132812 256.730469 235.375 255.839844 236.585938 L 255.976562 236.746094 C 255.976562 236.746094 255.464844 237.234375 254.84375 237.851562 C 253.039062 240.007812 249.398438 243.910156 242.496094 251.316406 C 242.363281 251.453125 242.253906 251.585938 242.121094 251.722656 C 254.277344 239.496094 254.4375 239.496094 255.03125 239.496094 C 255.382812 239.386719 255.734375 239.628906 255.976562 239.898438 C 256.324219 240.25 256.59375 240.519531 255.734375 241.835938 L 255.8125 241.945312 C 255.8125 241.945312 255.625 242.105469 255.464844 242.269531 C 253.820312 244.613281 249.425781 249.675781 238.777344 261.523438 C 241.3125 258.992188 243.65625 256.625 245.707031 254.578125 C 251.761719 248.507812 255.132812 245.804688 255.8125 246.46875 C 256.21875 246.875 256.460938 247.144531 255.625 248.4375 L 255.679688 248.488281 C 255.679688 248.488281 255.542969 248.597656 255.4375 248.707031 C 253.953125 250.859375 249.855469 255.4375 239.992188 266.292969 C 243.332031 262.925781 247 259.207031 251.015625 255.167969 C 252.308594 253.875 253.0625 253.09375 253.550781 252.664062 C 253.601562 252.609375 253.628906 252.582031 253.628906 252.554688 C 254.25 252.019531 254.386719 252.019531 254.683594 252.019531 C 255.03125 252.019531 255.382812 252.152344 255.625 252.421875 C 256.003906 252.800781 256.21875 253.015625 255.464844 254.171875 L 255.625 254.335938 C 255.625 254.335938 255.167969 254.792969 254.464844 255.492188 C 252.792969 257.59375 249.480469 261.335938 243.226562 268.417969 C 242.175781 269.605469 241.070312 270.871094 239.9375 272.164062 C 248.722656 263.300781 251.984375 260.015625 253.359375 258.804688 C 253.359375 258.804688 253.359375 258.804688 253.359375 258.777344 C 254.144531 258.078125 254.304688 258.078125 254.519531 258.105469 C 254.871094 258.105469 255.222656 258.238281 255.464844 258.507812 C 255.867188 258.914062 256.109375 259.15625 255.273438 260.394531 L 255.355469 260.5 C 255.355469 260.5 255.113281 260.742188 254.84375 261.011719 C 253.65625 262.628906 251.152344 265.511719 246.324219 270.925781 C 251.304688 265.914062 253.980469 263.410156 254.359375 263.410156 C 254.707031 263.410156 255.058594 263.542969 255.300781 263.8125 C 255.679688 264.191406 255.949219 264.460938 255.140625 265.644531 L 255.246094 265.753906 C 255.246094 265.753906 254.953125 266.050781 254.574219 266.425781 C 254.492188 266.535156 254.414062 266.640625 254.304688 266.777344 C 254.65625 266.777344 254.976562 266.9375 255.222656 267.179688 C 255.597656 267.558594 255.839844 267.800781 254.976562 269.144531 L 255.03125 269.226562 C 255.03125 269.226562 254.898438 269.363281 254.761719 269.46875 C 253.65625 271.085938 251.230469 274.101562 246.296875 280.054688 C 247.511719 278.816406 248.589844 277.738281 249.480469 276.847656 C 252.191406 274.101562 253.738281 272.726562 254.117188 272.726562 C 254.574219 272.753906 254.816406 272.863281 255.058594 273.132812 C 255.464844 273.535156 255.707031 273.777344 254.953125 274.992188 L 255.03125 275.070312 C 255.03125 275.070312 254.84375 275.261719 254.601562 275.503906 C 253.820312 276.632812 252.390625 278.382812 249.992188 281.292969 C 251.125 280.1875 251.960938 279.40625 252.605469 278.867188 C 252.714844 278.734375 252.792969 278.625 252.820312 278.574219 L 252.902344 278.625 C 254.222656 277.550781 254.464844 277.816406 254.925781 278.277344 C 255.300781 278.652344 255.542969 278.894531 254.734375 280.1875 L 254.816406 280.269531 C 254.816406 280.269531 254.65625 280.429688 254.492188 280.59375 C 254.0625 281.238281 253.441406 282.101562 252.550781 283.257812 C 253.414062 282.503906 253.578125 282.503906 253.898438 282.503906 C 254.277344 282.503906 254.628906 282.664062 254.871094 282.933594 C 255.355469 283.457031 254.429688 285.53125 252.09375 289.15625 C 251.554688 290.019531 250.90625 291.015625 250.207031 292.09375 C 250.613281 291.660156 250.988281 291.3125 251.285156 290.988281 C 253.171875 289.074219 253.171875 289.074219 253.765625 289.101562 C 254.089844 289.101562 254.414062 289.238281 254.65625 289.480469 C 255.355469 290.152344 255.410156 290.207031 253.117188 294.355469 C 253.710938 293.976562 253.980469 294.164062 254.492188 294.652344 C 254.761719 294.894531 254.925781 295.269531 254.925781 295.648438 C 254.925781 295.726562 254.871094 296.050781 254.871094 296.132812 C 254.761719 296.695312 254.492188 298.179688 254.25 299.5 C 254.84375 299.929688 255.003906 300.738281 254.601562 301.355469 C 254.546875 301.4375 254.464844 301.519531 254.386719 301.597656 L 253.683594 302.300781 C 253.332031 302.648438 253.0625 302.917969 252.5 302.917969 C 252.121094 302.917969 251.769531 302.757812 251.527344 302.488281 C 251.175781 302.109375 251.070312 302.003906 251.472656 299.6875 C 248.265625 302.917969 248.238281 302.917969 247.644531 302.917969 C 247.296875 302.917969 246.972656 302.785156 246.703125 302.542969 C 246.109375 301.949219 245.976562 301.8125 247.890625 298.3125 C 243.304688 302.945312 243.171875 302.945312 242.605469 302.945312 C 242.226562 302.890625 241.878906 302.8125 241.636719 302.542969 C 240.960938 301.839844 240.828125 301.734375 246.109375 293.519531 C 245.246094 294.40625 244.382812 295.269531 243.601562 296.050781 C 240.449219 299.253906 238.644531 301.085938 237.511719 302.054688 C 237.375 302.246094 237.269531 302.351562 237.242188 302.378906 L 237.160156 302.324219 C 236.566406 302.8125 236.21875 303 235.949219 303 Z M 236.054688 302.890625 " fill-opacity="1" fill-rule="nonzero"/><g clip-path="url(#0422f2d5b4)"><path fill="#000000" d="M 103.703125 178.683594 L 103.785156 180.085938 C 103.785156 180.085938 104.132812 180.328125 104.457031 180.570312 C 104.457031 180.839844 104.457031 181.082031 104.457031 181.351562 C 110.332031 185.632812 116.15625 189.996094 122.085938 194.195312 L 138.878906 206.207031 C 138.878906 206.207031 139.851562 206.90625 139.851562 206.90625 C 143.597656 205.535156 147.34375 204.105469 151.089844 202.625 C 155.375 201.253906 159.636719 199.769531 163.839844 198.15625 C 164.164062 203.785156 164.515625 209.976562 164.890625 216.441406 C 165.351562 226.78125 165.863281 237.285156 166.375 247.707031 C 166.375 248.003906 166.375 248.273438 166.375 248.570312 L 163.4375 281.480469 L 163.328125 282.71875 L 164.246094 283.582031 L 189.988281 307.121094 C 189.988281 307.121094 194.03125 307.390625 194.03125 307.390625 C 194.03125 307.390625 195.539062 307.441406 198.046875 307.605469 C 197.96875 307.496094 191.226562 301.355469 184.136719 294.867188 C 192.277344 301.085938 200.417969 307.308594 200.417969 307.308594 C 200.417969 307.308594 200.769531 307.578125 200.769531 307.578125 C 202.953125 307.523438 205.460938 307.441406 208.15625 307.335938 C 222.578125 307.738281 240.019531 308.386719 254.332031 308.574219 C 254.222656 310.164062 254.195312 310.945312 254.222656 310.808594 L 198.507812 307.632812 C 212.414062 308.519531 254.332031 311.457031 254.414062 311.292969 C 254.386719 311.238281 254.414062 310.269531 254.574219 308.574219 C 256.597656 308.574219 258.589844 308.601562 260.476562 308.628906 C 260.476562 308.628906 260.558594 306.984375 260.558594 306.984375 C 260.558594 306.445312 260.613281 305.90625 260.613281 305.394531 C 262.175781 305.34375 263.683594 305.289062 265.058594 305.234375 L 267.242188 305.152344 C 267.242188 305.152344 267.1875 302.917969 267.1875 302.917969 C 266.730469 269.363281 265.839844 233.410156 264.761719 197.402344 C 269.320312 148.035156 273.496094 101.253906 272.851562 100.988281 L 261.042969 90.105469 C 261.042969 89.730469 261.015625 89.324219 260.988281 88.949219 L 260.988281 87.898438 C 260.988281 87.898438 260.125 87.332031 260.125 87.332031 L 251.285156 81.109375 L 244.871094 75.1875 L 244.574219 74.917969 L 244.140625 74.917969 C 244.140625 74.917969 242.253906 74.753906 242.253906 74.753906 L 227.160156 64.171875 C 227.160156 64.171875 226.730469 63.847656 226.730469 63.847656 C 216.566406 64.628906 203.679688 65.382812 191.714844 66.082031 C 187.375 66.082031 183.058594 66.082031 178.71875 66.082031 C 178.585938 66.351562 178.449219 66.59375 178.316406 66.863281 C 177.101562 66.945312 175.863281 67.027344 174.703125 67.078125 C 174.703125 67.078125 174.109375 67.105469 174.109375 67.105469 C 174.109375 67.105469 173.894531 67.617188 173.894531 67.617188 C 173.382812 68.992188 172.816406 70.3125 172.222656 71.632812 C 171.46875 71.683594 170.6875 71.710938 169.90625 71.765625 C 165.808594 81.621094 160.039062 90.753906 152.949219 98.644531 C 151.898438 99.476562 150.847656 100.339844 149.742188 101.148438 C 137.046875 110.277344 122.300781 116.335938 107.503906 121.265625 C 107.503906 122.425781 107.503906 123.664062 107.476562 124.875 C 106.183594 125.332031 104.863281 125.789062 103.539062 126.222656 L 103.539062 127.488281 C 103.539062 127.488281 103.566406 129.480469 103.566406 129.882812 C 102.949219 130.125 102.328125 130.394531 101.734375 130.636719 C 102.410156 144.9375 102.894531 164.492188 103.648438 178.628906 Z M 172.761719 74.703125 C 173.222656 74.648438 173.652344 74.621094 174.109375 74.566406 C 172.359375 77.449219 170.445312 80.25 168.371094 82.941406 C 168.558594 82.59375 168.71875 82.214844 168.910156 81.863281 C 170.285156 79.523438 171.578125 77.152344 172.761719 74.703125 Z M 262.308594 123.554688 C 262.015625 115.609375 261.746094 107.746094 261.449219 100.015625 C 261.988281 100.449219 262.527344 100.878906 263.039062 101.308594 C 262.847656 108.609375 262.605469 116.042969 262.308594 123.554688 Z M 168.773438 280.835938 C 168.773438 280.242188 168.773438 279.648438 168.773438 279.085938 C 168.800781 279.597656 168.855469 280.160156 168.882812 280.644531 L 169.367188 280.96875 L 173.195312 283.472656 C 173.195312 283.933594 173.195312 284.445312 173.195312 284.875 C 171.308594 283.152344 169.746094 281.722656 168.800781 280.835938 Z M 109.335938 177.015625 C 109.28125 175.480469 109.203125 173.96875 109.121094 172.433594 L 115.320312 177.230469 C 115.320312 177.742188 115.320312 178.304688 115.292969 178.792969 L 115.292969 180.191406 C 115.292969 180.191406 116.34375 181.054688 116.34375 181.054688 L 124.59375 187.679688 L 109.335938 176.960938 Z M 211.335938 71.496094 C 214.167969 71.390625 214.949219 71.363281 217.265625 71.253906 C 218.265625 71.953125 219.289062 72.65625 220.3125 73.355469 L 203.195312 72.25 C 206.054688 72.007812 208.804688 71.765625 211.363281 71.496094 Z M 228.832031 70.796875 L 233.414062 74.191406 L 223.816406 73.570312 C 222.660156 72.761719 221.527344 71.925781 220.367188 71.121094 C 223.0625 71.011719 228.589844 70.796875 228.832031 70.796875 Z M 247.753906 84.910156 C 249.613281 86.363281 251.5 87.816406 253.359375 89.296875 C 253.359375 89.945312 253.359375 90.589844 253.359375 91.238281 C 247.835938 86.710938 242.308594 82.1875 236.757812 77.691406 L 236.488281 77.476562 L 236.136719 77.476562 C 233.816406 77.476562 231.527344 77.421875 229.207031 77.394531 C 228.722656 77.042969 228.210938 76.695312 227.726562 76.34375 C 231.851562 76.585938 234.707031 76.75 237 76.882812 L 247.78125 84.910156 Z M 256.300781 91.265625 C 256.300781 91.828125 256.351562 92.609375 256.378906 93.6875 C 255.976562 93.335938 255.542969 93.015625 255.113281 92.664062 C 255.113281 91.910156 255.113281 91.128906 255.113281 90.375 Z M 257.753906 264.21875 C 257.457031 267.855469 257.1875 271.382812 256.917969 274.75 C 256.515625 262.144531 256.03125 249.324219 255.492188 236.53125 C 255.652344 221.449219 255.761719 206.421875 255.785156 191.960938 C 255.867188 160.640625 254.976562 126.652344 255.085938 94.898438 C 255.515625 95.25 255.949219 95.601562 256.40625 95.949219 C 256.785156 115.3125 257.539062 181.429688 258.375 232.410156 C 258.132812 242.96875 257.917969 253.632812 257.753906 264.246094 Z M 231.929688 79.332031 C 233.171875 79.28125 234.382812 79.226562 235.515625 79.171875 C 241.417969 83.9375 247.375 88.652344 253.28125 93.417969 C 253.011719 115.960938 252.308594 139.6875 251.769531 162.847656 C 250.261719 138.691406 248.507812 113.941406 247.429688 90.5625 L 247.429688 90.132812 C 247.429688 90.132812 247.054688 89.890625 247.054688 89.890625 C 241.957031 86.445312 236.945312 82.886719 231.902344 79.359375 Z M 232.28125 296.964844 C 217.96875 297.558594 203.628906 298.152344 203.628906 298.152344 L 201.230469 296.265625 C 211.796875 296.375 224.03125 296.589844 235.570312 296.671875 C 234.492188 296.777344 233.386719 296.859375 232.28125 296.964844 Z M 257.109375 280.324219 C 257.269531 278.597656 257.429688 276.820312 257.59375 274.964844 C 257.511719 280.132812 257.457031 285.277344 257.40625 290.367188 C 257.296875 287.027344 257.214844 283.6875 257.109375 280.324219 Z M 195.972656 74.511719 C 196.941406 74.566406 210.691406 75.347656 224.328125 76.128906 C 224.921875 76.53125 225.515625 76.9375 226.082031 77.339844 C 215.570312 77.234375 205.054688 77.070312 194.542969 76.9375 C 195.027344 76.128906 195.515625 75.320312 195.972656 74.511719 Z M 229.074219 79.414062 C 234.625 83.238281 240.179688 87.117188 245.679688 91.046875 C 247.132812 124.28125 247.59375 160.53125 248.941406 193.628906 C 249.480469 207.660156 250.152344 222.230469 250.90625 236.882812 C 250.882812 255.976562 250.960938 275.125 251.125 293.382812 C 236.21875 293.976562 215.839844 294.570312 200.230469 295.457031 L 176.050781 276.363281 C 176.050781 276.066406 176.050781 275.769531 176.050781 275.476562 C 177.210938 248.8125 178.746094 208.523438 179.503906 185.578125 C 178.449219 186.089844 177.371094 186.519531 176.320312 187.003906 C 176.320312 185.335938 176.320312 183.71875 176.320312 182.128906 L 176.320312 178.332031 C 176.320312 178.332031 172.898438 180.085938 172.898438 180.085938 C 172.359375 180.351562 171.765625 180.621094 171.226562 180.890625 C 171.253906 178.84375 171.308594 176.851562 171.335938 174.992188 C 160.984375 180.164062 150.175781 184.472656 139.09375 188.054688 L 121.117188 174.429688 C 121.25 168.234375 121.359375 162.039062 121.464844 155.847656 L 121.84375 134.570312 C 135.886719 129.804688 149.742188 123.90625 161.925781 114.992188 C 170.984375 108.339844 178.695312 99.964844 184.757812 90.5625 C 187.667969 87.171875 190.367188 83.589844 192.765625 79.816406 C 204.355469 79.523438 218.238281 79.683594 229.101562 79.359375 Z M 170.660156 256.058594 L 172.683594 231.46875 C 172.789062 235.832031 173.085938 247.007812 173.355469 257.242188 C 173.300781 264.273438 173.25 270.84375 173.222656 276.714844 L 171.199219 275.042969 C 171.066406 269.390625 170.875 262.925781 170.6875 256.058594 Z M 171.683594 185.957031 C 171.683594 186.898438 171.710938 187.839844 171.738281 188.757812 C 171.523438 188.835938 171.28125 188.917969 171.039062 189 C 171.039062 188.082031 171.066406 187.140625 171.09375 186.25 C 171.28125 186.144531 171.46875 186.0625 171.683594 185.957031 Z M 160.984375 190.9375 C 161.792969 190.585938 162.601562 190.238281 163.382812 189.886719 C 163.410156 190.425781 163.4375 191.019531 163.492188 191.582031 C 160.335938 192.582031 157.15625 193.523438 153.949219 194.382812 C 156.320312 193.28125 158.664062 192.148438 160.984375 190.9375 Z M 171.199219 195.191406 L 170.875 198.9375 C 170.875 197.695312 170.929688 196.511719 170.957031 195.328125 C 171.039062 195.300781 171.144531 195.246094 171.226562 195.21875 Z M 175.890625 278.894531 L 199.097656 295.539062 C 198.128906 295.59375 197.160156 295.648438 196.214844 295.699219 L 175.890625 278.921875 C 175.890625 278.921875 175.890625 278.894531 175.890625 278.867188 Z M 159.285156 111.4375 C 147.882812 119.328125 134.945312 124.792969 121.761719 129.183594 L 121.925781 127.324219 C 126.777344 125.441406 131.519531 123.3125 136.128906 120.96875 C 144.730469 118.140625 153.167969 114.640625 160.984375 110.171875 C 160.417969 110.601562 159.851562 111.03125 159.285156 111.460938 Z M 118.230469 129.128906 C 118.230469 129.371094 118.152344 130.074219 118.125 130.367188 C 117.828125 130.449219 117.558594 130.558594 117.261719 130.636719 C 117.261719 130.289062 117.261719 129.964844 117.261719 129.613281 C 117.585938 129.453125 117.910156 129.292969 118.257812 129.128906 Z M 171.253906 279.328125 C 171.253906 278.894531 171.253906 278.410156 171.226562 277.953125 L 173.167969 279.378906 C 173.167969 279.839844 173.167969 280.296875 173.167969 280.726562 Z M 175.753906 281.292969 L 196 296.210938 C 197.320312 296.210938 198.667969 296.210938 200.042969 296.238281 L 203.410156 298.664062 C 203.410156 298.664062 212.523438 298.394531 218.238281 298.230469 C 211.527344 298.878906 205.054688 299.523438 199.421875 300.171875 L 175.703125 282.585938 C 175.703125 282.152344 175.726562 281.695312 175.753906 281.265625 Z M 193.679688 72.976562 C 192.925781 74.296875 192.171875 75.617188 191.363281 76.882812 C 190.527344 76.882812 189.691406 76.855469 188.828125 76.855469 C 186.050781 82.429688 182.683594 87.683594 178.882812 92.609375 C 174.085938 97.484375 168.746094 101.847656 162.898438 105.457031 C 159.582031 107.476562 156.183594 109.308594 152.679688 110.949219 C 165.917969 101.445312 176.914062 89.246094 183.976562 73.730469 C 187.183594 73.488281 190.417969 73.246094 193.652344 73.003906 Z M 107.394531 134.945312 L 107.339844 134.003906 C 107.339844 134.003906 107.367188 134.003906 107.394531 134.003906 C 107.394531 134.328125 107.394531 134.652344 107.394531 134.972656 Z M 140.199219 200.28125 L 141.683594 201.46875 C 141.332031 201.601562 140.984375 201.738281 140.605469 201.84375 L 139.070312 200.714844 C 139.445312 200.578125 139.824219 200.417969 140.199219 200.253906 Z M 199.339844 300.710938 C 215.839844 299.957031 238.265625 299.308594 255.113281 298.230469 C 255.03125 299.335938 254.953125 300.386719 254.871094 301.355469 C 238.132812 302.460938 214.625 303.996094 201.550781 304.992188 C 201.417969 304.882812 197.320312 302.082031 195.351562 300.738281 L 181.792969 289.128906 L 199.339844 300.683594 Z M 255.222656 301.355469 C 255.300781 300.386719 255.410156 299.335938 255.492188 298.230469 C 256.109375 298.207031 256.730469 298.152344 257.351562 298.125 C 257.351562 299.175781 257.351562 300.199219 257.324219 301.25 C 256.648438 301.300781 255.949219 301.328125 255.222656 301.382812 Z M 180.6875 69.152344 C 180.902344 69.152344 181.09375 69.152344 181.308594 69.125 C 180.984375 69.855469 180.632812 70.554688 180.285156 71.28125 C 180.066406 71.28125 179.851562 71.28125 179.636719 71.308594 C 179.988281 70.582031 180.335938 69.878906 180.6875 69.152344 Z M 178.882812 74.136719 C 172.738281 85.878906 164.191406 96.300781 153.707031 104.300781 C 153.570312 104.40625 153.4375 104.488281 153.300781 104.566406 C 153.894531 103.949219 154.460938 103.328125 155.027344 102.683594 C 164.570312 94.847656 172.441406 85.070312 178.207031 74.191406 C 178.425781 74.191406 178.640625 74.164062 178.882812 74.136719 Z M 174.542969 286.113281 L 178.9375 289.480469 C 177.722656 288.644531 177.050781 288.1875 176.050781 287.488281 C 175.539062 287 175.027344 286.542969 174.542969 286.113281 Z M 261.71875 277.816406 C 262.015625 285.601562 262.308594 293.304688 262.605469 300.871094 C 262.015625 300.898438 261.449219 300.953125 260.828125 300.980469 C 261.152344 293.359375 261.449219 285.628906 261.71875 277.816406 Z M 271.449219 102.523438 C 271.015625 103.625 267.863281 140.523438 264.359375 182.992188 C 264.277344 180.351562 264.195312 177.742188 264.117188 175.101562 C 264.304688 150.351562 264.277344 124.902344 264.84375 100.960938 L 264.84375 100.527344 C 264.84375 100.527344 264.519531 100.257812 264.519531 100.257812 C 263.46875 99.425781 262.445312 98.5625 261.394531 97.726562 C 261.339844 96.21875 261.285156 94.738281 261.230469 93.230469 C 266.597656 98.105469 271.152344 102.226562 271.476562 102.523438 Z M 175.378906 68.910156 C 176.023438 68.882812 176.671875 68.855469 177.347656 68.832031 C 176.886719 69.71875 176.429688 70.632812 175.945312 71.523438 C 175.378906 71.550781 174.785156 71.578125 174.21875 71.632812 C 174.625 70.742188 175.027344 69.855469 175.40625 68.9375 Z M 175.378906 68.910156 " fill-opacity="1" fill-rule="nonzero"/></g><path fill="#ffffff" d="M 230.746094 73.03125 L 225.703125 279.085938 L 169.042969 279.085938 C 169.042969 279.085938 172.332031 144.078125 172.332031 144.078125 C 162.976562 151.078125 153.976562 156.761719 145.296875 161.070312 C 136.617188 165.378906 125.753906 169.554688 112.734375 173.511719 L 113.863281 127.351562 C 133.085938 121.183594 148.070312 113.777344 158.855469 105.105469 C 169.609375 96.460938 178.128906 85.769531 184.382812 73.03125 Z M 230.746094 73.03125 " fill-opacity="1" fill-rule="nonzero"/></svg>