<svg xmlns="http://www.w3.org/2000/svg" xmlns:xlink="http://www.w3.org/1999/xlink" width="500" zoomAndPan="magnify" viewBox="0 0 375 374.999991" height="500" preserveAspectRatio="xMidYMid meet" version="1.0"><defs><clipPath id="93d6e2f650"><path d="M 76.894531 65 L 291 65 L 291 311.246094 L 76.894531 311.246094 Z M 76.894531 65 " clip-rule="nonzero"/></clipPath></defs><path fill="#000000" d="M 221.015625 231 C 220.722656 231 220.535156 230.789062 220.242188 230.523438 C 219.710938 230.015625 219.710938 229.164062 220.242188 228.628906 C 220.296875 228.578125 220.347656 228.550781 220.402344 228.496094 C 221.175781 227.777344 228.34375 220.558594 235.882812 212.910156 C 271.992188 176.386719 272.152344 176.386719 273.03125 176.386719 C 273.402344 176.304688 273.722656 176.519531 273.988281 176.785156 C 274.390625 177.1875 274.65625 177.453125 273.695312 178.8125 C 273.695312 178.8125 273.644531 178.890625 273.589844 178.945312 C 272.65625 180.277344 270.660156 182.621094 266.796875 186.988281 C 267.0625 186.804688 267.195312 186.828125 267.328125 186.804688 L 267.328125 188.136719 C 267.328125 188.136719 266.367188 189.066406 266.367188 189.066406 L 267.328125 188.136719 L 268.15625 189.175781 C 267.355469 189.839844 254.671875 202.601562 247.101562 210.222656 C 242.121094 215.230469 239.960938 217.386719 238.949219 218.320312 C 238.949219 218.320312 238.949219 218.347656 238.921875 218.375 C 238.175781 219.039062 238.042969 219.039062 237.804688 219.039062 C 237.457031 219.039062 237.109375 218.90625 236.871094 218.640625 C 236.496094 218.265625 236.257812 218.027344 237.03125 216.828125 L 236.921875 216.695312 C 236.921875 216.695312 237.21875 216.402344 237.617188 216.027344 C 238.710938 214.589844 240.8125 212.167969 244.570312 207.957031 C 242.226562 210.328125 239.960938 212.617188 237.828125 214.75 C 233.460938 219.171875 229.570312 223.117188 226.746094 225.941406 C 222.878906 229.828125 221.734375 230.976562 221.070312 230.976562 Z M 221.015625 231 " fill-opacity="1" fill-rule="nonzero"/><path fill="#000000" d="M 171.824219 300.617188 C 171.558594 300.617188 171.34375 300.429688 171.078125 300.164062 C 170.597656 299.683594 170.359375 299.445312 171.238281 298.246094 L 171.183594 298.191406 C 171.183594 298.191406 171.371094 298.003906 171.558594 297.820312 C 172.597656 296.511719 174.675781 294.273438 178.511719 290.171875 C 180.003906 288.574219 181.65625 286.789062 183.46875 284.871094 C 167.933594 300.5625 167.800781 300.5625 167.136719 300.5625 C 166.789062 300.5625 166.441406 300.429688 166.203125 300.164062 C 165.800781 299.789062 165.5625 299.523438 166.441406 298.21875 L 166.390625 298.136719 C 166.390625 298.136719 166.523438 298.03125 166.65625 297.925781 C 167.160156 297.207031 167.988281 296.21875 169.214844 294.808594 C 163.351562 300.5625 163.085938 300.5625 162.65625 300.5625 C 162.3125 300.5625 161.964844 300.429688 161.699219 300.164062 C 161.058594 299.523438 160.765625 299.230469 163.964844 295.609375 C 162.738281 296.859375 161.484375 298.136719 160.207031 299.417969 C 159.140625 300.484375 158.980469 300.667969 158.316406 300.535156 C 158.046875 300.484375 157.78125 300.351562 157.570312 300.164062 C 157.222656 299.816406 156.957031 299.550781 157.703125 298.40625 L 157.570312 298.273438 L 158.289062 297.527344 C 158.527344 297.207031 158.820312 296.859375 159.140625 296.433594 C 155.011719 300.535156 154.851562 300.535156 154.503906 300.535156 C 154.15625 300.535156 153.8125 300.402344 153.570312 300.136719 C 153.226562 299.789062 152.933594 299.523438 153.730469 298.296875 L 153.652344 298.191406 C 153.652344 298.191406 153.863281 297.976562 154.132812 297.738281 C 155.4375 295.953125 158.421875 292.597656 164.761719 285.910156 C 156.289062 294.460938 152.71875 298.03125 151.121094 299.496094 C 150.878906 299.761719 150.71875 299.921875 150.667969 300.003906 L 150.613281 299.949219 C 149.921875 300.535156 149.839844 300.535156 149.601562 300.535156 C 149.253906 300.535156 148.90625 300.402344 148.667969 300.136719 C 148.242188 299.710938 148.003906 299.46875 148.5625 298.644531 C 146.003906 301.015625 145.738281 300.75 145.125 300.136719 C 144.859375 299.871094 144.617188 299.628906 144.777344 299.125 C 144.246094 299.65625 143.953125 300.003906 143.871094 300.054688 L 143.765625 299.949219 C 143.125 300.507812 143.019531 300.507812 142.859375 300.507812 C 142.511719 300.507812 142.167969 300.375 141.925781 300.109375 C 141.394531 299.578125 141.179688 299.363281 142.085938 298.21875 L 142.03125 298.136719 C 142.03125 298.136719 142.328125 297.84375 142.699219 297.5 C 143.527344 296.59375 144.804688 295.261719 146.777344 293.238281 L 159.726562 279.941406 C 159.726562 279.941406 159.964844 279.703125 160.101562 279.570312 C 139.128906 300.484375 138.808594 300.484375 138.277344 300.484375 C 137.929688 300.484375 137.582031 300.351562 137.34375 300.082031 C 136.597656 299.335938 136.199219 298.9375 143.097656 291.398438 C 134.652344 299.65625 133.425781 300.484375 132.8125 300.484375 C 132.46875 300.484375 132.09375 300.324219 131.855469 300.082031 C 131.640625 299.871094 131.453125 299.683594 131.425781 299.390625 C 130.175781 300.484375 129.933594 300.5625 129.722656 300.484375 C 129.375 300.484375 129.03125 300.351562 128.761719 300.082031 C 127.910156 299.230469 127.535156 298.882812 138.089844 287.667969 C 125.191406 300.457031 124.925781 300.457031 124.445312 300.457031 C 124.097656 300.457031 123.753906 300.324219 123.511719 300.054688 C 123.195312 299.738281 122.925781 299.46875 123.488281 298.539062 C 121.460938 300.457031 121.25 300.457031 120.980469 300.457031 C 120.636719 300.457031 120.289062 300.324219 120.050781 300.054688 C 119.890625 299.898438 119.730469 299.738281 119.675781 299.550781 C 119.570312 299.65625 119.464844 299.738281 119.355469 299.816406 C 119.304688 299.871094 119.277344 299.921875 119.25 299.921875 C 118.609375 300.429688 118.421875 300.429688 118.238281 300.429688 C 117.890625 300.429688 117.542969 300.296875 117.277344 300.03125 C 117.089844 299.84375 116.929688 299.710938 116.878906 299.523438 C 115.8125 300.429688 115.597656 300.429688 115.359375 300.429688 C 115.011719 300.429688 114.667969 300.296875 114.398438 300.03125 C 113.441406 299.070312 113.175781 298.804688 126.765625 284.605469 C 112.320312 298.9375 110.695312 300.136719 110.003906 300.136719 C 109.65625 300.136719 109.285156 300.003906 109.042969 299.738281 C 108.617188 299.3125 108.324219 299.015625 109.203125 297.710938 C 108.429688 298.324219 108.03125 298.378906 107.925781 298.457031 C 107.578125 298.457031 107.207031 298.324219 106.964844 298.058594 C 106.617188 297.738281 106.378906 297.472656 106.804688 296.621094 C 106.351562 296.941406 106.113281 296.859375 106.03125 296.941406 C 105.6875 296.941406 105.339844 296.804688 105.074219 296.539062 C 104.167969 295.632812 103.980469 295.472656 113.574219 285.457031 C 104.859375 294.0625 103.847656 294.703125 103.261719 294.703125 C 102.914062 294.703125 102.542969 294.566406 102.300781 294.300781 C 101.609375 293.609375 101.234375 293.234375 106.832031 287.003906 C 102.433594 291.160156 100.863281 292.332031 100.355469 292.332031 C 100.011719 292.332031 99.636719 292.171875 99.398438 291.929688 C 98.863281 291.398438 98.464844 291 102.140625 286.734375 C 100.648438 288.199219 99.71875 289.082031 99.132812 289.585938 C 99.132812 289.585938 99.132812 289.585938 99.132812 289.613281 C 98.277344 290.359375 98.144531 290.359375 97.957031 290.359375 C 97.613281 290.359375 97.265625 290.226562 97.027344 289.960938 C 96.625 289.558594 96.359375 289.292969 97.1875 288.042969 L 97.132812 287.988281 C 97.132812 287.988281 97.265625 287.882812 97.371094 287.75 C 98.839844 285.671875 102.886719 281.300781 112.722656 271.070312 C 102.59375 281.167969 98.4375 285.242188 96.601562 286.867188 C 96.253906 287.242188 96.039062 287.457031 95.988281 287.507812 L 95.933594 287.457031 C 95.320312 287.960938 95.160156 287.960938 95 287.960938 C 94.628906 288.066406 94.308594 287.828125 94.042969 287.5625 C 93.613281 287.109375 93.375 286.867188 94.335938 285.644531 L 94.253906 285.535156 C 94.253906 285.535156 94.601562 285.242188 94.972656 284.898438 C 96.066406 283.644531 97.984375 281.648438 101.210938 278.316406 C 94.707031 284.550781 92.976562 285.855469 92.441406 285.855469 C 92.097656 285.855469 91.722656 285.695312 91.484375 285.457031 C 90.417969 284.390625 90.203125 284.179688 107.390625 266.355469 C 91.617188 282.125 90.019531 283.273438 89.273438 283.273438 C 88.925781 283.273438 88.550781 283.140625 88.3125 282.871094 C 88.019531 282.578125 87.78125 282.339844 87.992188 281.808594 C 87.804688 281.914062 87.78125 281.914062 87.59375 281.914062 C 87.246094 281.914062 86.898438 281.78125 86.660156 281.515625 C 85.40625 280.289062 85.246094 280.101562 111.308594 253.246094 C 93.109375 271.601562 87.59375 277.066406 85.675781 278.691406 C 85.621094 278.742188 85.59375 278.796875 85.566406 278.824219 C 84.875 279.382812 84.714844 279.382812 84.527344 279.382812 C 84.183594 279.382812 83.835938 279.25 83.570312 278.984375 C 83.117188 278.53125 82.875 278.289062 83.835938 277.011719 L 83.78125 276.933594 C 83.78125 276.933594 83.996094 276.746094 84.207031 276.558594 C 84.609375 276.078125 85.140625 275.492188 85.859375 274.71875 C 84.207031 276.132812 83.597656 276.453125 83.304688 276.480469 C 82.902344 276.371094 82.582031 276.320312 82.316406 276.078125 C 81.917969 275.679688 81.652344 275.414062 82.796875 273.949219 C 82.796875 273.949219 82.824219 273.921875 82.851562 273.894531 C 83.144531 273.523438 83.542969 273.042969 84.050781 272.484375 L 83.996094 272.484375 C 83.648438 272.484375 83.277344 272.347656 83.035156 272.082031 C 82.398438 271.445312 82.183594 271.230469 84.582031 268.621094 C 84.316406 268.566406 84.050781 268.433594 83.863281 268.246094 C 83.304688 267.6875 82.929688 267.3125 87.488281 262.144531 C 86.765625 262.730469 86.660156 262.785156 86.367188 262.730469 C 86.019531 262.730469 85.675781 262.597656 85.40625 262.332031 C 85.035156 261.960938 84.769531 261.691406 85.675781 260.308594 L 85.675781 260.253906 C 85.675781 260.253906 85.726562 260.199219 85.78125 260.148438 C 86.234375 259.507812 86.925781 258.628906 87.964844 257.429688 C 87.644531 257.402344 87.378906 257.269531 87.140625 257.058594 C 86.660156 256.578125 86.421875 256.335938 87.246094 255.164062 L 87.246094 255.113281 C 87.246094 255.113281 87.328125 255.003906 87.460938 254.871094 C 88.632812 253.355469 91.351562 250.503906 96.972656 244.5625 C 98.359375 243.097656 99.851562 241.523438 101.449219 239.847656 C 92.257812 248.957031 92.015625 248.957031 91.535156 248.957031 C 91.191406 248.957031 90.84375 248.824219 90.605469 248.558594 C 90.125 248.078125 89.882812 247.839844 90.789062 246.535156 C 91.910156 244.988281 94.707031 241.925781 100.835938 235.289062 C 101.609375 234.4375 102.410156 233.558594 103.261719 232.679688 C 98.039062 237.902344 97.878906 237.902344 97.425781 237.902344 C 97.078125 237.902344 96.734375 237.769531 96.492188 237.503906 C 96.121094 237.128906 95.878906 236.890625 96.734375 235.609375 L 96.652344 235.503906 C 96.652344 235.503906 96.894531 235.289062 97.105469 235.078125 C 98.386719 233.347656 101.183594 230.121094 106.804688 223.863281 L 106.804688 223.300781 C 106.804688 223.300781 107.738281 222.371094 107.738281 222.371094 L 106.804688 223.300781 L 105.980469 222.261719 C 106.351562 221.945312 110.054688 218.1875 113.652344 214.539062 C 123.726562 204.324219 129.039062 199.210938 129.589844 199.191406 C 129.933594 199.191406 130.28125 199.324219 130.523438 199.566406 C 130.972656 199.992188 131.214844 200.230469 130.253906 201.535156 L 130.308594 201.617188 C 148.90625 182.859375 149.121094 182.859375 149.867188 182.832031 C 150.214844 182.832031 150.558594 182.96875 150.828125 183.234375 C 151.484375 183.890625 148.890625 187.390625 143.046875 193.730469 C 140.300781 196.714844 136.996094 200.257812 133.425781 204.121094 C 139.792969 197.726562 146.003906 191.464844 151.359375 186.109375 C 164.488281 172.914062 171.246094 166.316406 171.636719 166.316406 C 172.089844 166.261719 172.332031 166.449219 172.570312 166.714844 C 172.945312 167.089844 173.210938 167.355469 172.4375 168.554688 L 172.515625 168.660156 C 172.515625 168.660156 172.304688 168.847656 172.066406 169.085938 C 171.769531 169.488281 171.398438 169.992188 170.890625 170.578125 C 237.03125 103.894531 244.09375 97.660156 245.265625 97.660156 C 245.609375 97.660156 245.984375 97.820312 246.222656 98.058594 C 246.570312 98.40625 246.835938 98.671875 246.089844 99.820312 C 246.144531 99.792969 246.195312 99.738281 246.222656 99.710938 C 246.222656 99.710938 246.25 99.683594 246.277344 99.660156 C 246.757812 99.339844 246.941406 99.207031 247.210938 99.234375 C 247.554688 99.234375 247.929688 99.390625 248.167969 99.632812 C 248.773438 100.273438 246.453125 103.246094 241.214844 108.558594 C 199.644531 150.652344 169 181.820312 146.457031 204.839844 C 170.253906 180.890625 196.179688 154.621094 215.101562 135.410156 C 237.03125 113.191406 244.730469 105.386719 247.609375 102.667969 C 248.140625 102.109375 248.460938 101.789062 248.542969 101.683594 L 248.621094 101.738281 C 249.289062 101.175781 249.421875 101.257812 249.582031 101.175781 C 249.925781 101.175781 250.273438 101.3125 250.515625 101.578125 C 250.859375 101.921875 251.074219 102.136719 250.886719 102.644531 C 251.046875 102.535156 251.101562 102.535156 251.234375 102.535156 C 251.578125 102.535156 251.925781 102.667969 252.164062 102.9375 C 252.59375 103.363281 252.832031 103.601562 252.191406 104.480469 C 252.753906 104.027344 252.832031 103.976562 253.019531 104.027344 C 253.363281 104.027344 253.710938 104.160156 253.953125 104.425781 C 254.324219 104.800781 254.617188 105.09375 253.816406 106.371094 C 253.816406 106.371094 253.792969 106.425781 253.765625 106.453125 C 253.605469 106.691406 253.417969 106.984375 253.179688 107.304688 C 254.484375 106.1875 255.015625 105.894531 255.285156 105.894531 C 255.628906 105.894531 256.003906 106.027344 256.242188 106.292969 C 257.414062 107.464844 257.46875 107.519531 237.242188 128.324219 C 255.976562 109.675781 257.707031 108.425781 258.402344 108.425781 C 258.746094 108.425781 259.121094 108.558594 259.359375 108.824219 C 259.628906 109.089844 259.867188 109.328125 259.707031 109.890625 C 259.839844 109.835938 259.972656 109.835938 260.027344 109.808594 C 260.375 109.808594 260.746094 109.96875 260.984375 110.207031 C 261.75 110.972656 254.757812 118.9375 240.015625 134.105469 C 227.117188 147.375 209.558594 165.355469 191.0625 184.273438 C 184.457031 191.039062 177.582031 198.046875 170.707031 205.105469 C 184.320312 191.359375 197.914062 177.585938 209.929688 165.464844 C 248.328125 126.621094 258.507812 116.308594 261.546875 113.59375 C 261.839844 113.273438 262.027344 113.085938 262.078125 113.058594 L 262.132812 113.113281 C 262.71875 112.632812 262.878906 112.632812 263.066406 112.632812 C 263.785156 112.632812 264.371094 113.21875 264.398438 113.9375 C 264.398438 114.070312 264.398438 114.152344 263.730469 114.925781 L 263.8125 115.058594 C 263.652344 115.191406 263.144531 115.671875 262.320312 116.46875 C 259.574219 119.425781 253.125 126.085938 238.121094 141.511719 C 255.871094 123.714844 261.785156 117.910156 263.917969 115.988281 C 264.105469 115.804688 264.210938 115.671875 264.265625 115.617188 L 264.316406 115.671875 C 265.011719 115.085938 265.167969 115.085938 265.328125 115.085938 C 265.675781 115.085938 266.023438 115.21875 266.261719 115.484375 C 266.6875 115.910156 266.929688 116.148438 265.996094 117.375 L 266.074219 117.507812 C 266.074219 117.507812 265.730469 117.828125 265.328125 118.203125 C 263.625 120.199219 259.921875 124.035156 252.378906 131.761719 C 245.824219 138.503906 237.296875 147.214844 227.652344 157.070312 C 266.609375 118.066406 267.007812 118.042969 267.726562 118.042969 C 268.074219 118.042969 268.421875 118.175781 268.660156 118.441406 C 269.300781 119.082031 269.59375 119.375 266.421875 122.863281 C 268.875 120.597656 269.140625 120.597656 269.488281 120.597656 C 269.832031 120.597656 270.179688 120.730469 270.445312 121 C 270.898438 121.453125 271.140625 121.691406 270.097656 123.078125 C 270.097656 123.078125 270.046875 123.15625 269.992188 123.183594 C 268.605469 124.96875 265.117188 128.511719 257.46875 136.34375 C 255.84375 137.996094 254.085938 139.808594 252.21875 141.699219 C 263.96875 130.03125 268.632812 125.660156 270.527344 124.355469 C 270.527344 124.355469 270.527344 124.355469 270.550781 124.328125 C 271.03125 124.007812 271.296875 123.847656 271.511719 123.875 C 271.859375 123.875 272.230469 124.035156 272.472656 124.277344 C 273.109375 124.898438 271.175781 127.515625 266.660156 132.136719 L 257.203125 141.832031 C 270.074219 129.125 272.496094 127.152344 273.242188 127.152344 C 273.589844 127.152344 273.964844 127.3125 274.203125 127.550781 C 274.65625 128.003906 274.921875 128.273438 273.722656 129.765625 C 274.097656 129.496094 274.203125 129.496094 274.335938 129.496094 C 274.683594 129.496094 275.027344 129.628906 275.269531 129.898438 C 275.695312 130.324219 275.933594 130.5625 275.082031 131.789062 L 275.164062 131.867188 C 275.164062 131.867188 274.921875 132.082031 274.683594 132.347656 C 274.601562 132.453125 274.496094 132.585938 274.390625 132.695312 C 275.027344 132.1875 275.1875 132.1875 275.375 132.1875 C 275.722656 132.1875 276.070312 132.320312 276.335938 132.585938 C 276.761719 133.015625 277 133.253906 276.042969 134.585938 L 276.042969 134.640625 C 276.042969 134.640625 275.933594 134.746094 275.855469 134.824219 C 274.148438 137.011719 269.511719 141.777344 258.320312 153.316406 C 254.246094 157.523438 249.609375 162.292969 244.542969 167.460938 C 267.195312 144.683594 273.5625 138.554688 275.667969 136.984375 C 276.226562 136.558594 276.574219 136.558594 276.679688 136.476562 C 277.027344 136.476562 277.402344 136.609375 277.640625 136.878906 C 278.148438 137.382812 278.386719 137.625 277.425781 138.820312 C 277.71875 138.875 277.988281 139.007812 278.199219 139.195312 C 278.625 139.621094 278.917969 139.914062 278.066406 141.191406 C 278.28125 141.246094 278.464844 141.378906 278.625 141.539062 C 279.054688 141.964844 279.371094 142.285156 277.90625 144.230469 C 277.988281 144.203125 278.039062 144.203125 278.121094 144.203125 C 278.464844 144.203125 278.8125 144.335938 279.054688 144.601562 C 279.507812 145.054688 279.746094 145.296875 278.839844 146.519531 L 278.917969 146.628906 C 278.917969 146.628906 278.601562 146.894531 278.28125 147.214844 C 276.949219 148.785156 274.28125 151.503906 269.351562 156.566406 C 263.199219 162.878906 254.539062 171.722656 244.519531 181.980469 C 243.558594 182.96875 242.601562 183.953125 241.613281 184.964844 C 277.292969 149.050781 277.640625 149 278.492188 149.105469 C 278.839844 149.105469 279.1875 149.238281 279.453125 149.503906 C 279.824219 149.878906 280.09375 150.144531 279.105469 151.554688 C 279.105469 151.554688 279.054688 151.636719 279 151.664062 C 278.894531 151.824219 278.761719 151.984375 278.625 152.167969 C 278.917969 152.195312 279.210938 152.328125 279.425781 152.542969 C 279.90625 153.023438 280.144531 153.261719 279.105469 154.621094 C 279.105469 154.621094 279.054688 154.699219 279.027344 154.726562 C 277.878906 156.164062 275.296875 158.804688 270.125 164.132812 C 264.238281 170.179688 255.949219 178.675781 246.382812 188.480469 C 234.84375 200.3125 220.988281 214.484375 207.160156 228.710938 C 222.425781 213.390625 237.589844 198.152344 249.554688 186.136719 C 268.605469 167.007812 274.65625 160.90625 276.789062 158.964844 C 276.839844 158.882812 276.894531 158.804688 276.949219 158.777344 L 277 158.777344 C 277.828125 158.058594 277.933594 158.058594 278.121094 158.058594 C 278.464844 158.058594 278.8125 158.191406 279.054688 158.457031 C 279.425781 158.828125 279.664062 159.070312 278.894531 160.269531 L 279 160.402344 C 279 160.402344 278.707031 160.695312 278.332031 161.066406 C 277.347656 162.371094 275.535156 164.425781 272.363281 167.78125 C 273.988281 166.183594 275.082031 165.144531 275.828125 164.476562 C 275.960938 164.316406 276.070312 164.210938 276.121094 164.15625 L 276.175781 164.210938 C 277.375 163.253906 277.640625 163.464844 278.148438 164 C 278.601562 164.449219 278.839844 164.691406 277.960938 165.890625 L 278.039062 165.996094 C 278.039062 165.996094 277.71875 166.289062 277.375 166.609375 C 277.082031 166.957031 276.707031 167.382812 276.28125 167.835938 C 276.601562 167.835938 276.894531 167.996094 277.132812 168.234375 C 277.535156 168.632812 277.828125 168.925781 277.054688 170.152344 C 277.054688 170.152344 277 170.207031 276.972656 170.230469 C 276.546875 170.898438 275.828125 171.832031 274.65625 173.136719 C 274.921875 173.191406 275.164062 173.324219 275.347656 173.507812 C 276.113281 174.273438 270.960938 180.382812 259.894531 191.839844 C 250.355469 201.695312 237.402344 215.015625 223.839844 228.898438 C 223.359375 229.402344 222.855469 229.910156 222.347656 230.414062 C 222.585938 230.46875 222.828125 230.601562 223.015625 230.761719 C 223.546875 231.292969 223.785156 231.535156 222.828125 232.761719 C 222.828125 232.761719 222.746094 232.839844 222.695312 232.894531 C 222.5625 233.054688 222.402344 233.238281 222.242188 233.425781 C 223.441406 232.28125 224.238281 231.5625 224.773438 231.136719 C 224.878906 231.027344 224.960938 230.949219 224.984375 230.894531 L 225.011719 230.894531 C 225.707031 230.363281 225.863281 230.363281 226.023438 230.363281 C 226.371094 230.363281 226.71875 230.496094 226.984375 230.761719 C 227.625 231.382812 226.042969 233.703125 222.242188 237.714844 C 221.976562 238.007812 221.679688 238.328125 221.363281 238.621094 C 225.863281 234.09375 227.917969 232.039062 228.957031 231.109375 C 228.957031 231.109375 228.984375 231.054688 229.007812 231.054688 C 229.78125 230.363281 229.941406 230.363281 230.15625 230.363281 C 230.5 230.363281 230.847656 230.496094 231.089844 230.761719 C 231.460938 231.136719 231.699219 231.375 230.902344 232.574219 L 231.035156 232.707031 C 231.035156 232.707031 230.660156 233.078125 230.183594 233.558594 C 229.515625 234.410156 228.503906 235.558594 227.0625 237.183594 C 233.914062 230.390625 234.152344 230.390625 234.660156 230.390625 C 235.003906 230.390625 235.351562 230.523438 235.589844 230.789062 C 236.042969 231.242188 236.3125 231.507812 235.351562 232.839844 C 235.351562 232.839844 235.296875 232.894531 235.273438 232.917969 C 234.3125 234.226562 232.261719 236.488281 228.261719 240.804688 C 238.710938 230.390625 238.976562 230.390625 239.535156 230.390625 C 239.882812 230.390625 240.226562 230.523438 240.496094 230.789062 C 241.203125 231.5 237.207031 236.570312 228.503906 246 C 227.757812 246.800781 226.984375 247.652344 226.183594 248.503906 L 236.84375 237.820312 C 240.09375 234.570312 242.011719 232.652344 243.210938 231.5625 C 243.503906 231.242188 243.691406 231.027344 243.773438 230.949219 L 243.851562 231.027344 C 245.023438 230.070312 245.289062 230.308594 245.769531 230.789062 C 245.984375 231 246.144531 231.1875 246.195312 231.402344 C 246.488281 231.109375 246.648438 230.921875 246.703125 230.867188 L 246.757812 230.921875 C 247.34375 230.414062 247.476562 230.414062 247.6875 230.414062 C 248.035156 230.414062 248.382812 230.546875 248.621094 230.816406 C 248.753906 230.949219 248.886719 231.082031 248.941406 231.242188 C 249.6875 230.65625 249.875 230.65625 250.113281 230.65625 C 250.460938 230.65625 250.808594 230.789062 251.074219 231.054688 C 252.03125 232.015625 252.300781 232.28125 235.113281 251.117188 C 246.785156 239.394531 250.808594 235.449219 252.378906 234.117188 C 252.433594 234.066406 252.460938 234.039062 252.484375 234.011719 C 253.179688 233.453125 253.339844 233.453125 253.550781 233.453125 C 253.898438 233.453125 254.246094 233.585938 254.484375 233.824219 C 254.882812 234.226562 255.125 234.464844 254.21875 235.742188 L 254.296875 235.851562 C 254.296875 235.851562 254.03125 236.089844 253.792969 236.328125 C 252.300781 238.25 248.941406 241.898438 242.039062 249.464844 C 241.1875 250.398438 240.335938 251.328125 239.429688 252.316406 C 255.628906 235.929688 255.921875 235.929688 256.644531 235.929688 C 256.988281 235.929688 257.363281 236.0625 257.601562 236.328125 C 257.976562 236.703125 258.214844 236.941406 257.253906 238.382812 C 257.253906 238.382812 257.203125 238.460938 257.148438 238.488281 C 255.949219 240.246094 252.992188 243.683594 246.488281 250.875 C 258.828125 238.488281 259.09375 238.488281 259.761719 238.488281 C 260.105469 238.488281 260.453125 238.621094 260.71875 238.886719 C 261.546875 239.714844 261.707031 239.875 256.507812 245.574219 C 261.574219 240.539062 261.8125 240.539062 262.292969 240.539062 C 262.636719 240.539062 262.984375 240.671875 263.222656 240.9375 C 263.597656 241.3125 263.835938 241.550781 262.929688 242.882812 L 263.011719 242.992188 C 263.011719 242.992188 262.796875 243.175781 262.613281 243.335938 C 260.933594 245.628906 256.644531 250.476562 246.597656 261.558594 C 258.828125 249.199219 262.878906 245.148438 264.421875 243.816406 C 265.144531 243.203125 265.304688 243.203125 265.542969 243.203125 C 265.890625 243.203125 266.234375 243.335938 266.476562 243.601562 C 266.980469 244.082031 267.222656 244.324219 266.289062 245.601562 C 266.289062 245.601562 266.234375 245.65625 266.210938 245.679688 C 265.304688 246.90625 263.359375 249.089844 259.601562 253.273438 C 256.960938 256.203125 253.738281 259.773438 250.273438 263.609375 C 262.105469 251.648438 266.023438 247.734375 267.542969 246.425781 C 267.59375 246.375 267.648438 246.320312 267.648438 246.292969 C 268.289062 245.789062 268.421875 245.761719 268.660156 245.789062 C 269.007812 245.789062 269.351562 245.921875 269.59375 246.1875 C 270.074219 246.667969 270.3125 246.90625 269.351562 248.160156 L 269.40625 248.210938 C 269.40625 248.210938 269.246094 248.34375 269.085938 248.476562 C 268.953125 248.636719 268.820312 248.796875 268.660156 248.984375 C 269.007812 248.664062 269.300781 248.398438 269.511719 248.183594 C 270.339844 247.464844 270.445312 247.4375 270.6875 247.464844 C 271.03125 247.464844 271.378906 247.597656 271.617188 247.867188 C 271.859375 248.105469 272.042969 248.320312 271.9375 248.746094 C 272.042969 248.71875 272.152344 248.746094 272.230469 248.71875 C 272.578125 248.71875 272.925781 248.851562 273.164062 249.117188 C 273.457031 249.410156 273.695312 249.652344 273.457031 250.210938 C 273.671875 250.105469 273.855469 249.996094 273.910156 250.105469 C 274.257812 250.105469 274.601562 250.238281 274.871094 250.503906 C 275.054688 250.691406 275.1875 250.929688 275.242188 251.195312 C 275.332031 251.621094 273.695312 253.734375 270.339844 257.535156 C 267.515625 260.761719 263.359375 265.476562 258.800781 270.617188 C 261.144531 268.246094 263.359375 266.035156 265.277344 264.089844 C 271.75 257.5625 274.496094 254.765625 275.773438 253.59375 C 275.933594 253.433594 276.015625 253.300781 276.070312 253.246094 L 276.121094 253.246094 C 276.789062 252.6875 276.972656 252.792969 277.132812 252.714844 C 277.480469 252.714844 277.828125 252.847656 278.066406 253.113281 C 278.574219 253.621094 278.785156 253.832031 277.933594 255.003906 L 277.988281 255.058594 C 277.988281 255.058594 277.828125 255.21875 277.640625 255.40625 C 276.867188 256.390625 275.507812 257.910156 273.242188 260.414062 C 276.441406 257.375 276.707031 257.375 277.027344 257.375 C 277.375 257.375 277.71875 257.511719 277.988281 257.777344 C 278.386719 258.175781 278.625 258.414062 277.695312 259.800781 L 277.695312 259.855469 C 277.695312 259.855469 277.640625 259.933594 277.5625 259.988281 C 276.519531 261.480469 274.28125 264.144531 269.804688 269.285156 C 276.203125 262.917969 276.414062 262.917969 276.921875 262.917969 C 277.265625 262.917969 277.613281 263.050781 277.855469 263.316406 C 278.253906 263.71875 278.492188 263.957031 277.585938 265.261719 L 277.640625 265.34375 C 277.640625 265.34375 277.453125 265.503906 277.265625 265.664062 C 277.160156 265.796875 277.054688 265.929688 276.949219 266.089844 C 277.242188 266.089844 277.453125 266.300781 277.746094 266.59375 C 278.171875 267.019531 278.386719 267.261719 277.535156 268.488281 L 277.613281 268.59375 C 277.613281 268.59375 277.320312 268.859375 277.027344 269.152344 C 276.816406 269.417969 276.546875 269.738281 276.253906 270.113281 C 276.441406 270.03125 276.601562 270.03125 276.707031 270.003906 C 277.054688 270.003906 277.402344 270.136719 277.640625 270.40625 C 278.121094 270.882812 278.332031 271.097656 277.402344 272.429688 C 277.402344 272.429688 277.347656 272.484375 277.320312 272.507812 C 276.546875 273.601562 275.054688 275.386719 272.390625 278.582031 C 275.988281 274.988281 276.148438 274.960938 276.574219 274.988281 C 276.921875 274.988281 277.242188 275.121094 277.507812 275.359375 C 277.960938 275.785156 278.171875 276 277.375 277.332031 L 277.375 277.382812 C 277.375 277.382812 277.320312 277.4375 277.265625 277.519531 C 276.441406 278.824219 274.683594 281.140625 271.378906 285.535156 C 275.800781 281.085938 275.910156 281.0625 276.441406 281.0625 C 276.789062 281.0625 277.132812 281.195312 277.375 281.433594 C 277.773438 281.832031 277.988281 282.046875 277.214844 283.351562 L 277.265625 283.433594 C 277.265625 283.433594 277.160156 283.539062 277.054688 283.644531 C 276.761719 284.125 276.335938 284.738281 275.773438 285.511719 C 276.015625 285.351562 276.203125 285.21875 276.363281 285.351562 C 276.707031 285.351562 277.054688 285.484375 277.292969 285.75 C 277.695312 286.148438 277.878906 286.335938 277.214844 287.613281 L 277.265625 287.667969 C 277.265625 287.667969 277.1875 287.75 277.109375 287.828125 C 276.839844 288.308594 276.441406 288.945312 275.933594 289.746094 C 276.042969 289.71875 276.148438 289.71875 276.28125 289.71875 C 276.628906 289.71875 276.949219 289.851562 277.214844 290.09375 C 277.878906 290.730469 277.878906 290.730469 276.175781 294.835938 L 276.175781 296.113281 C 276.175781 296.113281 275.296875 296.964844 275.296875 296.964844 L 276.175781 296.113281 L 277.027344 297.125 C 276.839844 297.285156 276.015625 298.136719 275.242188 298.910156 C 274.050781 300.117188 273.269531 300.722656 272.898438 300.722656 C 272.550781 300.722656 272.203125 300.589844 271.964844 300.324219 C 271.433594 299.789062 271.324219 299.683594 272.550781 296.699219 C 268.582031 300.722656 268.554688 300.722656 267.96875 300.722656 C 267.566406 300.722656 267.195312 300.535156 266.953125 300.242188 C 266.421875 299.605469 266.34375 299.496094 267.886719 297.125 C 266.660156 298.324219 265.78125 299.175781 265.117188 299.738281 C 264.957031 299.949219 264.824219 300.109375 264.796875 300.164062 L 264.691406 300.082031 C 263.492188 301.042969 263.222656 300.800781 262.769531 300.351562 C 262.265625 299.789062 262.078125 299.605469 262.878906 298.378906 C 262.878906 298.378906 262.878906 298.351562 262.90625 298.324219 C 263.117188 298.003906 263.410156 297.578125 263.785156 297.074219 C 260.132812 300.722656 260 300.722656 259.519531 300.722656 C 259.175781 300.722656 258.828125 300.589844 258.585938 300.324219 C 258.1875 299.921875 257.949219 299.710938 258.773438 298.324219 C 258.773438 298.324219 258.828125 298.246094 258.855469 298.21875 C 259.628906 296.941406 261.226562 294.753906 264.289062 290.652344 C 254.457031 300.5625 254.296875 300.667969 253.683594 300.667969 C 253.390625 300.667969 252.964844 300.535156 252.726562 300.269531 C 252.324219 299.871094 252.085938 299.628906 252.9375 298.324219 L 252.886719 298.273438 C 252.886719 298.273438 252.992188 298.164062 253.097656 298.085938 C 253.738281 297.125 254.832031 295.6875 256.667969 293.421875 C 249.527344 300.667969 249.421875 300.667969 248.808594 300.667969 C 248.542969 300.667969 248.117188 300.535156 247.847656 300.269531 C 247.476562 299.898438 247.234375 299.65625 248.117188 298.351562 C 245.691406 300.667969 245.503906 300.667969 245.078125 300.667969 C 244.625 300.667969 244.386719 300.535156 244.117188 300.269531 C 243.796875 299.949219 243.585938 299.710938 243.984375 298.992188 C 243.71875 299.230469 243.503906 299.445312 243.292969 299.628906 C 243.132812 299.816406 243.027344 299.949219 242.972656 300.03125 L 242.894531 299.976562 C 241.640625 301.015625 241.402344 300.777344 240.921875 300.296875 C 240.546875 299.921875 240.308594 299.683594 241.082031 298.484375 L 240.949219 298.351562 C 240.949219 298.351562 241.265625 298.03125 241.695312 297.605469 C 243.1875 295.632812 246.382812 291.929688 252.832031 284.605469 C 247.957031 289.558594 242.734375 294.835938 237.589844 300.082031 C 237.296875 300.375 237.003906 300.667969 236.445312 300.667969 C 236.097656 300.667969 235.75 300.535156 235.511719 300.269531 C 235.058594 299.816406 234.820312 299.578125 235.589844 298.484375 L 235.511719 298.40625 C 235.722656 298.191406 235.910156 297.980469 236.125 297.792969 C 236.789062 296.941406 237.855469 295.714844 239.457031 293.929688 C 235.617188 297.738281 233.859375 299.390625 232.980469 300.109375 C 232.980469 300.109375 232.980469 300.109375 232.953125 300.136719 C 232.285156 300.667969 232.128906 300.667969 231.914062 300.667969 C 231.566406 300.667969 231.222656 300.535156 230.953125 300.269531 C 230.351562 299.664062 231.761719 297.410156 235.191406 293.503906 L 246.382812 280.769531 C 244.652344 282.5 243 284.179688 241.425781 285.777344 C 234.738281 292.542969 230.953125 296.351562 228.769531 298.429688 C 227.757812 299.496094 227.144531 300.164062 227.0625 300.214844 L 226.878906 300.054688 C 225.757812 300.910156 225.519531 300.667969 225.144531 300.269531 C 224.90625 300.03125 224.746094 299.816406 224.691406 299.605469 C 223.519531 300.644531 223.28125 300.589844 223.015625 300.644531 C 222.667969 300.644531 222.320312 300.507812 222.054688 300.242188 C 221.839844 300.03125 221.679688 299.871094 221.65625 299.65625 C 221.441406 299.898438 221.28125 300.054688 221.226562 300.109375 L 221.121094 300.03125 C 219.949219 300.960938 219.683594 300.695312 219.230469 300.242188 C 218.777344 299.789062 218.539062 299.550781 219.417969 298.351562 C 217.019531 300.644531 216.726562 300.589844 216.433594 300.644531 C 216.085938 300.644531 215.738281 300.507812 215.472656 300.242188 C 214.816406 299.585938 217.570312 295.820312 223.734375 288.945312 C 225.570312 286.894531 227.652344 284.578125 229.863281 282.125 C 211.527344 300.617188 211.367188 300.617188 210.648438 300.617188 C 210.304688 300.617188 209.957031 300.484375 209.71875 300.214844 C 209.058594 299.558594 211.34375 296.335938 216.566406 290.546875 C 219.628906 287.136719 223.492188 282.871094 227.675781 278.289062 C 212.96875 293.15625 205.335938 300.589844 204.789062 300.589844 C 204.441406 300.589844 204.09375 300.457031 203.855469 300.191406 C 203.347656 299.683594 203.109375 299.445312 204.066406 298.164062 C 204.921875 296.992188 206.757812 295.019531 210.25 291.265625 C 204.761719 296.804688 202.46875 299.070312 201.375 299.976562 C 201.296875 300.054688 201.269531 300.109375 201.242188 300.136719 C 200.628906 300.617188 200.46875 300.617188 200.257812 300.617188 C 199.882812 300.617188 199.539062 300.457031 199.269531 300.191406 C 198.84375 299.738281 198.632812 299.496094 199.5625 298.273438 L 199.511719 298.191406 C 199.511719 298.191406 199.699219 298.03125 199.882812 297.84375 C 200.871094 296.621094 202.789062 294.542969 206.144531 290.890625 C 209.929688 286.761719 215.550781 280.660156 221.65625 274 C 195.460938 300.617188 195.40625 300.617188 194.527344 300.617188 C 194.179688 300.617188 193.835938 300.484375 193.570312 300.214844 C 193.0625 299.710938 192.847656 299.496094 193.835938 298.191406 C 193.835938 298.191406 193.914062 298.085938 193.96875 298.058594 C 194.875 296.914062 196.632812 294.996094 199.804688 291.503906 L 214.035156 275.972656 C 213.101562 276.90625 212.167969 277.835938 211.261719 278.742188 C 197.539062 292.542969 192.476562 297.632812 190.476562 299.496094 C 190.210938 299.789062 190.023438 299.976562 189.972656 300.054688 L 189.917969 300.003906 C 189.25 300.589844 189.117188 300.589844 188.933594 300.589844 C 188.585938 300.589844 188.238281 300.457031 188 300.191406 C 187.601562 299.789062 187.386719 299.578125 188.210938 298.378906 L 188.078125 298.21875 C 188.078125 298.21875 188.558594 297.765625 189.171875 297.152344 C 190.851562 295.128906 194.234375 291.453125 200.578125 284.578125 C 205.1875 279.570312 210.917969 273.363281 216.804688 266.96875 C 215.632812 268.167969 214.460938 269.339844 213.3125 270.511719 C 191.355469 292.808594 185.65625 298.589844 183.789062 300.082031 C 183.789062 300.082031 183.734375 300.136719 183.734375 300.136719 C 183.148438 300.589844 183.015625 300.535156 182.75 300.589844 C 182.402344 300.589844 182.058594 300.457031 181.789062 300.191406 C 181.65625 300.054688 181.578125 299.921875 181.496094 299.761719 C 180.484375 300.589844 180.296875 300.484375 180.058594 300.589844 C 179.710938 300.589844 179.367188 300.457031 179.097656 300.191406 C 178.886719 299.976562 178.726562 299.816406 178.699219 299.550781 C 178.59375 299.65625 178.511719 299.738281 178.40625 299.789062 C 178.351562 299.871094 178.300781 299.921875 178.273438 299.949219 L 178.246094 299.949219 C 177.5 300.5625 177.367188 300.5625 177.179688 300.5625 C 176.835938 300.5625 176.488281 300.429688 176.246094 300.164062 C 175.769531 299.683594 175.527344 299.417969 176.40625 298.191406 C 176.40625 298.191406 176.488281 298.085938 176.566406 298.03125 C 177.554688 296.753906 179.632812 294.488281 183.65625 290.144531 C 186.828125 286.734375 190.796875 282.472656 195.140625 277.8125 C 194.792969 278.15625 194.421875 278.53125 194.074219 278.875 C 188.1875 284.816406 182.910156 290.144531 179.074219 293.980469 C 176.0625 297.019531 174.328125 298.75 173.238281 299.683594 C 173.105469 299.816406 173.023438 299.921875 172.996094 299.976562 L 172.945312 299.976562 C 172.359375 300.429688 171.984375 300.617188 171.71875 300.617188 Z M 129.695312 202.230469 C 129.695312 202.230469 129.640625 202.308594 129.617188 202.335938 C 129.722656 202.230469 129.828125 202.09375 129.960938 201.988281 C 129.910156 202.042969 129.800781 202.121094 129.722656 202.203125 Z M 129.695312 202.230469 " fill-opacity="1" fill-rule="nonzero"/><path fill="#000000" d="M 189.332031 151.769531 C 188.984375 151.769531 188.640625 151.636719 188.398438 151.371094 C 188 150.96875 187.757812 150.730469 188.613281 149.453125 L 188.558594 149.371094 C 188.558594 149.371094 188.746094 149.210938 188.90625 149.050781 C 189.703125 147.960938 191.171875 146.253906 193.730469 143.484375 C 193.460938 143.429688 193.222656 143.296875 193.0625 143.109375 C 192.664062 142.710938 192.394531 142.445312 193.328125 141.113281 L 193.328125 141.058594 C 193.328125 141.058594 193.382812 140.980469 193.460938 140.925781 C 194.046875 140.101562 195.035156 138.929688 196.578125 137.144531 C 196.019531 137.597656 195.859375 137.597656 195.648438 137.597656 C 195.355469 137.488281 194.953125 137.464844 194.714844 137.195312 C 194.339844 136.824219 194.101562 136.585938 194.953125 135.253906 L 194.902344 135.144531 C 194.902344 135.144531 195.085938 134.984375 195.246094 134.824219 C 196.074219 133.652344 197.621094 131.816406 200.3125 128.75 C 193.117188 135.917969 192.875 135.917969 192.34375 135.917969 C 192.050781 135.917969 191.648438 135.785156 191.382812 135.519531 C 191.171875 135.304688 190.984375 135.117188 191.039062 134.773438 C 187.359375 138.34375 187.148438 138.34375 186.773438 138.34375 L 186.773438 137.011719 C 186.773438 137.011719 187.707031 136.078125 187.707031 136.078125 L 186.773438 137.011719 L 186.027344 135.917969 C 187.464844 134.800781 211.980469 110.050781 223.785156 98.167969 C 229.089844 92.8125 231.40625 90.46875 232.527344 89.457031 C 232.582031 89.375 232.632812 89.320312 232.660156 89.296875 C 233.378906 88.683594 233.488281 88.683594 233.753906 88.683594 C 234.097656 88.683594 234.445312 88.816406 234.683594 89.054688 C 235.058594 89.429688 235.296875 89.667969 234.605469 90.707031 C 235.777344 89.800781 236.019531 90.042969 236.417969 90.46875 C 236.816406 90.867188 237.03125 91.082031 236.203125 92.304688 L 236.3125 92.4375 C 236.3125 92.4375 235.9375 92.8125 235.457031 93.265625 C 234.3125 94.730469 232.234375 97.074219 228.664062 101.070312 C 237.375 92.304688 237.589844 92.304688 238.175781 92.304688 C 238.441406 92.226562 238.867188 92.4375 239.136719 92.707031 C 239.535156 93.105469 239.773438 93.34375 238.84375 94.675781 L 238.894531 94.757812 C 238.894531 94.757812 238.734375 94.890625 238.574219 95.023438 C 237.9375 95.875 236.925781 97.074219 235.324219 98.859375 C 237.484375 96.703125 238.65625 95.554688 239.347656 94.941406 C 239.347656 94.941406 239.375 94.890625 239.402344 94.890625 C 240.148438 94.25 240.28125 94.25 240.519531 94.25 C 240.867188 94.25 241.214844 94.382812 241.453125 94.648438 C 241.828125 95.023438 242.066406 95.261719 241.242188 96.488281 L 241.347656 96.621094 C 242.171875 95.875 242.304688 95.875 242.546875 95.875 L 242.546875 97.207031 C 242.546875 97.207031 241.585938 98.140625 241.585938 98.140625 L 242.546875 97.207031 L 243.453125 98.195312 C 243.160156 98.488281 237.910156 103.734375 231.300781 110.394531 C 190.292969 151.582031 190.132812 151.742188 189.359375 151.742188 Z M 189.332031 151.769531 " fill-opacity="1" fill-rule="nonzero"/><path fill="#000000" d="M 172.199219 165.117188 C 171.851562 165.117188 171.503906 164.984375 171.265625 164.746094 C 170.730469 164.238281 170.652344 164.15625 171.691406 160.855469 C 170.890625 161.652344 169.960938 162.613281 168.894531 163.679688 C 167.960938 164.609375 167.882812 164.71875 167.320312 164.71875 C 166.921875 164.71875 166.601562 164.585938 166.363281 164.316406 C 165.988281 163.945312 165.800781 163.730469 166.46875 162.53125 L 166.390625 162.453125 L 166.683594 162.160156 C 166.839844 161.894531 167.027344 161.601562 167.242188 161.226562 C 167.136719 161.335938 167 161.46875 166.894531 161.574219 C 165.882812 162.613281 165.164062 163.332031 164.65625 163.785156 C 164.628906 163.8125 164.601562 163.839844 164.601562 163.863281 C 163.484375 164.878906 163.269531 164.664062 162.632812 164.050781 C 162.445312 163.863281 162.3125 163.730469 162.285156 163.492188 C 161.484375 164.210938 161.300781 164.210938 161.03125 164.210938 C 160.6875 164.210938 160.339844 164.078125 160.101562 163.8125 C 159.648438 163.359375 159.378906 163.117188 160.3125 161.867188 L 160.261719 161.785156 C 160.261719 161.785156 160.472656 161.601562 160.6875 161.386719 C 160.898438 161.121094 161.140625 160.855469 161.433594 160.507812 C 157.96875 163.863281 157.753906 163.863281 157.355469 163.863281 C 157.007812 163.863281 156.664062 163.730469 156.421875 163.492188 C 156.234375 163.304688 156.078125 163.144531 156.023438 162.960938 C 155.171875 163.652344 154.957031 163.652344 154.691406 163.652344 C 154.476562 163.652344 153.972656 163.519531 153.730469 163.253906 C 153.332031 162.851562 153.089844 162.585938 153.972656 161.308594 C 151.8125 163.386719 151.625 163.304688 151.304688 163.386719 C 150.960938 163.386719 150.613281 163.253906 150.375 162.984375 C 150 162.613281 149.734375 162.347656 150.613281 161.09375 L 150.535156 160.988281 C 150.535156 160.988281 150.773438 160.773438 151.011719 160.5625 C 151.414062 160.027344 151.945312 159.390625 152.664062 158.5625 C 150.878906 160.296875 149.707031 161.441406 148.855469 162.132812 C 148.667969 162.320312 148.5625 162.453125 148.507812 162.53125 L 148.429688 162.480469 C 147.203125 163.4375 146.9375 163.171875 146.484375 162.71875 C 146.109375 162.347656 145.898438 162.105469 146.429688 161.253906 C 144.699219 162.851562 144.457031 162.851562 144.164062 162.851562 C 143.925781 162.851562 143.472656 162.71875 143.207031 162.453125 C 142.511719 161.761719 145.515625 157.878906 152.210938 150.8125 C 154.023438 148.890625 156.050781 146.789062 158.207031 144.496094 C 147.230469 155.554688 142.992188 159.816406 141.207031 161.46875 C 140.992188 161.707031 140.859375 161.867188 140.808594 161.945312 L 140.753906 161.894531 C 140.0625 162.507812 139.929688 162.507812 139.742188 162.507812 C 139.394531 162.507812 139.046875 162.375 138.808594 162.132812 C 138.355469 161.679688 138.117188 161.441406 138.96875 160.269531 L 138.890625 160.160156 C 138.890625 160.160156 139.15625 159.894531 139.5 159.574219 C 140.753906 158.058594 143.230469 155.367188 147.867188 150.4375 C 152.664062 145.296875 158.980469 138.554688 165.828125 131.28125 C 165.535156 131.574219 165.269531 131.867188 164.976562 132.136719 C 145.203125 152.097656 135.070312 162.078125 134.570312 162.078125 C 134.226562 162.078125 133.878906 161.945312 133.640625 161.679688 C 133.265625 161.308594 133 161.039062 133.851562 159.734375 L 133.800781 159.683594 C 133.800781 159.683594 133.90625 159.574219 134.011719 159.496094 C 135.398438 157.496094 139.023438 153.394531 147.65625 144.175781 C 130.335938 161.679688 130.175781 161.679688 129.480469 161.679688 C 129.136719 161.679688 128.789062 161.546875 128.523438 161.28125 C 127.5625 160.320312 127.457031 160.214844 135.53125 151.664062 C 129.988281 157.230469 127.589844 159.574219 126.445312 160.589844 C 126.339844 160.695312 126.257812 160.773438 126.230469 160.828125 L 126.203125 160.828125 C 125.566406 161.335938 125.484375 161.253906 125.191406 161.335938 C 124.847656 161.335938 124.5 161.199219 124.257812 160.933594 C 123.78125 160.453125 123.539062 160.214844 124.5 158.964844 L 124.445312 158.882812 C 124.445312 158.882812 124.632812 158.722656 124.792969 158.5625 C 125.777344 157.335938 127.671875 155.339844 131.027344 151.769531 L 147.761719 133.945312 C 148.855469 132.800781 149.949219 131.601562 151.09375 130.402344 C 131.074219 150.722656 120.75 160.882812 120.128906 160.882812 C 119.78125 160.882812 119.4375 160.746094 119.167969 160.480469 C 118.769531 160.082031 118.558594 159.867188 119.488281 158.5625 L 119.410156 158.429688 C 119.410156 158.429688 119.730469 158.164062 120.050781 157.871094 C 121.835938 155.660156 125.9375 151.261719 134.785156 141.804688 C 135.238281 141.328125 135.691406 140.820312 136.171875 140.339844 C 117.277344 159.28125 116.878906 159.28125 116.160156 159.28125 C 115.8125 159.28125 115.4375 159.148438 115.199219 158.882812 C 114.960938 158.644531 114.828125 158.351562 114.800781 158.03125 C 114.78125 157.640625 115.492188 156.691406 116.929688 155.179688 C 118.71875 153.339844 120.449219 151.503906 122.179688 149.71875 C 114.558594 157.3125 114.265625 157.3125 113.707031 157.3125 C 113.359375 157.3125 113.015625 157.179688 112.746094 156.910156 C 112.109375 156.273438 111.84375 156.003906 114.238281 153.289062 C 113.601562 153.902344 113.148438 154.355469 112.800781 154.671875 C 112.722656 154.78125 112.640625 154.859375 112.613281 154.914062 L 112.589844 154.914062 C 111.867188 155.5 111.734375 155.5 111.523438 155.5 C 111.253906 155.5 110.828125 155.367188 110.5625 155.101562 C 110.082031 154.621094 109.84375 154.378906 110.722656 153.183594 L 110.667969 153.128906 C 110.667969 153.128906 110.828125 152.96875 110.988281 152.808594 C 112.054688 151.449219 114.292969 149.078125 118.503906 144.578125 C 120.609375 142.339844 123.058594 139.726562 125.75 136.878906 C 109.605469 153.046875 109.175781 153.046875 108.484375 153.046875 C 108.03125 152.996094 107.765625 152.914062 107.523438 152.648438 C 106.902344 152.027344 108.316406 149.871094 111.761719 146.175781 C 114.480469 143.269531 118.316406 139.167969 122.792969 134.371094 C 126.125 130.828125 129.933594 126.753906 133.960938 122.4375 C 106.273438 150.332031 105.898438 150.332031 105.101562 150.359375 C 104.753906 150.359375 104.40625 150.222656 104.140625 149.957031 C 103.820312 149.636719 103.554688 149.371094 104.195312 148.332031 C 103.554688 148.867188 103.339844 148.867188 103.207031 148.867188 C 102.863281 148.867188 102.515625 148.734375 102.277344 148.464844 C 101.769531 147.960938 101.53125 147.71875 102.433594 146.496094 C 102.433594 146.496094 102.515625 146.386719 102.570312 146.363281 C 103.527344 145.109375 105.527344 142.953125 109.390625 138.820312 C 113.546875 134.347656 119.195312 128.324219 125.351562 121.71875 C 100.96875 146.308594 100.835938 146.308594 100.0625 146.308594 C 99.71875 146.308594 99.371094 146.175781 99.132812 145.910156 C 98.652344 145.429688 98.410156 145.1875 99.371094 143.910156 C 99.371094 143.910156 99.449219 143.832031 99.503906 143.777344 C 100.542969 142.417969 102.808594 139.941406 107.257812 135.066406 C 111.789062 130.109375 117.8125 123.582031 124.234375 116.601562 C 97.773438 143.484375 97.53125 143.484375 96.652344 143.511719 C 96.386719 143.457031 95.933594 143.378906 95.695312 143.109375 C 94.789062 142.207031 94.496094 141.914062 109.46875 125.792969 C 109.125 126.140625 108.804688 126.488281 108.457031 126.804688 L 98.546875 136.851562 C 96.734375 138.6875 95.613281 139.835938 94.839844 140.472656 C 93.613281 141.539062 93.375 141.328125 92.789062 140.738281 C 92.308594 140.261719 92.070312 139.992188 92.894531 138.820312 L 92.894531 138.769531 C 92.894531 138.769531 92.976562 138.660156 93.082031 138.554688 C 94.09375 137.222656 96.28125 134.824219 100.570312 130.191406 C 102.96875 127.578125 105.820312 124.488281 108.910156 121.160156 C 91.671875 138.636719 91.429688 138.636719 90.65625 138.636719 C 90.3125 138.636719 89.964844 138.503906 89.699219 138.234375 C 89.296875 137.835938 89.03125 137.570312 90.019531 136.183594 L 90.019531 136.132812 C 90.019531 136.132812 90.070312 136.078125 90.125 136.050781 C 90.738281 135.199219 91.804688 133.945312 93.535156 132.027344 C 93.375 132.160156 93.242188 132.292969 93.109375 132.402344 C 92.761719 132.800781 92.523438 133.039062 92.496094 133.09375 L 92.390625 133.015625 C 91.242188 133.917969 91.003906 133.652344 90.523438 133.199219 C 90.070312 132.773438 89.859375 132.5625 90.710938 131.335938 L 90.605469 131.230469 C 90.605469 131.230469 90.925781 130.910156 91.324219 130.535156 C 92.523438 129.070312 94.734375 126.621094 98.625 122.304688 C 101.636719 118.972656 105.660156 114.5 110.03125 109.675781 C 99.636719 120.199219 95.90625 123.957031 94.386719 125.289062 C 94.308594 125.367188 94.253906 125.449219 94.226562 125.472656 L 94.203125 125.472656 C 93.507812 126.035156 93.320312 126.085938 93.136719 126.035156 C 92.789062 126.035156 92.441406 125.902344 92.175781 125.632812 C 91.671875 125.128906 91.429688 124.886719 92.335938 123.691406 L 92.335938 123.636719 C 92.335938 123.636719 92.417969 123.53125 92.523438 123.449219 C 92.976562 122.890625 93.613281 122.144531 94.519531 121.132812 C 94.519531 121.132812 94.519531 121.132812 94.496094 121.132812 C 94.148438 121.132812 93.800781 121 93.5625 120.730469 C 93.136719 120.304688 92.921875 120.09375 93.855469 118.789062 L 93.773438 118.679688 C 93.773438 118.679688 94.015625 118.46875 94.226562 118.28125 C 95.132812 117.109375 96.734375 115.242188 99.425781 112.207031 C 97.640625 113.886719 97.425781 113.9375 97.050781 113.859375 C 96.707031 113.859375 96.359375 113.726562 96.09375 113.460938 C 95.558594 112.871094 96.261719 111.328125 98.199219 108.824219 C 99.609375 106.984375 102.0625 103.816406 104.648438 100.429688 C 104.515625 100.484375 104.433594 100.484375 104.300781 100.484375 L 104.300781 99.152344 C 104.300781 99.152344 105.234375 98.21875 105.234375 98.21875 L 104.300781 99.152344 L 103.5 98.085938 C 103.980469 97.6875 108.722656 92.890625 111.546875 90.042969 C 114.285156 87.289062 115.839844 85.902344 116.210938 85.886719 C 116.558594 85.886719 116.90625 86.019531 117.144531 86.285156 C 117.519531 86.65625 117.730469 86.871094 117.011719 88.148438 L 117.089844 88.230469 C 117.089844 88.230469 116.957031 88.363281 116.824219 88.496094 C 115.917969 89.960938 114 92.597656 110.164062 97.605469 C 111.789062 95.957031 113.414062 94.304688 114.933594 92.785156 C 124.417969 83.140625 129.410156 78.320312 129.910156 78.320312 C 130.308594 78.265625 130.601562 78.453125 130.867188 78.71875 C 131.292969 79.144531 131.535156 79.382812 130.628906 80.664062 L 130.679688 80.742188 C 130.679688 80.742188 130.523438 80.875 130.363281 81.007812 C 129.480469 82.183594 127.804688 84.125 124.871094 87.429688 C 131.988281 80.238281 134.707031 77.546875 135.90625 76.507812 C 136.597656 75.921875 136.757812 75.921875 136.996094 75.921875 C 137.34375 75.921875 137.691406 76.054688 137.929688 76.320312 C 138.277344 76.667969 138.515625 76.878906 138.25 77.464844 C 141.019531 74.800781 141.261719 74.800781 141.632812 74.800781 C 141.980469 74.800781 142.328125 74.933594 142.59375 75.203125 C 143.019531 75.628906 143.257812 75.867188 142.328125 77.199219 L 142.328125 77.253906 C 142.328125 77.253906 142.273438 77.332031 142.191406 77.386719 C 140.726562 79.4375 136.730469 83.886719 127.269531 94.4375 C 141.3125 80.34375 145.921875 75.734375 147.628906 74.242188 C 148.457031 73.523438 148.613281 73.496094 148.800781 73.523438 C 149.148438 73.523438 149.496094 73.65625 149.734375 73.921875 C 150.105469 74.296875 150.375 74.5625 149.519531 75.789062 L 149.601562 75.894531 C 149.601562 75.894531 149.359375 76.109375 149.09375 76.375 C 148.828125 76.71875 148.507812 77.121094 148.109375 77.601562 C 152.851562 72.910156 153.117188 72.910156 153.597656 72.910156 C 153.945312 72.910156 154.289062 73.042969 154.558594 73.308594 C 155.269531 74.019531 151.679688 78.675781 143.792969 87.269531 C 143.5 87.589844 143.230469 87.882812 142.9375 88.203125 C 158.742188 72.40625 159.085938 72.40625 159.726562 72.40625 C 160.074219 72.40625 160.417969 72.539062 160.6875 72.804688 C 161.34375 73.460938 159.265625 76.375 154.449219 81.542969 C 151.679688 84.527344 148.136719 88.308594 144.191406 92.519531 C 164.257812 72.164062 164.496094 72.164062 165.296875 72.164062 C 165.5625 72.164062 166.015625 72.296875 166.253906 72.5625 C 166.949219 73.257812 162.871094 78.433594 154.023438 88.097656 C 150.402344 92.066406 146.214844 96.621094 141.847656 101.390625 C 161.226562 81.835938 171.195312 72.058594 171.746094 72.058594 C 172.089844 72.058594 172.4375 72.191406 172.675781 72.457031 C 173.050781 72.832031 173.316406 73.097656 172.4375 74.402344 L 172.492188 74.484375 C 172.492188 74.484375 172.359375 74.617188 172.222656 74.722656 C 170.945312 76.507812 167.90625 79.996094 161.273438 87.191406 C 176.355469 72.085938 176.726562 72.003906 177.394531 72.113281 C 177.742188 72.113281 178.113281 72.246094 178.351562 72.511719 C 178.726562 72.882812 178.964844 73.125 178.726562 73.628906 C 180.21875 72.21875 180.433594 72.296875 180.644531 72.21875 C 180.992188 72.21875 181.335938 72.351562 181.578125 72.617188 C 181.925781 72.964844 182.191406 73.230469 181.390625 74.535156 L 181.445312 74.617188 C 181.445312 74.617188 181.285156 74.777344 181.125 74.910156 C 179.3125 77.546875 173.796875 83.699219 159.007812 99.578125 C 160.554688 98.035156 162.019531 96.515625 163.429688 95.078125 C 178.265625 80.03125 185.914062 72.511719 186.375 72.511719 C 186.71875 72.511719 187.066406 72.644531 187.308594 72.910156 C 187.652344 73.257812 187.917969 73.523438 187.066406 74.777344 L 187.171875 74.910156 C 187.171875 74.910156 186.90625 75.148438 186.613281 75.441406 C 185.441406 77.039062 183.015625 79.785156 178.433594 84.765625 C 190.371094 72.9375 190.824219 72.9375 191.410156 72.9375 C 191.757812 72.882812 192.128906 73.070312 192.371094 73.335938 C 192.847656 73.816406 193.140625 74.109375 192.128906 75.441406 C 194.394531 73.335938 194.714844 73.363281 195.007812 73.335938 C 195.355469 73.335938 195.699219 73.46875 195.96875 73.738281 C 196.605469 74.375 196.925781 74.695312 192.847656 79.277344 C 195.355469 76.773438 196.738281 75.441406 197.539062 74.722656 C 197.699219 74.535156 197.804688 74.429688 197.832031 74.402344 L 197.886719 74.402344 C 198.523438 73.894531 198.660156 73.894531 198.871094 73.894531 C 199.21875 73.894531 199.566406 74.03125 199.804688 74.269531 C 200.257812 74.695312 200.496094 74.933594 199.566406 76.1875 L 199.644531 76.292969 C 199.644531 76.292969 199.324219 76.585938 198.976562 76.90625 C 197.671875 78.480469 195.167969 81.167969 190.558594 86.070312 L 180.644531 96.648438 C 202.390625 74.722656 202.789062 74.722656 203.589844 74.722656 C 203.933594 74.722656 204.308594 74.855469 204.546875 75.121094 C 204.945312 75.523438 205.1875 75.761719 204.175781 77.171875 L 204.175781 77.226562 C 204.175781 77.226562 204.121094 77.28125 204.042969 77.332031 C 202.46875 79.410156 198.367188 83.832031 188.746094 94.117188 C 207.078125 75.707031 207.398438 75.707031 208.089844 75.707031 C 208.4375 75.707031 208.785156 75.839844 209.050781 76.109375 C 209.425781 76.480469 209.691406 76.746094 208.730469 78.132812 L 208.730469 78.1875 C 208.730469 78.1875 208.679688 78.265625 208.597656 78.320312 C 207.984375 79.171875 206.972656 80.371094 205.347656 82.207031 C 210.941406 76.71875 211.261719 76.71875 211.742188 76.71875 C 212.089844 76.71875 212.433594 76.855469 212.703125 77.121094 C 213.375 77.796875 210.792969 81.230469 204.945312 87.429688 C 201.535156 91.054688 197.191406 95.664062 192.34375 100.75 C 214.808594 78.160156 215.125 78.160156 215.847656 78.132812 C 216.191406 78.132812 216.539062 78.265625 216.804688 78.53125 C 217.230469 78.957031 217.5 79.226562 216.511719 80.582031 C 216.511719 80.582031 216.457031 80.664062 216.40625 80.691406 C 214.941406 82.660156 211.074219 86.816406 201.988281 96.542969 C 201.058594 97.527344 200.097656 98.566406 199.113281 99.605469 C 218.855469 79.8125 219.148438 79.8125 219.761719 79.8125 C 220.109375 79.8125 220.457031 79.945312 220.695312 80.210938 C 221.070312 80.582031 221.335938 80.851562 220.429688 82.207031 L 220.484375 82.289062 C 220.484375 82.289062 220.347656 82.394531 220.269531 82.476562 C 219.335938 83.78125 217.445312 85.964844 213.875 89.855469 C 218.5625 85.140625 220.695312 83.085938 221.734375 82.15625 C 221.816406 82.074219 221.867188 81.996094 221.894531 81.96875 L 221.921875 81.96875 C 222.585938 81.4375 222.746094 81.4375 222.960938 81.4375 C 223.28125 81.382812 223.652344 81.570312 223.921875 81.835938 C 224.347656 82.261719 224.585938 82.5 223.734375 83.675781 C 224.800781 82.742188 224.984375 82.742188 225.226562 82.742188 C 225.570312 82.742188 225.917969 82.875 226.160156 83.140625 C 226.53125 83.515625 226.769531 83.753906 225.890625 85.058594 L 225.972656 85.164062 C 225.972656 85.164062 225.730469 85.378906 225.464844 85.617188 C 225.199219 85.964844 224.851562 86.390625 224.425781 86.871094 C 227.089844 84.367188 227.382812 84.367188 227.757812 84.367188 C 228.078125 84.445312 228.476562 84.5 228.714844 84.765625 C 229.089844 85.140625 229.355469 85.40625 228.691406 86.472656 C 229.4375 85.886719 229.675781 85.859375 229.890625 85.886719 C 230.234375 85.886719 230.609375 86.019531 230.847656 86.285156 C 231.140625 86.578125 231.355469 86.765625 231.246094 87.191406 C 231.382812 87.136719 231.515625 87.191406 231.542969 87.136719 C 231.886719 87.136719 232.234375 87.269531 232.472656 87.535156 C 232.898438 87.964844 233.140625 88.203125 232.179688 89.535156 L 232.234375 89.613281 C 232.234375 89.613281 232.074219 89.75 231.941406 89.855469 C 230.449219 91.773438 226.769531 95.636719 218.695312 104.1875 C 210.515625 112.820312 199.832031 124.035156 189.972656 134.398438 C 186.695312 137.835938 183.441406 141.246094 180.40625 144.441406 C 180.566406 144.761719 180.484375 145.136719 179.84375 145.988281 C 179.84375 145.988281 179.765625 146.070312 179.738281 146.121094 C 179.234375 146.789062 178.460938 147.746094 177.261719 149.132812 C 177.367188 149.210938 177.472656 149.292969 177.554688 149.398438 C 177.980469 149.914062 177.367188 151.371094 175.714844 153.769531 C 175.476562 154.140625 175.183594 154.539062 174.890625 154.964844 C 175.128906 155.019531 175.367188 155.152344 175.554688 155.339844 C 175.945312 155.730469 175.742188 157.1875 174.941406 159.707031 C 174.730469 160.402344 174.460938 161.226562 174.222656 162 C 174.460938 162.238281 174.597656 162.558594 174.597656 162.933594 C 174.597656 163.304688 174.4375 163.652344 174.195312 163.890625 C 172.8125 165.277344 172.785156 165.304688 172.222656 165.304688 Z M 172.199219 165.117188 " fill-opacity="1" fill-rule="nonzero"/><g clip-path="url(#93d6e2f650)"><path fill="#000000" d="M 277.425781 310.980469 L 277.480469 310.5 C 277.480469 310.5 277.746094 307.570312 277.773438 307.144531 C 279.933594 307.117188 282.039062 307.0625 284.0625 307.035156 C 284.0625 305.386719 284.117188 303.734375 284.144531 302.082031 C 285.339844 302.027344 286.539062 301.976562 287.738281 301.894531 L 290.378906 301.761719 L 290.296875 299.097656 L 288.914062 245.867188 C 288.914062 245.867188 288.886719 244.480469 288.886719 244.480469 C 277.535156 236.144531 266.050781 227.992188 254.644531 219.757812 C 254.644531 219.757812 253.710938 219.8125 253.710938 219.8125 C 253.710938 219.8125 252.9375 219.867188 252.859375 219.867188 C 257.867188 216.082031 262.691406 212.03125 267.222656 207.636719 C 290.164062 186.296875 298.210938 148.28125 277.960938 122.4375 C 277.347656 121.558594 276.601562 120.652344 275.828125 119.773438 C 270.6875 110.796875 263.171875 102.910156 253.179688 96.96875 C 251.339844 95.636719 248.753906 93.824219 246.011719 91.878906 C 244.996094 90.945312 244.386719 90.386719 244.386719 90.386719 C 240.921875 87.296875 237.109375 84.792969 233.085938 82.636719 C 227.277344 78.078125 220.777344 74.75 213.925781 72.378906 C 204.921875 68.675781 195.007812 66.96875 185.386719 66.277344 C 153.199219 63.773438 116.183594 67.289062 97.878906 94.144531 C 97.292969 94.863281 96.757812 95.582031 96.199219 96.328125 C 90.523438 102.855469 86.179688 110.953125 83.730469 121 C 81.917969 127.6875 80.878906 134.507812 80.238281 141.328125 C 80.132812 142.285156 80 143.246094 79.917969 144.230469 L 79.785156 145.507812 L 80.824219 146.253906 L 113.175781 169.9375 L 113.761719 170.367188 C 121.753906 170.660156 129.777344 170.792969 137.796875 171.003906 C 137.796875 171.003906 148.5625 171.269531 155.144531 171.429688 C 152.027344 173.777344 148.90625 176.121094 145.84375 178.464844 C 127.21875 193.0625 108.589844 208.089844 95.507812 228.335938 C 91.429688 234.730469 87.992188 241.578125 85.273438 248.71875 C 81.492188 256.84375 78.613281 265.714844 76.933594 275.492188 L 78 276.453125 L 81.785156 279.914062 C 81.597656 281.539062 81.4375 283.191406 81.359375 284.816406 L 82.503906 285.644531 C 82.503906 285.644531 87.085938 288.867188 89.882812 290.867188 L 113.972656 309.113281 C 113.972656 309.113281 114.265625 309.328125 114.265625 309.328125 C 114.265625 309.328125 114.667969 309.328125 114.667969 309.328125 C 130.789062 308.769531 147.550781 308.128906 164.578125 307.4375 C 177.554688 307.4375 189.917969 307.4375 198.605469 307.4375 C 204.894531 307.382812 211.769531 307.382812 218.964844 307.382812 C 250.96875 309.488281 277.402344 311.191406 277.453125 311.03125 Z M 131.027344 75.363281 C 134.277344 74.269531 137.636719 73.417969 141.046875 72.882812 C 143.605469 72.484375 146.269531 72.136719 149.015625 71.792969 C 145.3125 72.40625 141.632812 73.230469 138.035156 74.242188 C 133.347656 75.203125 128.761719 76.453125 124.394531 78 C 125.777344 77.359375 127.191406 76.746094 128.628906 76.214844 C 129.429688 75.921875 130.226562 75.65625 131.054688 75.363281 Z M 253.019531 225.246094 C 253.019531 225.246094 253.179688 225.378906 253.257812 225.433594 C 253.125 225.433594 251.285156 225.511719 250.832031 225.539062 L 250.59375 225.355469 C 251.472656 225.300781 252.300781 225.273438 253.019531 225.246094 Z M 85.515625 134.585938 L 85.675781 134.71875 C 85.675781 134.71875 88.683594 137.011719 89.644531 137.757812 C 89.617188 137.96875 89.589844 138.15625 89.566406 138.367188 L 90.257812 138.902344 C 90.257812 138.902344 93.136719 141.085938 94.015625 141.753906 C 93.933594 142.257812 93.855469 142.738281 93.773438 143.246094 L 94.496094 143.804688 C 94.496094 143.804688 113.148438 158.511719 118.636719 162.851562 C 116.132812 162.800781 113.652344 162.746094 111.148438 162.691406 L 84.449219 143.484375 C 84.742188 140.527344 85.089844 137.570312 85.515625 134.640625 Z M 107.898438 91.640625 C 106.886719 92.730469 105.871094 93.878906 104.941406 95.101562 C 96.066406 106.265625 92.335938 120.304688 90.203125 134.160156 L 88.472656 132.773438 C 89.617188 125.769531 91.191406 118.867188 93.535156 112.234375 C 94.972656 107.597656 97.050781 103.28125 99.609375 99.339844 C 102.117188 96.515625 104.914062 93.957031 107.925781 91.667969 Z M 274.335938 124.167969 C 274.335938 124.167969 274.441406 124.410156 274.496094 124.542969 C 274.894531 125.367188 275.242188 126.21875 275.589844 127.074219 C 273.5625 123.847656 271.164062 120.839844 268.421875 118.015625 C 267.410156 116.203125 266.316406 114.445312 265.089844 112.765625 C 266.796875 114.339844 268.289062 115.671875 268.289062 115.671875 C 269.113281 116.363281 269.886719 117.082031 270.660156 117.800781 C 271.140625 118.496094 271.617188 119.160156 272.070312 119.878906 C 272.898438 121.292969 273.695312 122.703125 274.390625 124.167969 Z M 253.765625 227.539062 L 265.011719 236.222656 L 253.5 227.539062 C 253.5 227.539062 253.765625 227.539062 253.765625 227.539062 Z M 226.210938 83.355469 C 227.652344 84.417969 250.433594 101.628906 250.433594 101.628906 C 255.738281 105.066406 260.160156 109.195312 263.703125 113.777344 C 262.878906 113.113281 262.105469 112.421875 261.253906 111.808594 L 237.828125 92.226562 C 231.566406 86.898438 224.1875 83.355469 216.378906 80.984375 C 214.460938 79.8125 212.460938 78.746094 210.410156 77.839844 C 214.621094 78.773438 218.832031 79.8125 222.90625 81.117188 C 224.027344 81.835938 225.144531 82.527344 226.210938 83.328125 Z M 229.597656 226.394531 L 233.621094 226.394531 C 229.570312 226.578125 225.890625 226.738281 224.71875 226.792969 C 224.90625 226.660156 225.066406 226.527344 225.253906 226.394531 L 229.410156 226.394531 C 229.460938 226.394531 229.542969 226.394531 229.597656 226.394531 Z M 102.730469 121.453125 C 109.710938 100.296875 129.214844 86.046875 150.933594 82.953125 C 170.359375 80.371094 196.019531 78.90625 216.777344 85.300781 C 217.3125 85.617188 217.871094 85.910156 218.378906 86.257812 C 219.871094 87.269531 243.503906 103.253906 243.503906 103.253906 C 271.992188 119.640625 277.402344 155.3125 261.414062 182.621094 C 257.148438 189.652344 252.007812 195.996094 246.332031 201.882812 C 236.3125 210.96875 225.011719 218.773438 213.980469 226.445312 L 216.484375 226.445312 C 216.484375 226.445312 217.949219 226.445312 217.949219 226.445312 C 216.511719 227.566406 215.074219 228.683594 213.632812 229.777344 L 216.140625 229.644531 L 234.605469 228.628906 C 230.15625 231.722656 225.652344 234.730469 221.175781 237.742188 L 223.679688 237.742188 C 223.679688 237.742188 254.804688 238.273438 254.804688 238.273438 L 256.082031 239.367188 L 273.855469 255.566406 C 273.589844 267.019531 273.402344 278.449219 273.21875 289.90625 C 235.21875 290.199219 188.800781 291.050781 150.960938 291.664062 L 112.507812 292.492188 L 91.484375 276.664062 C 105.871094 201.003906 200.898438 178.945312 202.042969 138.234375 C 201.589844 138.289062 201.164062 138.367188 200.710938 138.421875 C 200.203125 138.421875 199.671875 138.554688 199.40625 138.609375 C 198.523438 138.769531 197.671875 139.007812 196.875 139.25 C 197.804688 136.503906 198.367188 133.679688 198.472656 130.777344 L 198.472656 128.457031 C 198.472656 128.457031 196.207031 128.882812 196.207031 128.882812 C 195.0625 129.070312 193.96875 129.335938 192.929688 129.628906 C 193.007812 128.859375 193.117188 128.058594 193.117188 127.257812 C 185.867188 128.058594 180.726562 131.496094 177.046875 136.316406 C 170.757812 141.246094 167.585938 149.265625 166.175781 157.632812 L 142.351562 155.980469 C 134.679688 155.445312 127.003906 154.914062 119.328125 154.355469 C 112.722656 148.332031 100.890625 137.570312 98.625 135.492188 C 99.71875 130.695312 101.023438 125.980469 102.730469 121.425781 Z M 235.910156 94.890625 C 235.910156 94.890625 236.285156 95.15625 236.683594 95.476562 L 234.660156 94.011719 C 235.058594 94.304688 235.511719 94.570312 235.882812 94.863281 Z M 234.257812 213.230469 C 229.648438 217.203125 224.90625 221.011719 220.136719 224.742188 L 218.992188 224.742188 C 224.105469 221.011719 229.25 217.203125 234.285156 213.230469 Z M 227.625 235.15625 C 228.371094 235.210938 229.460938 235.265625 229.460938 235.265625 C 229.460938 235.265625 235.21875 235.609375 240.972656 235.929688 L 226.210938 236.171875 C 226.691406 235.824219 227.144531 235.503906 227.625 235.15625 Z M 237.589844 228.472656 C 235.804688 229.617188 233.992188 230.761719 232.207031 231.878906 C 233.753906 230.761719 235.296875 229.644531 236.84375 228.523438 Z M 144.882812 191.652344 C 155.410156 184.191406 166.335938 177.132812 176.914062 170.019531 L 178.328125 170.125 C 178.328125 170.125 178.40625 170.125 178.511719 170.125 C 170.597656 176.625 162.125 182.488281 153.890625 188.589844 C 139.394531 199.539062 124.925781 210.78125 112.90625 224.449219 C 121.996094 212.433594 133.132812 201.644531 144.882812 191.625 Z M 169.773438 165.382812 C 170.492188 164.636719 171.183594 163.917969 171.878906 163.171875 C 171.984375 163.171875 172.785156 163.226562 172.835938 163.226562 C 171.984375 163.972656 171.105469 164.71875 170.226562 165.464844 C 170.144531 165.464844 169.851562 165.410156 169.746094 165.410156 Z M 191.089844 130.269531 C 189.863281 130.75 188.71875 131.335938 187.652344 132 C 187.652344 131.949219 187.652344 131.867188 187.652344 131.816406 C 185.839844 132.109375 184.1875 132.585938 182.671875 133.175781 C 182.882812 133.015625 183.070312 132.855469 183.28125 132.722656 C 185.65625 131.148438 188.371094 130.082031 191.171875 129.496094 C 191.171875 129.738281 191.117188 130.003906 191.089844 130.242188 Z M 184.082031 142.285156 C 184.082031 142.285156 183.894531 142.285156 183.816406 142.339844 C 182.855469 142.738281 182.5625 142.898438 182.164062 143.109375 C 183.015625 141.621094 184.003906 140.234375 185.121094 138.980469 C 184.855469 140.101562 184.507812 141.191406 184.109375 142.257812 Z M 179.125 150.117188 Z M 177.449219 156.832031 C 178.300781 155.792969 179.097656 154.726562 179.84375 153.6875 C 180.457031 153.046875 181.019531 152.410156 181.578125 151.796875 C 182.351562 151.449219 182.9375 151.105469 183.335938 150.785156 C 182.457031 152.328125 181.683594 153.953125 181.019531 155.660156 C 179.6875 156.992188 178.351562 158.269531 176.996094 159.550781 C 177.128906 158.667969 177.289062 157.765625 177.449219 156.886719 Z M 199.269531 144.496094 C 196.207031 150.382812 191.410156 154.964844 186.160156 158.9375 C 187.011719 156.804688 187.972656 154.726562 189.144531 152.808594 C 190.210938 151.476562 191.222656 150.117188 192.15625 148.734375 C 194.101562 146.65625 196.472656 145.054688 199.378906 144.148438 C 199.351562 144.257812 199.324219 144.390625 199.296875 144.496094 Z M 186.90625 149.265625 C 186.5625 149.71875 186.214844 150.171875 185.839844 150.597656 C 185.386719 151.128906 184.882812 151.609375 184.402344 152.117188 C 185.65625 149.773438 187.199219 147.640625 189.171875 145.828125 C 188.347656 146.894531 187.601562 148.066406 186.90625 149.265625 Z M 178.566406 163.839844 C 178.351562 164.746094 178.195312 165.648438 178.035156 166.582031 L 175.902344 166.289062 C 175.902344 166.289062 175.847656 166.289062 175.847656 166.289062 C 176.78125 165.488281 177.6875 164.691406 178.59375 163.863281 Z M 179.738281 166.820312 C 180.058594 165.117188 180.433594 163.4375 180.859375 161.734375 C 181.496094 161.148438 182.109375 160.535156 182.722656 159.921875 C 182.136719 162.054688 181.65625 164.15625 181.257812 166.183594 C 187.386719 161.039062 193.808594 155.367188 197.832031 148.359375 C 196.019531 152.382812 193.355469 156.113281 190.398438 159.390625 C 186.878906 163.011719 183.125 166.371094 179.257812 169.566406 C 179.339844 169.167969 179.390625 168.742188 179.472656 168.3125 C 180.113281 167.886719 180.75 167.460938 181.390625 167.007812 L 179.738281 166.769531 Z M 185.972656 146.894531 C 186.027344 146.679688 186.054688 146.496094 186.082031 146.28125 C 188.957031 142.257812 191.0625 138.183594 192.183594 133.945312 C 192.902344 133.652344 193.675781 133.386719 194.476562 133.175781 C 194.074219 136.050781 193.140625 138.902344 191.808594 141.59375 C 189.546875 143.003906 187.625 144.816406 185.972656 146.867188 Z M 185.949219 143.296875 C 185.949219 143.296875 185.839844 143.085938 185.789062 143.003906 C 186.535156 140.980469 187.039062 138.957031 187.359375 136.878906 C 188.1875 136.183594 189.09375 135.570312 190.050781 135.039062 C 189.09375 137.941406 187.679688 140.714844 185.972656 143.324219 Z M 178.085938 137.835938 C 179.898438 136.476562 181.949219 135.464844 184.109375 134.71875 C 178.859375 139.59375 175.847656 146.8125 174.304688 154.222656 C 173.742188 154.671875 173.34375 155.019531 173.34375 155.019531 C 173.558594 154.914062 173.875 154.808594 174.222656 154.648438 C 174.089844 155.261719 173.984375 155.847656 173.875 156.457031 C 172.890625 157.335938 171.90625 158.191406 170.890625 159.042969 C 171.957031 151.796875 173.558594 143.964844 177.847656 138.050781 C 177.925781 137.96875 178.035156 137.890625 178.113281 137.835938 Z M 169.347656 157.898438 L 167.933594 157.789062 C 168.8125 152.355469 170.359375 147 173.421875 142.660156 C 171.320312 147.375 170.066406 152.675781 169.347656 157.871094 Z M 122.046875 156.832031 C 128.789062 157.203125 135.558594 157.605469 142.300781 158.003906 L 165.960938 159.390625 L 122.820312 157.523438 C 122.820312 157.523438 122.207031 156.964844 122.046875 156.832031 Z M 279.933594 270.058594 C 279.746094 266.859375 279.558594 263.664062 279.347656 260.46875 L 280.625 261.613281 C 280.546875 262.546875 280.277344 265.714844 279.933594 270.03125 Z M 274.125 247.785156 C 274.125 248.53125 274.097656 249.277344 274.070312 250.050781 L 256.164062 236.035156 L 255.789062 235.742188 L 255.363281 235.742188 C 255.363281 235.742188 254.40625 235.742188 254.40625 235.742188 C 254.40625 235.742188 254.03125 235.398438 254.03125 235.398438 L 253.84375 235.210938 L 253.578125 235.210938 C 253.578125 235.210938 232.179688 233.824219 232.179688 233.824219 C 235.136719 232.039062 238.070312 230.203125 240.972656 228.285156 L 247.316406 227.9375 L 270.046875 244.429688 L 274.148438 247.734375 Z M 221.441406 227.671875 L 218.589844 227.910156 C 219.175781 227.433594 219.738281 226.953125 220.324219 226.472656 L 223.066406 226.472656 C 222.535156 226.871094 221.976562 227.273438 221.441406 227.671875 Z M 222.453125 224.742188 C 230.902344 217.761719 239.375 210.59375 246.917969 202.628906 C 253.550781 196.5 259.679688 189.839844 264.691406 182.195312 C 276.574219 164.71875 278.972656 142.578125 271.378906 124.140625 C 274.042969 127.367188 276.253906 130.828125 278.039062 134.480469 C 282.039062 150.730469 278.707031 168.898438 269.539062 183.046875 C 258.375 200.152344 241.933594 212.644531 225.597656 224.632812 Z M 264.238281 181.929688 C 261.011719 186.671875 257.414062 191.011719 253.5 195.117188 C 256.589844 191.277344 259.441406 187.257812 261.945312 182.96875 C 275.960938 159.867188 274.097656 130.003906 256.242188 110.847656 C 258.429688 112.554688 259.894531 113.699219 259.894531 113.699219 C 262.929688 115.75 265.621094 118.042969 268.074219 120.492188 C 278.359375 139.0625 276.734375 162.933594 264.238281 181.929688 Z M 201.324219 73.152344 C 198.257812 72.722656 195.167969 72.324219 192.050781 72.003906 C 196.660156 72.351562 201.242188 72.910156 205.773438 73.816406 C 206.011719 73.898438 206.28125 73.949219 206.546875 74.003906 C 204.8125 73.683594 203.082031 73.390625 201.351562 73.152344 Z M 140.300781 78.824219 C 156.503906 75.949219 175.714844 74.109375 192.847656 76.90625 C 167.242188 74.722656 138.914062 76.5625 119.382812 91.160156 C 125.378906 85.671875 132.574219 81.570312 140.300781 78.824219 Z M 101.023438 142.871094 L 97.613281 140.152344 C 97.613281 140.152344 97.664062 139.914062 97.691406 139.808594 Z M 144.136719 161.8125 C 154.664062 162.347656 159.488281 162.585938 165.457031 162.878906 C 165.457031 163.09375 165.429688 163.304688 165.402344 163.519531 C 165.347656 163.570312 165.296875 163.625 165.242188 163.652344 L 156.128906 163.492188 C 150.507812 162.691406 149.867188 162.613281 144.164062 161.8125 Z M 280.8125 260.148438 C 280.8125 260.148438 279.90625 259.296875 279.773438 259.1875 L 280.8125 260.066406 Z M 235.644531 221.382812 C 235.644531 221.382812 233.726562 222.929688 231.941406 224.367188 L 227.785156 224.5 C 243.480469 212.617188 259.253906 200.070312 269.886719 183.285156 C 274.976562 175.453125 278.253906 166.394531 279.53125 157.125 C 278.226562 168.394531 274.070312 179.398438 267.703125 188.75 C 259.121094 201.375 247.503906 211.792969 235.644531 221.410156 Z M 125.378906 82.316406 C 114.933594 88.789062 106.324219 98.488281 100.757812 112.605469 C 97.585938 120.199219 95.402344 128.085938 93.640625 136.023438 L 94.441406 136.769531 L 94.789062 137.089844 C 94.734375 137.304688 94.707031 137.515625 94.679688 137.757812 L 92.894531 136.316406 C 94.8125 122.359375 98.277344 107.996094 107.070312 96.78125 C 111.28125 91.292969 116.371094 86.976562 122.046875 83.59375 C 123.140625 83.140625 124.257812 82.714844 125.40625 82.316406 Z M 119.808594 160.5625 C 119.808594 160.5625 120.289062 160.5625 120.289062 160.5625 L 122.179688 162.320312 L 122.632812 162.71875 L 123.246094 162.800781 L 123.804688 162.878906 C 123.40625 162.878906 123.007812 162.878906 122.605469 162.878906 Z M 195.96875 300.800781 C 214.59375 299.363281 238.550781 297.84375 259.839844 296.246094 C 268.6875 295.875 273.832031 295.632812 277.746094 295.472656 C 277.695312 295.980469 277.667969 296.488281 277.613281 296.992188 C 264.851562 297.710938 244.226562 298.882812 244.226562 298.882812 C 229.195312 299.789062 212.941406 300.777344 196.367188 301.789062 C 191.542969 301.789062 186.773438 301.789062 182.082031 301.789062 C 187.28125 301.414062 192.023438 301.09375 195.992188 300.800781 Z M 278.679688 296.941406 C 278.734375 296.328125 278.761719 296.058594 278.8125 295.421875 C 278.945312 295.421875 279.453125 295.394531 279.558594 295.394531 C 279.558594 295.902344 279.53125 296.378906 279.507812 296.886719 C 279.238281 296.886719 278.972656 296.914062 278.679688 296.941406 Z M 278.894531 253.78125 C 278.761719 251.460938 278.625 249.144531 278.46875 246.800781 C 278.46875 246.800781 278.46875 246.667969 278.46875 246.613281 L 280.890625 248.480469 L 280.890625 255.296875 C 280.890625 255.296875 278.894531 253.753906 278.894531 253.753906 Z M 244.996094 220.320312 C 254.964844 211.6875 264.371094 202.390625 271.75 191.332031 C 277.855469 182.167969 281.691406 172.097656 283.261719 161.945312 C 282.597656 173.054688 278.8125 184.21875 272.125 193.996094 C 264.929688 204.199219 255.789062 212.644531 245.957031 220.265625 C 245.476562 220.292969 245.476562 220.292969 244.996094 220.320312 Z M 121.433594 165.011719 C 121.433594 165.011719 122.261719 165.675781 122.261719 165.675781 C 122.261719 165.675781 122.449219 165.835938 122.527344 165.890625 C 120.023438 165.808594 117.597656 165.757812 115.359375 165.703125 L 114.425781 165.039062 C 116.773438 165.039062 119.089844 165.039062 121.433594 165.039062 Z M 276.496094 310.394531 C 277.402344 310.101562 258.722656 308.847656 233.621094 307.304688 C 248.433594 307.304688 263.597656 307.304688 276.761719 307.117188 C 276.601562 309.167969 276.496094 310.367188 276.496094 310.367188 Z M 284.222656 295.207031 C 284.460938 295.207031 284.648438 295.207031 284.753906 295.207031 C 284.753906 295.421875 284.78125 296.488281 284.808594 296.621094 C 284.621094 296.621094 284.4375 296.621094 284.222656 296.648438 C 284.222656 296.167969 284.222656 295.6875 284.222656 295.207031 Z M 286.726562 166.664062 C 283.554688 189.734375 267.886719 206.570312 249.714844 220.050781 C 248.941406 220.105469 248.59375 220.105469 247.609375 220.160156 C 256.988281 212.59375 265.703125 204.308594 272.523438 194.289062 C 281.183594 182.007812 285.074219 167.300781 284.007812 153.15625 C 284.195312 145.910156 283.210938 138.742188 281.078125 131.921875 C 286.539062 142.5 288.621094 154.808594 286.699219 166.664062 Z M 286.726562 166.664062 " fill-opacity="1" fill-rule="nonzero"/></g><path fill="#ffffff" d="M 172.089844 73.203125 C 191.570312 73.203125 206.679688 75.46875 217.417969 79.917969 C 228.15625 84.394531 236.496094 91.238281 242.464844 100.484375 C 248.460938 109.757812 251.3125 120.09375 251.046875 131.601562 C 250.753906 143.804688 246.890625 155.5 239.507812 166.609375 C 232.128906 177.71875 218.882812 189.945312 199.777344 203.242188 C 188.453125 210.992188 180.859375 216.429688 177.019531 219.492188 C 173.183594 222.609375 168.679688 226.632812 163.484375 231.640625 L 249.953125 231.640625 C 249.953125 231.640625 248.835938 277.039062 248.835938 277.039062 L 82.691406 277.039062 C 84.980469 260.546875 91.136719 245.042969 101.15625 230.496094 C 111.175781 215.949219 129.667969 198.792969 156.742188 179.023438 C 173.265625 166.902344 183.871094 157.710938 188.53125 151.398438 C 193.222656 145.109375 195.621094 139.140625 195.78125 133.492188 C 195.941406 127.367188 193.808594 122.171875 189.4375 117.828125 C 185.070312 113.511719 179.472656 111.355469 172.675781 111.355469 C 165.882812 111.355469 159.753906 113.59375 155.144531 118.042969 C 150.558594 122.515625 147.363281 130.375 145.550781 141.699219 L 90.175781 137.195312 C 92.734375 121.53125 97.027344 109.304688 103.023438 100.484375 C 109.042969 91.691406 117.382812 84.953125 128.042969 80.265625 C 138.730469 75.574219 153.386719 73.203125 172.066406 73.203125 Z M 172.089844 73.203125 " fill-opacity="1" fill-rule="nonzero"/></svg>