<svg xmlns="http://www.w3.org/2000/svg" xmlns:xlink="http://www.w3.org/1999/xlink" width="500" zoomAndPan="magnify" viewBox="0 0 375 374.999991" height="500" preserveAspectRatio="xMidYMid meet" version="1.0"><defs><clipPath id="7fef6bf3a0"><path d="M 80.113281 65 L 290 65 L 290 310.757812 L 80.113281 310.757812 Z M 80.113281 65 " clip-rule="nonzero"/></clipPath></defs><path fill="#000000" d="M 251.679688 183.203125 C 251.4375 183.203125 251.253906 183.042969 251.039062 182.828125 C 250.507812 182.324219 250.480469 181.472656 250.988281 180.941406 C 251.011719 180.914062 251.066406 180.859375 251.09375 180.832031 C 251.679688 180.273438 258.382812 173.566406 261.257812 170.664062 C 262.660156 169.261719 263.546875 168.5625 263.917969 168.5625 L 263.917969 169.894531 C 263.917969 169.894531 262.988281 170.824219 262.988281 170.824219 L 263.917969 169.894531 L 264.851562 170.851562 L 263.148438 172.554688 C 254.472656 181.257812 252.554688 183.203125 251.679688 183.203125 Z M 251.679688 183.203125 " fill-opacity="1" fill-rule="nonzero"/><path fill="#000000" d="M 196.703125 303.089844 C 196.355469 303.089844 196.011719 302.957031 195.746094 302.691406 C 195.238281 302.1875 194.945312 301.894531 196.304688 300.164062 C 193.296875 303.039062 193.03125 303.039062 192.632812 303.039062 C 192.285156 303.039062 191.9375 302.902344 191.671875 302.636719 C 191.21875 302.1875 190.953125 301.917969 192.097656 300.347656 C 189.464844 302.902344 189.226562 302.902344 188.878906 302.902344 C 188.53125 302.902344 188.1875 302.769531 187.949219 302.503906 C 186.882812 301.441406 186.828125 301.386719 199.441406 288.078125 C 185.046875 302.585938 184.753906 302.585938 184.089844 302.613281 C 183.742188 302.613281 183.398438 302.476562 183.132812 302.210938 C 182.316406 301.394531 191.027344 291.21875 209.261719 271.679688 C 179.300781 302.078125 179.140625 302.078125 178.289062 302.078125 C 177.941406 302.078125 177.597656 301.945312 177.332031 301.679688 C 176.90625 301.253906 176.664062 301.015625 177.621094 299.683594 L 177.621094 299.628906 C 177.621094 299.628906 177.703125 299.523438 177.808594 299.445312 C 179.378906 297.367188 183.503906 292.976562 193.136719 282.699219 C 198.191406 277.296875 204.101562 271.015625 210.378906 264.359375 C 185.898438 288.929688 177.675781 297.179688 174.695312 299.949219 C 174.191406 300.457031 173.898438 300.773438 173.816406 300.855469 L 173.738281 300.800781 C 173.097656 301.332031 172.964844 301.359375 172.804688 301.359375 C 172.460938 301.359375 172.113281 301.226562 171.875 300.988281 C 171.582031 300.695312 171.371094 300.480469 171.394531 300.1875 C 171.371094 300.214844 171.34375 300.242188 171.316406 300.269531 C 170.570312 300.933594 170.410156 300.933594 170.226562 300.933594 C 169.878906 300.933594 169.535156 300.800781 169.292969 300.535156 C 168.867188 300.109375 168.601562 299.84375 169.425781 298.644531 L 169.375 298.566406 C 169.375 298.566406 169.585938 298.378906 169.800781 298.140625 C 171.371094 296.117188 175.253906 292.042969 183.929688 282.914062 C 185.101562 281.691406 186.296875 280.410156 187.574219 279.082031 C 174.507812 292.175781 169.558594 297.046875 167.511719 298.886719 C 167.164062 299.230469 166.953125 299.46875 166.925781 299.523438 L 166.871094 299.46875 C 166.234375 300.003906 166.101562 300.003906 165.941406 300.003906 C 165.59375 300.003906 165.25 299.871094 165.011719 299.605469 C 164.609375 299.203125 164.371094 298.964844 165.277344 297.742188 L 165.167969 297.582031 C 165.167969 297.582031 165.675781 297.128906 166.261719 296.542969 C 167.855469 294.707031 170.917969 291.511719 176.425781 285.761719 C 184.835938 276.976562 198.433594 262.816406 212.296875 248.285156 C 197.792969 262.898438 183.558594 277.296875 174.777344 286.160156 C 162.242188 298.859375 162.136719 298.804688 161.683594 298.832031 C 161.335938 298.832031 160.992188 298.699219 160.753906 298.433594 C 160.484375 298.167969 160.273438 297.953125 160.511719 297.339844 C 159.769531 297.925781 159.449219 298.140625 159.207031 298.03125 C 158.863281 298.03125 158.492188 297.875 158.25 297.632812 C 157.796875 297.179688 157.558594 296.914062 158.648438 295.503906 C 159.316406 294.625 160.511719 293.320312 162.457031 291.273438 C 156.761719 296.835938 156.414062 296.835938 155.9375 296.835938 C 155.589844 296.835938 155.21875 296.703125 154.976562 296.4375 C 154.445312 295.929688 154.234375 295.691406 155.324219 294.332031 C 156.230469 293.242188 157.984375 291.40625 161.152344 288.105469 L 169.480469 279.453125 C 153.59375 295.53125 153.433594 295.53125 152.824219 295.53125 C 152.476562 295.53125 152.128906 295.398438 151.890625 295.132812 C 151.652344 294.890625 151.464844 294.707031 151.546875 294.28125 C 151.144531 294.546875 150.988281 294.546875 150.828125 294.546875 C 150.480469 294.546875 150.109375 294.414062 149.867188 294.148438 C 149.523438 293.800781 149.257812 293.535156 150.242188 292.070312 C 150.242188 292.070312 150.292969 292.015625 150.320312 291.992188 C 152.078125 289.460938 157.53125 283.445312 172.328125 267.792969 C 147.925781 292.335938 147.554688 292.335938 146.78125 292.335938 C 146.4375 292.335938 146.089844 292.203125 145.824219 291.9375 C 145.453125 291.566406 145.210938 291.324219 145.425781 290.847656 C 145.078125 291.085938 144.945312 291.085938 144.757812 291.085938 C 144.414062 291.085938 144.066406 290.953125 143.800781 290.6875 C 143.347656 290.234375 143.082031 289.96875 144.066406 288.636719 C 142.976562 289.570312 142.765625 289.570312 142.523438 289.570312 C 142.179688 289.570312 141.832031 289.433594 141.566406 289.167969 C 140.929688 288.53125 143.765625 284.601562 150.082031 277.378906 C 151.011719 276.3125 151.972656 275.195312 152.980469 274.050781 C 140.101562 287.144531 140.050781 287.011719 139.277344 287.121094 C 138.933594 287.121094 138.585938 286.988281 138.320312 286.71875 C 137.921875 286.320312 137.679688 286.082031 138.613281 284.75 L 138.558594 284.671875 C 138.558594 284.671875 138.71875 284.539062 138.851562 284.40625 C 138.984375 284.21875 139.171875 284.003906 139.359375 283.765625 C 137.65625 285.390625 137.496094 285.390625 137.148438 285.390625 C 136.804688 285.390625 136.457031 285.257812 136.21875 285.015625 C 135.925781 284.722656 135.738281 284.539062 136.03125 283.871094 C 135.738281 284.058594 135.632812 284.113281 135.472656 284.058594 C 135.125 284.058594 134.808594 283.925781 134.566406 283.710938 C 134.035156 283.234375 133.824219 283.019531 134.726562 281.742188 L 134.675781 281.691406 C 134.675781 281.691406 134.808594 281.554688 134.941406 281.449219 C 135.765625 280.359375 137.28125 278.628906 139.835938 275.675781 C 142.125 273.039062 145.183594 269.5 148.511719 265.664062 C 137.972656 276.367188 134.542969 279.800781 133.210938 280.917969 C 133.210938 280.917969 133.183594 280.945312 133.15625 280.972656 C 132.574219 281.449219 132.386719 281.449219 132.148438 281.449219 C 131.800781 281.449219 131.453125 281.316406 131.214844 281.050781 C 130.65625 280.492188 130.445312 280.277344 131.429688 279.027344 C 132.011719 278.253906 133.050781 277.085938 134.699219 275.246094 L 138.878906 270.535156 C 133.691406 275.753906 131.535156 277.855469 130.523438 278.707031 C 129.859375 279.265625 129.617188 279.347656 129.457031 279.265625 C 129.113281 279.265625 128.765625 279.132812 128.527344 278.894531 C 128.101562 278.46875 127.863281 278.253906 128.792969 276.976562 L 128.714844 276.871094 C 128.714844 276.871094 128.980469 276.660156 129.21875 276.417969 C 129.992188 275.40625 131.296875 273.917969 133.371094 271.65625 C 130.683594 274.34375 129.246094 275.78125 128.421875 276.550781 C 128.289062 276.710938 128.207031 276.820312 128.15625 276.871094 L 128.101562 276.871094 C 127.4375 277.429688 127.304688 277.429688 127.0625 277.429688 C 126.71875 277.429688 126.371094 277.296875 126.105469 277.03125 C 125.707031 276.632812 125.46875 276.390625 126.292969 275.222656 L 126.1875 275.089844 C 126.1875 275.089844 126.558594 274.714844 127.0625 274.238281 C 127.304688 273.917969 127.621094 273.570312 127.96875 273.171875 C 127.488281 273.625 127.0625 274.023438 126.691406 274.34375 C 126.34375 274.742188 126.132812 275.007812 126.054688 275.113281 L 125.894531 275.007812 C 124.640625 275.992188 124.402344 275.753906 124.003906 275.355469 C 123.632812 274.980469 123.390625 274.742188 124.242188 273.519531 L 124.109375 273.359375 C 124.109375 273.359375 124.484375 273.011719 124.910156 272.585938 C 125.917969 271.28125 127.648438 269.257812 130.523438 266.011719 C 126.984375 269.550781 124.933594 271.519531 123.683594 272.558594 C 123.578125 272.691406 123.5 272.800781 123.445312 272.878906 L 123.363281 272.824219 C 122.035156 273.890625 121.796875 273.625 121.34375 273.199219 C 121.050781 272.90625 120.835938 272.691406 121.128906 272 C 120.835938 272.1875 120.703125 272.1875 120.542969 272.1875 C 120.199219 272.1875 119.851562 272.054688 119.585938 271.789062 C 119.1875 271.386719 118.949219 271.148438 119.71875 269.949219 C 118.972656 270.589844 118.816406 270.589844 118.546875 270.589844 C 118.308594 270.589844 117.855469 270.457031 117.589844 270.191406 C 117.164062 269.738281 116.898438 269.5 117.777344 268.195312 C 117.777344 268.195312 117.777344 268.167969 117.832031 268.140625 C 118.972656 266.4375 121.980469 262.949219 128.742188 255.125 C 129.457031 254.300781 130.175781 253.449219 130.921875 252.597656 C 127.355469 256.214844 123.285156 260.316406 118.683594 264.972656 C 115.300781 268.40625 115.300781 268.378906 114.34375 267.582031 C 113.972656 267.210938 113.707031 266.941406 114.398438 265.746094 L 114.265625 265.613281 C 114.265625 265.613281 114.503906 265.371094 114.875 265 C 116.339844 262.898438 119.800781 258.796875 127.277344 250.121094 L 118.972656 258.453125 C 115.886719 261.539062 114.132812 263.296875 113.066406 264.203125 C 113.015625 264.253906 112.988281 264.308594 112.960938 264.359375 L 112.933594 264.359375 C 111.65625 265.371094 111.417969 265.160156 110.910156 264.628906 C 110.539062 264.253906 110.300781 264.015625 111.125 262.789062 L 111.019531 262.65625 C 111.019531 262.65625 111.363281 262.339844 111.761719 261.9375 C 112.746094 260.660156 114.425781 258.664062 117.273438 255.46875 C 116.5 256.242188 115.78125 256.960938 115.117188 257.652344 C 111.285156 261.488281 109.050781 263.09375 108.410156 262.472656 C 108.039062 262.097656 107.796875 261.859375 108.597656 260.582031 L 108.515625 260.476562 C 108.515625 260.476562 108.730469 260.289062 108.941406 260.074219 C 110.351562 258.050781 113.8125 253.953125 121.476562 245.117188 C 112.773438 253.847656 109.261719 257.386719 107.691406 258.824219 C 107.480469 259.0625 107.347656 259.222656 107.292969 259.277344 L 107.238281 259.222656 C 106.574219 259.808594 106.441406 259.808594 106.226562 259.808594 C 105.882812 259.808594 105.5625 259.675781 105.296875 259.4375 C 104.871094 259.039062 104.660156 258.796875 105.457031 257.601562 L 105.351562 257.46875 C 105.351562 257.46875 105.667969 257.148438 106.070312 256.75 C 107.320312 255.125 109.765625 252.328125 114.183594 247.246094 C 114.851562 246.472656 115.570312 245.675781 116.285156 244.824219 C 104.445312 256.800781 104.234375 256.800781 103.539062 256.800781 C 103.195312 256.800781 102.847656 256.667969 102.582031 256.402344 C 102.183594 256.003906 101.972656 255.789062 102.929688 254.433594 L 102.847656 254.324219 C 102.847656 254.324219 103.0625 254.140625 103.25 253.980469 C 103.992188 252.996094 105.21875 251.53125 107.160156 249.320312 C 102.238281 254.21875 101.996094 254.21875 101.492188 254.21875 C 101.144531 254.21875 100.800781 254.085938 100.535156 253.820312 C 100.1875 253.472656 99.976562 253.261719 100.480469 252.355469 C 100.375 252.382812 100.214844 252.355469 100.160156 252.382812 C 99.816406 252.382812 99.46875 252.25 99.203125 251.984375 C 98.804688 251.585938 98.539062 251.34375 99.46875 249.960938 C 99.46875 249.960938 99.496094 249.90625 99.523438 249.90625 C 100.320312 248.683594 101.996094 246.605469 105.164062 242.855469 C 98.804688 249.214844 98.644531 249.214844 98.113281 249.214844 C 97.765625 249.214844 97.421875 249.082031 97.179688 248.816406 C 96.78125 248.417969 96.570312 248.175781 97.394531 246.847656 L 97.394531 246.792969 C 97.394531 246.792969 97.445312 246.714844 97.527344 246.632812 C 98.539062 245.089844 100.800781 242.214844 105.375 236.4375 C 96.621094 245.277344 96.542969 245.277344 95.902344 245.277344 C 95.558594 245.277344 95.210938 245.144531 94.972656 244.875 C 94.574219 244.476562 94.332031 244.238281 95.160156 242.855469 C 95.160156 242.855469 95.160156 242.855469 95.160156 242.828125 C 95.929688 241.523438 97.605469 239.261719 100.851562 234.949219 C 94.601562 241.308594 94.519531 241.308594 93.90625 241.308594 C 93.5625 241.308594 93.214844 241.175781 92.976562 240.9375 C 92.605469 240.589844 92.417969 240.378906 93.164062 238.941406 L 93.164062 238.886719 C 93.164062 238.886719 93.191406 238.835938 93.242188 238.808594 C 93.933594 237.582031 95.265625 235.480469 97.738281 231.78125 C 95.210938 234.308594 93.933594 235.585938 93.191406 236.253906 C 93.136719 236.304688 93.109375 236.359375 93.082031 236.386719 C 92.417969 236.972656 92.285156 236.972656 92.019531 236.972656 C 91.671875 236.972656 91.351562 236.839844 91.085938 236.597656 C 90.660156 236.199219 90.449219 235.984375 91.035156 235 C 90.769531 234.949219 90.527344 234.816406 90.34375 234.628906 C 89.730469 234.015625 89.675781 233.964844 92.019531 228.691406 C 90.261719 230.449219 90.15625 230.449219 89.703125 230.449219 C 89.359375 230.449219 89.011719 230.316406 88.773438 230.050781 C 88.347656 229.625 88.1875 229.464844 88.773438 228.054688 C 88.558594 228.054688 88.375 227.949219 88.1875 227.839844 C 87.574219 227.441406 87.574219 227.015625 87.628906 225.898438 C 87.628906 225.257812 87.679688 224.433594 87.679688 223.980469 L 87.253906 223.527344 L 87.707031 223.078125 C 88.238281 222.542969 88.558594 222.226562 89.25 222.332031 C 89.515625 222.382812 89.785156 222.515625 89.96875 222.703125 C 90.183594 222.917969 90.289062 223.023438 90.316406 223.476562 C 91.9375 221.851562 91.964844 221.851562 92.496094 221.851562 C 92.765625 221.851562 93.03125 221.933594 93.242188 222.066406 C 93.695312 222.382812 93.855469 222.730469 93.828125 223.128906 C 95.609375 221.347656 95.742188 221.347656 96.167969 221.347656 C 96.515625 221.347656 96.835938 221.480469 97.074219 221.71875 C 97.535156 222.164062 96.976562 224.148438 95.398438 227.679688 C 98.882812 224.140625 100.800781 222.199219 101.972656 221.214844 C 102.078125 221.082031 102.15625 221 102.183594 220.945312 L 102.238281 221 C 103.433594 220.042969 103.675781 220.28125 104.207031 220.789062 C 104.390625 220.945312 104.523438 221.082031 104.578125 221.238281 C 104.816406 221 105.03125 220.8125 105.191406 220.679688 C 105.191406 220.679688 105.21875 220.628906 105.21875 220.628906 C 105.9375 219.988281 106.070312 219.988281 106.335938 219.988281 C 106.652344 219.988281 106.972656 220.09375 107.214844 220.335938 C 107.746094 220.8125 107.957031 221 107.214844 222.332031 C 106.734375 223.15625 105.910156 224.40625 104.550781 226.429688 C 103.941406 227.363281 103.195312 228.453125 102.449219 229.597656 C 109.386719 222.535156 113.101562 219.003906 113.597656 219.003906 C 113.945312 219.003906 114.292969 219.136719 114.558594 219.402344 C 114.984375 219.828125 115.195312 220.070312 114.34375 221.425781 C 113.492188 222.785156 111.628906 225.234375 107.929688 230.105469 C 108.382812 229.625 108.835938 229.171875 109.289062 228.71875 C 116.3125 221.621094 120.039062 218.070312 120.464844 218.070312 C 120.8125 218.070312 121.15625 218.207031 121.394531 218.472656 C 121.796875 218.84375 122.007812 219.082031 121.210938 220.386719 L 121.261719 220.46875 C 121.261719 220.46875 121.128906 220.574219 120.996094 220.707031 C 119.960938 222.332031 117.589844 225.339844 112.800781 231.382812 C 114.078125 230.078125 115.328125 228.824219 116.472656 227.65625 C 122.726562 221.347656 125.226562 218.816406 126.34375 217.804688 C 126.34375 217.804688 126.34375 217.804688 126.34375 217.78125 C 127.089844 217.140625 127.277344 217.21875 127.464844 217.140625 C 127.808594 217.140625 128.15625 217.273438 128.394531 217.539062 C 128.792969 217.9375 129.03125 218.179688 128.234375 219.402344 L 128.316406 219.507812 C 128.316406 219.507812 128.101562 219.695312 127.890625 219.933594 C 126.90625 221.292969 124.960938 223.636719 121.421875 227.816406 C 132.679688 216.367188 132.785156 216.367188 133.53125 216.34375 C 133.875 216.449219 134.222656 216.476562 134.488281 216.742188 C 134.78125 217.035156 134.992188 217.21875 134.886719 217.621094 C 135.339844 217.167969 135.6875 216.847656 135.976562 216.609375 C 136.058594 216.527344 136.113281 216.476562 136.136719 216.421875 L 136.164062 216.421875 C 136.828125 215.863281 136.964844 215.863281 137.203125 215.863281 C 137.546875 215.863281 137.894531 215.996094 138.132812 216.261719 C 138.585938 216.714844 138.824219 216.953125 137.949219 218.179688 L 138 218.257812 C 138 218.257812 137.8125 218.417969 137.628906 218.605469 C 136.75 219.75 135.152344 221.585938 132.414062 224.699219 C 141.832031 215.144531 141.914062 215.144531 142.496094 215.144531 C 142.84375 215.144531 143.191406 215.277344 143.429688 215.542969 C 143.882812 215.996094 144.121094 216.234375 143.242188 217.511719 L 143.269531 217.511719 C 143.269531 217.511719 143.191406 217.621094 143.136719 217.671875 C 142.046875 219.242188 139.410156 222.25 133.929688 228.613281 C 133.582031 229.011719 133.210938 229.4375 132.839844 229.863281 C 140.34375 222.332031 143.375 219.324219 144.734375 218.125 C 144.785156 218.046875 144.839844 217.992188 144.867188 217.9375 L 144.894531 217.9375 C 145.636719 217.328125 145.769531 217.328125 145.984375 217.328125 C 146.328125 217.328125 146.675781 217.460938 146.914062 217.726562 C 147.289062 218.097656 147.527344 218.339844 146.703125 219.5625 L 146.808594 219.695312 C 146.808594 219.695312 146.542969 219.960938 146.222656 220.253906 C 144.679688 222.359375 141.0625 226.511719 133.34375 235.402344 C 133.132812 235.667969 132.890625 235.90625 132.679688 236.171875 C 135.5 233.324219 138.214844 230.609375 140.554688 228.265625 C 144.757812 224.0625 146.941406 221.851562 148.191406 220.8125 C 148.21875 220.761719 148.246094 220.734375 148.273438 220.707031 L 148.296875 220.707031 C 149.574219 219.695312 149.816406 219.933594 150.347656 220.441406 C 150.71875 220.8125 150.960938 221.054688 150.109375 222.332031 L 150.214844 222.464844 C 150.214844 222.464844 149.921875 222.730469 149.628906 222.996094 C 148.671875 224.273438 146.941406 226.296875 143.960938 229.652344 L 144.707031 228.90625 C 147.847656 225.765625 149.628906 223.980469 150.71875 223.023438 C 150.828125 222.890625 150.878906 222.808594 150.933594 222.757812 L 150.988281 222.757812 C 152.210938 221.773438 152.449219 222.039062 152.980469 222.542969 C 153.382812 222.945312 153.59375 223.15625 152.796875 224.378906 L 152.902344 224.515625 C 152.902344 224.515625 152.609375 224.78125 152.265625 225.125 C 150.773438 227.097656 147.5 230.875 140.820312 238.59375 C 140.234375 239.261719 139.652344 239.953125 139.039062 240.644531 C 149.230469 230.394531 152.875 226.828125 154.339844 225.605469 C 154.390625 225.523438 154.445312 225.5 154.472656 225.472656 L 154.5 225.472656 C 155.164062 224.964844 155.324219 224.914062 155.511719 224.964844 C 155.882812 224.964844 156.230469 225.125 156.46875 225.367188 C 156.921875 225.816406 157.132812 226.058594 156.203125 227.335938 L 156.203125 227.386719 C 156.203125 227.386719 156.121094 227.46875 156.042969 227.574219 C 155.136719 228.800781 153.328125 230.847656 150.082031 234.601562 C 148.007812 236.972656 145.476562 239.898438 142.738281 243.066406 C 157.929688 227.65625 158.171875 227.679688 158.835938 227.679688 C 159.183594 227.679688 159.527344 227.816406 159.792969 228.082031 C 160.195312 228.480469 160.460938 228.746094 159.476562 230.078125 C 159.476562 230.078125 159.5 230.078125 159.527344 230.050781 C 159.660156 229.917969 159.742188 229.835938 159.769531 229.785156 L 159.792969 229.785156 C 160.40625 229.277344 160.621094 229.171875 160.804688 229.277344 C 161.152344 229.277344 161.496094 229.410156 161.738281 229.679688 C 162.109375 230.050781 162.320312 230.261719 161.921875 230.957031 C 162.695312 230.394531 162.933594 230.609375 163.414062 231.007812 C 163.785156 231.382812 164.023438 231.621094 163.308594 232.792969 L 163.492188 232.976562 C 163.492188 232.976562 163.039062 233.429688 162.375 234.097656 C 161.417969 235.320312 159.925781 237.078125 157.585938 239.738281 C 161.363281 235.960938 163.148438 234.230469 164.050781 233.457031 C 164.132812 233.351562 164.183594 233.296875 164.210938 233.269531 C 164.824219 232.820312 164.984375 232.820312 165.195312 232.820312 C 165.542969 232.820312 165.886719 232.953125 166.128906 233.21875 C 166.578125 233.671875 166.820312 233.910156 165.886719 235.160156 L 165.941406 235.242188 C 165.941406 235.242188 165.726562 235.425781 165.515625 235.640625 C 165.355469 235.851562 165.167969 236.066406 164.957031 236.332031 C 167.40625 234.097656 167.671875 234.335938 168.28125 234.949219 C 168.65625 235.320312 168.921875 235.585938 168.042969 236.917969 L 168.097656 236.996094 C 168.097656 236.996094 167.964844 237.105469 167.832031 237.210938 C 167.378906 237.847656 166.714844 238.675781 165.78125 239.792969 C 167.113281 238.488281 167.9375 237.691406 168.496094 237.210938 C 168.601562 237.078125 168.65625 236.996094 168.707031 236.972656 L 168.734375 236.972656 C 169.375 236.464844 169.507812 236.464844 169.746094 236.464844 C 170.09375 236.464844 170.410156 236.597656 170.679688 236.839844 C 171.128906 237.265625 171.34375 237.503906 170.464844 238.753906 L 170.542969 238.859375 C 170.542969 238.859375 170.277344 239.101562 170.011719 239.367188 C 168.949219 240.75 166.925781 243.039062 163.386719 247.058594 C 170.410156 239.980469 170.597656 239.980469 171.183594 239.980469 C 171.527344 239.980469 171.875 240.113281 172.113281 240.378906 C 172.488281 240.75 172.726562 240.992188 171.847656 242.347656 L 171.902344 242.429688 C 171.902344 242.429688 171.796875 242.535156 171.6875 242.613281 C 170.464844 244.449219 167.484375 248.042969 160.910156 255.683594 C 166.898438 249.640625 169.613281 246.953125 170.917969 245.726562 C 171.15625 245.460938 171.316406 245.300781 171.371094 245.25 L 171.421875 245.300781 C 172.0625 244.769531 172.195312 244.769531 172.40625 244.769531 C 172.753906 244.769531 173.097656 244.902344 173.339844 245.144531 C 173.550781 245.355469 173.710938 245.515625 173.738281 245.753906 C 175.308594 244.292969 175.496094 244.210938 175.839844 244.316406 C 176.1875 244.316406 176.53125 244.449219 176.796875 244.71875 C 177.195312 245.117188 177.464844 245.382812 176.503906 246.714844 C 181.027344 242.242188 181.242188 242.242188 181.746094 242.242188 C 182.09375 242.242188 182.4375 242.375 182.707031 242.640625 C 183.078125 243.039062 183.316406 243.253906 182.386719 244.582031 L 182.464844 244.691406 C 182.464844 244.691406 182.226562 244.875 182.011719 245.0625 C 180.496094 247.085938 176.929688 251.132812 169.347656 259.757812 C 168.28125 260.953125 167.191406 262.207031 166.074219 263.457031 C 178.101562 251.371094 192.976562 236.304688 207 222.117188 C 267.140625 161.269531 267.351562 161.269531 268.335938 161.269531 C 268.683594 161.269531 269.027344 161.402344 269.292969 161.667969 C 270.09375 162.46875 263.457031 170.097656 249.390625 184.558594 C 249.550781 184.613281 249.710938 184.71875 249.84375 184.851562 C 250.160156 185.171875 250.402344 185.410156 250.109375 186.128906 C 250.429688 185.917969 250.5625 186.050781 250.71875 185.917969 C 251.066406 185.917969 251.414062 186.050781 251.652344 186.289062 C 252.132812 186.769531 252.371094 187.007812 251.414062 188.285156 L 251.414062 188.339844 C 251.414062 188.339844 251.304688 188.445312 251.226562 188.554688 C 250.109375 189.964844 247.714844 192.492188 243.058594 197.417969 C 237.65625 203.113281 230.125 211.019531 221.714844 219.882812 C 214 228 205.164062 237.289062 196.410156 246.5 C 207.214844 235.613281 218.175781 224.515625 227.171875 215.382812 C 245.398438 196.9375 251.011719 191.242188 252.957031 189.484375 C 253.007812 189.429688 253.035156 189.378906 253.0625 189.351562 C 253.832031 188.6875 253.914062 188.710938 254.152344 188.710938 C 254.5 188.710938 254.84375 188.84375 255.085938 189.113281 C 255.402344 189.429688 255.617188 189.644531 255.484375 190.097656 C 255.617188 190.042969 255.75 190.070312 255.777344 190.042969 C 256.121094 190.042969 256.46875 190.175781 256.734375 190.441406 C 257.558594 191.269531 257.71875 191.425781 252.824219 196.617188 C 257.507812 192.011719 257.773438 192.011719 258.222656 192.011719 C 258.570312 192.011719 258.917969 192.144531 259.183594 192.414062 C 259.609375 192.839844 259.847656 193.078125 258.890625 194.433594 L 258.890625 194.488281 C 258.890625 194.488281 258.808594 194.570312 258.730469 194.648438 C 257.984375 195.632812 256.628906 197.175781 254.339844 199.625 C 259.953125 194.035156 260.21875 194.035156 260.726562 194.035156 C 261.070312 194.035156 261.417969 194.167969 261.683594 194.433594 C 262.054688 194.808594 262.296875 195.046875 261.921875 195.765625 C 262.296875 195.527344 262.296875 195.527344 262.5625 195.527344 C 262.90625 195.527344 263.253906 195.660156 263.519531 195.925781 C 264.558594 196.964844 264.769531 197.175781 247.367188 215.570312 C 258.277344 204.605469 262.457031 200.476562 264.160156 198.933594 C 264.265625 198.800781 264.34375 198.722656 264.398438 198.640625 L 264.453125 198.640625 C 265.222656 197.976562 265.355469 197.976562 265.542969 197.976562 C 265.886719 197.976562 266.234375 198.109375 266.472656 198.375 C 266.898438 198.800781 267.164062 199.066406 266.3125 200.265625 L 266.367188 200.34375 C 266.367188 200.34375 266.179688 200.53125 265.96875 200.742188 C 264.796875 202.289062 262.242188 205.03125 257.214844 210.328125 C 267.191406 200.558594 267.644531 200.558594 268.175781 200.558594 C 268.523438 200.558594 268.894531 200.691406 269.132812 200.957031 C 269.507812 201.328125 269.746094 201.570312 269.292969 202.421875 C 270.011719 201.996094 270.226562 202.234375 270.570312 202.554688 C 270.996094 202.980469 271.238281 203.21875 270.359375 204.417969 L 270.4375 204.523438 C 270.4375 204.523438 270.144531 204.789062 269.800781 205.136719 C 268.257812 207.050781 264.878906 210.644531 258.011719 217.964844 C 253.140625 223.15625 247.207031 229.464844 240.769531 236.304688 C 271.050781 205.667969 271.449219 205.667969 272.328125 205.667969 C 272.671875 205.667969 273.046875 205.800781 273.285156 206.066406 C 273.738281 206.519531 273.976562 206.734375 272.914062 208.117188 L 272.914062 208.171875 C 272.914062 208.171875 272.832031 208.25 272.753906 208.304688 C 271.582031 209.765625 269.054688 212.457031 264.132812 217.644531 C 257.265625 224.914062 245.292969 237.582031 232.730469 250.917969 C 273.472656 209.609375 273.765625 209.609375 274.722656 209.582031 C 275.070312 209.582031 275.414062 209.714844 275.679688 209.980469 C 276.664062 210.964844 276.773438 211.070312 266.980469 221.453125 C 275.46875 213.066406 275.8125 213.066406 276.371094 213.042969 C 276.71875 213.042969 277.0625 213.175781 277.332031 213.441406 C 278.050781 214.160156 278.207031 214.320312 276.105469 216.609375 C 276.984375 215.863281 277.171875 215.863281 277.4375 215.863281 C 277.78125 215.863281 278.128906 215.996094 278.394531 216.261719 C 279.191406 217.0625 279.351562 217.21875 274.484375 222.410156 C 275.546875 221.371094 276.292969 220.652344 276.824219 220.175781 C 277.117188 219.855469 277.304688 219.667969 277.355469 219.617188 L 277.410156 219.667969 C 278.050781 219.109375 278.207031 219.109375 278.367188 219.109375 C 278.714844 219.109375 279.058594 219.242188 279.300781 219.507812 C 279.699219 219.910156 279.910156 220.121094 279.035156 221.347656 L 279.167969 221.507812 C 279.167969 221.507812 278.632812 221.984375 278.023438 222.625 C 276.265625 224.671875 272.808594 228.347656 266.339844 235.1875 C 259.925781 241.976562 251.28125 251.160156 242.445312 260.554688 C 249.097656 253.820312 255.511719 247.324219 260.753906 242.027344 C 272.691406 229.925781 278.875 223.875 279.300781 223.875 C 279.644531 223.875 279.992188 224.007812 280.230469 224.273438 C 280.578125 224.621094 280.84375 224.886719 280.019531 226.109375 L 280.125 226.242188 C 280.125 226.242188 279.992188 226.378906 279.859375 226.511719 C 280.125 226.5625 280.363281 226.695312 280.550781 226.882812 C 281.054688 227.386719 281.296875 227.628906 280.417969 228.800781 L 280.46875 228.851562 C 280.46875 228.851562 280.3125 229.011719 280.152344 229.171875 C 279.378906 230.128906 277.996094 231.621094 275.734375 234.070312 C 272.671875 237.398438 268.363281 242.027344 263.414062 247.351562 C 258.542969 252.570312 252.824219 258.746094 247.023438 265 C 255.085938 256.855469 262.828125 248.976562 268.203125 243.519531 C 279.273438 232.285156 279.328125 232.234375 279.910156 232.234375 C 280.257812 232.179688 280.605469 232.367188 280.84375 232.632812 C 281.296875 233.085938 281.5625 233.351562 280.761719 234.550781 L 280.789062 234.550781 C 280.789062 234.550781 280.710938 234.65625 280.628906 234.734375 C 279.378906 236.519531 276.078125 240.140625 268.441406 248.523438 C 267.246094 249.855469 265.996094 251.210938 264.664062 252.648438 C 278.632812 238.703125 279.035156 238.703125 279.566406 238.703125 C 279.910156 238.703125 280.257812 238.835938 280.523438 239.101562 C 281.214844 239.792969 278.148438 243.855469 271.316406 251.292969 C 270.199219 252.488281 269.027344 253.792969 267.804688 255.125 C 272.964844 249.90625 275.707031 247.164062 277.25 245.835938 C 277.4375 245.621094 277.542969 245.460938 277.597656 245.382812 L 277.703125 245.460938 C 279.007812 244.398438 279.273438 244.636719 279.699219 245.0625 C 280.097656 245.460938 280.335938 245.703125 279.511719 246.925781 L 279.59375 247.03125 C 279.59375 247.03125 279.351562 247.273438 279.058594 247.539062 C 278.234375 248.65625 276.773438 250.359375 274.324219 253.046875 C 275.121094 252.25 275.707031 251.71875 276.105469 251.371094 C 276.160156 251.320312 276.1875 251.265625 276.214844 251.238281 C 276.929688 250.652344 277.0625 250.652344 277.277344 250.652344 C 277.515625 250.679688 277.96875 250.785156 278.207031 251.050781 C 278.632812 251.476562 278.875 251.71875 278.023438 252.941406 L 278.101562 253.023438 C 278.101562 253.023438 277.890625 253.207031 277.648438 253.449219 C 276.984375 254.300781 275.921875 255.550781 274.269531 257.414062 C 274.75 257.015625 274.882812 257.015625 275.09375 257.015625 C 275.441406 257.015625 275.789062 257.148438 276.027344 257.414062 C 276.425781 257.8125 276.664062 258.054688 275.867188 259.25 L 275.972656 259.355469 C 275.972656 259.355469 275.679688 259.648438 275.308594 260.023438 C 274.667969 260.847656 273.738281 261.964844 272.355469 263.535156 C 272.621094 263.589844 272.886719 263.722656 273.074219 263.910156 C 273.578125 264.386719 273.792969 264.601562 272.832031 265.933594 C 272.832031 265.933594 272.832031 265.957031 272.808594 265.957031 C 272.035156 267.050781 270.519531 268.832031 267.777344 272.054688 C 267.273438 272.667969 266.714844 273.304688 266.15625 273.96875 L 266.15625 274.476562 C 266.15625 274.476562 265.222656 275.40625 265.222656 275.40625 L 266.15625 274.476562 L 266.980469 275.515625 C 266.6875 275.78125 264.183594 278.308594 261.976562 280.546875 C 256.761719 285.832031 253.929688 288.476562 253.488281 288.476562 C 253.140625 288.476562 252.796875 288.34375 252.558594 288.105469 C 252.15625 287.707031 251.917969 287.464844 252.691406 286.242188 C 244.601562 294.464844 244.492188 294.464844 243.828125 294.464844 C 243.457031 294.414062 243.109375 294.332031 242.871094 294.066406 C 242.550781 293.746094 242.339844 293.535156 242.710938 292.816406 C 240.449219 295.050781 239.25 296.171875 238.558594 296.730469 C 238.535156 296.78125 238.507812 296.808594 238.480469 296.808594 C 237.867188 297.289062 237.683594 297.289062 237.46875 297.289062 C 237.097656 297.289062 236.75 297.128906 236.511719 296.886719 C 236.085938 296.460938 235.871094 296.222656 236.832031 294.945312 L 236.777344 294.839844 C 236.777344 294.839844 236.988281 294.652344 237.175781 294.464844 C 237.65625 293.878906 238.320312 293.082031 239.226562 292.070312 C 231.933594 299.363281 231.746094 299.363281 231.214844 299.363281 C 230.871094 299.363281 230.523438 299.230469 230.285156 298.964844 C 229.886719 298.566406 229.644531 298.324219 230.523438 297.023438 L 230.46875 296.941406 C 230.46875 296.941406 230.628906 296.808594 230.761719 296.675781 C 231.242188 296.035156 231.933594 295.160156 232.945312 293.988281 C 226 300.855469 225.707031 300.855469 225.203125 300.855469 C 224.855469 300.855469 224.511719 300.722656 224.242188 300.457031 C 223.585938 299.78125 226.105469 296.339844 231.800781 290.128906 C 234.277344 287.414062 237.230469 284.21875 240.421875 280.785156 C 235.605469 285.65625 230.363281 290.953125 224.695312 296.703125 C 222.113281 299.3125 220.835938 300.613281 220.09375 301.28125 C 220.066406 301.308594 220.039062 301.332031 220.039062 301.359375 C 219.375 301.972656 219.214844 301.972656 218.949219 301.972656 C 218.601562 301.972656 218.257812 301.839844 218.015625 301.574219 C 217.539062 301.09375 217.296875 300.855469 218.097656 299.738281 L 218.042969 299.683594 C 218.042969 299.683594 218.230469 299.496094 218.441406 299.285156 C 219.402344 298.058594 221.289062 295.984375 224.695312 292.257812 C 227.863281 288.796875 231.933594 284.351562 236.429688 279.453125 C 213.199219 302.851562 212.855469 302.851562 212.003906 302.824219 C 211.65625 302.824219 211.285156 302.691406 211.046875 302.425781 C 210.671875 302.050781 210.433594 301.785156 211.417969 300.347656 C 211.417969 300.347656 211.472656 300.296875 211.496094 300.269531 C 212.828125 298.351562 216.261719 294.386719 224.269531 285.65625 C 206.734375 303.222656 206.28125 303.222656 205.617188 303.222656 C 205.246094 303.089844 204.898438 303.089844 204.660156 302.824219 C 204.472656 302.636719 204.339844 302.503906 204.257812 302.34375 C 203.089844 303.332031 202.875 303.332031 202.609375 303.332031 C 202.265625 303.332031 201.890625 303.195312 201.652344 302.929688 C 201.304688 302.558594 201.011719 302.292969 201.996094 300.855469 C 201.996094 300.855469 201.996094 300.828125 202.050781 300.800781 C 203.355469 298.886719 206.789062 294.917969 214.902344 286.160156 C 197.738281 303.355469 197.554688 303.355469 196.914062 303.355469 Z M 88.851562 223.449219 L 88.933594 223.371094 Z M 88.851562 223.449219 " fill-opacity="1" fill-rule="nonzero"/><path fill="#000000" d="M 188.398438 136.539062 C 188.054688 136.539062 187.707031 136.40625 187.441406 136.140625 C 187.042969 135.742188 186.804688 135.503906 187.761719 134.117188 L 187.761719 134.066406 C 187.761719 134.066406 187.839844 133.984375 187.894531 133.933594 C 189.25 132.042969 192.632812 128.183594 200.082031 119.636719 C 200.375 119.320312 200.667969 118.972656 200.960938 118.652344 C 186.113281 133.613281 186.003906 133.613281 185.339844 133.613281 L 185.339844 132.28125 C 185.339844 132.28125 186.269531 131.351562 186.269531 131.351562 L 185.339844 132.28125 L 184.566406 131.191406 C 185.550781 130.390625 198.859375 116.976562 209.527344 106.195312 C 221.769531 93.84375 226.105469 89.480469 227.808594 87.9375 C 227.96875 87.75 228.074219 87.617188 228.128906 87.589844 L 228.183594 87.644531 C 228.792969 87.109375 228.953125 87.109375 229.167969 87.109375 C 229.511719 87.109375 229.859375 87.246094 230.097656 87.511719 C 230.550781 87.964844 230.761719 88.175781 229.886719 89.398438 L 229.964844 89.480469 C 229.964844 89.480469 229.726562 89.691406 229.511719 89.90625 C 228.527344 91.15625 226.71875 93.234375 223.550781 96.851562 C 220.570312 100.261719 216.6875 104.679688 212.640625 109.3125 C 217.273438 104.625 222.753906 99.089844 229.167969 92.566406 C 231.332031 90.367188 232.730469 89.550781 233.371094 90.117188 C 233.929688 90.597656 233.984375 91.449219 233.476562 92.007812 C 233.476562 92.035156 233.425781 92.0625 233.398438 92.089844 C 233.265625 92.222656 232.441406 93.074219 231.054688 94.457031 C 189.652344 136.566406 189.226562 136.566406 188.398438 136.566406 Z M 188.398438 136.539062 " fill-opacity="1" fill-rule="nonzero"/><path fill="#000000" d="M 193.589844 232.125 C 193.242188 232.125 192.871094 231.992188 192.632812 231.726562 C 192.230469 231.328125 191.964844 231.0625 193.003906 229.652344 L 193.003906 229.597656 C 193.003906 229.597656 193.058594 229.542969 193.082031 229.519531 C 193.507812 228.933594 194.148438 228.160156 195.078125 227.148438 C 194.867188 227.121094 194.707031 226.960938 194.492188 226.777344 C 194.09375 226.378906 193.828125 226.109375 194.601562 224.941406 L 194.519531 224.832031 C 194.519531 224.832031 194.757812 224.59375 195.078125 224.273438 C 195.371094 223.902344 195.71875 223.476562 196.171875 222.96875 C 195.878906 222.945312 195.585938 222.808594 195.371094 222.597656 C 194.644531 221.871094 198.796875 216.636719 207.824219 206.894531 C 210.671875 203.832031 213.867188 200.398438 217.273438 196.722656 C 197.953125 216.261719 197.632812 216.261719 196.835938 216.261719 C 196.488281 216.261719 196.144531 216.128906 195.878906 215.863281 C 195.476562 215.464844 195.210938 215.199219 196.222656 213.761719 C 196.222656 213.761719 196.222656 213.734375 196.25 213.734375 C 197.898438 211.390625 202.824219 205.988281 215.808594 192.171875 C 203.167969 204.894531 199.070312 208.890625 197.527344 210.167969 C 197.527344 210.167969 197.5 210.191406 197.472656 210.21875 C 196.808594 210.753906 196.542969 210.671875 196.4375 210.753906 C 196.089844 210.753906 195.746094 210.621094 195.476562 210.351562 C 195.238281 210.113281 195.050781 209.925781 195.078125 209.632812 C 194.308594 210.273438 194.09375 210.273438 193.882812 210.273438 C 193.535156 210.273438 193.191406 210.140625 192.921875 209.875 C 192.445312 209.394531 192.207031 209.15625 192.921875 208.089844 C 189.863281 211.019531 189.597656 211.019531 189.226562 211.019531 C 188.878906 211.019531 188.53125 210.886719 188.265625 210.621094 C 187.816406 210.167969 187.574219 209.925781 188.585938 208.597656 L 188.585938 208.542969 C 188.585938 208.542969 188.667969 208.464844 188.71875 208.410156 C 189.96875 206.785156 192.871094 203.726562 198.882812 197.363281 C 201.679688 194.410156 204.871094 191.027344 208.359375 187.355469 C 206.414062 189.324219 204.578125 191.1875 202.847656 192.945312 C 190.6875 205.269531 186.191406 209.820312 184.382812 211.523438 C 184.195312 211.738281 184.0625 211.871094 184.007812 211.949219 L 183.957031 211.898438 C 183.265625 212.484375 183.132812 212.484375 182.945312 212.484375 C 182.597656 212.484375 182.253906 212.347656 182.011719 212.082031 C 181.535156 211.605469 181.296875 211.363281 182.171875 210.191406 L 182.121094 210.113281 C 182.121094 210.113281 182.332031 209.902344 182.574219 209.660156 C 183.503906 208.542969 185.179688 206.757812 188.027344 203.777344 C 179.777344 212.03125 179.511719 212.03125 178.953125 212.03125 C 178.609375 212.03125 178.261719 211.898438 177.996094 211.628906 C 177.542969 211.179688 177.304688 210.9375 178.289062 209.582031 C 178.289062 209.582031 178.339844 209.527344 178.367188 209.5 C 179.75 207.613281 183.449219 203.699219 192.046875 194.59375 C 193.109375 193.449219 194.226562 192.28125 195.371094 191.054688 C 182.785156 203.726562 178.6875 207.746094 177.117188 209.023438 C 177.0625 209.074219 177.039062 209.101562 177.039062 209.128906 C 176.398438 209.632812 176.238281 209.5 176.027344 209.632812 C 175.679688 209.632812 175.335938 209.5 175.070312 209.234375 C 174.75 208.914062 174.535156 208.703125 174.667969 208.277344 C 174.5625 208.304688 174.507812 208.304688 174.375 208.304688 C 174.03125 208.304688 173.65625 208.171875 173.417969 207.902344 C 173.152344 207.636719 172.964844 207.453125 173.046875 207.078125 C 172.992188 207.078125 172.941406 207.078125 172.859375 207.078125 C 172.515625 207.078125 172.167969 206.945312 171.902344 206.679688 C 171.15625 205.933594 170.96875 205.75 174.882812 201.570312 C 173.765625 202.6875 172.964844 203.457031 172.378906 204.019531 C 171.929688 204.496094 171.6875 204.761719 171.609375 204.84375 L 171.527344 204.789062 C 170.917969 205.320312 170.785156 205.320312 170.597656 205.320312 C 170.253906 205.320312 169.90625 205.1875 169.640625 204.921875 C 169.214844 204.496094 169 204.257812 169.851562 203.113281 L 169.746094 202.980469 C 169.746094 202.980469 170.253906 202.5 170.863281 201.863281 C 172.222656 200.292969 174.617188 197.761719 178.632812 193.476562 L 194.175781 177 C 168.628906 202.898438 168.414062 202.898438 167.617188 202.898438 C 167.273438 202.898438 166.925781 202.765625 166.660156 202.5 C 165.949219 201.789062 170.464844 196.226562 180.203125 185.8125 C 186.777344 178.8125 195.078125 169.972656 203.753906 160.789062 C 198.777344 165.820312 194.015625 170.640625 189.757812 174.949219 C 172.539062 192.386719 167.246094 197.734375 165.382812 199.386719 C 165.382812 199.386719 165.355469 199.441406 165.328125 199.441406 C 164.558594 200.105469 164.398438 200.105469 164.210938 200.105469 C 163.867188 200.105469 163.519531 199.972656 163.28125 199.707031 C 162.828125 199.253906 162.5625 198.988281 163.441406 197.761719 L 163.414062 197.761719 C 163.414062 197.761719 163.492188 197.65625 163.574219 197.578125 C 164.875 195.847656 168.175781 192.332031 175.652344 184.507812 C 175.679688 184.480469 175.707031 184.425781 175.761719 184.398438 C 167.457031 192.652344 164.160156 195.871094 162.746094 197.125 C 162.722656 197.152344 162.695312 197.203125 162.667969 197.230469 C 161.84375 197.921875 161.710938 197.921875 161.550781 197.921875 C 161.203125 197.921875 160.859375 197.789062 160.621094 197.523438 C 160.167969 197.070312 159.902344 196.804688 160.777344 195.578125 L 160.753906 195.578125 C 160.753906 195.578125 160.832031 195.472656 160.910156 195.394531 C 159.925781 196.273438 159.742188 196.273438 159.476562 196.273438 C 159.128906 196.273438 158.78125 196.140625 158.515625 195.871094 C 157.691406 195.046875 157.453125 194.808594 164.769531 186.902344 C 157.585938 194.007812 157.238281 194.007812 156.679688 194.007812 C 156.335938 194.007812 155.960938 193.875 155.722656 193.609375 C 155.242188 193.132812 154.925781 192.8125 156.921875 190.335938 C 154.925781 192.121094 154.660156 192.121094 154.339844 192.121094 C 153.964844 192.066406 153.621094 191.988281 153.382812 191.71875 C 153.140625 191.480469 153.007812 191.160156 152.980469 190.816406 C 152.980469 190.601562 152.980469 190.46875 153.328125 190.042969 C 153.273438 190.042969 153.25 190.042969 153.195312 190.042969 C 152.847656 190.042969 152.503906 189.910156 152.238281 189.644531 C 151.863281 189.269531 151.597656 189.003906 152.503906 187.621094 L 152.503906 187.566406 C 152.503906 187.566406 152.554688 187.488281 152.609375 187.460938 C 153.0625 186.824219 153.726562 185.972656 154.710938 184.828125 C 154.710938 184.828125 154.660156 184.851562 154.660156 184.878906 C 154.605469 184.933594 154.578125 184.960938 154.550781 184.984375 C 153.964844 185.410156 153.808594 185.410156 153.59375 185.410156 C 153.25 185.410156 152.902344 185.277344 152.636719 185.011719 C 152.070312 184.355469 152.882812 182.875 155.085938 180.566406 C 166.953125 168.136719 177.089844 157.460938 185.765625 148.332031 C 177.808594 156.371094 170.410156 163.824219 164.875 169.386719 C 159.582031 174.710938 156.894531 177.398438 155.429688 178.625 C 155.351562 178.730469 155.269531 178.808594 155.242188 178.863281 L 155.191406 178.863281 C 153.914062 179.847656 153.648438 179.609375 153.167969 179.128906 C 152.6875 178.652344 152.421875 178.382812 153.328125 177.160156 C 153.328125 177.160156 153.40625 177.054688 153.460938 177 C 154.605469 175.484375 157.347656 172.582031 163.171875 166.460938 C 163.226562 166.40625 163.253906 166.378906 163.308594 166.328125 C 158.835938 170.746094 156.789062 172.6875 155.777344 173.539062 C 155.003906 174.207031 154.84375 174.207031 154.632812 174.207031 C 154.285156 174.207031 153.941406 174.074219 153.675781 173.804688 C 153.25 173.378906 153.007812 173.140625 153.914062 171.808594 C 153.914062 171.808594 153.992188 171.703125 154.019531 171.675781 C 154.390625 171.117188 154.976562 170.371094 155.777344 169.359375 C 155.402344 169.652344 155.296875 169.652344 155.058594 169.652344 C 154.710938 169.652344 154.367188 169.519531 154.125 169.253906 C 153.753906 168.882812 153.539062 168.667969 154.339844 167.339844 L 154.285156 167.257812 C 154.285156 167.257812 154.445312 167.125 154.578125 166.992188 C 155.511719 165.582031 157.398438 163.132812 161.019531 158.605469 C 159.074219 160.550781 157.824219 161.75 156.972656 162.492188 C 156.894531 162.574219 156.839844 162.652344 156.8125 162.707031 L 156.761719 162.707031 C 155.484375 163.746094 155.242188 163.53125 154.738281 163.050781 C 154.285156 162.601562 153.992188 162.308594 154.792969 161.136719 L 154.738281 161.082031 C 154.738281 161.082031 154.84375 160.976562 154.976562 160.871094 C 155.429688 160.230469 156.175781 159.324219 157.292969 158.074219 C 156.46875 158.792969 156.308594 158.792969 156.070312 158.792969 C 155.722656 158.792969 155.378906 158.660156 155.136719 158.394531 C 154.660156 157.914062 154.390625 157.648438 155.351562 156.398438 C 155.351562 156.398438 155.402344 156.34375 155.429688 156.292969 C 155.75 155.867188 156.203125 155.359375 156.789062 154.695312 C 156.652344 154.746094 156.601562 154.773438 156.496094 154.746094 C 156.148438 154.746094 155.777344 154.613281 155.535156 154.347656 C 155.136719 153.949219 154.871094 153.683594 155.882812 152.273438 C 155.882812 152.273438 155.9375 152.21875 155.960938 152.191406 C 157.371094 150.222656 161.097656 146.148438 169.851562 136.808594 C 158.863281 147.933594 155.136719 151.714844 153.648438 152.964844 C 153.59375 153.042969 153.539062 153.097656 153.515625 153.125 C 152.875 153.628906 152.6875 153.578125 152.503906 153.628906 C 152.15625 153.628906 151.8125 153.496094 151.570312 153.257812 C 151.359375 153.042969 151.171875 152.882812 151.121094 152.671875 C 150.453125 153.203125 150.269531 153.203125 150.054688 153.203125 C 149.710938 153.203125 149.363281 153.070312 149.097656 152.804688 C 148.699219 152.433594 148.433594 152.140625 149.390625 150.726562 C 149.390625 150.726562 149.390625 150.726562 149.417969 150.703125 C 150.5625 149 153.433594 145.699219 159.875 138.722656 C 146.195312 152.351562 145.796875 152.351562 145.238281 152.351562 C 144.867188 152.351562 144.519531 152.21875 144.28125 151.953125 C 143.90625 151.582031 143.667969 151.339844 144.625 149.929688 L 144.574219 149.851562 C 144.574219 149.851562 144.679688 149.769531 144.785156 149.691406 C 146.59375 147.1875 151.863281 141.386719 165.515625 126.640625 C 141.007812 151.367188 140.769531 151.367188 139.996094 151.367188 C 139.652344 151.367188 139.304688 151.234375 139.039062 150.96875 C 138.664062 150.59375 138.398438 150.328125 139.332031 148.945312 C 137.335938 150.78125 137.070312 150.78125 136.722656 150.78125 C 136.378906 150.78125 136.003906 150.648438 135.765625 150.382812 C 135.550781 150.167969 135.394531 150.007812 135.339844 149.769531 C 134.167969 150.726562 133.929688 150.488281 133.398438 149.957031 C 133.023438 149.582031 132.757812 149.316406 133.582031 148.09375 L 133.476562 147.988281 C 133.476562 147.988281 133.742188 147.71875 134.0625 147.429688 C 134.382812 147 134.808594 146.46875 135.339844 145.855469 C 131.347656 149.691406 131.054688 149.691406 130.628906 149.691406 C 130.285156 149.691406 129.910156 149.558594 129.671875 149.289062 C 129.300781 148.917969 129.03125 148.652344 130.042969 147.269531 L 130.042969 147.1875 C 130.042969 147.1875 130.125 147.109375 130.203125 147.027344 C 130.550781 146.574219 131.003906 146.015625 131.613281 145.296875 C 127.808594 149.078125 127.597656 149.078125 127.171875 149.078125 C 126.824219 149.078125 126.480469 148.945312 126.238281 148.679688 C 125.839844 148.28125 125.574219 148.011719 126.453125 146.683594 C 126.453125 146.683594 126.503906 146.601562 126.558594 146.550781 C 128.449219 143.78125 134.914062 136.78125 153.832031 116.445312 C 144.707031 125.628906 136.113281 134.277344 130.523438 139.894531 C 122.378906 148.09375 122.433594 147.988281 121.847656 148.066406 C 121.503906 148.066406 121.15625 147.933594 120.917969 147.667969 C 120.542969 147.292969 120.304688 147.054688 121.023438 145.855469 L 120.917969 145.75 C 120.917969 145.75 121.128906 145.539062 121.421875 145.246094 C 123.207031 142.742188 128.234375 137.179688 140.769531 123.632812 C 119.054688 145.589844 118.761719 145.589844 117.988281 145.589844 C 117.644531 145.589844 117.296875 145.457031 117.03125 145.191406 C 116.660156 144.820312 116.394531 144.554688 117.03125 143.542969 C 116.394531 144.101562 116.261719 144.101562 116.101562 144.101562 C 115.753906 144.101562 115.410156 143.96875 115.167969 143.726562 C 114.824219 143.382812 114.582031 143.140625 115.007812 142.398438 C 114.609375 142.691406 114.449219 142.714844 114.34375 142.691406 C 114 142.691406 113.652344 142.554688 113.414062 142.289062 C 112.988281 141.863281 112.746094 141.625 113.597656 140.347656 L 113.546875 140.292969 C 113.546875 140.292969 113.652344 140.1875 113.757812 140.109375 C 115.355469 137.871094 119.960938 132.8125 131.507812 120.222656 C 133.132812 118.441406 134.808594 116.628906 136.511719 114.742188 C 130.816406 120.515625 125.601562 125.8125 121.664062 129.804688 C 115.726562 135.820312 113.304688 138.296875 112.1875 139.308594 C 112.1875 139.308594 112.1875 139.308594 112.1875 139.335938 C 111.445312 140 111.257812 140.132812 111.042969 140 C 110.699219 140 110.351562 139.867188 110.113281 139.601562 C 109.660156 139.148438 109.394531 138.882812 110.21875 137.710938 L 110.21875 137.660156 C 110.21875 137.660156 110.300781 137.550781 110.40625 137.417969 C 111.335938 136.140625 113.359375 133.90625 117.246094 129.726562 C 109.183594 137.765625 108.890625 137.765625 108.332031 137.765625 C 107.984375 137.765625 107.636719 137.632812 107.371094 137.367188 C 107 136.992188 106.761719 136.753906 107.132812 136.035156 C 106.789062 136.300781 106.679688 136.300781 106.519531 136.300781 C 106.175781 136.300781 105.828125 136.167969 105.589844 135.902344 C 105.109375 135.421875 104.871094 135.183594 105.722656 134.066406 C 104.976562 134.675781 104.792969 134.675781 104.523438 134.675781 C 104.179688 134.675781 103.832031 134.542969 103.566406 134.277344 C 103.167969 133.878906 102.929688 133.640625 103.886719 132.335938 L 103.832031 132.230469 C 103.832031 132.230469 104.074219 132.042969 104.257812 131.855469 C 105.164062 130.683594 106.8125 128.875 109.554688 125.867188 C 106.253906 129.140625 104.5 130.871094 103.515625 131.75 C 103.328125 131.960938 103.222656 132.097656 103.167969 132.175781 L 103.113281 132.121094 C 102.421875 132.734375 102.261719 132.679688 102.105469 132.734375 C 101.757812 132.734375 101.410156 132.601562 101.171875 132.363281 C 100.746094 131.960938 100.535156 131.722656 101.386719 130.5 L 101.277344 130.367188 C 101.277344 130.367188 101.625 130.046875 102.023438 129.648438 C 103.035156 128.371094 104.816406 126.398438 107.746094 123.179688 C 100.320312 130.605469 100.054688 130.605469 99.496094 130.605469 C 99.148438 130.605469 98.804688 130.472656 98.539062 130.207031 C 98.164062 129.832031 97.925781 129.59375 98.855469 128.234375 L 98.804688 128.128906 C 98.804688 128.128906 98.992188 127.96875 99.148438 127.835938 C 100.878906 125.546875 105.324219 120.570312 115.78125 108.964844 C 117.246094 107.3125 118.789062 105.609375 120.359375 103.855469 C 113.917969 110.347656 106.496094 117.855469 98.191406 126.238281 C 96.515625 127.941406 96.222656 128.234375 95.292969 127.625 C 95.210938 127.570312 95.160156 127.515625 95.078125 127.464844 C 94.679688 127.066406 94.464844 126.851562 95.210938 125.707031 L 95.078125 125.574219 L 95.878906 124.777344 C 96.996094 123.339844 99.042969 120.996094 102.609375 117.003906 C 94.359375 125.308594 94.148438 125.308594 93.5625 125.308594 C 93.269531 125.253906 92.871094 125.175781 92.605469 124.910156 C 92.203125 124.507812 91.964844 124.269531 92.898438 122.964844 L 92.816406 122.859375 C 92.816406 122.859375 93.03125 122.671875 93.242188 122.488281 C 94.226562 121.234375 96.011719 119.160156 99.148438 115.671875 C 98.058594 116.765625 97.367188 117.375 96.914062 117.75 C 96.304688 118.253906 96.117188 118.253906 95.878906 118.253906 C 95.53125 118.253906 95.183594 118.121094 94.945312 117.855469 C 94.492188 117.402344 94.253906 117.164062 95.210938 115.910156 L 95.160156 115.804688 C 95.160156 115.804688 95.398438 115.59375 95.636719 115.351562 C 96.035156 114.875 96.542969 114.289062 97.207031 113.542969 C 97.101562 113.464844 96.996094 113.382812 96.886719 113.25 C 96.488281 112.851562 96.277344 112.636719 97.046875 111.386719 L 96.96875 111.28125 C 96.96875 111.28125 97.179688 111.09375 97.394531 110.855469 C 98.484375 109.257812 100.773438 106.382812 105.21875 100.820312 L 105.21875 99.703125 C 105.21875 99.703125 106.148438 98.769531 106.148438 98.769531 L 105.21875 99.703125 L 104.417969 98.664062 C 104.84375 98.316406 108.4375 94.671875 111.335938 91.742188 C 117.484375 85.515625 117.539062 85.566406 118.097656 85.539062 C 118.441406 85.539062 118.789062 85.671875 119.027344 85.941406 C 119.425781 86.339844 119.640625 86.550781 118.839844 87.828125 L 118.921875 87.9375 C 118.921875 87.9375 118.734375 88.121094 118.546875 88.308594 C 117.777344 89.453125 116.339844 91.289062 113.917969 94.324219 C 129.484375 78.648438 129.617188 78.566406 130.257812 78.566406 C 130.578125 78.488281 130.949219 78.699219 131.214844 78.964844 C 131.320312 79.074219 131.429688 79.179688 131.480469 79.285156 C 134.007812 76.835938 134.300781 76.941406 134.648438 76.835938 C 134.992188 76.835938 135.339844 76.96875 135.605469 77.234375 C 135.976562 77.636719 136.246094 77.875 135.3125 79.230469 L 135.3125 79.285156 C 135.3125 79.285156 135.234375 79.363281 135.152344 79.445312 C 134.488281 80.402344 133.265625 81.867188 131.269531 84.183594 C 136.960938 78.433594 139.226562 76.199219 140.261719 75.347656 C 140.289062 75.320312 140.316406 75.292969 140.316406 75.265625 C 140.929688 74.785156 141.085938 74.785156 141.328125 74.785156 C 141.699219 74.785156 142.046875 74.945312 142.285156 75.210938 C 142.710938 75.664062 142.921875 75.90625 141.992188 77.15625 L 142.046875 77.234375 C 142.046875 77.234375 141.886719 77.367188 141.726562 77.5 C 140.742188 78.753906 138.851562 80.828125 135.417969 84.609375 C 134.753906 85.355469 134.035156 86.125 133.265625 86.976562 C 146.863281 73.375 147.179688 73.375 147.714844 73.375 C 148.058594 73.375 148.40625 73.507812 148.644531 73.777344 C 149.015625 74.148438 149.285156 74.414062 148.378906 75.773438 L 148.378906 75.824219 C 148.378906 75.824219 148.324219 75.90625 148.246094 75.957031 C 146.753906 78.140625 142.628906 82.851562 132.546875 94.136719 C 147.871094 78.59375 152.34375 74.09375 153.914062 72.789062 C 153.914062 72.789062 153.914062 72.789062 153.941406 72.765625 C 154.550781 72.257812 154.765625 72.339844 154.953125 72.257812 C 155.296875 72.257812 155.644531 72.390625 155.882812 72.628906 C 156.414062 73.164062 156.652344 73.375 155.644531 74.652344 C 155.644531 74.652344 155.589844 74.734375 155.535156 74.761719 C 154.765625 75.71875 153.355469 77.261719 150.984375 79.84375 L 145.664062 85.621094 C 147.101562 84.183594 148.457031 82.800781 149.734375 81.519531 C 154.339844 76.917969 156.894531 74.359375 158.410156 73.003906 C 158.835938 72.523438 159.101562 72.230469 159.183594 72.179688 L 159.289062 72.285156 C 160.433594 71.40625 160.671875 71.644531 161.125 72.097656 C 161.65625 72.628906 161.871094 72.84375 160.964844 74.042969 L 161.019531 74.09375 C 161.019531 74.09375 160.832031 74.253906 160.671875 74.414062 C 160.113281 75.078125 159.289062 75.984375 158.089844 77.289062 C 164.023438 71.40625 164.34375 71.40625 164.875 71.40625 C 165.222656 71.40625 165.570312 71.539062 165.835938 71.804688 C 166.234375 72.203125 166.472656 72.445312 165.542969 73.667969 C 168.070312 71.273438 168.308594 71.273438 168.65625 71.273438 C 168.894531 71.273438 169.347656 71.40625 169.613281 71.671875 C 169.90625 71.964844 170.09375 72.152344 170.039062 72.523438 C 171.449219 71.21875 171.664062 71.21875 171.980469 71.21875 C 172.328125 71.21875 172.671875 71.351562 172.941406 71.621094 C 173.871094 72.550781 173.925781 72.605469 166.285156 80.855469 C 175.972656 71.273438 176.371094 71.273438 176.90625 71.273438 C 177.25 71.273438 177.621094 71.40625 177.863281 71.671875 C 178.261719 72.097656 178.5 72.3125 177.464844 73.695312 L 177.515625 73.800781 C 177.515625 73.800781 177.355469 73.933594 177.222656 74.015625 C 175.785156 75.851562 172.488281 79.417969 165.542969 86.953125 C 161.871094 90.945312 157.238281 95.949219 152.316406 101.296875 C 172.378906 81.121094 178.847656 74.628906 181.160156 72.523438 C 181.402344 72.285156 181.535156 72.125 181.585938 72.046875 L 181.640625 72.097656 C 182.304688 71.539062 182.492188 71.511719 182.625 71.539062 C 182.972656 71.539062 183.316406 71.671875 183.558594 71.9375 C 183.875 72.257812 184.089844 72.472656 183.851562 73.003906 C 184.273438 72.550781 184.515625 72.285156 184.59375 72.230469 L 184.726562 72.363281 C 185.871094 71.484375 186.113281 71.726562 186.539062 72.152344 C 186.882812 72.496094 187.097656 72.710938 187.015625 73.109375 C 188.1875 72.046875 188.398438 72.046875 188.667969 72.046875 C 189.011719 72.046875 189.359375 72.179688 189.597656 72.445312 C 189.96875 72.816406 190.210938 73.058594 189.304688 74.386719 L 189.382812 74.492188 C 189.382812 74.492188 189.171875 74.679688 188.957031 74.867188 C 186.855469 77.660156 180.734375 84.289062 164.851562 101.429688 C 193.429688 72.738281 193.667969 72.738281 194.308594 72.738281 C 194.652344 72.738281 195 72.871094 195.238281 73.136719 C 195.636719 73.535156 195.902344 73.800781 195.027344 75.105469 L 195.027344 75.160156 C 195.027344 75.160156 194.972656 75.238281 194.894531 75.320312 C 193.214844 77.714844 188.1875 83.277344 174.855469 97.597656 C 198.539062 73.695312 198.910156 73.667969 199.710938 73.667969 C 199.976562 73.667969 200.425781 73.800781 200.667969 74.066406 C 201.171875 74.574219 201.492188 74.894531 199.125 77.714844 C 202.476562 74.386719 202.664062 74.386719 203.0625 74.386719 C 203.300781 74.335938 203.753906 74.519531 204.019531 74.785156 C 204.390625 75.160156 204.632812 75.398438 203.78125 76.675781 L 203.886719 76.808594 C 203.886719 76.808594 203.566406 77.101562 203.25 77.421875 C 202.742188 78.0625 202.050781 78.886719 201.09375 79.976562 C 205.910156 75.320312 206.175781 75.292969 206.601562 75.292969 C 206.945312 75.292969 207.292969 75.425781 207.558594 75.691406 C 207.746094 75.878906 207.90625 76.039062 207.984375 76.25 C 208.4375 75.929688 208.625 75.90625 208.78125 75.929688 C 209.128906 75.929688 209.476562 76.066406 209.742188 76.332031 C 210.40625 76.96875 210.59375 77.183594 209.074219 78.914062 C 211.179688 76.917969 211.363281 76.917969 211.710938 76.917969 C 212.054688 76.917969 212.402344 77.050781 212.640625 77.316406 C 213.351562 78.027344 209.953125 82.460938 202.449219 90.625 C 197.179688 96.347656 190.421875 103.667969 183.398438 111.226562 C 191.59375 102.921875 199.417969 95.015625 204.925781 89.425781 C 211.097656 83.171875 213.679688 80.5625 214.851562 79.472656 C 214.902344 79.417969 214.957031 79.363281 214.984375 79.3125 L 215.011719 79.3125 C 215.753906 78.671875 215.886719 78.671875 216.128906 78.671875 C 216.472656 78.671875 216.820312 78.804688 217.058594 79.074219 C 217.539062 79.550781 217.804688 79.816406 216.980469 80.960938 L 216.980469 81.015625 C 216.980469 81.015625 216.898438 81.121094 216.765625 81.253906 C 215.78125 82.53125 213.707031 84.769531 209.742188 89.054688 C 205.5625 93.550781 199.976562 99.570312 193.882812 106.0625 C 219.054688 80.535156 219.132812 80.535156 219.960938 80.535156 C 220.304688 80.535156 220.652344 80.667969 220.917969 80.9375 C 221.183594 81.203125 221.34375 81.363281 221.289062 81.734375 C 221.53125 81.601562 221.664062 81.601562 221.796875 81.601562 C 222.140625 81.601562 222.488281 81.734375 222.753906 82 C 223.683594 82.933594 223.925781 83.171875 209.234375 98.902344 C 224.269531 83.652344 224.324219 83.652344 224.933594 83.652344 C 225.28125 83.652344 225.628906 83.785156 225.867188 84.050781 C 226.320312 84.503906 226.558594 84.742188 225.867188 85.832031 C 226.613281 85.246094 226.746094 85.246094 227.011719 85.246094 C 227.355469 85.246094 227.703125 85.382812 227.96875 85.648438 C 228.625 86.320312 226.035156 89.730469 220.199219 95.867188 C 215.355469 100.953125 208.730469 107.898438 201.546875 115.40625 C 194.359375 122.914062 186.136719 131.511719 178.714844 139.308594 C 179.085938 139.683594 179.191406 139.976562 178.472656 141.066406 L 178.527344 141.144531 C 178.527344 141.144531 178.367188 141.277344 178.207031 141.464844 C 177.382812 142.636719 175.839844 144.554688 173.125 147.90625 C 172.433594 148.757812 171.664062 149.71875 170.835938 150.726562 C 171.875 149.71875 172.621094 148.972656 173.207031 148.492188 C 173.285156 148.386719 173.339844 148.332031 173.367188 148.28125 L 173.417969 148.28125 C 174.695312 147.269531 174.933594 147.507812 175.441406 147.988281 C 175.867188 148.414062 176.078125 148.652344 175.28125 149.875 L 175.335938 149.957031 C 175.335938 149.957031 175.175781 150.117188 175.015625 150.25 C 174.507812 150.96875 173.765625 151.925781 172.648438 153.335938 C 186.671875 139.308594 205.535156 120.304688 218.097656 107.632812 C 228.367188 97.277344 232.066406 93.578125 233.53125 92.25 C 234.355469 91.503906 234.488281 91.503906 234.703125 91.503906 C 235.046875 91.503906 235.394531 91.636719 235.632812 91.902344 C 235.980469 92.25 236.246094 92.515625 235.472656 93.710938 L 235.578125 93.84375 C 235.578125 93.84375 235.261719 94.164062 234.859375 94.5625 C 233.902344 95.816406 232.226562 97.730469 229.378906 100.820312 C 236.617188 93.660156 236.882812 93.660156 237.363281 93.660156 C 237.707031 93.660156 238.054688 93.792969 238.320312 94.058594 C 239.171875 94.910156 239.492188 95.230469 229.035156 106.488281 C 239.464844 96.054688 239.730469 96.054688 240.316406 96.054688 C 240.660156 96.054688 241.007812 96.1875 241.273438 96.453125 C 241.804688 96.988281 242.046875 97.226562 241.007812 98.53125 C 240.449219 99.222656 239.542969 100.207031 238.160156 101.671875 C 242.019531 97.917969 242.363281 97.996094 242.683594 97.945312 C 243.03125 97.945312 243.375 98.078125 243.640625 98.34375 C 243.960938 98.664062 244.199219 98.902344 243.800781 99.703125 C 244.199219 99.382812 244.335938 99.382812 244.492188 99.382812 C 244.839844 99.382812 245.1875 99.515625 245.425781 99.78125 C 245.769531 100.128906 246.035156 100.394531 245.238281 101.589844 L 245.371094 101.722656 C 245.371094 101.722656 245 102.070312 244.546875 102.550781 C 244.308594 102.84375 244.042969 103.1875 243.722656 103.5625 C 246.171875 101.273438 246.4375 101.273438 246.835938 101.273438 C 247.179688 101.273438 247.554688 101.40625 247.792969 101.671875 C 248.433594 102.308594 246.082031 105.433594 240.742188 111.039062 C 239.171875 112.691406 237.390625 114.554688 235.417969 116.628906 C 248.511719 103.535156 248.9375 103.535156 249.601562 103.535156 C 249.894531 103.480469 250.320312 103.667969 250.5625 103.933594 C 251.121094 104.492188 251.386719 104.757812 249.550781 106.886719 C 251.253906 105.238281 251.414062 105.238281 251.730469 105.238281 C 252.078125 105.238281 252.398438 105.398438 252.636719 105.636719 C 253.089844 106.089844 253.355469 106.355469 252.582031 107.5 L 252.636719 107.554688 C 252.636719 107.554688 252.53125 107.660156 252.398438 107.792969 C 251.597656 108.882812 250 110.667969 247.101562 113.78125 C 253.566406 107.472656 253.941406 107.472656 254.394531 107.449219 C 254.738281 107.449219 255.085938 107.582031 255.351562 107.847656 C 256.058594 108.554688 251.660156 113.988281 242.152344 124.136719 C 238.425781 128.101562 234.140625 132.679688 229.539062 137.578125 C 256.46875 110.347656 256.8125 110.347656 257.664062 110.347656 C 258.011719 110.347656 258.359375 110.480469 258.625 110.746094 C 259.246094 111.367188 257.507812 113.871094 253.40625 118.253906 C 251.066406 120.757812 248.03125 123.976562 244.546875 127.675781 C 259.210938 113.117188 259.6875 113.117188 260.328125 113.089844 C 260.671875 113.089844 261.046875 113.222656 261.285156 113.488281 C 261.738281 113.96875 262.054688 114.261719 259.980469 116.84375 C 261.683594 115.273438 261.898438 115.328125 262.1875 115.273438 C 262.535156 115.273438 262.882812 115.40625 263.121094 115.671875 C 263.441406 115.992188 263.679688 116.230469 263.386719 116.816406 C 263.734375 116.816406 264.078125 116.976562 264.316406 117.214844 C 264.691406 117.617188 264.902344 117.828125 264.453125 118.574219 C 264.503906 118.574219 264.585938 118.574219 264.558594 118.574219 C 264.902344 118.574219 265.25 118.707031 265.488281 118.972656 C 265.941406 119.425781 266.179688 119.664062 265.222656 120.96875 L 265.222656 121.023438 C 265.222656 121.023438 265.144531 121.101562 265.0625 121.183594 C 263.707031 122.964844 260.378906 126.507812 253.035156 134.277344 C 252.105469 135.261719 251.121094 136.300781 250.109375 137.367188 C 265.488281 121.925781 265.835938 121.925781 266.527344 121.902344 C 266.871094 121.902344 267.21875 122.035156 267.484375 122.300781 C 267.855469 122.671875 268.125 122.9375 267.140625 124.351562 L 267.140625 124.402344 C 267.140625 124.402344 267.085938 124.457031 267.058594 124.484375 C 266.605469 125.121094 265.914062 125.972656 264.902344 127.144531 C 267.378906 124.882812 267.671875 124.882812 268.015625 124.882812 C 268.363281 124.882812 268.734375 125.015625 268.976562 125.28125 C 269.425781 125.707031 269.667969 125.972656 268.601562 127.382812 C 268.601562 127.382812 268.601562 127.382812 268.601562 127.410156 C 267.324219 129.113281 264.183594 132.46875 257.320312 139.734375 C 268.628906 128.371094 268.789062 128.371094 269.375 128.371094 C 269.71875 128.371094 270.066406 128.503906 270.304688 128.769531 C 270.679688 129.140625 270.96875 129.433594 270.066406 130.738281 L 270.066406 130.792969 C 270.066406 130.792969 269.984375 130.871094 269.90625 130.949219 C 269.746094 131.191406 269.535156 131.457031 269.292969 131.777344 C 269.851562 131.324219 270.121094 131.269531 270.226562 131.324219 C 270.570312 131.324219 270.917969 131.457031 271.183594 131.722656 C 271.609375 132.148438 271.847656 132.414062 270.890625 133.691406 L 270.945312 133.773438 C 271.261719 133.773438 271.554688 133.933594 271.769531 134.144531 C 272.140625 134.519531 272.40625 134.785156 271.53125 136.0625 L 271.582031 136.140625 C 271.582031 136.140625 271.394531 136.300781 271.238281 136.460938 C 269.402344 138.988281 264.105469 144.765625 250.5625 159.191406 C 270.570312 138.882812 270.785156 138.882812 271.582031 138.855469 C 271.820312 138.855469 272.273438 138.988281 272.539062 139.257812 C 273.234375 139.964844 269.65625 144.542969 261.816406 152.992188 C 256.308594 158.925781 249.175781 166.566406 241.671875 174.578125 C 242.3125 173.9375 242.921875 173.300781 243.535156 172.6875 C 262.507812 153.46875 268.363281 147.535156 270.4375 145.699219 C 270.625 145.511719 270.730469 145.40625 270.757812 145.351562 L 270.785156 145.351562 C 271.394531 144.871094 271.554688 144.871094 271.769531 144.871094 C 272.113281 144.871094 272.460938 145.003906 272.699219 145.273438 C 273.257812 145.832031 273.5 146.070312 272.515625 147.269531 C 272.515625 147.269531 272.40625 147.375 272.328125 147.453125 C 272.089844 147.71875 271.796875 148.039062 271.449219 148.4375 C 271.449219 148.4375 271.449219 148.4375 271.476562 148.4375 C 271.820312 148.4375 272.167969 148.574219 272.433594 148.839844 C 272.941406 149.34375 273.257812 149.664062 270.945312 152.433594 L 270.945312 153.417969 C 270.945312 153.417969 270.011719 154.347656 270.011719 154.347656 L 270.945312 153.417969 L 271.875 154.375 C 271.875 154.375 270.730469 155.546875 268.921875 157.382812 C 195.398438 232.152344 194.519531 232.152344 193.589844 232.152344 Z M 193.589844 232.125 " fill-opacity="1" fill-rule="nonzero"/><g clip-path="url(#7fef6bf3a0)"><path fill="#000000" d="M 268.203125 186.398438 C 268.203125 186.398438 267.40625 185.8125 267.246094 185.703125 C 282.972656 171.199219 288.082031 147.71875 277.941406 127.785156 C 276.558594 125.121094 274.910156 122.59375 273.074219 120.222656 C 271.664062 117.136719 269.960938 114.15625 267.910156 111.332031 C 261.496094 101.433594 247.421875 93.6875 238.375 86.550781 C 238.375 86.550781 230.683594 81.015625 230.683594 81.015625 C 223.019531 74.945312 213.890625 70.449219 204.417969 68.34375 C 197.898438 66.800781 191.300781 65.976562 184.726562 65.605469 C 167.910156 64.058594 150.1875 65.789062 135.953125 69.675781 C 126.53125 72.125 118.125 76.730469 110.992188 82.824219 C 106.015625 86.527344 101.519531 90.945312 97.738281 96.160156 C 93.882812 101.246094 90.820312 106.808594 88.398438 112.664062 C 85.632812 118.546875 83.636719 124.855469 82.546875 131.324219 L 82.863281 131.535156 C 82.8125 131.777344 82.757812 132.070312 82.757812 132.070312 L 83.371094 132.496094 C 94.359375 140.265625 105.296875 148.148438 116.234375 156.050781 C 126.769531 157.382812 137.308594 158.632812 147.820312 159.992188 C 147.5 170.585938 147.207031 181.179688 146.78125 191.773438 L 146.78125 192.386719 C 146.78125 192.386719 146.78125 192.414062 146.78125 192.414062 L 146.703125 193.957031 L 146.703125 194.488281 C 157.851562 202.632812 168.894531 210.992188 179.992188 219.242188 C 179.992188 219.242188 180.601562 219.695312 180.601562 219.695312 L 181.320312 219.457031 C 181.773438 219.296875 182.199219 219.164062 182.652344 219.03125 C 182.8125 219.191406 183 219.351562 183 219.351562 C 183.742188 219.191406 184.460938 219.03125 185.207031 218.871094 C 185.285156 218.925781 185.394531 219.03125 185.394531 219.03125 C 186.457031 218.738281 187.523438 218.472656 188.585938 218.207031 C 189.492188 218.046875 190.367188 217.859375 191.273438 217.726562 C 191.21875 219.109375 191.0625 220.46875 190.820312 221.824219 C 188.800781 227.335938 185.046875 232.207031 180.152344 235.214844 L 180.019531 234.574219 C 180.019531 234.574219 179.378906 234.097656 179.378906 234.097656 C 169.320312 226.535156 159.128906 219.164062 148.992188 211.738281 L 148.644531 211.417969 C 148.644531 211.417969 148.566406 211.417969 148.566406 211.417969 C 147.925781 210.9375 147.289062 210.484375 146.648438 210.035156 C 145.769531 210.191406 144.894531 210.351562 144.015625 210.511719 L 142.628906 209.421875 L 141.804688 208.757812 L 140.714844 208.914062 L 101.625 214.636719 L 87.761719 215.597656 L 85.257812 215.757812 C 85.257812 215.757812 85.367188 216.367188 85.5 216.980469 L 85.367188 216.980469 C 85.367188 216.980469 82.253906 217.460938 82.253906 217.460938 C 82.652344 218.976562 83.105469 220.496094 83.558594 222.039062 L 82.492188 222.25 L 80.152344 222.703125 C 80.152344 222.703125 80.894531 224.941406 80.894531 224.941406 C 81.1875 225.898438 81.480469 226.855469 81.800781 227.816406 C 81.667969 227.816406 81.585938 227.867188 81.585938 227.867188 C 85.019531 238.859375 90.128906 249.722656 97.445312 258.71875 C 101.253906 263.640625 105.667969 268.085938 110.777344 271.789062 C 110.777344 271.789062 110.753906 271.8125 110.753906 271.8125 L 111.738281 272.507812 L 130.363281 285.574219 C 130.363281 285.574219 131.109375 286.109375 132.171875 286.855469 C 133.929688 288.476562 135.472656 289.863281 136.589844 290.925781 C 152.824219 305.378906 175.121094 309.320312 196.0625 310.675781 C 196.0625 310.675781 196.089844 310.144531 196.144531 309.53125 C 217.113281 310.277344 239.117188 306.738281 255.058594 296.410156 C 264.796875 290.152344 272.753906 280.972656 278.128906 270.429688 C 278.714844 269.472656 279.328125 268.539062 279.859375 267.503906 C 294.519531 242.402344 294.414062 204.125 268.230469 186.398438 Z M 273.976562 198.402344 C 273.976562 198.402344 274.03125 198.480469 274.058594 198.507812 C 272.539062 196.832031 270.863281 195.207031 269.054688 193.636719 C 270.972656 195.207031 272.699219 196.804688 273.976562 198.402344 Z M 284.222656 246.367188 C 282.8125 253.339844 280.46875 260.101562 277.355469 266.199219 C 265.753906 289.675781 243.242188 300.5625 219.027344 304.527344 C 211.445312 305.195312 203.78125 305.167969 196.277344 304.875 C 190.6875 304.632812 185.074219 304.128906 179.566406 303.222656 C 196.515625 304.183594 215.167969 302.398438 231.214844 296.703125 C 240.394531 294.28125 248.882812 290.738281 255.855469 285.84375 C 272.222656 274.582031 283.15625 254.777344 284.570312 234.734375 C 284.835938 238.566406 284.726562 242.480469 284.25 246.367188 Z M 254.605469 284.03125 C 253.859375 284.511719 253.117188 284.964844 252.371094 285.417969 C 267.429688 273.730469 277.089844 254.539062 278.128906 235.292969 C 279.085938 226.511719 278.261719 217.644531 275.28125 209.339844 C 275.789062 209.953125 276.265625 210.59375 276.746094 211.230469 C 280.335938 216.609375 282.652344 222.570312 283.796875 228.824219 C 284.0625 250.359375 272.59375 272.480469 254.605469 284.03125 Z M 171.820312 204.417969 L 164.875 198.109375 L 177.25 207.984375 L 177.863281 208.464844 C 178.15625 208.382812 178.449219 208.304688 178.742188 208.222656 L 180.175781 209.316406 C 179.671875 209.5 179.191406 209.660156 178.6875 209.847656 Z M 143.347656 218.019531 L 145.160156 217.699219 L 146.914062 219.058594 L 145.160156 219.269531 L 143.375 217.992188 Z M 179.351562 248.628906 C 179.21875 247.9375 179.058594 247.164062 178.898438 246.367188 C 182.4375 245.59375 185.527344 244.132812 188.160156 242.136719 C 192.949219 239.234375 196.570312 234.867188 199.015625 229.785156 C 196.515625 239.179688 189.117188 247.246094 179.378906 248.65625 Z M 197.875 208.222656 C 198.058594 209.765625 198.164062 211.3125 198.140625 212.882812 C 197.527344 212.960938 196.941406 213.066406 196.355469 213.175781 C 196.460938 211.605469 196.460938 210.007812 196.382812 208.4375 C 196.886719 208.355469 197.367188 208.304688 197.875 208.222656 Z M 184.328125 207.050781 L 183.984375 206.785156 C 185.394531 206.441406 186.804688 206.121094 188.214844 205.855469 C 186.910156 206.226562 185.605469 206.625 184.328125 207.027344 Z M 157.796875 187.222656 L 157.796875 186.824219 C 157.796875 186.824219 158.382812 183.148438 158.382812 183.148438 C 158.25 184.558594 158.089844 185.945312 157.929688 187.355469 L 157.773438 187.25 Z M 155.910156 153.578125 L 153.78125 153.070312 C 153.78125 153.070312 153.78125 152.910156 153.78125 152.832031 C 154.179688 152.882812 155.722656 153.125 155.9375 153.152344 L 155.9375 153.578125 Z M 183.289062 211.65625 C 183.289062 211.65625 183.503906 211.816406 183.503906 211.816406 C 185.285156 211.257812 187.097656 210.699219 188.90625 210.195312 C 189.625 210.035156 190.34375 209.925781 191.0625 209.820312 C 191.21875 210.910156 191.355469 212.03125 191.40625 213.148438 C 189.382812 213.785156 187.363281 214.453125 185.339844 215.089844 L 181.613281 212.136719 C 182.171875 211.949219 182.730469 211.789062 183.289062 211.628906 Z M 223.417969 295.292969 C 232.757812 293.003906 241.488281 289.515625 248.832031 284.5625 C 256.203125 279.640625 262.507812 273.011719 267.40625 265.371094 C 262.855469 272.746094 256.945312 279.214844 249.949219 284.03125 C 241.9375 289.675781 232.917969 293.136719 223.523438 295.292969 C 223.523438 295.292969 223.472656 295.292969 223.445312 295.292969 Z M 277.570312 222.917969 C 276.71875 217.085938 274.960938 211.390625 272.222656 206.066406 C 272.886719 206.734375 273.550781 207.425781 274.191406 208.117188 C 276.054688 212.882812 277.144531 217.859375 277.570312 222.917969 Z M 266.738281 199.359375 C 266.738281 199.359375 260.488281 193.582031 259.101562 192.332031 C 262.164062 194.488281 264.929688 197.015625 267.351562 199.867188 C 267.140625 199.707031 266.953125 199.519531 266.738281 199.359375 Z M 257.558594 192.332031 C 257.558594 192.332031 261.019531 195.5 263.546875 197.789062 C 260.195312 195.074219 256.894531 192.546875 254.152344 190.175781 C 254.472656 189.964844 254.792969 189.75 255.109375 189.511719 C 256.679688 190.601562 257.773438 191.347656 257.773438 191.347656 C 257.773438 191.347656 257.796875 191.347656 257.824219 191.375 C 257.773438 191.402344 257.71875 191.453125 257.640625 191.480469 L 257.054688 191.851562 L 257.558594 192.304688 Z M 252.636719 190.097656 L 253.117188 190.46875 L 267.910156 202.289062 C 269 203.113281 270.011719 203.992188 271.023438 204.894531 C 276.132812 214.1875 277.996094 224.699219 277.25 235.160156 C 274.800781 254.191406 263.546875 272.507812 247.421875 282.382812 C 230.46875 293.027344 209.792969 294.441406 190.210938 294.039062 C 177.648438 293.695312 164.902344 292.152344 153.488281 287.28125 C 151.8125 286.320312 150.1875 285.28125 148.589844 284.136719 C 144.757812 281.265625 125.226562 266.359375 119.507812 261.992188 C 119.507812 261.992188 119.535156 261.964844 119.535156 261.964844 C 108.914062 254.351562 101.785156 243.121094 97.074219 231.007812 L 143.988281 224.515625 L 166.953125 240.378906 L 168.894531 246.980469 L 169.425781 248.789062 C 169.425781 248.789062 171.34375 248.496094 171.34375 248.496094 C 172.460938 248.335938 173.523438 248.097656 174.5625 247.832031 L 175.386719 251.609375 L 175.785156 253.449219 C 175.785156 253.449219 177.730469 253.289062 177.730469 253.289062 C 197.128906 251.902344 206.441406 231.40625 203.382812 213.972656 C 203.382812 213.972656 203.140625 212.324219 203.140625 212.324219 L 202.664062 212.375 C 202.609375 210.007812 202.371094 207.636719 201.917969 205.347656 L 201.570312 203.273438 L 199.496094 203.511719 C 198.273438 203.644531 197.074219 203.859375 195.902344 204.070312 C 195.851562 203.726562 195.824219 203.40625 195.746094 203.058594 L 195.476562 201.4375 L 193.882812 201.59375 C 189.304688 202.074219 184.96875 203.167969 180.710938 204.417969 L 159.925781 188.871094 C 160.804688 178.8125 161.710938 168.75 162.640625 158.6875 L 162.722656 157.863281 C 162.722656 157.863281 162.507812 157.835938 162.296875 157.78125 L 162.457031 156.691406 L 162.667969 155.253906 L 161.257812 154.90625 L 159.609375 154.507812 L 159.769531 151.660156 L 159.875 149.902344 L 158.144531 149.664062 L 153.992188 149.078125 C 153.992188 148.890625 154.019531 148.679688 154.046875 148.492188 L 154.101562 147.667969 C 154.101562 147.667969 153.273438 147.535156 153.273438 147.535156 C 143.933594 146.097656 132.597656 144.179688 123.390625 142.742188 C 117.273438 137.152344 104.074219 125.148438 101.8125 123.070312 C 107.371094 109.019531 117.164062 96.695312 130.523438 89.558594 C 152.371094 78.167969 186.484375 77.847656 211.046875 84.316406 C 217.246094 87.964844 223.257812 92.542969 228.207031 95.84375 C 228.207031 95.84375 242.949219 105.875 242.949219 105.875 C 269.878906 124.644531 268.125 161.933594 241.566406 180.246094 L 242.074219 180.59375 C 242.074219 180.59375 249.683594 185.835938 254.257812 189.003906 C 253.699219 189.378906 253.117188 189.75 252.53125 190.097656 Z M 264.050781 133.585938 C 262.960938 125.203125 259.769531 118.601562 255.324219 112.929688 C 257.53125 114.660156 259.210938 115.992188 259.210938 115.992188 C 260.328125 116.898438 261.363281 117.828125 262.347656 118.785156 C 272.300781 137.445312 267.246094 160.949219 249.390625 174.949219 C 251.625 172.820312 253.726562 170.53125 255.617188 168.082031 C 263.175781 158.472656 266.046875 145.617188 264.050781 133.585938 Z M 222.699219 83.382812 C 219.585938 82.027344 216.289062 80.828125 212.855469 79.84375 C 211.070312 78.753906 209.421875 77.847656 208.089844 77.289062 C 206.363281 76.542969 204.578125 75.90625 202.742188 75.292969 C 206.46875 75.90625 210.195312 76.675781 213.8125 77.660156 C 216.820312 79.257812 219.800781 81.253906 222.699219 83.359375 Z M 176.027344 75.640625 C 165.328125 75.90625 154.898438 77.34375 145.878906 79.632812 C 131.347656 83.144531 119.082031 91.769531 110.273438 103.1875 C 112.855469 99.277344 115.835938 95.628906 119.1875 92.355469 C 126.238281 85.246094 134.699219 80.535156 143.855469 77.527344 C 154.417969 75.640625 165.515625 75.054688 176.027344 75.613281 Z M 100.1875 127.835938 C 100.402344 127.171875 100.640625 126.480469 100.851562 125.8125 L 115.382812 139.230469 C 109.449219 134.785156 104.949219 131.429688 100.160156 127.835938 Z M 243.164062 180.195312 C 243.828125 179.714844 244.46875 179.183594 245.105469 178.675781 C 245.105469 178.675781 252.421875 184.320312 256.546875 187.488281 C 256.070312 187.835938 255.589844 188.207031 255.085938 188.527344 C 250.855469 185.519531 246.621094 182.75 243.164062 180.167969 Z M 246.117188 178.359375 C 250.933594 175.136719 255.402344 171.359375 259.210938 166.914062 C 267.273438 157.703125 270.785156 145.003906 269.425781 132.894531 C 269.242188 130.3125 268.816406 127.890625 268.257812 125.601562 C 268.976562 126.613281 269.640625 127.625 270.253906 128.660156 C 272.460938 136.195312 272.753906 144.179688 271.238281 151.847656 C 268.308594 162.761719 261.203125 172.875 250.1875 179.847656 L 250.480469 180.0625 C 250.480469 180.0625 254.550781 183.121094 258.464844 186.078125 C 258.066406 186.398438 257.664062 186.714844 257.238281 187.035156 C 253.300781 183.921875 249.363281 181.046875 246.144531 178.359375 Z M 254.871094 179.238281 L 252.714844 181.152344 C 252.15625 180.726562 251.597656 180.300781 251.066406 179.875 C 259.101562 174.65625 265.035156 167.738281 268.761719 160.070312 C 265.886719 167.417969 261.230469 174.097656 254.871094 179.261719 Z M 111.761719 89.214844 C 110.699219 90.253906 109.632812 91.316406 108.648438 92.460938 C 100.984375 100.847656 95.824219 111.253906 92.789062 122.085938 C 92.417969 121.792969 90.714844 120.4375 90.636719 120.382812 C 92.65625 113.0625 95.769531 106.035156 99.894531 99.726562 C 103.355469 95.707031 107.320312 92.167969 111.761719 89.214844 Z M 124.242188 83.382812 C 125.175781 82.824219 126.160156 82.347656 127.144531 81.839844 C 128.261719 81.441406 129.433594 81.09375 130.601562 80.75 C 125.867188 83.382812 121.421875 86.605469 117.457031 90.597656 C 108.410156 99.277344 102.105469 110.507812 98.164062 122.246094 L 97.871094 123.097656 L 98.539062 123.710938 L 99.097656 124.242188 C 98.832031 124.988281 98.589844 125.761719 98.351562 126.53125 C 98.085938 126.320312 97.367188 125.789062 97.15625 125.652344 C 96.542969 125.175781 96.0625 124.800781 95.558594 124.402344 C 99.707031 107.792969 109.449219 92.382812 124.242188 83.464844 Z M 125.652344 144.710938 C 129.699219 145.40625 133.742188 146.097656 137.8125 146.761719 L 126.078125 145.085938 C 126.078125 145.085938 125.734375 144.765625 125.652344 144.710938 Z M 151.972656 152.566406 C 151.972656 152.566406 151.972656 152.617188 151.972656 152.644531 L 151.226562 152.457031 C 151.4375 152.484375 151.785156 152.539062 151.972656 152.566406 Z M 149.734375 155.253906 L 151.703125 155.734375 C 151.703125 155.734375 151.703125 155.839844 151.703125 155.890625 C 151.039062 155.785156 150.402344 155.652344 149.734375 155.546875 C 149.734375 155.441406 149.734375 155.359375 149.734375 155.253906 Z M 153.539062 156.183594 L 153.914062 156.292969 C 153.914062 156.292969 153.675781 156.238281 153.539062 156.210938 Z M 155.589844 158.367188 L 153.808594 186.238281 L 151.519531 184.507812 C 152.105469 175.667969 152.742188 166.832031 153.40625 157.96875 C 154.125 158.101562 154.871094 158.234375 155.589844 158.367188 Z M 195.851562 217.140625 C 195.851562 217.140625 195.929688 217.140625 195.984375 217.140625 C 195.851562 221.320312 194.917969 225.605469 193.191406 229.464844 C 194.199219 226.5625 194.867188 223.527344 195.132812 220.414062 C 195.425781 219.351562 195.636719 218.257812 195.851562 217.167969 Z M 258.570312 290.953125 C 256.972656 292.125 255.351562 293.214844 253.648438 294.226562 C 247.527344 297.925781 240.929688 300.429688 234.117188 302.105469 C 242.871094 299.578125 251.199219 295.957031 258.570312 290.980469 Z M 269.667969 201.753906 C 267.03125 198.136719 263.332031 194.78125 259.316406 191.667969 C 259.792969 191.375 260.273438 191.054688 260.753906 190.761719 C 265.542969 194.410156 269.613281 198.90625 272.539062 204.203125 C 272.648438 204.417969 272.726562 204.628906 272.832031 204.816406 C 271.847656 203.75 270.8125 202.742188 269.695312 201.753906 Z M 258.410156 191 C 257.53125 190.335938 256.65625 189.699219 255.777344 189.058594 C 256.253906 188.710938 256.761719 188.394531 257.238281 188.046875 C 258.039062 188.660156 259.769531 189.988281 259.847656 190.042969 C 259.367188 190.363281 258.890625 190.683594 258.410156 190.976562 Z M 257.878906 187.59375 C 258.304688 187.273438 258.703125 186.957031 259.128906 186.636719 C 260.113281 187.382812 261.046875 188.074219 261.898438 188.738281 C 261.417969 189.085938 260.9375 189.378906 260.460938 189.699219 C 259.609375 188.980469 258.757812 188.285156 257.878906 187.59375 Z M 260.859375 181.046875 C 268.148438 174.3125 273.125 165.714844 275.652344 156.453125 C 274.324219 165.925781 269.878906 175.03125 262.613281 182.351562 C 261.738281 181.710938 261.550781 181.550781 260.859375 181.046875 Z M 85.417969 130.84375 C 86.269531 126.984375 87.363281 123.179688 88.664062 119.480469 C 88.53125 120.039062 88.347656 120.597656 88.238281 121.15625 L 88.773438 121.582031 C 88.773438 121.582031 90.101562 122.621094 92.179688 124.21875 C 92.152344 124.351562 92.097656 124.484375 92.070312 124.617188 L 91.804688 125.679688 L 92.683594 126.347656 L 97.394531 129.914062 C 97.394531 129.914062 97.339844 130.125 97.3125 130.234375 L 97.847656 130.660156 C 97.847656 130.660156 118.230469 147 123.925781 151.554688 C 120.011719 151.128906 116.3125 150.753906 113.09375 150.460938 C 113.09375 150.460938 87.523438 132.363281 85.417969 130.871094 Z M 126.453125 151.394531 C 126.453125 151.394531 124.855469 150.089844 122.488281 148.148438 C 122.621094 148.148438 124.988281 148.519531 125.628906 148.597656 L 126.292969 149.210938 L 126.558594 149.449219 L 126.929688 149.53125 L 143.429688 153.628906 C 140.101562 153.285156 136.671875 152.910156 133.238281 152.539062 C 130.84375 152.113281 128.554688 151.714844 126.480469 151.394531 Z M 151.546875 157.597656 C 150.800781 166.699219 150.027344 175.804688 149.203125 184.90625 L 149.148438 185.492188 L 149.628906 185.890625 L 153.621094 189.058594 L 153.621094 189.113281 C 153.621094 189.113281 153.832031 189.273438 154.046875 189.429688 C 154.019531 189.644531 153.726562 191.402344 153.726562 191.402344 L 153.59375 192.28125 L 154.257812 192.890625 L 157.105469 195.5 L 157.105469 195.605469 C 157.105469 195.605469 157.585938 196.007812 157.585938 196.007812 L 158.25 196.566406 L 162.320312 200.316406 L 149.070312 191.242188 C 149.125 187.566406 149.203125 183.894531 149.257812 180.195312 L 150.054688 159.378906 C 150.054688 159.378906 150.082031 158.609375 150.082031 158.609375 L 149.710938 158.554688 C 149.710938 158.101562 149.710938 157.648438 149.734375 157.195312 C 150.347656 157.304688 150.988281 157.4375 151.597656 157.542969 Z M 283.449219 223.875 C 281.640625 217.433594 278.554688 211.363281 273.949219 206.066406 C 273.632812 205.347656 273.3125 204.628906 272.964844 203.910156 C 270.625 199.039062 266.179688 194.515625 261.3125 190.363281 C 261.816406 190.015625 262.324219 189.699219 262.800781 189.351562 C 264.425781 190.574219 265.570312 191.425781 265.570312 191.425781 C 270.703125 195.074219 275.070312 199.734375 278.183594 205.214844 C 281.1875 211.179688 282.945312 217.621094 283.53125 224.167969 C 283.503906 224.0625 283.476562 223.980469 283.449219 223.875 Z M 276.613281 128.449219 C 286.644531 147.933594 281.695312 170.796875 266.3125 185.011719 C 265.4375 184.375 264.878906 183.972656 263.464844 182.910156 C 264.824219 181.632812 266.179688 180.328125 267.40625 178.917969 C 275.628906 169.839844 279.378906 157.222656 278.207031 145.085938 C 278.101562 143.355469 277.890625 141.730469 277.597656 140.132812 C 277.4375 135.371094 276.636719 130.632812 275.203125 126.054688 C 275.679688 126.851562 276.160156 127.625 276.585938 128.449219 Z M 116.632812 154.320312 C 115.703125 153.601562 114.691406 152.804688 113.652344 152.03125 C 120.492188 152.882812 127.410156 153.65625 134.300781 154.402344 C 138.824219 155.253906 143.324219 156.105469 147.871094 156.929688 C 147.871094 157.410156 147.847656 157.890625 147.820312 158.394531 C 137.414062 157.089844 127.039062 155.679688 116.632812 154.347656 Z M 285.527344 236.039062 C 285.367188 233.644531 285.074219 231.273438 284.648438 228.933594 C 284.460938 220.65625 282.574219 212.457031 278.660156 204.976562 C 284.117188 214.238281 286.136719 225.125 285.554688 236.039062 Z M 285.527344 236.039062 " fill-opacity="1" fill-rule="nonzero"/></g><path fill="#000000" d="M 189.625 135.636719 C 191.433594 133.480469 192.789062 131.003906 192.976562 128.078125 L 193.5625 123.605469 C 193.5625 123.605469 189.304688 125.121094 189.304688 125.121094 C 189.09375 125.203125 188.90625 125.335938 188.691406 125.414062 C 188.878906 123.789062 188.957031 122.113281 189.117188 120.78125 C 189.117188 120.78125 185.019531 122.511719 185.019531 122.511719 C 181.695312 123.738281 178.953125 126.082031 176.929688 128.902344 C 173.792969 130.953125 171.371094 134.039062 169.933594 137.417969 C 168.308594 141.386719 164.609375 144.6875 164.023438 149.050781 L 163.414062 153.84375 L 167.378906 151.660156 C 169.984375 150.277344 171.421875 147.320312 173.230469 145.058594 C 173.949219 144.527344 174.589844 143.886719 175.175781 143.195312 C 174.960938 144.207031 174.777344 145.246094 174.644531 146.257812 L 174.402344 148.414062 C 177.808594 146.523438 180.734375 143.914062 183.558594 141.332031 C 184.382812 140.640625 185.234375 139.921875 186.085938 139.175781 C 185.3125 140.1875 184.621094 141.253906 184.0625 142.34375 C 182.148438 146.175781 178.234375 149.238281 177.355469 153.550781 L 176.425781 158.289062 L 180.523438 156.398438 C 183.636719 155.015625 185.3125 151.445312 187.761719 149.316406 C 190.820312 146.628906 195.183594 144.792969 196.597656 140.558594 C 197.738281 138.164062 197.847656 134.226562 198.21875 131.589844 C 198.21875 131.589844 194.09375 133.242188 194.09375 133.242188 C 192.496094 133.800781 191.007812 134.625 189.675781 135.636719 Z M 174.03125 140.535156 C 174.109375 139.816406 174.191406 139.070312 174.269531 138.324219 C 174.351562 137.339844 174.589844 136.488281 174.933594 135.664062 C 175.46875 135.34375 176 135.050781 176.558594 134.785156 C 176.238281 136.539062 176.078125 138.378906 175.601562 140.109375 C 175.09375 140.265625 174.589844 140.402344 174.058594 140.535156 Z M 183.15625 140.960938 C 181.585938 142.769531 179.484375 144.046875 177.25 144.898438 C 178.449219 141.703125 179.992188 138.695312 182.066406 136.222656 C 183.558594 135.105469 185.074219 133.960938 186.191406 132.523438 C 186.351562 132.414062 186.539062 132.335938 186.695312 132.230469 C 186.164062 135.394531 185.339844 138.539062 183.15625 140.960938 Z M 187.363281 148.917969 C 186.164062 150.195312 184.460938 150.726562 182.730469 151.101562 C 182.8125 150.382812 182.917969 149.636719 183 148.890625 C 183.289062 145.617188 185.234375 143.382812 187.734375 141.785156 C 186.246094 144.5 184.941406 148.332031 183.875 150.78125 C 185.367188 149.292969 187.070312 147.667969 188.691406 145.9375 C 188.691406 145.9375 188.800781 145.832031 188.851562 145.777344 C 189.144531 145.457031 189.4375 145.113281 189.730469 144.792969 C 189.25 146.335938 188.585938 147.800781 187.363281 148.917969 Z M 187.363281 148.917969 " fill-opacity="1" fill-rule="nonzero"/><path fill="#ffffff" d="M 171.953125 72.632812 C 197.925781 72.632812 216.605469 77.527344 227.941406 87.269531 C 239.304688 96.988281 244.785156 109.230469 244.441406 124.003906 C 244.226562 132.65625 241.671875 140.480469 236.804688 147.507812 C 231.90625 154.507812 224.667969 160.65625 215.035156 165.925781 C 222.671875 167.84375 228.527344 170.078125 232.519531 172.609375 C 239.011719 176.707031 244.042969 182.085938 247.554688 188.792969 C 251.039062 195.472656 252.691406 203.484375 252.476562 212.773438 C 252.183594 224.433594 248.882812 235.585938 242.550781 246.289062 C 236.21875 256.988281 227.304688 265.238281 215.753906 271.015625 C 204.207031 276.792969 189.144531 279.691406 170.597656 279.691406 C 152.050781 279.691406 138.265625 277.5625 127.914062 273.25 C 117.5625 268.992188 109.128906 262.710938 102.582031 254.484375 C 96.035156 246.234375 91.113281 235.878906 87.789062 223.394531 L 143.214844 216.023438 C 145.105469 227.230469 148.296875 234.976562 152.769531 239.3125 C 157.238281 243.625 162.988281 245.78125 170.066406 245.78125 C 177.144531 245.78125 183.714844 243.066406 188.800781 237.609375 C 193.855469 232.125 196.488281 224.859375 196.703125 215.730469 C 196.914062 206.601562 194.734375 199.253906 190.101562 194.167969 C 185.5 189.058594 179.085938 186.503906 170.945312 186.503906 C 166.605469 186.503906 160.59375 187.59375 152.929688 189.777344 L 156.761719 150.035156 C 159.820312 150.488281 162.214844 150.726562 163.945312 150.726562 C 171.183594 150.726562 177.277344 148.414062 182.226562 143.753906 C 187.203125 139.097656 189.730469 133.613281 189.890625 127.226562 C 190.050781 120.835938 188.375 116.257812 184.835938 112.613281 C 181.320312 108.992188 176.34375 107.15625 170.039062 107.15625 C 163.734375 107.15625 158.171875 109.152344 153.992188 113.117188 C 149.816406 117.082031 146.886719 124.003906 145.210938 133.960938 L 93.164062 124.507812 C 97.925781 107.765625 106.601562 94.9375 119.160156 86.019531 C 131.746094 77.101562 149.308594 72.605469 171.953125 72.605469 Z M 171.953125 72.632812 " fill-opacity="1" fill-rule="nonzero"/></svg>