<svg xmlns="http://www.w3.org/2000/svg" xmlns:xlink="http://www.w3.org/1999/xlink" width="500" zoomAndPan="magnify" viewBox="0 0 375 374.999991" height="500" preserveAspectRatio="xMidYMid meet" version="1.0"><defs><clipPath id="9a95c87caf"><path d="M 76.878906 63.902344 L 298.128906 63.902344 L 298.128906 311.402344 L 76.878906 311.402344 Z M 76.878906 63.902344 " clip-rule="nonzero"/></clipPath></defs><path fill="#000000" d="M 264.992188 264.828125 C 264.644531 264.828125 264.292969 264.695312 264.054688 264.425781 C 263.679688 264.050781 263.464844 263.808594 264.105469 262.734375 C 261.398438 265.257812 261.15625 265.015625 260.59375 264.480469 C 260.058594 263.96875 260.058594 263.109375 260.59375 262.574219 C 260.621094 262.546875 260.675781 262.492188 260.703125 262.464844 C 261.34375 261.875 267.699219 255.484375 273.332031 249.820312 C 280.570312 242.519531 283.625 239.460938 285.046875 238.171875 C 285.289062 237.902344 285.421875 237.742188 285.449219 237.714844 L 285.503906 237.769531 C 286.121094 237.230469 286.253906 237.230469 286.46875 237.230469 C 286.816406 237.230469 287.164062 237.367188 287.40625 237.636719 C 288.050781 238.277344 288.078125 238.628906 287.328125 239.59375 C 287.328125 239.59375 287.300781 239.621094 287.273438 239.648438 C 287.03125 239.945312 286.738281 240.320312 286.335938 240.75 L 286.386719 240.75 C 286.738281 240.75 287.085938 240.882812 287.328125 241.125 C 287.898438 241.679688 286.566406 244.148438 283.332031 248.535156 C 282.902344 249.125 282.417969 249.769531 281.910156 250.4375 C 285.664062 246.707031 285.824219 246.707031 286.253906 246.707031 C 286.601562 246.707031 286.949219 246.84375 287.191406 247.082031 C 287.566406 247.460938 287.753906 247.648438 287.085938 249.042969 C 287.085938 249.042969 287.03125 249.125 287.003906 249.152344 C 286.496094 250.144531 285.582031 251.726562 284.027344 254.277344 C 285.554688 252.773438 285.691406 252.773438 286.121094 252.773438 C 286.523438 252.667969 286.816406 252.910156 287.085938 253.175781 C 287.703125 253.792969 287.726562 253.847656 285.878906 258.574219 L 286.066406 258.574219 L 286.066406 259.914062 C 286.066406 259.914062 285.046875 260.828125 285.046875 260.828125 L 286.039062 259.914062 L 286.898438 260.933594 C 286.601562 261.175781 284.753906 263.082031 283.949219 263.914062 C 283.386719 264.480469 283.0625 264.800781 282.394531 264.695312 C 282.097656 264.640625 281.855469 264.503906 281.640625 264.316406 C 281.050781 263.699219 281 263.671875 282.632812 259.539062 C 282.417969 259.753906 282.207031 259.996094 281.992188 260.210938 C 277.511719 264.746094 277.460938 264.800781 276.894531 264.746094 C 276.601562 264.746094 276.332031 264.640625 276.09375 264.480469 C 275.429688 263.976562 276.003906 262.269531 277.808594 259.351562 C 278.265625 258.601562 278.800781 257.742188 279.363281 256.828125 C 277.539062 258.679688 275.289062 260.933594 272.527344 263.726562 C 271.535156 264.71875 271.453125 264.800781 270.890625 264.800781 C 270.542969 264.800781 270.191406 264.667969 269.925781 264.398438 C 269.550781 264.023438 269.335938 263.78125 270.003906 262.574219 L 269.953125 262.519531 L 270.191406 262.277344 C 270.890625 261.070312 272.3125 259.054688 274.9375 255.460938 C 274.777344 255.621094 274.644531 255.753906 274.484375 255.914062 C 268.601562 261.875 265.449219 264.855469 265.019531 264.855469 Z M 264.992188 264.828125 " fill-opacity="1" fill-rule="nonzero"/><path fill="#000000" d="M 185.761719 198.066406 C 185.414062 198.066406 185.066406 197.933594 184.796875 197.664062 C 184.261719 197.15625 184.046875 196.914062 185.089844 195.570312 C 185.089844 195.570312 185.089844 195.542969 185.117188 195.542969 C 185.949219 194.496094 187.558594 192.753906 190.398438 189.71875 L 204.609375 174.5 C 207.183594 171.734375 209.972656 168.753906 212.894531 165.640625 C 186.699219 192.054688 186.59375 192.054688 185.867188 192.054688 L 185.867188 190.710938 C 185.867188 190.710938 186.808594 189.773438 186.808594 189.773438 L 185.867188 190.710938 L 185.089844 189.609375 C 186.324219 188.617188 206.433594 168.351562 224.15625 150.445312 C 253.460938 120.890625 260.863281 113.402344 263.089844 111.523438 C 263.839844 110.90625 263.945312 110.851562 264.214844 110.90625 C 264.5625 110.90625 264.910156 111.039062 265.152344 111.308594 C 265.527344 111.683594 265.796875 111.925781 264.882812 113.214844 L 264.964844 113.347656 C 264.964844 113.347656 264.671875 113.589844 264.402344 113.859375 C 262.390625 116.433594 257.164062 122.070312 244.695312 135.46875 C 242.496094 137.828125 240.191406 140.300781 237.832031 142.847656 C 240.296875 140.351562 242.628906 138.015625 244.75 135.84375 C 257.171875 123.261719 263.605469 116.964844 264.054688 116.945312 L 264.054688 118.289062 L 263.089844 119.226562 L 264.054688 118.289062 L 264.910156 119.308594 C 264.375 119.789062 256.144531 128.113281 246.652344 137.722656 C 199.488281 185.449219 189.40625 195.4375 186.78125 197.53125 C 186.78125 197.53125 186.753906 197.582031 186.726562 197.582031 C 186.082031 198.09375 185.894531 198.09375 185.707031 198.09375 Z M 185.761719 198.066406 " fill-opacity="1" fill-rule="nonzero"/><path fill="#000000" d="M 224.425781 302.597656 C 224.128906 302.597656 223.941406 302.410156 223.648438 302.113281 C 223.191406 301.65625 222.921875 301.390625 223.753906 300.152344 C 223.753906 300.152344 223.835938 300.046875 223.886719 299.992188 C 224.828125 298.703125 226.863281 296.421875 230.886719 292.074219 C 225.148438 297.792969 222.46875 300.367188 221.152344 301.550781 C 220.886719 301.84375 220.726562 302.007812 220.699219 302.058594 L 220.644531 302.007812 C 220.027344 302.515625 219.867188 302.515625 219.707031 302.515625 C 219.355469 302.515625 219.007812 302.382812 218.765625 302.113281 C 218.339844 301.683594 218.125 301.46875 219.035156 300.207031 L 218.929688 300.074219 C 218.929688 300.074219 219.304688 299.75 219.679688 299.375 C 221.046875 297.710938 223.726562 294.867188 228.582031 289.65625 C 231.636719 286.382812 235.417969 282.328125 239.574219 277.847656 C 237.480469 279.96875 235.445312 282.007812 233.566406 283.914062 C 222.199219 295.375 217.828125 299.777344 216.003906 301.46875 C 215.792969 301.710938 215.65625 301.871094 215.578125 301.953125 L 215.523438 301.898438 C 214.824219 302.515625 214.691406 302.542969 214.476562 302.515625 C 214.128906 302.515625 213.78125 302.382812 213.539062 302.113281 C 213.054688 301.628906 212.789062 301.390625 213.644531 300.207031 L 213.59375 300.152344 C 213.59375 300.152344 213.78125 299.964844 213.996094 299.75 C 214.960938 298.542969 216.808594 296.582031 220.082031 293.09375 C 224.210938 288.691406 229.921875 282.625 236.277344 275.859375 C 237.644531 274.410156 239.0625 272.90625 240.511719 271.351562 C 238.875 273.015625 237.292969 274.625 235.765625 276.15625 C 218.5 293.632812 213.164062 299.054688 211.285156 300.71875 C 211.234375 300.773438 211.179688 300.824219 211.179688 300.878906 L 211.152344 300.878906 C 210.429688 301.496094 210.292969 301.414062 210.082031 301.46875 C 209.730469 301.46875 209.382812 301.335938 209.140625 301.066406 C 208.738281 300.664062 208.5 300.421875 209.355469 299.160156 L 209.277344 299.054688 C 209.277344 299.054688 209.542969 298.8125 209.839844 298.515625 C 211.472656 296.421875 215.363281 292.261719 223.648438 283.351562 C 224.746094 282.167969 225.871094 280.960938 227.027344 279.699219 C 208.015625 298.890625 207.667969 298.890625 206.917969 298.890625 C 206.566406 298.890625 206.191406 298.757812 205.953125 298.488281 C 205.496094 298.035156 205.28125 297.792969 206.300781 296.421875 L 206.300781 296.371094 C 206.300781 296.371094 206.351562 296.316406 206.40625 296.289062 C 207.667969 294.652344 210.589844 291.511719 216.675781 284.933594 C 221.046875 280.234375 226.410156 274.4375 232.171875 268.238281 C 212.171875 288.503906 206.59375 294.113281 204.71875 295.644531 C 204.636719 295.726562 204.609375 295.777344 204.582031 295.777344 C 203.992188 296.234375 203.832031 296.234375 203.617188 296.234375 C 203.269531 296.234375 202.921875 296.101562 202.652344 295.832031 C 202.144531 295.320312 201.929688 295.109375 202.921875 293.820312 L 202.921875 293.765625 C 202.921875 293.765625 203.027344 293.65625 203.136719 293.550781 C 204.019531 292.449219 205.65625 290.707031 208.445312 287.699219 C 214.933594 280.71875 220.964844 274.195312 226.570312 268.183594 C 201.421875 293.496094 200.992188 293.496094 200.242188 293.496094 C 199.863281 293.46875 199.515625 293.363281 199.273438 293.09375 C 198.578125 292.394531 201.8125 288.183594 208.980469 280.449219 C 213.296875 275.808594 218.742188 269.980469 224.613281 263.699219 C 198.015625 290.707031 197.71875 290.707031 196.835938 290.707031 C 196.488281 290.707031 196.136719 290.570312 195.871094 290.300781 C 195.15625 289.585938 199.417969 284.289062 208.660156 274.410156 C 194.878906 288.371094 194.636719 288.371094 193.9375 288.371094 C 193.589844 288.371094 193.242188 288.234375 192.972656 287.96875 C 192.597656 287.589844 192.359375 287.347656 193.296875 285.953125 L 193.242188 285.875 C 193.242188 285.875 193.375 285.765625 193.457031 285.683594 C 194.851562 283.753906 198.28125 279.914062 205.976562 271.671875 C 197.210938 280.558594 193.832031 283.96875 192.410156 285.308594 C 192.332031 285.390625 192.304688 285.46875 192.25 285.496094 L 192.222656 285.496094 C 191.5 286.140625 191.339844 286.140625 191.125 286.140625 C 190.777344 286.140625 190.425781 286.007812 190.1875 285.738281 C 189.730469 285.28125 189.488281 285.042969 190.320312 283.859375 L 190.265625 283.78125 C 190.265625 283.78125 190.453125 283.589844 190.695312 283.375 C 191.980469 281.710938 194.824219 278.625 200.589844 272.398438 C 203.753906 268.988281 207.453125 264.988281 211.472656 260.667969 C 188.898438 283.324219 188.308594 283.324219 187.664062 283.324219 C 187.316406 283.324219 186.941406 283.1875 186.699219 282.921875 C 186.21875 282.4375 185.976562 282.195312 186.566406 281.363281 C 186.054688 281.765625 185.84375 281.632812 185.707031 281.738281 C 185.359375 281.738281 185.011719 281.605469 184.769531 281.335938 C 184.421875 280.988281 184.152344 280.71875 184.875 279.566406 C 183.644531 280.53125 183.429688 280.316406 183 279.914062 C 182.652344 279.566406 182.382812 279.296875 183.160156 278.117188 L 183.027344 277.953125 C 183.027344 277.953125 183.402344 277.578125 183.9375 277.042969 C 184.609375 276.183594 185.601562 275 187.023438 273.417969 C 184.5 275.78125 184.261719 275.78125 183.886719 275.78125 C 183.535156 275.78125 183.1875 275.644531 182.917969 275.378906 C 182.355469 274.8125 182.089844 274.519531 183.695312 272.585938 C 183.429688 272.53125 183.160156 272.398438 182.972656 272.210938 C 182.570312 271.808594 182.328125 271.566406 183.375 270.144531 L 183.375 270.089844 C 183.375 270.089844 183.429688 270.035156 183.484375 269.980469 C 185.386719 267.429688 191.015625 261.390625 205.761719 245.632812 C 206.40625 244.9375 207.050781 244.265625 207.722656 243.566406 C 201.5 249.847656 194.609375 256.855469 186.941406 264.613281 C 184.125 267.484375 184.097656 267.457031 183.1875 266.707031 C 182.839844 266.359375 182.570312 266.089844 183.296875 264.910156 L 183.105469 264.71875 L 184.3125 263.484375 C 185.199219 262.332031 186.59375 260.71875 188.683594 258.410156 C 182.328125 264.695312 182.0625 264.695312 181.738281 264.695312 C 181.390625 264.695312 181.042969 264.558594 180.800781 264.289062 C 180.425781 263.914062 180.132812 263.648438 180.722656 262.652344 C 180.078125 263.242188 179.59375 263.671875 179.246094 263.96875 C 179.140625 264.074219 179.085938 264.15625 179.058594 264.183594 L 179.03125 264.183594 C 178.363281 264.695312 178.199219 264.695312 178.039062 264.695312 C 177.691406 264.695312 177.34375 264.558594 177.074219 264.289062 C 176.59375 263.808594 176.351562 263.566406 177.34375 262.277344 L 177.34375 262.222656 C 177.34375 262.222656 177.449219 262.117188 177.558594 262.007812 C 178.601562 260.71875 180.667969 258.519531 184.476562 254.464844 L 202.734375 235.113281 C 203.027344 234.789062 203.324219 234.46875 203.644531 234.144531 C 173.644531 264.695312 173.453125 264.695312 172.570312 264.695312 C 172.222656 264.695312 171.871094 264.558594 171.605469 264.289062 C 171.308594 263.996094 171.121094 263.808594 171.175781 263.433594 C 169.726562 264.667969 169.488281 264.667969 169.191406 264.667969 C 168.84375 264.667969 168.46875 264.53125 168.226562 264.265625 C 167.316406 263.351562 167.128906 263.164062 175.011719 254.839844 C 165.117188 264.667969 164.714844 264.667969 164.125 264.667969 C 163.777344 264.667969 163.398438 264.53125 163.160156 264.265625 C 162.972656 264.074219 162.835938 263.941406 162.757812 263.726562 C 161.738281 264.667969 161.605469 264.667969 161.390625 264.667969 C 161.039062 264.667969 160.691406 264.53125 160.449219 264.265625 C 160.074219 263.886719 159.808594 263.621094 160.585938 262.4375 L 160.476562 262.332031 C 160.476562 262.332031 160.746094 262.0625 161.09375 261.714844 C 161.226562 261.527344 161.390625 261.339844 161.578125 261.125 C 160.046875 262.601562 159.109375 263.484375 158.519531 263.96875 C 158.441406 264.074219 158.386719 264.128906 158.359375 264.15625 L 158.332031 264.15625 C 157.6875 264.667969 157.527344 264.667969 157.3125 264.667969 C 156.964844 264.667969 156.617188 264.53125 156.375 264.265625 C 155.894531 263.78125 155.652344 263.539062 156.644531 262.277344 L 156.589844 262.195312 C 156.589844 262.195312 156.777344 262.035156 156.9375 261.902344 C 158.011719 260.613281 160.128906 258.410156 163.9375 254.4375 C 164.578125 253.769531 165.25 253.070312 165.972656 252.320312 C 153.425781 264.667969 152.917969 264.667969 152.328125 264.667969 C 151.976562 264.667969 151.601562 264.503906 151.363281 264.265625 C 150.394531 263.296875 150.289062 263.191406 159.996094 253.125 C 159.324219 253.792969 158.65625 254.464844 158.039062 255.082031 C 153.210938 259.941406 150.71875 262.464844 149.269531 263.699219 C 149.136719 263.859375 149.054688 263.96875 149.003906 264.023438 L 148.949219 263.96875 C 147.6875 264.988281 147.421875 264.746094 146.9375 264.265625 C 146.535156 263.859375 146.265625 263.59375 147.152344 262.359375 L 147.070312 262.25 C 147.070312 262.25 147.367188 261.980469 147.6875 261.660156 C 149.539062 259.351562 154.097656 254.519531 164.390625 243.703125 C 171.09375 236.640625 179.273438 228.078125 187.988281 218.925781 C 142.996094 264.640625 142.648438 264.667969 141.601562 264.667969 C 141.253906 264.667969 140.878906 264.53125 140.636719 264.265625 C 140.074219 263.699219 139.75 263.378906 141.976562 260.773438 C 140.101562 262.597656 139.054688 263.566406 138.4375 264.101562 C 137.742188 264.667969 137.582031 264.667969 137.367188 264.667969 C 137.015625 264.667969 136.667969 264.53125 136.425781 264.265625 C 135.785156 263.621094 137.480469 261.167969 141.523438 256.910156 C 144.820312 253.445312 149.511719 248.480469 155.222656 242.519531 C 157.3125 240.320312 159.566406 237.984375 161.898438 235.542969 C 134.792969 262.679688 132.109375 264.695312 131.359375 264.667969 C 131.011719 264.667969 130.636719 264.53125 130.394531 264.265625 C 129.714844 263.582031 133.496094 258.976562 141.734375 250.4375 C 148.839844 243.085938 158.734375 232.882812 169.863281 221.421875 C 180.183594 210.765625 192.035156 198.578125 203.726562 186.496094 C 193.671875 196.671875 183.507812 206.980469 174.179688 216.429688 C 142.449219 248.585938 126.285156 264.667969 125.675781 264.667969 C 125.378906 264.773438 124.976562 264.53125 124.710938 264.265625 C 124.578125 264.128906 124.441406 263.996094 124.363281 263.835938 C 123.476562 264.558594 123.234375 264.613281 122.914062 264.667969 C 122.566406 264.667969 122.191406 264.53125 121.949219 264.265625 C 121.332031 263.644531 121.011719 263.324219 125.21875 258.546875 C 124.578125 259.191406 123.933594 259.835938 123.289062 260.503906 C 119.160156 264.695312 119.160156 264.667969 118.570312 264.667969 C 118.222656 264.667969 117.898438 264.503906 117.660156 264.265625 C 117.308594 263.914062 117.042969 263.644531 117.792969 262.464844 L 117.683594 262.359375 C 117.683594 262.359375 117.925781 262.117188 118.300781 261.742188 C 119.75 259.753906 123.101562 255.914062 130.234375 248.105469 C 113.824219 264.667969 113.554688 264.667969 112.832031 264.667969 C 112.484375 264.667969 112.136719 264.53125 111.867188 264.265625 C 111.222656 263.621094 113.386719 260.695312 118.355469 255.484375 C 122.539062 251.109375 128.519531 244.882812 135.703125 237.421875 C 138.679688 234.332031 141.84375 231.03125 145.167969 227.570312 C 113.691406 259.269531 109.695312 262.8125 108.675781 262.8125 C 108.328125 262.8125 107.953125 262.652344 107.710938 262.410156 C 107.417969 262.117188 107.203125 261.902344 107.308594 261.417969 C 107.203125 261.472656 107.066406 261.445312 107.042969 261.472656 C 106.691406 261.472656 106.316406 261.3125 106.074219 261.070312 C 105.21875 260.183594 105.136719 260.101562 110.554688 254.546875 C 106.15625 258.652344 104.976562 259.40625 104.519531 259.433594 C 104.28125 259.378906 103.796875 259.269531 103.527344 259.03125 C 102.847656 258.347656 107.515625 252.855469 117.523438 242.546875 C 119.992188 239.996094 122.753906 237.179688 125.730469 234.117188 C 102.722656 257.015625 102.1875 257.015625 101.519531 257.015625 C 101.167969 257.015625 100.792969 256.882812 100.550781 256.613281 C 100.230469 256.292969 99.960938 256.023438 100.390625 255.191406 C 100.042969 255.433594 99.773438 255.59375 99.667969 255.511719 C 99.320312 255.511719 98.945312 255.351562 98.703125 255.109375 C 98.460938 254.867188 98.246094 254.652344 98.378906 254.277344 C 98.300781 254.277344 98.21875 254.277344 98.191406 254.304688 C 97.84375 254.304688 97.46875 254.171875 97.226562 253.902344 C 96.476562 253.152344 96.046875 252.722656 105.726562 242.332031 C 95.96875 251.835938 95.566406 251.835938 95.164062 251.835938 C 94.816406 251.835938 94.464844 251.699219 94.199219 251.433594 C 93.6875 250.894531 93.367188 250.601562 95.191406 248.320312 C 93.367188 249.957031 93.125 249.957031 92.855469 249.957031 C 92.507812 249.957031 92.160156 249.820312 91.890625 249.554688 C 91.464844 249.125 91.222656 248.855469 92.242188 247.488281 L 92.242188 247.433594 C 92.242188 247.433594 92.320312 247.351562 92.375 247.296875 C 93.984375 245.203125 98.300781 240.75 108.488281 230.171875 C 118.785156 219.515625 132.941406 204.886719 148.359375 188.992188 C 150.71875 186.578125 153.105469 184.082031 155.542969 181.585938 C 94.171875 243.863281 90.523438 247.058594 89.292969 247.082031 C 88.941406 247.082031 88.566406 246.921875 88.324219 246.679688 C 87.523438 245.875 93.847656 238.546875 107.308594 224.695312 C 117.230469 214.496094 130.207031 201.207031 144.257812 186.847656 C 131.144531 200 118.945312 212.242188 109.210938 221.984375 C 102.511719 228.695312 96.988281 234.226562 93.125 238.089844 C 90.148438 241.042969 88.460938 242.761719 87.386719 243.675781 C 87.335938 243.753906 87.28125 243.808594 87.253906 243.863281 L 87.226562 243.863281 C 85.964844 244.882812 85.726562 244.640625 85.1875 244.132812 C 84.839844 243.78125 84.597656 243.539062 84.976562 242.84375 C 84.625 243.109375 84.574219 243.003906 84.359375 243.109375 C 84.007812 243.109375 83.660156 242.976562 83.417969 242.707031 C 82.992188 242.277344 82.695312 241.984375 83.582031 240.695312 C 83.582031 240.695312 83.582031 240.667969 83.605469 240.640625 C 83.6875 240.507812 83.792969 240.371094 83.902344 240.238281 C 83.6875 240.371094 83.582031 240.320312 83.5 240.371094 C 83.152344 240.371094 82.804688 240.238281 82.535156 239.96875 C 82.023438 239.460938 81.757812 239.191406 83.152344 237.445312 C 82.9375 237.394531 82.75 237.257812 82.589844 237.125 C 81.675781 236.210938 81.300781 235.808594 99.585938 216.832031 C 93.125 223.378906 89.371094 227.164062 87.171875 229.367188 C 85.671875 230.871094 84.8125 231.78125 84.679688 231.917969 L 84.597656 231.835938 C 83.984375 232.375 83.742188 232.320312 83.6875 232.375 C 83.339844 232.375 82.992188 232.238281 82.722656 231.972656 C 82.238281 231.460938 82 231.21875 82.882812 230.117188 L 82.804688 230.011719 C 82.804688 230.011719 83.042969 229.769531 83.339844 229.5 C 83.152344 229.449219 82.964844 229.3125 82.804688 229.179688 C 82.347656 228.722656 82.078125 228.453125 83.097656 227.140625 C 83.097656 227.140625 83.179688 227.03125 83.230469 226.976562 C 83.820312 226.226562 84.785156 225.152344 86.261719 223.59375 C 84.679688 224.964844 84.222656 225.179688 83.875 225.179688 C 83.527344 225.179688 83.152344 225.019531 82.910156 224.777344 C 82.285156 224.148438 83.714844 222.011719 87.199219 218.359375 L 131.546875 172.054688 C 85.164062 218.789062 84.734375 218.789062 83.742188 218.789062 C 83.394531 218.789062 83.015625 218.65625 82.777344 218.386719 C 82.292969 217.90625 82 217.609375 83.339844 215.835938 C 83.152344 215.757812 82.992188 215.648438 82.855469 215.515625 C 82.453125 215.113281 82.214844 214.871094 83.285156 213.421875 L 83.285156 213.367188 C 83.285156 213.367188 83.339844 213.3125 83.394531 213.289062 C 84.035156 212.429688 85.136719 211.21875 86.851562 209.367188 C 84.8125 211.21875 84.304688 211.460938 83.957031 211.460938 C 83.605469 211.570312 83.230469 211.328125 82.992188 211.058594 C 82.613281 210.683594 82.347656 210.414062 83.367188 208.964844 C 83.367188 208.964844 83.417969 208.910156 83.445312 208.886719 C 86.289062 204.9375 98.273438 192.617188 141.226562 148.488281 C 145.730469 143.871094 150.371094 139.089844 155.0625 134.257812 C 132.914062 156.648438 110.339844 179.597656 98.328125 191.8125 C 84.679688 205.691406 84.574219 205.71875 84.089844 205.691406 C 83.742188 205.691406 83.394531 205.554688 83.152344 205.289062 C 82.804688 204.9375 82.535156 204.671875 83.285156 203.4375 L 83.203125 203.328125 C 83.203125 203.328125 83.417969 203.113281 83.6875 202.871094 C 84.707031 201.449219 86.769531 199.035156 90.738281 194.765625 C 85.699219 199.542969 84.734375 200.132812 84.277344 200.132812 C 83.929688 200.132812 83.554688 199.972656 83.3125 199.730469 C 82.640625 199.058594 82.238281 198.65625 88.136719 192.242188 C 88.058594 192.242188 88.058594 192.242188 87.949219 192.242188 C 87.601562 192.242188 87.226562 192.082031 86.984375 191.839844 C 85.832031 190.683594 85.589844 190.445312 115.164062 160.136719 C 114.925781 160.082031 114.710938 159.949219 114.546875 159.789062 C 114.171875 159.410156 113.933594 159.171875 114.816406 157.910156 L 114.710938 157.773438 C 114.710938 157.773438 115.03125 157.480469 115.378906 157.15625 C 117.660156 154.257812 123.851562 147.628906 139.351562 131.144531 C 142.085938 128.21875 144.925781 125.214844 147.824219 122.125 C 147.609375 122.070312 147.394531 121.9375 147.234375 121.777344 C 146.832031 121.375 146.589844 121.132812 147.582031 119.761719 L 147.527344 119.683594 C 147.527344 119.683594 147.660156 119.574219 147.796875 119.46875 C 149.191406 117.617188 152.433594 113.964844 159.324219 106.207031 C 166.242188 98.421875 176.214844 87.203125 182.542969 79.980469 L 182.035156 79.390625 C 182.277344 79.175781 183.804688 77.617188 185.332031 76.089844 C 187.851562 73.546875 189.308594 72.269531 189.703125 72.25 C 190.050781 72.25 190.398438 72.382812 190.640625 72.652344 C 190.988281 73 191.230469 73.242188 190.425781 74.476562 L 190.5625 74.613281 C 190.5625 74.613281 190.210938 74.933594 189.835938 75.308594 C 188.390625 77.296875 185.253906 80.949219 178.898438 88.113281 C 189.21875 77.59375 192.734375 74.046875 194.152344 72.839844 C 194.234375 72.761719 194.261719 72.707031 194.289062 72.679688 C 194.878906 72.222656 195.039062 72.222656 195.28125 72.222656 C 195.601562 72.277344 195.976562 72.355469 196.246094 72.625 C 196.835938 73.214844 197.050781 73.429688 196.03125 74.664062 C 196.03125 74.664062 195.976562 74.71875 195.949219 74.746094 C 195.332031 75.5 194.289062 76.597656 192.679688 78.316406 L 183.242188 88.328125 C 182.089844 89.5625 180.855469 90.878906 179.542969 92.25 C 199.4375 72.25 199.839844 72.25 200.5625 72.25 C 200.910156 72.25 201.257812 72.382812 201.527344 72.652344 C 202.035156 73.164062 202.386719 73.511719 200.027344 76.355469 C 204.234375 72.277344 204.558594 72.277344 205.011719 72.277344 C 205.363281 72.277344 205.738281 72.410156 205.976562 72.679688 C 206.566406 73.269531 206.917969 73.617188 203.109375 77.859375 C 205.789062 75.175781 207.210938 73.78125 208.015625 73.054688 C 208.015625 73.054688 208.042969 73 208.070312 73 C 208.875 72.277344 209.035156 72.195312 209.222656 72.277344 C 209.570312 72.277344 209.917969 72.410156 210.160156 72.679688 C 210.617188 73.136719 210.882812 73.40625 210.054688 74.613281 L 210.082031 74.613281 C 210.082031 74.613281 210 74.71875 209.917969 74.800781 C 208.925781 76.140625 206.703125 78.558594 202.199219 83.28125 C 213.484375 72.277344 214.046875 72.277344 214.585938 72.277344 C 214.851562 72.359375 215.308594 72.4375 215.578125 72.679688 C 216.433594 73.539062 216.808594 73.941406 203.699219 87.792969 C 219.167969 72.277344 219.546875 72.277344 220.242188 72.277344 C 220.5625 72.359375 220.964844 72.410156 221.207031 72.679688 C 221.609375 73.082031 221.851562 73.324219 220.804688 74.71875 L 220.859375 74.800781 C 220.859375 74.800781 220.699219 74.90625 220.589844 75.015625 C 219.679688 76.140625 218.042969 77.941406 215.226562 80.921875 C 220.296875 75.847656 222.46875 73.753906 223.511719 72.894531 C 224.210938 72.304688 224.398438 72.304688 224.585938 72.304688 C 224.933594 72.304688 225.28125 72.4375 225.523438 72.707031 C 225.683594 72.867188 225.820312 73 225.871094 73.164062 C 226.890625 72.304688 227 72.332031 227.347656 72.304688 C 227.695312 72.304688 228.042969 72.4375 228.3125 72.707031 C 228.796875 73.191406 229.035156 73.429688 227.964844 74.773438 C 227.964844 74.773438 227.882812 74.855469 227.855469 74.90625 C 226.757812 76.277344 224.453125 78.691406 220.027344 83.308594 C 214.773438 88.8125 207.34375 96.570312 198.632812 105.671875 C 193.484375 111.039062 187.90625 116.863281 182.0625 122.957031 C 229.4375 74.855469 232.496094 72.25 233.675781 72.25 C 234.023438 72.25 234.398438 72.410156 234.640625 72.652344 C 235.097656 73.109375 235.417969 73.429688 233.246094 76.140625 C 236.890625 72.652344 237.1875 72.652344 237.5625 72.652344 C 237.910156 72.652344 238.261719 72.785156 238.527344 73.054688 C 238.769531 73.296875 238.957031 73.484375 238.851562 73.886719 C 238.929688 73.886719 239.011719 73.859375 239.0625 73.886719 C 239.414062 73.886719 239.789062 74.046875 240.03125 74.289062 C 240.851562 75.113281 233.84375 83.140625 219.007812 98.367188 C 217.132812 100.300781 215.148438 102.34375 213.082031 104.4375 C 241.074219 76.140625 241.183594 76.140625 241.851562 76.140625 C 242.203125 76.140625 242.550781 76.277344 242.792969 76.546875 C 243.003906 76.761719 243.21875 76.972656 243.085938 77.457031 C 243.21875 77.402344 243.300781 77.402344 243.433594 77.402344 C 243.785156 77.402344 244.105469 77.566406 244.347656 77.808594 C 244.75 78.210938 245.042969 78.476562 244.265625 79.632812 C 244.9375 79.121094 245.203125 79.015625 245.390625 79.015625 C 245.742188 79.015625 246.089844 79.148438 246.355469 79.417969 C 246.679688 79.738281 246.945312 80.007812 246.597656 80.734375 C 246.945312 80.4375 247.027344 80.4375 247.160156 80.4375 C 247.511719 80.4375 247.859375 80.570312 248.101562 80.839844 C 248.449219 81.1875 248.714844 81.457031 247.9375 82.71875 L 248.019531 82.828125 C 248.019531 82.828125 247.832031 83.015625 247.617188 83.203125 C 246.355469 85 243.382812 88.410156 236.945312 95.253906 C 248.394531 83.847656 249.628906 83.015625 250.296875 83.015625 C 250.648438 83.015625 251.023438 83.148438 251.265625 83.417969 C 252.140625 84.292969 241.03125 96.75 217.9375 120.785156 C 214.183594 124.703125 210.214844 128.808594 206.085938 133.078125 C 252.820312 85.886719 253.035156 85.886719 253.863281 85.886719 C 254.347656 85.886719 254.5625 86.019531 254.828125 86.289062 C 255.257812 86.71875 255.527344 86.988281 254.5625 88.277344 L 254.617188 88.355469 C 254.617188 88.355469 254.453125 88.492188 254.320312 88.597656 C 253.222656 89.992188 250.941406 92.4375 246.570312 96.945312 L 252.015625 91.46875 C 256.195312 87.230469 256.195312 87.230469 257.164062 88.167969 C 257.511719 88.515625 257.777344 88.785156 257 89.96875 L 257.136719 90.128906 C 257.136719 90.128906 256.761719 90.503906 256.199219 91.066406 C 253.410156 94.609375 245.257812 103.148438 223.351562 125.507812 C 258.207031 90.261719 258.449219 90.261719 259.226562 90.261719 C 259.574219 90.261719 259.925781 90.398438 260.191406 90.664062 C 260.40625 90.878906 260.59375 91.066406 260.488281 91.496094 C 260.566406 91.496094 260.621094 91.496094 260.730469 91.496094 C 261.078125 91.496094 261.425781 91.632812 261.695312 91.898438 C 262.148438 92.355469 262.390625 92.597656 261.53125 93.753906 C 262.847656 92.679688 263.089844 92.917969 263.570312 93.402344 C 263.972656 93.804688 264.242188 94.074219 263.4375 95.335938 L 263.488281 95.390625 C 263.488281 95.390625 263.382812 95.496094 263.25 95.605469 C 261.105469 98.664062 253.246094 106.824219 229.144531 131.734375 C 230.832031 130.019531 232.46875 128.378906 234.023438 126.796875 C 253.972656 106.539062 264.179688 96.410156 264.644531 96.410156 C 264.992188 96.410156 265.339844 96.542969 265.582031 96.8125 C 265.957031 97.1875 266.226562 97.484375 265.421875 98.746094 L 265.472656 98.796875 C 265.472656 98.796875 265.367188 98.878906 265.285156 98.988281 C 264.644531 99.925781 263.488281 101.375 261.480469 103.628906 C 264.054688 101.132812 264.1875 101.160156 264.507812 101.132812 C 264.859375 101.132812 265.207031 101.269531 265.449219 101.535156 C 265.796875 101.886719 266.089844 102.152344 265.234375 103.441406 L 265.3125 103.550781 C 265.3125 103.550781 265.125 103.738281 264.910156 103.925781 C 264.859375 104.007812 264.777344 104.113281 264.695312 104.222656 C 264.9375 104.273438 265.179688 104.410156 265.367188 104.597656 C 266.011719 105.242188 263.882812 108.132812 258.984375 113.265625 C 254.882812 117.5625 248.984375 123.683594 241.933594 131.039062 C 227.804688 145.722656 208.925781 165.316406 189.996094 184.96875 C 187.585938 187.464844 185.171875 189.960938 182.757812 192.457031 C 182.972656 192.511719 183.132812 192.644531 183.292969 192.777344 C 183.921875 193.40625 182.429688 195.679688 178.816406 199.597656 C 175.976562 202.683594 171.953125 207.007812 167.367188 211.945312 C 166.054688 213.367188 164.6875 214.84375 163.238281 216.375 C 176.671875 202.898438 181.175781 198.578125 182.839844 197.179688 C 182.839844 197.179688 182.867188 197.128906 182.894531 197.128906 C 183.644531 196.535156 183.722656 196.535156 183.964844 196.535156 C 184.3125 196.535156 184.664062 196.671875 184.929688 196.941406 C 185.59375 197.582031 183.652344 200.320312 179.113281 205.152344 C 177.15625 207.246094 174.769531 209.742188 172.140625 212.535156 C 180.695312 203.890625 189.597656 194.847656 198.203125 186.121094 C 262.710938 120.703125 262.953125 120.703125 264 120.703125 C 264.347656 120.703125 264.695312 120.835938 264.964844 121.105469 C 265.421875 121.5625 265.660156 121.804688 264.617188 123.144531 L 264.617188 123.199219 C 264.617188 123.199219 264.535156 123.28125 264.457031 123.359375 C 264.402344 123.414062 264.347656 123.496094 264.292969 123.574219 C 264.535156 123.628906 264.75 123.761719 264.910156 123.925781 C 266.199219 125.214844 266.332031 125.347656 235.363281 157.558594 C 237.269531 155.628906 239.089844 153.773438 240.832031 152.03125 C 254.964844 137.695312 260.164062 132.433594 262.230469 130.472656 C 262.5 130.207031 262.660156 130.019531 262.710938 129.910156 L 262.765625 129.964844 C 263.464844 129.347656 263.597656 129.347656 263.785156 129.347656 C 264.132812 129.347656 264.480469 129.480469 264.722656 129.75 C 265.234375 130.257812 265.472656 130.5 264.617188 131.683594 L 264.617188 131.734375 C 264.617188 131.734375 264.507812 131.871094 264.347656 132.03125 C 263.488281 133.078125 261.882812 134.796875 259.09375 137.722656 C 255.472656 141.5625 250.296875 146.984375 244.078125 153.507812 C 242.601562 155.0625 241.046875 156.675781 239.464844 158.339844 C 259.574219 138.207031 262.6875 135.601562 263.597656 135.574219 C 263.945312 135.574219 264.320312 135.734375 264.5625 135.976562 C 265.234375 136.648438 265.5 136.917969 261.667969 141.050781 C 262.820312 140.085938 263.195312 139.921875 263.488281 139.921875 C 263.839844 139.921875 264.214844 140.085938 264.457031 140.324219 C 265.171875 141.042969 259.011719 148.273438 245.980469 162.015625 C 242.335938 165.855469 238.3125 170.070312 234.023438 174.578125 C 262.097656 146.394531 262.578125 146.394531 263.355469 146.394531 C 263.757812 146.285156 264.078125 146.527344 264.320312 146.796875 C 264.964844 147.441406 265.3125 147.789062 259.898438 153.800781 C 260.890625 152.808594 261.558594 152.164062 262.042969 151.734375 C 262.070312 151.679688 262.097656 151.652344 262.121094 151.628906 C 262.898438 150.929688 263.089844 150.957031 263.25 150.957031 C 263.597656 150.957031 263.945312 151.089844 264.1875 151.359375 C 264.5625 151.734375 264.832031 152.003906 264.027344 153.210938 L 264.132812 153.320312 C 264.132812 153.320312 263.8125 153.613281 263.4375 154.015625 C 262.042969 155.789062 259.148438 158.957031 253.488281 164.941406 C 262.335938 156.136719 262.605469 156.136719 263.113281 156.136719 C 263.464844 156.136719 263.8125 156.269531 264.078125 156.539062 C 264.480469 156.941406 264.777344 157.238281 263.839844 158.605469 C 263.464844 159.171875 262.875 159.921875 262.015625 160.914062 C 263.25 159.976562 263.488281 160.21875 263.972656 160.699219 C 264.457031 161.183594 264.695312 161.425781 263.757812 162.660156 L 263.8125 162.742188 C 263.8125 162.742188 263.597656 162.929688 263.410156 163.117188 C 263.410156 163.117188 263.382812 163.144531 263.355469 163.171875 C 263.570312 163.222656 263.757812 163.359375 263.890625 163.492188 C 264.269531 163.867188 264.507812 164.109375 263.570312 165.480469 L 263.625 165.558594 C 263.625 165.558594 263.464844 165.695312 263.328125 165.828125 C 261.71875 168.027344 257.484375 172.644531 247.484375 183.140625 C 256.707031 173.773438 260.164062 170.335938 261.585938 169.050781 C 261.613281 168.996094 261.640625 168.96875 261.667969 168.941406 C 262.417969 168.296875 262.472656 168.324219 262.765625 168.296875 C 263.113281 168.296875 263.464844 168.429688 263.703125 168.699219 C 264.078125 169.074219 264.347656 169.34375 263.464844 170.578125 L 263.570312 170.714844 C 263.570312 170.714844 263.222656 171.035156 262.847656 171.382812 C 262.738281 171.492188 262.660156 171.625 262.550781 171.761719 C 262.578125 171.761719 262.632812 171.761719 262.660156 171.761719 C 263.007812 171.761719 263.382812 171.894531 263.625 172.164062 C 264.027344 172.566406 264.269531 172.808594 263.222656 174.257812 L 263.222656 174.308594 C 263.222656 174.308594 263.167969 174.363281 263.113281 174.390625 C 261.34375 176.753906 256.277344 182.148438 243.488281 195.730469 C 241.988281 197.34375 240.433594 199.007812 238.824219 200.699219 C 240.699219 198.820312 242.46875 197.019531 244.160156 195.300781 C 253.597656 185.773438 258.019531 181.316406 260.191406 179.222656 C 260.96875 178.417969 261.425781 177.933594 261.53125 177.828125 L 261.613281 177.90625 C 262.230469 177.371094 262.390625 177.398438 262.550781 177.371094 C 262.898438 177.371094 263.222656 177.503906 263.488281 177.746094 C 263.945312 178.175781 264.1875 178.417969 263.300781 179.570312 L 263.4375 179.707031 C 263.4375 179.707031 262.738281 180.375 261.800781 181.34375 C 261.695312 181.449219 261.585938 181.585938 261.453125 181.71875 L 261.507812 181.773438 C 262.148438 181.210938 262.257812 181.210938 262.445312 181.210938 C 262.792969 181.210938 263.140625 181.34375 263.382812 181.585938 C 263.785156 181.988281 264.027344 182.203125 263.167969 183.382812 L 263.328125 183.570312 C 263.328125 183.570312 262.632812 184.269531 261.640625 185.234375 C 260.191406 186.875 257.859375 189.34375 254.1875 193.207031 C 258.074219 189.394531 260.003906 187.597656 261.050781 186.738281 C 261.210938 186.578125 261.292969 186.46875 261.320312 186.445312 L 261.371094 186.445312 C 262.042969 185.960938 262.175781 185.960938 262.335938 185.960938 C 262.6875 185.960938 263.035156 186.09375 263.300781 186.363281 C 263.929688 186.972656 262.488281 189.144531 258.984375 192.886719 L 247.75 204.859375 C 243.488281 209.421875 238.472656 214.738281 233.191406 220.375 C 234.425781 219.140625 235.632812 217.90625 236.785156 216.722656 C 253.230469 200.007812 261.703125 191.652344 262.203125 191.652344 C 262.550781 191.652344 262.898438 191.785156 263.140625 192.054688 C 263.515625 192.429688 263.785156 192.699219 262.898438 193.960938 L 262.980469 194.066406 C 262.980469 194.066406 262.710938 194.308594 262.445312 194.550781 C 262.363281 194.632812 262.308594 194.738281 262.230469 194.847656 C 262.550781 194.871094 262.847656 195.007812 263.0625 195.25 C 263.570312 195.757812 263.8125 196 262.792969 197.34375 C 261.773438 198.65625 259.523438 201.046875 255.015625 205.796875 C 258.261719 202.578125 260.058594 200.804688 261.128906 199.917969 C 261.128906 199.917969 261.128906 199.917969 261.128906 199.890625 C 262.417969 198.871094 262.660156 199.113281 263.195312 199.652344 C 263.542969 200 263.785156 200.242188 263.542969 200.804688 C 263.757812 200.699219 263.890625 200.699219 264.027344 200.699219 C 264.375 200.699219 264.75 200.832031 264.992188 201.101562 C 265.449219 201.582031 265.6875 201.796875 264.667969 203.113281 C 264.722656 203.058594 264.777344 203.007812 264.832031 202.953125 C 265.582031 202.28125 265.714844 202.28125 265.984375 202.28125 C 266.332031 202.28125 266.679688 202.414062 266.921875 202.683594 C 267.351562 203.113281 267.621094 203.382812 266.816406 204.535156 L 266.894531 204.617188 C 266.894531 204.617188 266.707031 204.804688 266.464844 205.046875 C 265.046875 206.925781 261.585938 210.65625 254.105469 218.789062 C 251.585938 221.527344 248.796875 224.535156 245.847656 227.703125 C 268.371094 205.074219 268.691406 205.207031 269.46875 205.125 C 269.816406 205.125 270.167969 205.261719 270.433594 205.53125 C 271.097656 206.191406 268.421875 209.707031 262.417969 216.078125 C 261.988281 216.535156 261.558594 216.992188 261.128906 217.449219 C 271.210938 207.355469 271.585938 207.355469 272.230469 207.355469 C 272.578125 207.355469 272.953125 207.488281 273.195312 207.757812 C 273.875 208.4375 270.496094 212.75 263.0625 220.695312 C 261.746094 222.09375 260.351562 223.59375 258.878906 225.152344 C 274.160156 209.71875 274.429688 209.691406 275.152344 209.691406 C 275.421875 209.691406 275.851562 209.824219 276.117188 210.09375 C 276.492188 210.46875 276.761719 210.738281 275.796875 212.160156 C 275.796875 212.160156 275.742188 212.242188 275.714844 212.265625 C 273.707031 215.140625 266.921875 222.523438 246.972656 243.835938 C 251.90625 238.84375 256.546875 234.144531 260.539062 230.089844 C 271.535156 218.925781 275.582031 214.84375 277.21875 213.339844 C 277.324219 213.207031 277.40625 213.125 277.433594 213.074219 L 277.484375 213.074219 C 278.210938 212.457031 278.453125 212.457031 278.558594 212.480469 C 278.90625 212.480469 279.253906 212.617188 279.496094 212.886719 C 279.953125 213.339844 280.195312 213.582031 279.335938 214.789062 L 279.390625 214.871094 C 279.390625 214.871094 279.203125 215.03125 279.015625 215.246094 C 277.914062 216.667969 275.609375 219.167969 271.265625 223.917969 C 267.378906 228.132812 262.390625 233.527344 256.921875 239.488281 C 280.890625 215.273438 281.132812 215.273438 281.9375 215.273438 C 282.285156 215.273438 282.632812 215.40625 282.902344 215.675781 C 283.332031 216.105469 283.574219 216.347656 282.582031 217.691406 L 282.632812 217.769531 C 282.632812 217.769531 282.472656 217.878906 282.367188 217.984375 C 280.917969 219.835938 277.539062 223.515625 270.246094 231.351562 C 266.332031 235.59375 261.746094 240.507812 256.894531 245.742188 C 284.269531 217.929688 284.402344 217.929688 285.234375 217.90625 C 285.582031 217.90625 285.933594 218.039062 286.199219 218.308594 C 286.65625 218.761719 286.898438 219.003906 285.90625 220.320312 L 285.90625 220.375 C 285.90625 220.375 285.824219 220.480469 285.746094 220.535156 C 284.589844 222.011719 282.070312 224.722656 277.109375 230.039062 C 274.027344 233.339844 270.355469 237.285156 266.304688 241.609375 C 285.503906 222.308594 285.851562 222.308594 286.546875 222.308594 C 286.898438 222.308594 287.246094 222.441406 287.515625 222.710938 C 287.890625 223.085938 288.15625 223.355469 287.191406 224.75 L 287.191406 224.804688 C 287.191406 224.804688 287.136719 224.855469 287.085938 224.910156 C 285.796875 226.734375 282.605469 230.359375 275.476562 238.0625 C 281.535156 232.023438 284.109375 229.554688 285.289062 228.5625 C 285.316406 228.507812 285.34375 228.480469 285.367188 228.453125 C 286.09375 227.863281 286.253906 227.863281 286.441406 227.863281 C 286.789062 227.863281 287.136719 227.996094 287.40625 228.265625 C 287.914062 228.777344 288.15625 229.019531 287.191406 230.304688 C 287.191406 230.304688 287.164062 230.359375 287.136719 230.359375 C 286.28125 231.488281 284.484375 233.421875 281.214844 236.992188 C 278.34375 240.105469 274.644531 244.105469 270.488281 248.585938 C 272.980469 246.0625 275.234375 243.808594 277.082031 241.929688 C 281.855469 237.125 284.027344 234.949219 285.074219 233.957031 C 285.128906 233.875 285.179688 233.824219 285.207031 233.769531 L 285.234375 233.769531 C 285.957031 233.152344 286.066406 233.125 286.335938 233.152344 C 286.683594 233.152344 287.03125 233.285156 287.273438 233.554688 C 287.753906 234.039062 287.996094 234.28125 287.191406 235.40625 L 287.246094 235.460938 C 287.246094 235.460938 287.085938 235.621094 286.84375 235.863281 C 285.796875 237.207031 283.625 239.539062 279.550781 243.917969 C 274.777344 249.042969 268.289062 255.96875 261.453125 263.269531 C 261.183594 263.539062 260.917969 263.835938 260.675781 264.101562 C 260.917969 264.15625 261.128906 264.289062 261.292969 264.453125 C 261.667969 264.855469 261.910156 265.070312 261.050781 266.304688 L 261.15625 266.464844 C 261.15625 266.464844 260.753906 266.839844 260.300781 267.269531 C 260.058594 267.566406 259.789062 267.914062 259.46875 268.289062 C 260.515625 267.511719 260.753906 267.753906 261.210938 268.183594 C 261.585938 268.558594 261.800781 268.773438 260.996094 270.035156 L 261.128906 270.195312 C 261.128906 270.195312 260.808594 270.492188 260.433594 270.867188 C 259.546875 272.101562 257.992188 273.980469 255.472656 276.988281 C 259.46875 273.015625 259.683594 273.015625 260.164062 273.015625 C 260.515625 273.015625 260.863281 273.148438 261.105469 273.390625 C 261.585938 273.875 261.828125 274.117188 260.890625 275.402344 C 260.890625 275.402344 260.835938 275.484375 260.78125 275.539062 C 260.621094 275.753906 260.40625 276.019531 260.164062 276.316406 C 260.488281 276.234375 260.703125 276.449219 260.996094 276.746094 C 261.398438 277.148438 261.640625 277.390625 260.835938 278.652344 L 260.917969 278.757812 C 260.917969 278.757812 260.726562 278.949219 260.515625 279.136719 C 260.191406 279.589844 259.789062 280.128906 259.28125 280.800781 C 259.628906 280.53125 259.738281 280.636719 259.976562 280.53125 C 260.328125 280.53125 260.675781 280.664062 260.917969 280.90625 C 261.371094 281.363281 261.613281 281.578125 260.753906 282.894531 C 260.753906 282.894531 260.703125 282.972656 260.675781 283 C 260.351562 283.511719 259.871094 284.183594 259.199219 285.039062 C 259.523438 284.800781 259.65625 284.800781 259.871094 284.800781 C 260.21875 284.800781 260.566406 284.933594 260.808594 285.203125 C 261.238281 285.632812 261.425781 285.820312 260.753906 287.136719 C 260.246094 288.101562 259.28125 289.683594 257.589844 292.421875 C 259.816406 290.328125 260.058594 290.542969 260.675781 291.160156 C 261.105469 291.589844 260.753906 293.34375 259.628906 296.421875 C 259.628906 296.421875 259.523438 296.691406 259.496094 296.824219 C 259.523438 296.824219 259.574219 296.824219 259.628906 296.824219 L 259.628906 298.167969 C 259.628906 298.167969 258.691406 299.105469 258.691406 299.105469 L 259.628906 298.167969 L 260.488281 299.1875 C 260.328125 299.320312 259.683594 299.992188 259.039062 300.664062 C 256.921875 302.8125 256.546875 303.1875 255.582031 302.328125 C 254.964844 301.710938 254.910156 301.628906 256.492188 297.28125 C 255.472656 298.300781 254.453125 299.347656 253.648438 300.128906 C 251.128906 302.675781 251.101562 302.652344 250.539062 302.652344 C 250.191406 302.652344 249.871094 302.488281 249.628906 302.273438 C 249.226562 301.871094 249.011719 301.65625 249.65625 300.34375 C 249.65625 300.34375 249.65625 300.34375 249.65625 300.316406 C 250.109375 299.375 251.023438 297.898438 252.550781 295.402344 C 249.117188 298.867188 247.160156 300.773438 245.980469 301.765625 C 245.929688 301.84375 245.875 301.898438 245.847656 301.953125 L 245.792969 301.953125 C 244.453125 303 244.210938 302.757812 243.730469 302.273438 C 243.273438 301.84375 243.058594 301.605469 243.890625 300.261719 C 243.890625 300.261719 243.917969 300.207031 243.945312 300.179688 C 244.160156 299.832031 244.453125 299.429688 244.800781 298.945312 C 241.101562 302.675781 240.941406 302.675781 240.457031 302.675781 C 240.109375 302.675781 239.761719 302.542969 239.519531 302.300781 C 239.0625 301.84375 238.824219 301.628906 239.707031 300.316406 L 239.652344 300.261719 C 239.652344 300.261719 239.789062 300.152344 239.894531 300.046875 C 240.164062 299.671875 240.511719 299.214844 240.96875 298.625 C 239.359375 300.261719 238.367188 301.226562 237.75 301.792969 C 237.5625 302.007812 237.457031 302.113281 237.429688 302.167969 L 237.375 302.167969 C 236.757812 302.652344 236.625 302.652344 236.382812 302.652344 C 236.035156 302.652344 235.710938 302.515625 235.472656 302.300781 C 235.097656 301.953125 234.855469 301.738281 235.070312 301.199219 C 234.746094 301.523438 234.480469 301.765625 234.265625 301.980469 C 234.210938 302.03125 234.183594 302.058594 234.183594 302.085938 C 233.515625 302.675781 233.378906 302.703125 233.113281 302.675781 C 232.761719 302.675781 232.414062 302.542969 232.148438 302.273438 C 231.769531 301.898438 231.558594 301.683594 232.335938 300.476562 L 232.199219 300.316406 C 232.199219 300.316406 232.550781 299.964844 233.003906 299.535156 C 234.050781 298.140625 235.875 295.914062 238.984375 292.207031 C 238.179688 293.011719 237.375 293.820312 236.652344 294.570312 C 233.003906 298.222656 230.914062 300.34375 229.625 301.496094 C 229.359375 301.820312 229.171875 302.03125 229.117188 302.113281 L 229.007812 302.03125 C 227.804688 303 227.5625 302.785156 227.105469 302.328125 C 226.625 301.84375 226.382812 301.605469 227.160156 300.449219 C 225.390625 302.195312 224.667969 302.785156 224.183594 302.785156 Z M 224.425781 302.597656 " fill-opacity="1" fill-rule="nonzero"/><path fill="#000000" d="M 169.726562 198.390625 C 169.726562 198.390625 174.582031 200.027344 174.582031 200.027344 C 176.78125 200.699219 180.183594 199.570312 181.125 197.691406 C 181.5 197.367188 181.820312 196.964844 182.113281 196.511719 C 184.179688 196.109375 186.269531 195.679688 187.960938 195.25 C 187.878906 195.410156 187.773438 195.570312 187.71875 195.679688 C 186.996094 197.207031 186.941406 199.382812 185.441406 200.457031 C 185.359375 200.535156 185.226562 200.5625 185.117188 200.617188 C 184.875 200.644531 184.664062 200.722656 184.421875 200.886719 L 184.421875 200.9375 C 183.910156 201.152344 183.375 201.34375 182.867188 201.582031 L 179.703125 203.03125 C 179.703125 203.03125 184.421875 204.992188 184.421875 204.992188 C 186.566406 205.796875 190.050781 204.914062 191.125 203.113281 C 193.136719 201.691406 194.179688 197.933594 193.914062 195.273438 C 193.914062 195.273438 193 186.925781 193 186.925781 C 192.597656 187.625 191.769531 188.914062 190.882812 190.335938 C 191.605469 186.578125 191.125 182.042969 191.175781 178.953125 C 189.675781 180.859375 187.636719 183.542969 185.921875 186.066406 C 185.949219 185.53125 185.949219 184.992188 185.894531 184.484375 C 185.894531 184.484375 184.851562 176.136719 184.851562 176.136719 C 183.886719 177.828125 180.507812 183.25 179.703125 184.941406 C 179.542969 185.34375 179.40625 185.773438 179.273438 186.203125 C 178.550781 187.570312 177.878906 188.886719 177.449219 189.773438 C 177.371094 189.824219 177.261719 189.851562 177.183594 189.90625 C 176.941406 189.960938 176.726562 190.039062 176.484375 190.203125 L 176.484375 190.253906 C 176.003906 190.46875 175.4375 190.683594 174.929688 190.925781 L 171.792969 192.429688 C 171.792969 192.429688 174.902344 193.664062 176.082031 194.121094 C 175.867188 194.578125 175.601562 194.980469 175.199219 195.300781 C 175.117188 195.382812 174.984375 195.410156 174.902344 195.488281 C 174.6875 195.542969 174.445312 195.625 174.230469 195.8125 L 174.230469 195.867188 C 173.75 196.109375 173.214844 196.347656 172.730469 196.617188 L 169.675781 198.28125 Z M 179.378906 194.578125 C 179.59375 194.980469 179.835938 195.382812 180.050781 195.839844 C 179.863281 196.1875 179.648438 196.511719 179.460938 196.832031 L 177.046875 195.917969 C 177.421875 195.4375 177.90625 195.035156 178.414062 194.65625 C 178.738281 194.65625 179.058594 194.632812 179.378906 194.578125 Z M 180.722656 197.316406 L 179.675781 196.914062 C 179.945312 196.859375 180.210938 196.804688 180.480469 196.777344 C 180.558594 196.964844 180.640625 197.128906 180.722656 197.316406 Z M 187.183594 201.101562 C 187.800781 200.429688 188.578125 199.945312 189.40625 199.515625 C 189.863281 200.457031 190.375 201.476562 190.75 202.765625 Z M 188.28125 194.65625 C 187.128906 194.523438 186.054688 194.363281 185.066406 194.203125 C 185.816406 193.476562 186.59375 192.777344 187.34375 192.054688 C 187.691406 192.804688 188.039062 193.609375 188.363281 194.550781 C 188.363281 194.578125 188.308594 194.632812 188.308594 194.65625 Z M 188.28125 194.65625 " fill-opacity="1" fill-rule="nonzero"/><g clip-path="url(#9a95c87caf)"><path fill="#000000" d="M 296.628906 211.757812 L 296.628906 210.386719 C 296.628906 210.386719 295.476562 209.582031 295.476562 209.582031 C 287.460938 203.757812 279.46875 197.851562 271.425781 192.082031 C 274 163.546875 279.578125 102.261719 279.46875 102.179688 L 279.09375 101.832031 L 267.378906 91.015625 C 267.351562 89.992188 267.296875 88.972656 267.269531 87.953125 L 266.464844 87.390625 C 266.464844 87.390625 259.789062 82.691406 253.757812 78.425781 L 251.265625 76.140625 L 250.96875 75.847656 L 250.539062 75.847656 C 250.539062 75.847656 250.03125 75.792969 250.003906 75.792969 C 241.824219 69.996094 233.648438 64.222656 233.648438 64.222656 L 233.191406 63.902344 L 232.683594 63.902344 C 226.648438 64.332031 220.589844 64.734375 214.558594 65.136719 C 203.644531 65.433594 192.222656 65.835938 182.839844 65.886719 L 182.222656 66.667969 C 182.222656 66.667969 181.820312 67.175781 181.820312 67.175781 C 181.175781 67.203125 180.507812 67.257812 179.863281 67.285156 L 179.433594 67.285156 C 179.433594 67.285156 179.164062 67.632812 179.164062 67.632812 C 178.28125 68.8125 177.34375 69.996094 176.457031 71.203125 C 175.679688 71.257812 174.847656 71.308594 174.097656 71.363281 L 173.507812 72.167969 L 150.101562 104.703125 C 148.414062 107.09375 146.667969 109.457031 144.980469 111.816406 C 133.613281 126.207031 122.136719 140.621094 110.714844 154.957031 C 100.714844 167.007812 90.632812 179.035156 80.445312 190.953125 L 80.445312 191.382812 C 80.445312 191.382812 80.390625 193.289062 80.390625 193.289062 C 79.398438 194.550781 78.40625 195.8125 77.414062 197.074219 L 76.902344 197.71875 C 76.902344 197.71875 76.902344 198.550781 76.902344 198.550781 C 77.011719 213.769531 78.136719 234.921875 78.460938 250.332031 C 89.640625 258.332031 100.738281 266.410156 111.949219 274.332031 C 111.949219 274.332031 112.511719 274.734375 112.511719 274.734375 C 112.511719 274.734375 113.152344 274.679688 113.152344 274.679688 C 126.882812 273.714844 144.390625 272.613281 160.53125 271.457031 L 178.925781 271.59375 L 177.984375 282.222656 L 177.878906 283.457031 L 178.816406 284.316406 L 204.394531 307.777344 C 204.394531 307.777344 208.417969 308.046875 208.417969 308.046875 C 208.417969 308.046875 210.722656 308.179688 214.289062 308.394531 L 214.800781 308.824219 L 215.578125 309.441406 C 215.578125 309.441406 216.542969 309.441406 216.542969 309.441406 C 220.859375 309.441406 225.203125 309.441406 229.519531 309.441406 C 243.972656 310.410156 260.566406 311.507812 260.621094 311.457031 C 260.621094 311.457031 260.703125 310.625 260.835938 309.28125 C 263.113281 309.28125 265.394531 309.28125 267.671875 309.226562 L 267.671875 306.730469 C 267.671875 306.730469 267.726562 304.53125 267.726562 304.53125 C 269.925781 304.449219 271.238281 304.394531 271.238281 304.394531 C 271.238281 304.394531 273.25 304.316406 273.25 304.316406 L 273.25 302.246094 C 273.25 302.246094 272.902344 285.308594 272.714844 274.492188 L 288.800781 275.539062 L 289.203125 275.539062 C 289.203125 275.539062 289.230469 275.164062 289.230469 275.164062 C 289.230469 275.164062 289.550781 271.511719 289.632812 270.785156 C 290.625 270.785156 291.269531 270.785156 291.269531 270.785156 L 293.117188 270.785156 C 293.117188 269.203125 293.117188 267.621094 293.144531 266.035156 C 294.539062 265.980469 295.398438 265.929688 295.398438 265.929688 L 298.023438 265.820312 L 297.945312 263.164062 L 296.601562 211.785156 Z M 267.96875 107.28125 C 267.914062 105.535156 267.832031 103.792969 267.78125 102.046875 L 268.074219 102.261719 C 268.046875 103.925781 268.019531 105.617188 267.996094 107.28125 Z M 159.539062 99.871094 L 180.558594 75.363281 C 180.988281 75.363281 181.417969 75.308594 181.847656 75.285156 L 112 161.746094 C 109.992188 163.8125 108.03125 165.800781 106.183594 167.707031 C 117.820312 152.03125 129.589844 136.460938 141.46875 121 C 147.472656 113.9375 153.480469 106.90625 159.539062 99.871094 Z M 184.957031 70.238281 C 185.277344 70.238281 185.601562 70.238281 185.921875 70.238281 L 185.679688 70.53125 C 185.332031 70.558594 184.984375 70.585938 184.636719 70.613281 Z M 258.503906 115.359375 C 258.691406 139.601562 259.039062 169.183594 259.601562 193.371094 L 267.40625 199.8125 C 267.40625 200.105469 267.40625 200.429688 267.40625 200.722656 L 257.859375 194.390625 C 257.269531 161.210938 256.410156 125.050781 255.097656 91.871094 L 258.421875 94.53125 C 258.421875 101.484375 258.394531 108.410156 258.476562 115.335938 Z M 84.652344 237.742188 L 85.269531 230.359375 C 85.269531 233.339844 85.296875 237.125 85.324219 238.277344 C 85.242188 238.226562 85 238.039062 84.921875 237.984375 C 84.921875 237.984375 84.679688 237.769531 84.679688 237.742188 Z M 90.660156 200.804688 C 116.265625 170.175781 142.40625 140.003906 169.003906 110.234375 L 194.929688 81.054688 C 206.890625 81.1875 222.707031 81.136719 235.632812 81.164062 L 250.808594 91.65625 C 251.265625 100.035156 251.613281 108.433594 252.175781 116.8125 C 253.625 140.996094 255.527344 170.523438 257.351562 194.65625 L 267.378906 202.066406 C 267.378906 203.195312 267.378906 204.347656 267.378906 205.449219 L 269.175781 206.980469 L 282.714844 219.328125 C 282.847656 224.910156 282.984375 230.519531 283.171875 236.105469 C 283.035156 242.253906 282.875 248.371094 282.742188 254.519531 L 259.308594 254.628906 L 257.214844 254.628906 C 257.214844 254.628906 257.1875 256.800781 257.1875 256.800781 L 256.574219 292.046875 C 242.953125 292.128906 229.304688 292.394531 215.683594 292.585938 L 192.195312 274.785156 C 192.195312 273.015625 192.144531 270.089844 192.117188 267.136719 L 192.117188 266.117188 C 192.089844 262.359375 192.035156 258.816406 192.035156 257.902344 L 189.167969 258.007812 L 185.359375 258.171875 L 185.359375 255.324219 C 185.359375 255.324219 182.542969 255.40625 182.542969 255.40625 L 111.734375 257.125 C 104.816406 251.96875 92.105469 242.464844 90.230469 241.097656 C 90.308594 232.722656 90.605469 201.503906 90.632812 200.804688 Z M 199.8125 75.257812 C 199.8125 75.257812 210.75 75.902344 221.234375 76.492188 C 213.539062 76.570312 205.710938 76.679688 198.660156 76.679688 C 199.355469 75.902344 199.757812 75.417969 199.8125 75.257812 Z M 282.582031 213.339844 C 282.582031 214.441406 282.632812 215.515625 282.660156 216.617188 L 276.386719 211.785156 L 270.191406 206.039062 C 270.191406 205.691406 270.273438 205.074219 270.355469 204.242188 L 282.605469 213.3125 Z M 268.851562 205.984375 L 267.886719 205.261719 C 267.941406 204.375 267.96875 203.460938 268.019531 202.578125 L 269.066406 203.355469 C 268.960938 204.5625 268.878906 205.449219 268.824219 205.984375 Z M 270.460938 202.792969 C 270.460938 202.792969 270.460938 202.550781 270.488281 202.414062 L 273.035156 204.507812 Z M 269.199219 201.960938 L 268.101562 201.234375 C 268.101562 200.992188 268.101562 200.722656 268.128906 200.457031 L 269.253906 201.367188 C 269.253906 201.558594 269.226562 201.769531 269.199219 201.960938 Z M 262.660156 90.371094 C 262.875 90.53125 263.035156 90.664062 263.195312 90.773438 C 263.195312 91.445312 263.222656 92.140625 263.222656 92.8125 C 263.035156 92.652344 262.820312 92.492188 262.605469 92.300781 C 262.605469 91.65625 262.605469 90.988281 262.632812 90.371094 Z M 211.5 73.296875 C 215.605469 73 219.519531 72.734375 223.085938 72.519531 L 225.523438 74.210938 C 218.527344 73.753906 216.460938 73.617188 211.5 73.296875 Z M 197.480469 74.261719 C 196.835938 74.90625 196.058594 75.714844 195.09375 76.679688 C 194.367188 76.679688 193.617188 76.679688 192.894531 76.679688 L 192.25 77.429688 C 192.25 77.429688 186.324219 84.570312 180.453125 91.605469 C 168.789062 103.550781 153.132812 119.574219 137.902344 135.199219 C 158.332031 109.535156 178.761719 83.765625 185.277344 75.09375 C 189.195312 74.828125 193.296875 74.558594 197.453125 74.261719 Z M 153.855469 123.601562 C 132.648438 148.996094 111.117188 174.121094 89.210938 198.925781 L 89.210938 196.484375 C 91.488281 193.476562 102.402344 179.8125 116.15625 162.527344 C 127.578125 150.742188 141.066406 136.808594 153.855469 123.601562 Z M 82.910156 209.851562 C 82.882812 204.859375 82.855469 202.46875 82.828125 199.464844 C 83.203125 198.925781 83.605469 198.414062 83.984375 197.90625 L 82.910156 209.878906 Z M 287.460938 255.675781 C 287.03125 249.125 286.628906 242.546875 286.226562 235.996094 C 286.171875 231.433594 286.121094 226.898438 286.066406 222.332031 L 289.738281 225.664062 C 289.660156 235.648438 289.632812 245.632812 289.605469 255.621094 C 289.363281 255.621094 288.023438 255.648438 287.488281 255.675781 Z M 289.738281 222.011719 L 286.011719 219.140625 C 285.984375 217.046875 285.957031 214.925781 285.933594 212.832031 L 285.933594 212.292969 C 285.933594 212.292969 285.53125 212 285.53125 212 L 270.648438 200.964844 C 270.703125 200.402344 270.757812 199.8125 270.808594 199.167969 C 277.484375 204.429688 289.257812 213.71875 289.820312 214.148438 C 289.792969 216.777344 289.792969 219.382812 289.765625 222.011719 Z M 269.390625 200.027344 L 268.234375 199.167969 C 268.261719 198.523438 268.289062 197.851562 268.34375 197.207031 C 268.609375 197.421875 269.199219 197.878906 269.578125 198.175781 C 269.523438 198.820312 269.46875 199.464844 269.414062 200.054688 Z M 265.125 194.65625 C 265.125 194.65625 267.03125 196.160156 267.40625 196.457031 C 267.40625 197.179688 267.40625 197.851562 267.40625 198.550781 L 260.085938 193.128906 C 261.128906 162.363281 262.121094 129.023438 262.578125 97.859375 L 263.382812 98.503906 C 263.542969 107.601562 263.730469 116.730469 263.917969 125.832031 C 264.347656 156.164062 265.125 195.25 265.152344 194.683594 Z M 238.796875 75.042969 C 237.242188 74.933594 236.300781 74.878906 234.398438 74.746094 C 231.71875 72.839844 229.464844 71.230469 228.257812 70.398438 C 229.386719 70.34375 232.011719 70.238281 232.550781 70.238281 Z M 83.394531 247.058594 C 83.394531 246.867188 83.152344 243.191406 83.097656 242.0625 L 86.554688 245.257812 L 86.503906 246.414062 L 86.503906 247.296875 C 86.503906 247.296875 87.171875 247.890625 87.171875 247.890625 C 87.171875 247.890625 93.234375 252.910156 99.078125 257.769531 C 91.328125 252.480469 84.144531 247.539062 83.367188 247.03125 Z M 183.320312 281.496094 C 183.320312 281.496094 183.320312 281.335938 183.320312 281.335938 L 186.136719 283.296875 L 186.136719 283.457031 C 186.136719 283.457031 183.320312 281.523438 183.320312 281.523438 Z M 215.066406 301.84375 C 230.191406 300.71875 245.339844 299.699219 260.460938 298.464844 L 261.371094 298.464844 C 261.292969 299.269531 261.238281 300.101562 261.15625 300.878906 L 217.535156 303.859375 L 215.039062 301.84375 Z M 263.757812 273.285156 L 263.542969 273.285156 C 263.542969 273.285156 262.792969 260.050781 262.792969 260.050781 C 262.980469 260.050781 263.757812 259.96875 264.054688 259.941406 L 264.054688 266.707031 C 264.054688 266.707031 264.027344 266.707031 264.027344 266.707031 L 263.945312 268.855469 L 263.785156 273.285156 Z M 270.003906 262.089844 C 270.003906 262.089844 268.691406 262.171875 268.074219 262.195312 C 268.074219 261.765625 268.046875 260.210938 268.019531 259.996094 L 289.792969 258.921875 C 289.710938 259.78125 289.710938 260.050781 289.632812 260.855469 L 269.980469 262.0625 Z M 114.46875 270.546875 C 114.46875 270.546875 114.601562 270.652344 114.601562 270.652344 C 114.601562 270.652344 114.683594 270.734375 114.789062 270.785156 L 113.742188 270.785156 C 113.742188 270.785156 113.53125 270.679688 113.421875 270.597656 Z M 261.640625 300.878906 C 261.71875 300.074219 261.773438 299.269531 261.855469 298.4375 L 262.898438 298.382812 L 262.820312 300.796875 Z M 289.230469 266.195312 C 289.230469 266.4375 289.175781 266.789062 289.148438 267.027344 L 274.457031 266.839844 C 278.476562 266.652344 284.589844 266.410156 289.203125 266.195312 Z M 277.296875 103.011719 C 276.789062 108.222656 273.007812 155.761719 270.675781 184.617188 C 270.433594 177.585938 270.191406 170.523438 269.980469 163.492188 C 270.945312 142.527344 271.773438 121.347656 272.363281 101.320312 L 272.363281 100.300781 C 272.363281 100.300781 271.585938 99.628906 271.585938 99.628906 C 271.585938 99.628906 270.003906 98.34375 267.621094 96.355469 C 267.59375 95.605469 267.566406 94.851562 267.539062 94.101562 L 277.324219 103.011719 Z M 212.464844 308.289062 L 209.515625 305.578125 C 209.515625 305.578125 204.289062 300.773438 199.890625 296.746094 L 214.289062 308.367188 C 213.109375 308.316406 212.414062 308.261719 212.441406 308.261719 Z M 260.351562 311.242188 C 260.941406 311.078125 246.355469 310.195312 233.113281 309.441406 C 242.253906 309.441406 251.371094 309.386719 260.515625 309.308594 C 260.40625 310.542969 260.351562 311.265625 260.351562 311.265625 Z M 267.914062 298.195312 C 268.34375 298.195312 268.800781 298.167969 268.800781 298.167969 L 268.746094 295.941406 C 268.746094 295.941406 268.636719 290.867188 268.613281 288.503906 L 269.066406 300.421875 L 267.886719 300.503906 L 267.886719 298.222656 Z M 288.53125 274.734375 C 288.050781 274.707031 280.007812 274.25 272.765625 273.820312 C 272.765625 272.773438 272.742188 271.832031 272.714844 271.027344 C 278.023438 270.949219 285.128906 270.867188 288.855469 270.8125 C 288.800781 271.457031 288.53125 274.652344 288.53125 274.734375 Z M 288.53125 274.734375 " fill-opacity="1" fill-rule="nonzero"/></g><path fill="#ffffff" d="M 234.15625 197.609375 L 259.359375 197.609375 C 259.359375 197.609375 258.289062 241.125 258.289062 241.125 L 233.085938 241.125 C 233.085938 241.125 232.171875 278.867188 232.171875 278.867188 L 183.589844 278.867188 C 183.589844 278.867188 184.5 241.125 184.5 241.125 L 82.992188 241.125 C 82.992188 241.125 84.117188 195.007812 84.117188 195.007812 L 188.605469 73.484375 L 237.1875 73.484375 C 237.1875 73.484375 234.15625 197.609375 234.15625 197.609375 Z M 185.574219 197.609375 L 187.128906 134.070312 L 131.949219 197.609375 L 185.574219 197.609375 " fill-opacity="1" fill-rule="nonzero"/></svg>