<svg xmlns="http://www.w3.org/2000/svg" xmlns:xlink="http://www.w3.org/1999/xlink" width="500" zoomAndPan="magnify" viewBox="0 0 375 374.999991" height="500" preserveAspectRatio="xMidYMid meet" version="1.0"><path fill="#000000" d="M 205.523438 239.480469 C 205.265625 239.480469 205.011719 239.421875 204.8125 239.28125 C 204.1875 238.910156 203.875 238.738281 204.5 237.085938 C 204.5 237.085938 204.5 237.085938 204.5 237.058594 C 205.152344 235.40625 206.714844 232.304688 209.867188 226.125 C 211.171875 223.5625 212.648438 220.683594 214.238281 217.582031 C 208.671875 227.09375 208.359375 227.175781 207.851562 227.320312 C 207.480469 227.40625 207.082031 227.378906 206.742188 227.179688 C 206.261719 226.894531 205.949219 226.722656 206.515625 225.011719 L 206.457031 224.957031 C 206.457031 224.957031 206.542969 224.84375 206.601562 224.757812 C 207.652344 221.882812 211 215.105469 219.433594 198.359375 C 217.363281 202.003906 215.460938 205.335938 213.953125 207.984375 C 210.148438 214.667969 208.058594 218.054688 207.679688 218.152344 C 207.308594 218.234375 206.914062 218.207031 206.601562 218.007812 C 206.144531 217.753906 205.804688 217.550781 206.230469 216.101562 L 206.117188 216.015625 C 206.117188 216.015625 206.289062 215.730469 206.457031 215.417969 C 207.367188 212.824219 209.921875 207.386719 215.855469 195.398438 C 214.550781 197.703125 213.359375 199.785156 212.335938 201.578125 L 208.871094 207.644531 C 207.113281 210.71875 206.855469 211.175781 205.605469 210.460938 C 205.125 210.175781 204.8125 210.007812 205.292969 208.582031 L 205.125 208.46875 C 205.125 208.46875 205.378906 208.011719 205.71875 207.414062 C 206.714844 204.996094 208.957031 200.4375 213.414062 191.523438 C 212.675781 192.835938 211.96875 194.089844 211.3125 195.199219 C 208.53125 200.066406 207.167969 202.488281 206.429688 203.683594 C 206.316406 203.941406 206.230469 204.082031 206.203125 204.140625 L 206.144531 204.140625 C 205.664062 204.851562 205.523438 204.878906 205.265625 204.9375 C 204.898438 205.023438 204.527344 204.964844 204.214844 204.796875 C 203.621094 204.453125 203.308594 204.28125 203.847656 202.859375 L 203.734375 202.773438 C 203.734375 202.773438 203.960938 202.402344 204.214844 201.949219 C 204.867188 200.410156 206.089844 197.933594 208.105469 193.804688 C 209.097656 191.78125 210.261719 189.417969 211.511719 186.855469 C 206.554688 195.605469 203.855469 200.039062 203.421875 200.152344 C 203.050781 200.265625 202.652344 200.210938 202.339844 200.011719 C 201.832031 199.726562 201.519531 199.527344 202 198.019531 L 201.886719 197.933594 C 201.886719 197.933594 202.058594 197.675781 202.226562 197.390625 C 202.9375 195.484375 204.554688 192.039062 207.707031 185.488281 C 200.042969 199.015625 199.898438 199.042969 199.191406 199.242188 C 198.820312 199.355469 198.421875 199.300781 198.109375 199.101562 C 197.769531 198.902344 197.515625 198.757812 197.570312 198.1875 C 194.421875 203.65625 194.191406 203.714844 193.652344 203.855469 C 193.285156 203.941406 192.886719 203.914062 192.574219 203.714844 C 191.894531 203.316406 191.664062 202.460938 192.0625 201.777344 C 192.148438 201.632812 192.234375 201.519531 192.347656 201.433594 C 193.398438 199.953125 200.324219 187.652344 206.457031 176.773438 C 221.734375 149.609375 221.820312 149.609375 222.726562 149.351562 C 223.097656 149.265625 223.496094 149.292969 223.835938 149.492188 C 224.316406 149.777344 224.601562 149.949219 224.460938 150.660156 C 224.800781 150.207031 224.972656 150.175781 225.199219 150.121094 C 225.566406 150.007812 225.964844 150.0625 226.277344 150.261719 C 226.789062 150.574219 227.101562 150.746094 226.5625 152.371094 L 226.617188 152.425781 C 226.617188 152.425781 226.53125 152.539062 226.476562 152.65625 C 225.851562 154.390625 224.402344 157.582031 221.476562 163.617188 C 228.347656 151.601562 228.578125 151.542969 229.230469 151.375 C 229.597656 151.257812 229.996094 151.316406 230.308594 151.515625 C 230.875 151.855469 231.1875 152.027344 230.59375 153.707031 C 230.59375 153.707031 230.59375 153.707031 230.59375 153.738281 C 229.996094 155.386719 228.519531 158.492188 225.59375 164.53125 C 232.835938 151.914062 232.949219 151.972656 234.226562 152.710938 C 234.738281 152.996094 235.050781 153.195312 234.511719 154.820312 L 234.597656 154.875 C 234.597656 154.875 234.480469 155.046875 234.398438 155.160156 C 233.746094 156.984375 232.183594 160.316406 229.058594 166.636719 C 233.402344 159.089844 235.25 156.042969 236.128906 154.761719 C 236.1875 154.675781 236.214844 154.589844 236.214844 154.5625 L 236.242188 154.5625 C 236.753906 153.878906 236.925781 153.851562 237.121094 153.792969 C 237.492188 153.679688 237.890625 153.738281 238.230469 153.9375 C 238.910156 154.363281 239.195312 154.503906 238.542969 156.070312 C 238.542969 156.070312 238.542969 156.101562 238.515625 156.128906 C 238.089844 157.125 237.292969 158.71875 236.042969 161.28125 C 234.027344 165.328125 230.734375 171.933594 227.128906 179.195312 C 240.699219 155.445312 240.957031 155.359375 241.636719 155.1875 C 242.007812 155.105469 242.402344 155.132812 242.746094 155.332031 C 243.578125 155.824219 242.335938 159.382812 239.023438 166.011719 C 236.355469 171.335938 232.722656 178.539062 228.890625 186.113281 C 228.519531 186.882812 228.121094 187.652344 227.726562 188.421875 C 232.75 179.566406 237.546875 171.109375 240.617188 165.726562 C 242.574219 162.25 243.824219 160.058594 244.703125 158.664062 C 244.789062 158.492188 244.875 158.320312 244.960938 158.179688 L 245.355469 157.382812 L 245.5 157.4375 C 246.378906 156.242188 246.691406 156.414062 247.316406 156.785156 C 247.769531 157.039062 248.054688 157.523438 248.054688 158.035156 C 248.054688 158.265625 247.863281 158.75 247.484375 159.488281 C 242.773438 168.601562 237.976562 177.886719 233.375 186.769531 C 249.359375 158.605469 249.472656 158.578125 250.269531 158.351562 L 250.636719 159.71875 L 249.929688 160.941406 L 250.636719 159.71875 L 251.6875 160.65625 C 250.75 161.882812 239.90625 180.960938 230.367188 197.820312 C 214.769531 225.289062 206.648438 239.117188 206.003906 239.308594 C 206.003906 239.308594 205.75 239.367188 205.636719 239.367188 Z M 205.523438 239.480469 " fill-opacity="1" fill-rule="nonzero"/><path fill="#000000" d="M 223.777344 140.75 C 223.523438 140.75 223.296875 140.695312 223.070312 140.550781 C 222.726562 140.351562 222.5 140.238281 222.414062 139.953125 C 222.332031 140.011719 222.246094 140.039062 222.132812 140.066406 C 221.761719 140.183594 221.363281 140.125 221.023438 139.925781 C 220.511719 139.613281 220.230469 139.441406 220.796875 137.847656 L 220.683594 137.761719 C 220.683594 137.761719 220.855469 137.535156 220.996094 137.304688 C 221.90625 134.972656 224.175781 130.300781 228.945312 120.503906 C 218.722656 138.558594 218.695312 138.585938 217.957031 138.785156 C 217.589844 138.902344 217.191406 138.84375 216.878906 138.644531 C 216.425781 138.386719 216.113281 138.1875 216.480469 136.992188 C 215.429688 138.417969 215.117188 138.246094 214.578125 137.933594 C 214.125 137.675781 213.8125 137.476562 214.265625 135.996094 L 214.097656 135.882812 C 214.097656 135.882812 214.351562 135.453125 214.636719 134.941406 C 215.203125 133.519531 216.199219 131.324219 217.871094 127.878906 C 212.789062 136.765625 212.589844 136.792969 212.050781 136.9375 C 211.683594 137.050781 211.285156 136.992188 210.972656 136.792969 C 210.460938 136.480469 210.121094 136.308594 210.660156 134.6875 L 210.605469 134.6875 C 210.605469 134.6875 210.6875 134.542969 210.746094 134.457031 C 211.511719 132.324219 213.585938 127.910156 218.242188 118.425781 C 216.453125 121.558594 214.804688 124.433594 213.527344 126.710938 C 210.179688 132.597656 208.304688 135.585938 207.90625 135.683594 C 207.566406 135.769531 207.167969 135.710938 206.855469 135.539062 C 206.34375 135.226562 206.003906 135.054688 206.488281 133.632812 L 206.375 133.546875 C 206.375 133.546875 206.542969 133.261719 206.742188 132.890625 C 206.882812 132.523438 207.054688 132.09375 207.28125 131.609375 C 205.523438 134.542969 205.265625 134.601562 204.839844 134.742188 C 204.472656 134.855469 204.074219 134.800781 203.761719 134.601562 C 203.449219 134.429688 203.222656 134.289062 203.195312 133.890625 C 203.023438 134.03125 202.910156 134.058594 202.796875 134.089844 C 202.425781 134.171875 202.03125 134.144531 201.71875 133.945312 C 201.0625 133.574219 200.78125 133.40625 201.375 131.753906 C 201.832031 130.585938 202.769531 128.648438 204.414062 125.347656 C 200.097656 132.863281 199.957031 132.921875 199.445312 133.0625 C 199.078125 133.175781 198.679688 133.121094 198.367188 132.921875 C 197.855469 132.636719 197.515625 132.4375 198.027344 130.871094 L 197.96875 130.8125 C 197.96875 130.8125 198.082031 130.640625 198.167969 130.5 C 198.820312 128.707031 200.382812 125.375 203.535156 118.96875 L 201.859375 121.898438 C 199.84375 125.402344 198.621094 127.511719 197.828125 128.734375 L 197.542969 129.332031 L 197.457031 129.277344 C 196.550781 130.527344 196.238281 130.328125 195.554688 129.957031 C 195.355469 129.84375 195.1875 129.675781 195.074219 129.476562 C 194.648438 128.820312 194.847656 128.394531 195.300781 127.453125 C 198.878906 119.851562 202.144531 112.957031 204.980469 106.894531 C 203.734375 109.085938 202.511719 111.222656 201.375 113.1875 C 195.601562 123.230469 192.527344 128.296875 192.148438 128.394531 L 191.78125 127.027344 L 192.488281 125.800781 L 191.78125 127.027344 L 190.585938 126.285156 C 190.785156 125.972656 194.5625 119.394531 198.933594 111.789062 L 211.824219 89.378906 C 215.289062 83.371094 217.132812 80.152344 218.242188 78.53125 C 218.355469 78.300781 218.410156 78.132812 218.441406 78.046875 L 218.554688 78.046875 C 219.578125 76.679688 219.886719 76.878906 220.484375 77.21875 C 220.96875 77.503906 221.28125 77.675781 220.824219 79.15625 L 220.96875 79.269531 C 220.96875 79.269531 220.769531 79.613281 220.542969 80.011719 C 219.605469 82.515625 217.277344 87.558594 212.308594 98.152344 C 219.265625 86.046875 221.875 81.464844 223.039062 79.699219 C 223.039062 79.640625 223.097656 79.585938 223.097656 79.554688 L 223.125 79.554688 C 223.75 78.644531 223.890625 78.617188 224.089844 78.558594 C 224.460938 78.472656 224.828125 78.5 225.167969 78.703125 C 225.679688 78.984375 225.992188 79.183594 225.511719 80.667969 L 225.652344 80.75 C 225.652344 80.75 225.453125 81.066406 225.226562 81.464844 C 224.488281 83.34375 222.898438 86.644531 219.917969 92.683594 C 227.15625 79.984375 227.328125 79.953125 227.953125 79.753906 C 228.320312 79.640625 228.71875 79.699219 229.058594 79.898438 C 229.542969 80.183594 229.824219 80.351562 229.257812 81.949219 L 229.398438 82.0625 C 229.398438 82.0625 229.171875 82.402344 228.945312 82.773438 C 228.292969 84.367188 227.015625 86.988281 224.855469 91.34375 C 225.3125 90.574219 225.710938 89.835938 226.105469 89.125 C 228.546875 84.824219 229.710938 82.773438 230.335938 81.804688 C 230.90625 80.921875 231.046875 80.894531 231.300781 80.808594 C 231.671875 80.695312 232.070312 80.75 232.382812 80.949219 C 232.664062 81.121094 232.890625 81.265625 232.949219 81.632812 C 233.089844 81.519531 233.203125 81.492188 233.347656 81.464844 C 233.714844 81.347656 234.113281 81.40625 234.425781 81.605469 C 234.964844 81.917969 235.304688 82.117188 234.710938 83.769531 C 234.710938 83.769531 234.652344 83.855469 234.625 83.914062 C 234.425781 84.480469 234.113281 85.195312 233.6875 86.105469 C 235.789062 82.601562 236.015625 82.546875 236.382812 82.433594 C 236.753906 82.347656 237.121094 82.375 237.464844 82.574219 C 237.976562 82.886719 238.316406 83.058594 237.777344 84.652344 L 237.859375 84.710938 C 237.859375 84.710938 237.746094 84.878906 237.664062 85.023438 C 236.867188 87.1875 234.824219 91.488281 230.367188 100.515625 C 236.214844 90.207031 238.484375 86.304688 239.480469 84.765625 C 239.535156 84.679688 239.566406 84.625 239.566406 84.566406 L 239.59375 84.566406 C 240.105469 83.828125 240.273438 83.769531 240.5 83.714844 C 240.84375 83.628906 241.238281 83.65625 241.550781 83.828125 C 242.121094 84.140625 242.402344 84.3125 241.835938 85.847656 L 241.949219 85.933594 C 241.949219 85.933594 241.75 86.277344 241.523438 86.617188 C 240.8125 88.328125 239.367188 91.230469 236.839844 96.269531 C 243.253906 85.136719 243.425781 85.078125 243.9375 84.9375 C 244.304688 84.824219 244.703125 84.878906 245.015625 85.078125 C 245.414062 85.308594 245.699219 85.480469 245.527344 86.246094 C 245.78125 85.992188 245.925781 85.933594 246.09375 85.878906 C 246.464844 85.792969 246.863281 85.820312 247.175781 86.019531 C 247.65625 86.304688 247.96875 86.476562 247.402344 88.15625 L 247.488281 88.242188 C 247.488281 88.242188 247.371094 88.410156 247.257812 88.554688 C 246.464844 90.71875 244.476562 95.019531 240.246094 103.789062 C 245.640625 94.277344 247.796875 90.519531 248.792969 88.980469 C 248.847656 88.867188 248.90625 88.78125 248.90625 88.726562 L 248.933594 88.726562 C 249.445312 87.984375 249.617188 87.925781 249.84375 87.871094 C 250.210938 87.757812 250.609375 87.8125 250.921875 88.011719 C 251.347656 88.269531 251.632812 88.441406 251.601562 88.925781 C 251.945312 88.839844 252.339844 88.894531 252.683594 89.066406 C 253.164062 89.351562 253.503906 89.550781 252.964844 91.257812 C 252.964844 91.257812 252.964844 91.316406 252.9375 91.316406 C 252.371094 93.054688 250.921875 96.300781 247.914062 102.648438 C 248.140625 102.28125 248.339844 101.910156 248.535156 101.539062 C 251.6875 95.988281 253.109375 93.480469 253.847656 92.3125 C 253.875 92.257812 253.902344 92.199219 253.902344 92.171875 C 254.441406 91.34375 254.585938 91.316406 254.839844 91.230469 C 255.210938 91.144531 255.578125 91.175781 255.917969 91.375 C 256.429688 91.65625 256.742188 91.855469 256.257812 93.28125 L 256.402344 93.367188 C 256.402344 93.367188 256.144531 93.792969 255.863281 94.304688 C 255.324219 95.644531 254.359375 97.636719 252.882812 100.742188 C 254.839844 97.269531 255.890625 95.472656 256.488281 94.535156 C 256.542969 94.421875 256.570312 94.335938 256.601562 94.277344 L 256.628906 94.277344 C 257.140625 93.539062 257.28125 93.507812 257.539062 93.421875 C 257.90625 93.308594 258.304688 93.367188 258.644531 93.566406 C 259.242188 93.9375 259.523438 94.105469 259.015625 95.558594 L 259.070312 95.617188 C 259.070312 95.617188 258.957031 95.816406 258.84375 95.988281 C 258.332031 97.269531 257.339844 99.375 255.664062 102.933594 C 255.265625 103.789062 254.8125 104.730469 254.359375 105.726562 C 259.636719 96.46875 259.835938 96.414062 260.460938 96.269531 C 260.832031 96.15625 261.226562 96.214844 261.539062 96.414062 C 262.023438 96.699219 262.308594 96.871094 261.824219 98.292969 C 261.9375 98.234375 262.023438 98.179688 262.136719 98.152344 C 262.507812 98.066406 262.902344 98.121094 263.214844 98.292969 C 263.753906 98.605469 264.039062 98.777344 263.613281 100.171875 L 263.726562 100.230469 C 263.613281 100.429688 263.5 100.628906 263.386719 100.828125 C 263.160156 101.453125 262.820312 102.28125 262.335938 103.332031 C 262.734375 102.679688 263.015625 102.222656 263.246094 101.851562 C 263.246094 101.796875 263.300781 101.738281 263.300781 101.710938 C 263.839844 100.941406 263.984375 100.882812 264.238281 100.828125 C 264.605469 100.714844 265.003906 100.769531 265.316406 100.96875 C 265.886719 101.3125 266.167969 101.484375 265.628906 102.992188 L 265.714844 103.046875 C 265.714844 103.046875 265.628906 103.191406 265.542969 103.304688 C 265.65625 103.21875 265.769531 103.191406 265.886719 103.164062 C 266.253906 103.046875 266.652344 103.105469 266.964844 103.304688 C 267.558594 103.648438 267.871094 103.816406 267.304688 105.46875 C 267.164062 105.867188 266.992188 106.324219 266.765625 106.894531 C 267.789062 105.527344 268.097656 105.695312 268.695312 106.039062 C 269.234375 106.351562 269.519531 106.523438 269.035156 108.058594 L 269.121094 108.117188 C 269.121094 108.117188 269.007812 108.289062 268.894531 108.460938 C 268.835938 108.660156 268.753906 108.886719 268.667969 109.144531 C 269.320312 108.316406 269.632812 108.488281 270.285156 108.859375 C 271.25 109.425781 271.308594 109.484375 269.347656 116.175781 C 270.910156 113.472656 271.023438 113.441406 271.507812 113.300781 C 271.875 113.1875 272.273438 113.242188 272.585938 113.441406 C 273.351562 113.898438 273.410156 113.925781 272.871094 118.9375 C 273.636719 117.914062 273.949219 118.085938 274.660156 118.484375 C 275.074219 118.710938 275.398438 119.613281 275.625 121.1875 C 275.738281 121.984375 275.878906 122.898438 275.9375 123.4375 L 276.476562 123.78125 L 276.191406 124.292969 C 275.738281 125.089844 275.59375 125.375 275 125.546875 C 274.628906 125.628906 274.234375 125.601562 273.890625 125.402344 C 273.464844 125.144531 273.351562 125.089844 273.152344 123.980469 C 272.898438 124.464844 272.640625 124.890625 272.445312 125.230469 C 271.789062 126.398438 271.675781 126.570312 271.082031 126.710938 C 270.738281 126.796875 270.34375 126.742188 270.03125 126.570312 C 269.234375 126.113281 269.207031 126.085938 269.746094 121.214844 C 269.691406 121.332031 269.632812 121.417969 269.574219 121.53125 C 267 126.085938 265.496094 128.421875 265.0625 128.535156 C 264.691406 128.621094 264.324219 128.59375 264.011719 128.394531 C 263.128906 127.910156 262.988281 127.824219 264.863281 121.386719 C 259.894531 130.128906 259.808594 130.160156 259.15625 130.328125 C 258.785156 130.414062 258.390625 130.386719 258.078125 130.1875 C 257.453125 129.84375 257.167969 129.675781 257.734375 128.050781 C 255.804688 131.355469 255.691406 131.382812 255.238281 131.496094 C 254.867188 131.582031 254.5 131.554688 254.160156 131.355469 C 253.589844 131.011719 253.277344 130.839844 253.761719 129.359375 L 253.703125 129.359375 C 253.703125 129.359375 253.789062 129.191406 253.875 129.046875 C 253.929688 128.90625 253.988281 128.761719 254.046875 128.59375 C 253.222656 130.042969 252.652344 131.011719 252.226562 131.667969 C 252.226562 131.667969 252.226562 131.695312 252.226562 131.722656 C 251.320312 133.121094 251.035156 132.976562 250.242188 132.578125 C 249.699219 132.265625 249.390625 132.09375 249.84375 130.640625 C 249.390625 131.355469 249.019531 131.953125 248.734375 132.378906 C 248.679688 132.523438 248.621094 132.636719 248.59375 132.722656 L 248.507812 132.722656 C 247.457031 134.144531 247.144531 133.972656 246.550781 133.632812 C 245.980469 133.320312 245.667969 133.121094 246.152344 131.609375 L 246.066406 131.554688 C 246.066406 131.554688 246.179688 131.382812 246.265625 131.242188 C 246.492188 130.613281 246.832031 129.789062 247.316406 128.675781 C 245.894531 131.125 244.988281 132.636719 244.421875 133.546875 C 244.222656 133.917969 244.109375 134.171875 244.078125 134.257812 L 243.992188 134.257812 C 243.453125 135.027344 243.3125 135.054688 243.140625 135.113281 C 242.773438 135.199219 242.375 135.140625 242.035156 134.941406 C 241.664062 134.714844 241.410156 134.570312 241.46875 133.972656 C 240.273438 135.96875 240.105469 136.023438 239.761719 136.109375 C 239.394531 136.195312 238.996094 136.167969 238.683594 135.96875 C 238.203125 135.683594 237.859375 135.511719 238.34375 133.972656 L 238.257812 133.917969 C 238.257812 133.917969 238.371094 133.71875 238.484375 133.519531 C 238.941406 132.179688 239.847656 130.042969 241.4375 126.511719 C 235.136719 137.535156 234.910156 137.589844 234.285156 137.761719 C 233.914062 137.847656 233.515625 137.820312 233.203125 137.621094 C 232.695312 137.335938 232.382812 137.136719 232.949219 135.453125 L 232.890625 135.398438 C 232.890625 135.398438 232.976562 135.285156 233.035156 135.226562 C 233.347656 134.34375 233.914062 133.0625 234.765625 131.210938 C 232.636719 134.886719 231.386719 136.964844 230.5625 138.101562 C 230.480469 138.273438 230.421875 138.386719 230.421875 138.417969 L 230.367188 138.417969 C 229.398438 139.613281 229.058594 139.414062 228.433594 139.070312 C 227.675781 138.578125 228.046875 136.804688 229.542969 133.746094 C 231.585938 129.558594 233.488281 125.660156 235.25 122.042969 C 224.941406 140.296875 224.886719 140.324219 224.117188 140.523438 C 224.003906 140.550781 223.863281 140.582031 223.75 140.582031 Z M 257.90625 128.023438 C 257.90625 128.023438 257.878906 128.078125 257.851562 128.109375 C 257.851562 128.109375 257.851562 128.078125 257.878906 128.050781 Z M 274.800781 124.207031 L 274.714844 124.378906 Z M 274.800781 124.207031 " fill-opacity="1" fill-rule="nonzero"/><path fill="#000000" d="M 197.65625 305.546875 C 197.402344 305.546875 197.175781 305.488281 196.945312 305.347656 C 196.4375 305.0625 196.125 304.863281 196.378906 303.949219 C 195.441406 305.316406 195.214844 305.375 194.929688 305.460938 C 194.5625 305.574219 194.164062 305.515625 193.824219 305.316406 C 193.113281 304.890625 192.773438 304.691406 193.878906 302.296875 C 191.78125 305.828125 191.550781 305.6875 190.617188 305.144531 C 190.132812 304.863281 189.792969 304.664062 190.246094 303.152344 L 190.160156 303.097656 C 190.160156 303.097656 190.304688 302.867188 190.445312 302.640625 C 191.496094 299.707031 194.929688 292.957031 203.816406 276.46875 C 187.71875 304.492188 187.320312 304.605469 186.613281 304.777344 C 186.242188 304.890625 185.84375 304.832031 185.53125 304.632812 C 185.023438 304.320312 184.679688 304.121094 185.304688 302.414062 L 185.277344 302.414062 C 185.277344 302.414062 185.335938 302.296875 185.363281 302.242188 C 186.613281 298.996094 191.125 290.625 203.589844 267.613281 C 189.335938 292.671875 184.910156 300.390625 183.289062 302.8125 C 183.203125 302.980469 183.148438 303.097656 183.121094 303.152344 L 183.0625 303.152344 C 182.523438 303.894531 182.382812 303.949219 182.183594 303.980469 C 181.8125 304.0625 181.417969 304.035156 181.105469 303.835938 C 180.5625 303.523438 180.222656 303.351562 180.847656 301.816406 L 180.734375 301.699219 C 180.734375 301.699219 181.019531 301.273438 181.300781 300.789062 C 182.011719 299.25 183.320312 296.832031 185.449219 292.902344 C 179.597656 302.898438 179.257812 303.011719 178.746094 303.152344 C 178.378906 303.265625 177.980469 303.210938 177.667969 303.011719 C 177.328125 302.8125 177.042969 302.640625 177.101562 302.015625 C 176.816406 302.382812 176.675781 302.414062 176.449219 302.5 C 176.078125 302.582031 175.679688 302.554688 175.367188 302.355469 C 174.859375 302.070312 174.546875 301.871094 175 300.476562 L 174.859375 300.390625 C 174.859375 300.390625 175.054688 300.050781 175.339844 299.535156 C 176.761719 296.121094 181.160156 287.945312 192.261719 267.300781 C 193.566406 264.851562 194.929688 262.316406 196.351562 259.726562 C 179.316406 289.511719 174.515625 297.714844 172.871094 300.078125 C 172.839844 300.164062 172.8125 300.191406 172.785156 300.21875 L 172.757812 300.21875 C 172.21875 300.960938 172.046875 300.988281 171.847656 301.046875 C 171.480469 301.160156 171.082031 301.101562 170.769531 300.902344 C 170.171875 300.5625 169.890625 300.390625 170.484375 298.769531 L 170.429688 298.710938 C 170.429688 298.710938 170.511719 298.566406 170.597656 298.484375 C 171.109375 297.203125 172.101562 295.09375 173.835938 291.589844 C 169.121094 299.765625 168.921875 299.820312 168.355469 299.992188 C 167.988281 300.078125 167.589844 300.050781 167.277344 299.851562 C 166.765625 299.566406 166.480469 299.394531 167.050781 297.742188 L 166.964844 297.65625 C 166.964844 297.65625 167.132812 297.429688 167.25 297.230469 C 167.902344 295.550781 169.234375 292.671875 171.675781 287.546875 C 168.839844 292.53125 167.132812 295.40625 166.085938 297.03125 C 165.855469 297.457031 165.714844 297.769531 165.6875 297.886719 L 165.542969 297.828125 C 164.523438 299.222656 164.210938 299.023438 163.640625 298.710938 C 163.246094 298.484375 162.960938 298.3125 163.101562 297.570312 C 162.308594 298.511719 161.996094 298.3125 161.511719 298.054688 C 161.144531 297.855469 160.886719 297.6875 160.945312 297.117188 C 160.660156 297.457031 160.519531 297.484375 160.347656 297.515625 C 159.980469 297.601562 159.609375 297.570312 159.269531 297.371094 C 158.785156 297.085938 158.476562 296.917969 159.015625 295.351562 L 158.871094 295.238281 C 158.871094 295.238281 159.097656 294.894531 159.328125 294.496094 C 160.179688 292.359375 162.050781 288.488281 165.628906 281.140625 C 157.167969 296.003906 156.96875 296.0625 156.261719 296.261719 C 155.890625 296.375 155.492188 296.320312 155.179688 296.121094 C 154.386719 295.664062 154.128906 295.492188 155.097656 293.355469 C 153.933594 295.207031 153.734375 295.265625 153.363281 295.351562 C 152.996094 295.4375 152.597656 295.40625 152.285156 295.207031 C 151.945312 295.007812 151.6875 294.867188 151.605469 294.554688 C 151.488281 294.667969 151.40625 294.667969 151.292969 294.695312 C 150.921875 294.78125 150.554688 294.753906 150.210938 294.554688 C 149.585938 294.210938 149.277344 294.011719 149.785156 292.589844 L 149.730469 292.589844 C 149.730469 292.589844 149.816406 292.417969 149.898438 292.273438 C 149.898438 292.273438 149.898438 292.246094 149.898438 292.21875 C 149.785156 292.390625 149.671875 292.558594 149.585938 292.703125 C 149.53125 292.816406 149.503906 292.902344 149.472656 292.929688 L 149.445312 292.929688 C 148.933594 293.640625 148.792969 293.671875 148.566406 293.726562 C 148.195312 293.8125 147.828125 293.785156 147.515625 293.585938 C 146.777344 293.15625 146.464844 293.015625 147.144531 291.449219 C 147.144531 291.449219 147.175781 291.363281 147.203125 291.335938 C 147.628906 290.394531 148.339844 289 149.503906 286.808594 C 148.167969 289.058594 147.34375 290.453125 146.804688 291.277344 C 146.636719 291.5625 146.550781 291.761719 146.519531 291.847656 L 146.464844 291.847656 C 145.925781 292.558594 145.78125 292.617188 145.585938 292.671875 C 145.214844 292.757812 144.816406 292.730469 144.503906 292.53125 C 144.136719 292.304688 143.878906 292.160156 143.9375 291.589844 C 143.339844 292.191406 143.027344 291.988281 142.488281 291.707031 C 141.894531 291.363281 141.550781 291.164062 142.175781 289.597656 L 142.121094 289.542969 C 142.121094 289.542969 142.261719 289.34375 142.347656 289.171875 C 143.226562 287.175781 145.328125 283.332031 149.585938 275.503906 C 152 271.058594 154.898438 265.792969 158.105469 259.953125 C 146.152344 280.714844 142.347656 287.0625 140.929688 289.085938 C 140.929688 289.085938 140.929688 289.085938 140.929688 289.113281 C 140.332031 289.941406 140.160156 289.996094 139.960938 290.054688 C 139.59375 290.140625 139.195312 290.109375 138.882812 289.910156 C 138.289062 289.570312 137.945312 289.371094 138.601562 287.746094 C 138.601562 287.746094 138.65625 287.660156 138.683594 287.605469 C 139.507812 285.613281 141.695312 281.597656 146.324219 273.023438 C 151.148438 264.140625 157.765625 252.007812 164.976562 238.824219 C 137.578125 287.292969 137.152344 287.40625 136.15625 287.691406 C 135.789062 287.777344 135.390625 287.746094 135.050781 287.546875 C 134.539062 287.261719 134.199219 287.035156 134.851562 285.242188 C 135.191406 284.300781 135.84375 282.933594 136.867188 280.882812 C 136.214844 281.996094 135.703125 282.820312 135.304688 283.503906 C 134.851562 284.328125 134.597656 284.84375 134.511719 285.011719 L 134.398438 284.957031 C 133.828125 285.78125 133.714844 285.839844 133.574219 285.867188 C 133.207031 285.953125 132.835938 285.894531 132.523438 285.726562 C 131.925781 285.382812 131.613281 285.183594 132.15625 283.789062 L 132.042969 283.703125 C 132.042969 283.703125 132.296875 283.246094 132.664062 282.621094 C 133.546875 280.800781 135.25 277.695312 138.175781 272.3125 C 138.65625 271.429688 139.167969 270.519531 139.679688 269.550781 C 131.671875 283.105469 131.132812 283.246094 130.621094 283.390625 C 130.253906 283.476562 129.855469 283.445312 129.515625 283.246094 C 128.664062 282.753906 130.460938 278.425781 134.910156 270.261719 C 138.65625 263.371094 143.878906 253.804688 149.785156 243.011719 C 155.691406 232.191406 162.476562 219.773438 169.152344 207.527344 C 158.984375 225.410156 148.652344 243.664062 141.296875 256.652344 C 133.488281 270.492188 130.253906 276.1875 128.804688 278.550781 C 128.519531 279.089844 128.320312 279.433594 128.292969 279.546875 L 128.207031 279.546875 C 127.695312 280.257812 127.554688 280.285156 127.355469 280.34375 C 126.988281 280.429688 126.617188 280.398438 126.304688 280.199219 C 125.679688 279.859375 125.367188 279.6875 125.964844 278.234375 L 125.851562 278.152344 C 125.851562 278.152344 126.136719 277.667969 126.476562 277.070312 C 127.269531 275.417969 128.71875 272.738281 131.074219 268.296875 L 144.449219 243.464844 C 147.117188 238.484375 150.070312 233.042969 153.109375 227.347656 C 131.871094 264.738281 126.675781 273.652344 125 275.871094 C 125 275.871094 125 275.871094 125 275.902344 C 124.488281 276.554688 124.316406 276.613281 124.089844 276.667969 C 123.722656 276.785156 123.324219 276.726562 123.011719 276.527344 C 122.300781 276.128906 121.988281 275.929688 122.757812 274.304688 C 123.011719 273.738281 123.382812 272.996094 123.921875 272.027344 C 122.613281 273.992188 122.359375 274.078125 122.074219 274.164062 C 121.707031 274.25 121.308594 274.222656 120.96875 274.019531 C 120.019531 273.472656 123.988281 264.945312 132.863281 248.449219 C 134.679688 245.089844 136.613281 241.5 138.65625 237.742188 C 126.191406 259.699219 122.132812 266.816406 120.570312 269.179688 C 120.429688 269.464844 120.34375 269.636719 120.316406 269.691406 L 120.257812 269.691406 C 119.773438 270.347656 119.632812 270.375 119.40625 270.433594 C 119.035156 270.546875 118.640625 270.492188 118.328125 270.289062 C 117.789062 269.976562 117.503906 269.808594 118.101562 268.269531 L 117.957031 268.15625 C 117.957031 268.15625 118.300781 267.644531 118.640625 267.042969 C 119.691406 264.796875 121.847656 260.75 125.824219 253.320312 L 134.171875 237.65625 C 118.070312 265.960938 117.675781 266.078125 116.824219 266.304688 C 116.453125 266.390625 116.054688 266.359375 115.714844 266.160156 C 115.117188 265.820312 114.777344 265.621094 115.515625 263.882812 C 115.828125 263.144531 116.339844 262.089844 117.105469 260.609375 C 115.628906 262.886719 115.347656 262.972656 114.976562 263.058594 C 114.609375 263.144531 114.210938 263.113281 113.871094 262.914062 C 113.359375 262.628906 112.960938 262.402344 113.671875 260.464844 C 113.671875 260.464844 113.640625 260.464844 113.613281 260.464844 C 113.246094 260.582031 112.847656 260.523438 112.535156 260.324219 C 111.996094 260.011719 111.65625 259.8125 112.25 258.332031 L 112.136719 258.246094 C 112.136719 258.246094 112.167969 258.1875 112.222656 258.132812 C 111.9375 258.132812 111.625 258.074219 111.398438 257.933594 C 109.980469 257.105469 109.753906 256.992188 127.695312 224.300781 C 116.480469 243.894531 112.847656 250.101562 111.457031 252.121094 C 111.457031 252.179688 111.429688 252.207031 111.398438 252.238281 C 110.804688 253.0625 110.660156 253.121094 110.460938 253.175781 C 110.09375 253.261719 109.695312 253.234375 109.382812 253.035156 C 108.789062 252.691406 108.445312 252.492188 109.070312 250.925781 L 109.015625 250.871094 C 109.015625 250.871094 109.15625 250.671875 109.242188 250.5 C 110.207031 248.308594 112.648438 243.894531 117.902344 234.496094 C 119.746094 231.164062 121.847656 227.460938 124.121094 223.390625 C 109.640625 248.648438 109.46875 248.707031 108.902344 248.847656 C 108.53125 248.960938 108.132812 248.90625 107.820312 248.707031 C 107.3125 248.390625 106.914062 248.191406 107.425781 246.628906 C 107.425781 246.628906 107.425781 246.570312 107.453125 246.570312 C 108.445312 243.523438 112.621094 235.605469 124.886719 213.082031 C 108.078125 242.355469 107.707031 242.441406 107 242.640625 C 106.628906 242.726562 106.230469 242.695312 105.917969 242.496094 C 105.4375 242.242188 105.097656 242.015625 105.664062 240.277344 C 105.664062 240.277344 105.691406 240.21875 105.722656 240.191406 C 106.460938 238.054688 108.617188 233.671875 113.640625 224.273438 C 106.574219 236.460938 106.203125 236.574219 105.578125 236.746094 C 105.210938 236.859375 104.8125 236.800781 104.472656 236.601562 C 103.65625 236.128906 104.640625 233.347656 107.425781 228.257812 L 116.765625 211.257812 C 125.367188 195.570312 138.515625 171.621094 151.40625 148.070312 C 149.246094 151.886719 147.117188 155.644531 145.046875 159.316406 C 105.152344 229.542969 104.898438 229.625 103.847656 229.910156 C 103.476562 229.996094 103.082031 229.96875 102.738281 229.769531 C 102.144531 229.425781 101.800781 229.226562 102.511719 227.546875 L 102.484375 227.546875 C 102.484375 227.546875 102.539062 227.433594 102.597656 227.347656 C 102.738281 227.007812 102.9375 226.609375 103.164062 226.152344 C 102.796875 226.238281 102.425781 226.210938 102.085938 226.011719 C 101.605469 225.726562 101.234375 225.496094 101.71875 224.015625 L 101.632812 223.960938 C 101.632812 223.960938 101.746094 223.789062 101.859375 223.589844 C 101.917969 223.390625 102 223.191406 102.085938 222.992188 C 101.917969 222.992188 101.746094 222.90625 101.605469 222.820312 C 100.980469 222.449219 100.554688 222.222656 101.859375 219.261719 C 101.605469 219.261719 101.347656 219.203125 101.09375 219.0625 C 100.636719 218.804688 100.296875 218.605469 100.835938 217.011719 L 100.722656 216.925781 C 100.722656 216.925781 100.894531 216.699219 101.035156 216.441406 C 102.113281 213.59375 105.296875 207.328125 113.132812 192.863281 C 106.628906 204.28125 103.933594 208.925781 102.683594 210.832031 C 102.484375 211.203125 102.34375 211.429688 102.3125 211.488281 L 102.257812 211.488281 C 101.773438 212.140625 101.605469 212.199219 101.40625 212.226562 C 100.667969 212.425781 99.871094 212 99.671875 211.230469 C 99.617188 211.003906 99.589844 210.890625 100.015625 209.976562 L 99.957031 209.976562 C 99.957031 209.976562 100.128906 209.691406 100.269531 209.4375 C 100.410156 209.152344 100.582031 208.839844 100.808594 208.441406 C 100.523438 208.441406 100.242188 208.382812 100.015625 208.242188 C 99.132812 207.726562 98.792969 207.527344 101.09375 203.058594 C 100.949219 203.171875 100.867188 203.171875 100.753906 203.199219 C 100.382812 203.3125 99.984375 203.257812 99.671875 203.058594 C 99.191406 202.773438 98.851562 202.574219 99.445312 200.835938 L 99.417969 200.835938 C 99.417969 200.835938 99.472656 200.722656 99.53125 200.667969 C 100.609375 197.675781 104.328125 190.5 114.152344 172.191406 C 105.378906 187.453125 102.484375 192.238281 101.320312 193.832031 C 101.320312 193.832031 101.320312 193.832031 101.320312 193.859375 C 100.808594 194.542969 100.609375 194.601562 100.410156 194.65625 C 100.042969 194.769531 99.644531 194.714844 99.332031 194.515625 C 98.652344 194.144531 98.367188 193.972656 99.078125 192.292969 C 99.078125 192.292969 99.132812 192.207031 99.164062 192.179688 C 99.644531 191.125 100.496094 189.503906 101.886719 186.910156 C 101.71875 187.167969 101.574219 187.394531 101.460938 187.59375 C 101.347656 187.792969 101.292969 187.9375 101.261719 187.992188 L 101.207031 187.992188 C 100.695312 188.707031 100.554688 188.734375 100.328125 188.792969 C 99.957031 188.90625 99.558594 188.847656 99.246094 188.648438 C 98.734375 188.363281 98.453125 188.164062 99.019531 186.65625 L 98.851562 186.511719 C 98.851562 186.511719 99.191406 185.972656 99.589844 185.289062 C 100.808594 182.640625 103.507812 177.628906 108.703125 167.890625 C 110.066406 165.328125 111.542969 162.59375 113.074219 159.71875 C 112.394531 160.882812 111.769531 162.023438 111.144531 163.105469 L 103.960938 175.636719 C 102.910156 177.457031 102.199219 178.710938 101.660156 179.59375 L 101.234375 180.390625 L 101.148438 180.390625 C 100.296875 181.558594 100.015625 181.386719 99.277344 180.960938 C 98.425781 180.390625 98.394531 179.851562 98.792969 178.96875 C 98.792969 178.96875 98.851562 178.851562 98.90625 178.738281 C 99.046875 178.453125 99.191406 178.140625 99.390625 177.800781 C 105.523438 166.265625 111.199219 155.585938 116.339844 145.847656 C 101.945312 170.90625 101.375 171.050781 100.808594 171.222656 C 100.441406 171.308594 100.042969 171.277344 99.703125 171.078125 C 99.21875 170.792969 98.878906 170.59375 99.503906 168.886719 L 99.445312 168.828125 C 99.445312 168.828125 99.53125 168.714844 99.617188 168.628906 C 100.015625 167.632812 100.695312 166.179688 101.773438 164.046875 C 101.605469 164.214844 101.492188 164.246094 101.375 164.273438 C 101.007812 164.386719 100.609375 164.332031 100.296875 164.128906 C 99.816406 163.847656 99.472656 163.648438 100.015625 162.109375 L 99.898438 162.023438 C 99.898438 162.023438 100.042969 161.796875 100.183594 161.566406 C 100.582031 160.542969 101.234375 159.0625 102.3125 156.898438 C 101.945312 157.011719 101.546875 156.953125 101.234375 156.753906 C 100.722656 156.441406 100.441406 156.269531 101.035156 154.703125 L 100.921875 154.589844 C 100.921875 154.589844 101.148438 154.25 101.375 153.90625 C 102.257812 151.828125 104.1875 147.984375 107.878906 140.75 C 106.628906 142.886719 105.890625 144.113281 105.4375 144.796875 C 105.410156 144.851562 105.378906 144.910156 105.378906 144.9375 C 104.839844 145.707031 104.699219 145.734375 104.441406 145.792969 C 104.074219 145.878906 103.675781 145.847656 103.363281 145.648438 C 102.738281 145.28125 102.484375 145.136719 103.023438 143.570312 L 102.996094 143.570312 C 102.996094 143.570312 103.050781 143.457031 103.109375 143.371094 C 103.589844 142.089844 104.585938 139.925781 106.289062 136.167969 C 107.367188 133.773438 108.757812 130.726562 110.234375 127.480469 L 109.894531 126.113281 L 110.632812 124.890625 L 109.894531 126.113281 L 108.703125 125.316406 C 108.902344 124.976562 110.917969 121.472656 113.160156 117.570312 C 116.480469 111.761719 118.242188 108.6875 119.292969 107.148438 C 119.320312 107.035156 119.378906 106.949219 119.378906 106.894531 L 119.433594 106.894531 C 120.484375 105.441406 120.796875 105.613281 121.449219 105.980469 C 121.933594 106.265625 122.21875 106.4375 121.792969 107.945312 L 121.90625 108.03125 C 121.90625 108.03125 121.734375 108.289062 121.5625 108.601562 C 120.996094 110.253906 119.773438 113.128906 117.53125 118.199219 C 127.054688 101.453125 132.089844 93.007812 132.636719 92.855469 C 133.007812 92.738281 133.402344 92.796875 133.714844 92.996094 C 134.3125 93.339844 134.625 93.539062 134.058594 95.132812 C 134.058594 95.132812 134.027344 95.21875 134 95.246094 C 133.347656 96.984375 131.671875 100.316406 128.292969 107.035156 C 134.964844 95.332031 137.664062 90.632812 138.882812 88.695312 C 139.109375 88.296875 139.222656 88.070312 139.253906 88.011719 L 139.308594 88.011719 C 139.792969 87.386719 139.933594 87.328125 140.132812 87.273438 C 140.503906 87.160156 140.898438 87.214844 141.242188 87.414062 C 141.921875 87.8125 142.234375 87.984375 141.636719 89.351562 C 144.589844 84.367188 144.789062 84.3125 145.242188 84.195312 C 145.613281 84.113281 146.011719 84.140625 146.324219 84.339844 C 147.144531 84.824219 147.488281 85.023438 145.953125 88.183594 C 146.75 86.761719 147.542969 85.335938 148.367188 83.914062 C 149.445312 81.976562 149.84375 81.265625 151.0625 81.890625 C 151.605469 82.203125 151.945312 82.402344 151.546875 83.828125 L 151.660156 83.882812 L 151.375 84.398438 C 150.441406 87.074219 147.457031 93.023438 140.132812 107.035156 C 144.335938 99.71875 148.082031 93.195312 150.894531 88.382812 C 153.476562 83.941406 154.925781 81.464844 155.835938 80.152344 C 155.949219 79.953125 156.003906 79.8125 156.03125 79.753906 L 156.089844 79.753906 C 157.027344 78.53125 157.367188 78.730469 158.019531 79.101562 C 158.558594 79.414062 158.871094 79.585938 158.277344 81.121094 L 158.417969 81.234375 C 158.417969 81.234375 158.132812 81.691406 157.820312 82.175781 C 156.800781 84.367188 154.671875 88.355469 150.695312 95.816406 L 150.582031 96.042969 C 161.285156 77.476562 161.683594 77.363281 162.335938 77.191406 C 162.707031 77.078125 163.101562 77.136719 163.445312 77.335938 C 163.953125 77.648438 164.296875 77.820312 163.613281 79.554688 L 163.671875 79.613281 C 163.671875 79.613281 163.585938 79.726562 163.527344 79.8125 C 163.300781 80.382812 162.960938 81.09375 162.507812 82.03125 C 164.066406 79.355469 164.949219 77.902344 165.488281 77.105469 C 165.488281 77.105469 165.488281 77.078125 165.488281 77.050781 C 166.085938 76.167969 166.226562 76.136719 166.453125 76.082031 C 166.824219 75.996094 167.21875 76.023438 167.53125 76.222656 C 168.128906 76.566406 168.46875 76.765625 167.871094 78.300781 L 167.902344 78.300781 C 167.902344 78.300781 167.816406 78.445312 167.757812 78.558594 C 166.9375 80.550781 164.804688 84.566406 160.207031 93.109375 C 155.324219 102.195312 148.652344 114.554688 141.523438 127.710938 C 140.160156 130.214844 138.769531 132.777344 137.378906 135.371094 C 140.785156 129.359375 144.164062 123.4375 147.34375 117.855469 C 163.546875 89.246094 171.914062 74.867188 172.445312 74.714844 C 172.8125 74.601562 173.210938 74.65625 173.523438 74.855469 C 174.003906 75.140625 174.347656 75.339844 173.808594 76.878906 L 173.863281 76.9375 C 175.539062 74.230469 175.765625 74.171875 176.105469 74.089844 C 176.476562 73.972656 176.875 74.03125 177.1875 74.230469 C 177.414062 74.371094 177.640625 74.488281 177.753906 74.714844 C 178.433594 73.773438 178.632812 73.71875 178.859375 73.660156 C 179.230469 73.546875 179.628906 73.605469 179.96875 73.804688 C 180.621094 74.171875 180.933594 74.371094 180.195312 76.054688 C 179.457031 77.761719 177.695312 81.007812 174.148438 87.5 C 170.570312 94.050781 165.714844 102.90625 160.179688 112.902344 C 182.777344 73.40625 183.175781 73.320312 183.972656 73.089844 C 184.339844 73.007812 184.738281 73.035156 185.078125 73.234375 C 185.363281 73.40625 185.589844 73.546875 185.648438 73.945312 C 186.328125 72.976562 186.527344 72.921875 186.78125 72.863281 C 187.152344 72.777344 187.550781 72.804688 187.890625 73.007812 C 188.117188 73.121094 188.316406 73.234375 188.402344 73.460938 C 189.28125 72.265625 189.566406 72.4375 190.273438 72.835938 C 190.617188 73.035156 190.871094 73.175781 190.898438 73.660156 C 191.523438 72.835938 191.808594 72.636719 192.0625 72.578125 C 192.433594 72.492188 192.832031 72.523438 193.171875 72.722656 C 194.535156 73.519531 194.847656 73.6875 180.167969 100.855469 C 195.015625 74.886719 196.605469 72.835938 197.542969 72.578125 C 197.914062 72.464844 198.339844 72.523438 198.652344 72.722656 C 199.597656 73.273438 196.53125 79.953125 189.453125 92.769531 C 183.347656 103.847656 174.914062 118.996094 165.773438 135.425781 C 165.261719 136.335938 164.75 137.25 164.238281 138.1875 C 192.347656 88.753906 199.160156 76.878906 201.207031 73.917969 C 201.261719 73.832031 201.292969 73.746094 201.292969 73.71875 L 201.320312 73.71875 C 201.859375 72.976562 202.03125 72.921875 202.226562 72.890625 C 202.597656 72.777344 202.996094 72.835938 203.308594 73.035156 C 203.933594 73.40625 204.242188 73.574219 203.589844 75.140625 L 203.648438 75.199219 C 203.648438 75.199219 203.535156 75.371094 203.421875 75.539062 C 202.652344 77.25 200.949219 80.324219 197.769531 86.132812 C 193.910156 93.140625 188.484375 102.992188 182.15625 114.4375 C 175.453125 126.597656 167.191406 141.578125 158.671875 157.039062 C 206.230469 73.945312 206.429688 73.890625 207.308594 73.632812 C 207.679688 73.519531 208.078125 73.574219 208.390625 73.773438 C 209.269531 74.289062 209.722656 74.542969 206.855469 80.265625 C 207.878906 78.585938 208.644531 77.335938 209.269531 76.480469 C 209.640625 75.796875 209.867188 75.371094 209.921875 75.253906 L 210.09375 75.339844 C 211.085938 74.117188 211.398438 74.316406 211.910156 74.601562 C 212.535156 74.972656 212.847656 75.140625 212.195312 76.707031 L 212.25 76.765625 C 212.25 76.765625 212.109375 76.992188 211.96875 77.191406 C 211.230469 78.785156 209.695312 81.578125 206.914062 86.589844 L 192.574219 112.472656 C 180.847656 133.632812 164.75 162.648438 150.128906 189.160156 C 164.183594 164.585938 182.949219 131.523438 207.933594 87.300781 C 212.230469 79.6875 214.578125 75.835938 214.976562 75.738281 C 215.34375 75.652344 215.714844 75.683594 216.054688 75.882812 C 216.394531 76.082031 216.652344 76.222656 216.679688 76.679688 C 216.878906 76.480469 216.992188 76.453125 217.132812 76.421875 C 217.503906 76.335938 217.902344 76.367188 218.242188 76.566406 C 218.722656 76.851562 219.09375 77.050781 218.441406 78.785156 L 218.441406 78.84375 C 218.441406 78.84375 218.441406 78.929688 218.382812 78.984375 C 216.707031 83.3125 209.328125 96.46875 184.738281 139.5 C 184.738281 139.5 184.796875 139.5 184.824219 139.527344 C 185.390625 139.839844 185.730469 140.039062 185.050781 141.777344 C 185.050781 141.777344 185.023438 141.832031 184.992188 141.863281 C 184.453125 143.230469 183.289062 145.507812 181.1875 149.464844 C 181.53125 149.066406 181.699219 149.007812 181.898438 148.953125 C 182.269531 148.867188 182.664062 148.894531 183.007812 149.09375 C 183.800781 149.570312 182.882812 152.285156 180.253906 157.238281 L 168.214844 179.820312 C 186.699219 147.5 187.125 147.386719 187.945312 147.160156 C 188.316406 147.074219 188.714844 147.101562 189.054688 147.300781 C 189.925781 147.8125 187.332031 153.6875 181.273438 164.929688 C 176.449219 173.839844 170.003906 185.746094 163.132812 198.417969 C 168.242188 189.417969 173.097656 180.902344 177.15625 173.699219 C 181.613281 165.839844 185.449219 159.089844 188.171875 154.304688 C 190.332031 150.519531 191.550781 148.355469 192.347656 147.1875 C 192.347656 147.160156 192.375 147.128906 192.375 147.101562 C 193.398438 145.648438 193.710938 145.820312 194.421875 146.246094 C 194.929688 146.53125 195.242188 146.730469 194.734375 148.210938 L 194.875 148.328125 C 194.875 148.328125 194.617188 148.726562 194.335938 149.210938 C 194.277344 149.378906 194.191406 149.523438 194.109375 149.722656 C 196.4375 145.878906 196.691406 145.792969 197.089844 145.679688 C 197.457031 145.5625 197.855469 145.621094 198.167969 145.820312 C 198.652344 146.105469 198.992188 146.304688 198.367188 147.957031 L 198.453125 148.042969 C 198.453125 148.042969 198.28125 148.269531 198.140625 148.46875 C 196.863281 151.574219 193.058594 158.71875 183.714844 176.175781 C 201.175781 145.820312 201.800781 145.648438 202.570312 145.449219 C 202.9375 145.335938 203.335938 145.394531 203.675781 145.59375 C 205.125 146.417969 205.464844 146.617188 180.308594 192.835938 C 186.726562 181.53125 193.738281 169.113281 201.347656 155.644531 C 205.019531 149.152344 207.046875 145.847656 207.425781 145.734375 C 207.792969 145.648438 208.164062 145.679688 208.503906 145.878906 C 209.042969 146.191406 209.382812 146.390625 208.929688 147.8125 L 209.015625 147.871094 C 209.015625 147.871094 208.902344 148.070312 208.757812 148.355469 C 207.878906 150.660156 205.378906 155.445312 199.671875 165.925781 C 201.886719 162.109375 203.816406 158.71875 205.464844 155.902344 C 209.363281 149.144531 211.738281 146.011719 212.589844 146.503906 C 213.074219 146.789062 213.445312 146.988281 212.960938 148.496094 L 213.046875 148.554688 C 213.046875 148.554688 212.902344 148.78125 212.761719 149.007812 C 212.707031 149.179688 212.648438 149.324219 212.5625 149.523438 C 214.011719 147.273438 214.296875 147.214844 214.664062 147.101562 C 215.035156 146.988281 215.429688 147.042969 215.773438 147.246094 C 216.253906 147.527344 216.59375 147.726562 215.96875 149.523438 C 214.664062 153.167969 209.296875 163.363281 192.773438 193.71875 C 195.953125 188.136719 198.964844 182.867188 201.660156 178.140625 L 213.640625 157.183594 C 216.027344 153.023438 217.332031 150.71875 218.183594 149.492188 C 219.234375 147.957031 219.546875 148.125 220.257812 148.527344 C 220.824219 148.839844 221.167969 149.066406 220.683594 150.519531 L 220.742188 150.519531 C 220.742188 150.519531 220.683594 150.660156 220.597656 150.773438 C 219.519531 153.738281 215.460938 161.199219 204.300781 181.699219 C 198.792969 191.808594 192.375 203.515625 185.84375 215.417969 C 185.988281 215.445312 186.15625 215.503906 186.269531 215.585938 C 186.78125 215.871094 187.125 216.070312 186.554688 217.695312 L 186.613281 217.753906 C 186.613281 217.753906 186.5 217.894531 186.441406 218.007812 C 186.101562 218.863281 185.5625 220.085938 184.679688 221.824219 C 184.796875 221.882812 184.878906 221.9375 185.023438 221.996094 C 185.5625 222.308594 185.902344 222.507812 185.363281 223.960938 L 185.476562 224.046875 C 185.476562 224.046875 185.277344 224.359375 185.050781 224.730469 C 184.625 225.753906 183.886719 227.261719 182.777344 229.425781 C 183.121094 228.972656 183.289062 228.941406 183.488281 228.886719 C 183.859375 228.800781 184.253906 228.828125 184.566406 229.027344 C 185.589844 229.625 185.789062 229.742188 183.320312 234.46875 C 183.488281 234.324219 183.574219 234.296875 183.6875 234.269531 C 184.058594 234.183594 184.425781 234.210938 184.765625 234.410156 C 185.417969 234.78125 185.761719 234.980469 185.164062 236.488281 C 185.164062 236.488281 185.105469 236.574219 185.078125 236.632812 C 184.9375 236.972656 184.765625 237.371094 184.539062 237.828125 C 184.738281 237.828125 184.9375 237.914062 185.105469 238 C 185.761719 238.367188 186.074219 238.539062 185.449219 240.132812 C 185.449219 240.132812 185.449219 240.191406 185.390625 240.21875 C 185.136719 240.847656 184.765625 241.671875 184.226562 242.78125 C 184.484375 242.5 184.625 242.46875 184.796875 242.414062 C 185.164062 242.296875 185.53125 242.355469 185.875 242.554688 C 186.527344 242.925781 186.839844 243.097656 186.242188 244.691406 C 185.675781 246.230469 184.3125 249.046875 181.644531 254.542969 C 180.847656 256.195312 179.96875 257.960938 179.058594 259.839844 C 182.921875 253.0625 184.597656 250.214844 185.417969 248.960938 C 185.417969 248.960938 185.417969 248.933594 185.417969 248.933594 C 186.015625 248.050781 186.15625 248.023438 186.386719 247.964844 C 186.753906 247.851562 187.152344 247.910156 187.464844 248.109375 C 187.945312 248.394531 188.257812 248.59375 187.746094 250.074219 L 187.890625 250.1875 C 187.890625 250.1875 187.777344 250.386719 187.632812 250.585938 C 187.945312 250.558594 188.257812 250.585938 188.542969 250.757812 C 189.054688 251.070312 189.394531 251.242188 188.828125 252.777344 L 188.855469 252.777344 C 189.140625 252.777344 189.367188 252.890625 189.679688 253.089844 C 190.160156 253.375 190.445312 253.546875 189.933594 255.113281 L 190.074219 255.226562 C 190.074219 255.226562 189.847656 255.570312 189.621094 255.9375 C 188.96875 257.617188 187.691406 260.410156 185.417969 265.136719 C 191.894531 253.71875 191.976562 253.6875 192.574219 253.519531 C 192.945312 253.433594 193.3125 253.460938 193.652344 253.660156 C 194.109375 253.917969 194.421875 254.117188 193.910156 255.652344 L 194.050781 255.769531 C 194.050781 255.769531 193.824219 256.136719 193.597656 256.535156 C 192.914062 258.273438 191.582031 261.179688 189.195312 266.160156 C 197.289062 252.039062 206.828125 235.292969 215.429688 220.230469 C 241.4375 174.667969 247.96875 163.191406 249.984375 160.199219 C 250.042969 160.085938 250.097656 160 250.097656 159.945312 L 250.125 159.945312 C 250.667969 159.175781 250.835938 159.148438 251.035156 159.089844 C 251.40625 158.976562 251.800781 159.035156 252.113281 159.234375 C 252.710938 159.574219 253.023438 159.746094 252.398438 161.3125 L 252.484375 161.367188 C 252.484375 161.367188 252.3125 161.625 252.144531 161.882812 C 251.292969 163.789062 249.417969 167.261719 245.8125 173.957031 C 241.550781 181.84375 235.617188 192.777344 229.003906 204.964844 C 253.816406 161.765625 254.472656 161.597656 255.09375 161.425781 C 255.464844 161.339844 255.863281 161.367188 256.203125 161.566406 C 256.6875 161.851562 256.996094 162.023438 256.828125 162.820312 C 256.914062 162.765625 256.996094 162.734375 257.082031 162.707031 C 257.453125 162.59375 257.851562 162.648438 258.164062 162.847656 C 258.671875 163.132812 258.984375 163.332031 258.390625 164.898438 L 258.503906 165.011719 C 258.503906 165.011719 258.277344 165.355469 258.019531 165.753906 C 257.453125 167.0625 256.429688 169.058594 254.8125 172.105469 C 259.042969 165.011719 259.355469 164.929688 259.808594 164.8125 C 260.179688 164.730469 260.574219 164.757812 260.886719 164.957031 C 261.539062 165.355469 261.851562 165.527344 261.113281 167.175781 C 261.113281 167.175781 261.085938 167.234375 261.058594 167.261719 C 260.40625 168.773438 258.957031 171.449219 256.230469 176.433594 C 252.964844 182.414062 248.394531 190.8125 243.140625 200.464844 C 239.566406 207.042969 235.5625 214.363281 231.386719 222.023438 C 233.007812 219.175781 234.597656 216.386719 236.15625 213.652344 C 255.210938 180.191406 260.347656 171.136719 262.050781 168.601562 C 262.050781 168.601562 262.050781 168.601562 262.050781 168.574219 C 262.675781 167.660156 262.820312 167.632812 263.046875 167.578125 C 263.414062 167.492188 263.785156 167.519531 264.125 167.71875 C 264.75 168.058594 265.089844 168.261719 264.492188 169.824219 C 264.492188 169.824219 264.4375 169.910156 264.410156 169.96875 C 263.613281 171.992188 261.371094 176.148438 256.429688 185.289062 C 252.851562 191.921875 248.308594 200.238281 243.339844 209.378906 C 265.148438 171.363281 265.65625 171.191406 266.425781 170.992188 C 266.792969 170.878906 267.191406 170.9375 267.53125 171.136719 C 268.042969 171.421875 268.382812 171.648438 267.757812 173.414062 C 267.703125 173.585938 267.617188 173.753906 267.558594 173.957031 C 268.015625 173.386719 268.214844 173.328125 268.441406 173.273438 C 268.808594 173.15625 269.207031 173.214844 269.546875 173.414062 C 270.171875 173.785156 270.570312 173.984375 269.71875 176.035156 C 270.003906 175.636719 270.117188 175.605469 270.257812 175.578125 C 270.625 175.464844 271.023438 175.550781 271.363281 175.75 C 271.933594 176.089844 272.214844 176.289062 271.648438 177.6875 L 271.789062 177.769531 C 271.789062 177.769531 271.421875 178.367188 270.996094 179.136719 C 270.199219 180.734375 268.835938 183.210938 266.738281 187.082031 C 262.761719 194.371094 258.957031 201.320312 255.324219 207.925781 C 266.339844 188.601562 272.066406 178.882812 272.5 178.769531 C 272.871094 178.652344 273.265625 178.710938 273.578125 178.910156 C 274.0625 179.195312 274.402344 179.394531 273.921875 180.875 L 274.003906 180.933594 C 274.003906 180.933594 273.863281 181.160156 273.722656 181.414062 C 272.527344 184.632812 268.46875 192.492188 257.507812 212.769531 C 261.570312 205.707031 265.855469 198.246094 270.398438 190.359375 C 272.414062 186.882812 273.4375 185.0625 274.0625 184.121094 C 274.0625 184.121094 274.0625 184.09375 274.0625 184.0625 C 274.6875 183.097656 274.855469 183.097656 275.226562 183.039062 C 275.539062 183.011719 275.851562 183.039062 276.136719 183.210938 C 276.703125 183.523438 277.042969 183.722656 276.5625 185.089844 L 276.675781 185.144531 C 276.675781 185.144531 276.503906 185.402344 276.277344 185.859375 C 276.050781 186.398438 275.738281 187.082031 275.3125 187.910156 C 275.480469 187.625 275.652344 187.394531 275.792969 187.226562 C 276.332031 186.484375 276.503906 186.429688 276.730469 186.371094 C 277.101562 186.257812 277.496094 186.3125 277.808594 186.511719 C 278.378906 186.855469 278.691406 187.027344 278.066406 188.621094 L 278.152344 188.707031 C 278.152344 188.707031 277.980469 188.933594 277.867188 189.132812 C 276.988281 191.183594 274.886719 195.085938 270.769531 202.859375 C 267.84375 208.328125 264.296875 215.019531 260.375 222.335938 C 277.609375 191.921875 277.980469 191.808594 278.859375 191.582031 C 279.230469 191.46875 279.628906 191.523438 279.96875 191.722656 C 280.5625 192.066406 280.960938 192.292969 279.683594 195.253906 C 280.25 194.65625 280.535156 194.855469 281.105469 195.171875 C 281.699219 195.511719 282.039062 195.710938 281.53125 197.136719 L 281.613281 197.191406 C 281.613281 197.191406 281.5 197.390625 281.332031 197.675781 C 280.535156 199.640625 278.546875 203.371094 274.488281 211.03125 C 271.507812 216.640625 267.816406 223.589844 263.8125 231.078125 C 275.453125 210.71875 279.171875 204.339844 280.59375 202.261719 C 280.648438 202.148438 280.675781 202.089844 280.707031 202.03125 L 280.734375 202.03125 C 281.273438 201.292969 281.414062 201.265625 281.644531 201.207031 C 282.011719 201.09375 282.410156 201.148438 282.722656 201.347656 C 283.347656 201.691406 283.660156 201.890625 283.035156 203.429688 L 283.089844 203.484375 C 283.089844 203.484375 282.949219 203.683594 282.835938 203.882812 C 282.097656 205.535156 280.5625 208.46875 277.726562 213.820312 C 276.019531 217.039062 274.003906 220.828125 271.761719 225.011719 C 281.839844 207.414062 282.097656 207.359375 282.722656 207.1875 C 283.089844 207.074219 283.488281 207.128906 283.800781 207.328125 C 284.339844 207.644531 284.679688 207.84375 284.085938 209.464844 L 284.140625 209.523438 C 284.140625 209.523438 284.054688 209.636719 284 209.722656 C 283.148438 211.941406 280.820312 216.5 275.59375 226.4375 C 279.542969 219.574219 281.386719 216.441406 282.296875 214.988281 C 282.351562 214.847656 282.410156 214.761719 282.4375 214.675781 L 282.496094 214.675781 C 283.121094 213.765625 283.234375 213.738281 283.433594 213.679688 C 283.800781 213.566406 284.199219 213.621094 284.511719 213.820312 C 285.136719 214.191406 285.476562 214.390625 284.9375 215.816406 L 284.964844 215.816406 C 284.964844 215.816406 284.878906 215.957031 284.824219 216.101562 C 284.566406 216.726562 284.171875 217.582031 283.601562 218.71875 C 284.054688 218.40625 284.339844 218.578125 284.765625 218.804688 C 285.417969 219.175781 285.703125 219.347656 285.078125 220.914062 L 285.136719 220.96875 C 285.136719 220.96875 285.023438 221.113281 284.964844 221.253906 C 284.339844 222.707031 283.035156 225.242188 280.707031 229.742188 C 279.570312 231.933594 278.292969 234.410156 276.871094 237.117188 C 279.824219 231.933594 281.386719 229.257812 282.269531 227.859375 C 282.496094 227.40625 282.664062 227.121094 282.695312 227.035156 L 282.777344 227.035156 C 283.289062 226.351562 283.433594 226.292969 283.628906 226.238281 C 284 226.152344 284.367188 226.179688 284.710938 226.378906 C 285.304688 226.722656 285.589844 226.894531 285.023438 228.34375 L 285.164062 228.429688 C 285.164062 228.429688 284.824219 228.972656 284.425781 229.65625 C 284.085938 230.367188 283.628906 231.25 283.0625 232.359375 C 283.0625 232.359375 283.089844 232.359375 283.121094 232.359375 C 283.488281 232.246094 283.886719 232.304688 284.199219 232.503906 C 284.679688 232.789062 284.992188 232.957031 284.511719 234.523438 L 284.625 234.609375 C 284.625 234.609375 284.480469 234.835938 284.339844 235.039062 C 283.546875 237.285156 281.472656 241.816406 277.070312 251.269531 C 279.398438 247.28125 279.597656 247.226562 280.054688 247.109375 L 280.421875 248.476562 L 279.710938 249.703125 L 280.421875 248.476562 L 281.5 249.390625 C 280.847656 250.273438 274.488281 261.492188 269.832031 269.664062 C 265.082031 278.035156 262.488281 282.28125 262.050781 282.394531 C 261.683594 282.507812 261.285156 282.449219 260.945312 282.25 C 260.460938 281.964844 260.148438 281.796875 260.632812 280.257812 L 260.519531 280.171875 C 260.519531 280.171875 260.6875 279.886719 260.886719 279.574219 C 261.769531 277.210938 263.925781 272.539062 268.496094 262.773438 C 252.625 290.707031 252.511719 290.765625 251.6875 290.992188 C 251.320312 291.109375 250.921875 291.050781 250.609375 290.851562 C 250.210938 290.625 249.929688 290.453125 250.125 289.542969 C 249.078125 291.308594 248.453125 292.304688 248.027344 292.902344 C 247.457031 293.699219 247.289062 293.726562 247.058594 293.785156 C 246.691406 293.898438 246.292969 293.839844 245.980469 293.640625 C 245.386719 293.300781 245.101562 293.128906 245.699219 291.535156 L 245.640625 291.476562 C 245.640625 291.476562 245.753906 291.308594 245.839844 291.164062 C 246.632812 289.199219 248.59375 285.46875 252.511719 277.894531 C 252.570312 277.808594 252.625 277.695312 252.652344 277.609375 C 245.699219 289.796875 243.140625 294.183594 242.035156 295.804688 C 242.035156 295.804688 242.035156 295.804688 242.035156 295.835938 C 241.4375 296.71875 241.269531 296.746094 241.070312 296.832031 C 240.699219 296.917969 240.332031 296.886719 239.992188 296.6875 C 239.394531 296.347656 239.082031 296.148438 239.453125 295.007812 C 239.109375 295.578125 238.796875 296.0625 238.570312 296.460938 C 238.171875 297.203125 237.945312 297.65625 237.890625 297.769531 L 237.777344 297.714844 C 237.265625 298.453125 237.152344 298.484375 236.980469 298.539062 C 236.613281 298.625 236.214844 298.597656 235.902344 298.398438 C 235.363281 298.085938 235.050781 297.886719 235.617188 296.460938 L 235.476562 296.347656 C 235.476562 296.347656 235.816406 295.804688 236.214844 295.09375 C 237.121094 293.15625 238.855469 289.941406 241.78125 284.445312 C 243.851562 280.515625 246.4375 275.671875 249.273438 270.320312 C 237.605469 290.792969 233.914062 297.257812 232.496094 299.394531 C 232.464844 299.449219 232.4375 299.507812 232.4375 299.566406 L 232.410156 299.566406 C 231.84375 300.390625 231.699219 300.417969 231.472656 300.476562 C 231.105469 300.589844 230.707031 300.53125 230.394531 300.332031 C 229.855469 300.019531 229.542969 299.851562 230.109375 298.3125 L 229.996094 298.226562 C 229.996094 298.226562 230.195312 297.914062 230.421875 297.570312 C 231.53125 294.980469 234.339844 289.683594 240.386719 278.234375 C 240.84375 277.382812 241.296875 276.5 241.78125 275.617188 C 239.023438 280.457031 236.46875 284.898438 234.3125 288.660156 C 230.28125 295.691406 228.265625 299.195312 227.101562 300.847656 C 227.101562 300.902344 227.070312 300.960938 227.042969 300.988281 L 227.015625 300.988281 C 225.9375 302.46875 225.625 302.269531 224.972656 301.898438 C 224.375 301.558594 224.035156 301.359375 224.574219 299.792969 C 224.574219 299.792969 224.574219 299.734375 224.601562 299.707031 C 225.398438 297.484375 227.980469 292.617188 234.113281 281 C 235.761719 277.867188 237.578125 274.449219 239.507812 270.832031 C 226.988281 292.644531 222.839844 299.734375 221.28125 302.097656 C 221.195312 302.242188 221.167969 302.355469 221.136719 302.414062 L 221.082031 302.414062 C 220.484375 303.238281 220.34375 303.265625 220.171875 303.324219 C 219.804688 303.4375 219.40625 303.378906 219.09375 303.179688 C 218.609375 302.898438 218.296875 302.726562 218.441406 302.015625 C 217.277344 303.808594 217.019531 303.863281 216.679688 303.949219 C 216.3125 304.0625 215.914062 304.007812 215.574219 303.808594 C 215.035156 303.496094 214.722656 303.324219 215.375 301.585938 L 215.316406 301.53125 C 215.316406 301.53125 215.402344 301.414062 215.460938 301.332031 C 216.507812 298.769531 219.492188 293.128906 226.445312 280.085938 C 227.894531 277.351562 229.457031 274.449219 231.074219 271.402344 C 212.277344 304.378906 211.910156 304.492188 211.058594 304.71875 C 210.6875 304.804688 210.292969 304.777344 209.949219 304.578125 C 209.042969 304.0625 208.730469 303.863281 211.457031 298.625 C 210.066406 300.988281 209.183594 302.46875 208.558594 303.4375 C 208.390625 303.808594 208.246094 304.0625 208.21875 304.179688 L 208.105469 304.179688 C 207.480469 305.089844 207.367188 305.117188 207.226562 305.144531 C 206.855469 305.230469 206.488281 305.203125 206.144531 305.003906 C 205.550781 304.664062 205.210938 304.460938 205.75 303.011719 L 205.691406 302.953125 C 205.691406 302.953125 205.804688 302.78125 205.917969 302.554688 C 206.714844 300.617188 208.757812 296.886719 212.875 289.226562 C 216.140625 283.191406 220.257812 275.558594 224.828125 267.160156 C 203.023438 305.203125 202.683594 305.289062 201.945312 305.488281 C 201.574219 305.574219 201.175781 305.546875 200.867188 305.34375 C 200.242188 305.003906 199.929688 304.804688 200.582031 303.152344 C 200.582031 303.152344 200.582031 303.097656 200.636719 303.066406 C 201.261719 301.558594 202.683594 298.824219 205.40625 293.726562 C 201.546875 300.332031 199.785156 303.238281 198.90625 304.519531 C 198.847656 304.605469 198.820312 304.691406 198.820312 304.71875 L 198.792969 304.71875 C 198.226562 305.515625 198.054688 305.546875 197.882812 305.601562 C 197.769531 305.628906 197.628906 305.660156 197.515625 305.660156 Z M 197.65625 305.546875 " fill-opacity="1" fill-rule="nonzero"/><path fill="#000000" d="M 283.828125 217.894531 C 283.121094 196.167969 273.238281 173.699219 253.421875 163.332031 C 245.980469 159.117188 224.175781 154.675781 215.773438 152.085938 C 215.773438 152.085938 217.871094 145.28125 217.871094 145.28125 L 219.433594 145.761719 L 216.992188 152.570312 C 211.597656 150.945312 205.949219 150.492188 200.355469 150.945312 C 192.234375 151.316406 184 154.503906 176.589844 157.582031 C 177.554688 149.890625 178.207031 141.121094 181.558594 134.003906 C 183.746094 129.132812 186.8125 124.148438 191.550781 120.476562 L 197.542969 115.804688 C 198.535156 119.335938 200.523438 126.398438 201.519531 129.929688 C 201.519531 129.929688 198.082031 126.230469 198.082031 126.230469 L 211.882812 130.558594 L 225.652344 135.054688 L 222.871094 135.054688 C 237.945312 130.726562 259.582031 125.203125 274.886719 121.015625 C 274.886719 121.015625 272.726562 125.175781 272.726562 125.175781 C 270.484375 117.457031 267.332031 110.027344 262.761719 103.53125 C 255.890625 93.308594 245.042969 87.472656 233.289062 84.425781 C 221.90625 81.234375 209.695312 75.625 197.769531 75.597656 C 141.609375 75.285156 109.269531 110.140625 105.777344 165.042969 C 103.960938 196.195312 105.4375 231.050781 119.578125 259.042969 C 126.84375 272.738281 137.890625 284.101562 152.171875 287.746094 L 149.160156 299.136719 L 146.917969 298.539062 L 150.210938 287.292969 C 157.738281 289.710938 165.289062 292.046875 172.785156 294.554688 C 179.710938 297.03125 187.066406 298.882812 194.476562 299.195312 C 216.792969 300.019531 241.324219 296.175781 258.785156 281.054688 C 276.589844 265.679688 284.9375 241.160156 283.828125 217.921875 Z M 284.964844 217.835938 C 286.894531 249.902344 272.074219 284.300781 241.894531 298.625 C 223.238281 307.339844 202.085938 311.324219 181.558594 308.335938 C 169.804688 305.914062 158.277344 301.785156 146.777344 298.511719 C 146.777344 298.511719 150.070312 287.261719 150.070312 287.261719 L 152.199219 287.804688 L 149.191406 299.195312 C 140.359375 297.085938 131.757812 292.390625 125.027344 286.210938 C 105.179688 267.785156 97.996094 240.703125 95.613281 214.820312 C 88.03125 138.957031 109.921875 70.671875 197.882812 71.953125 C 210.121094 72.09375 222.671875 77.875 234.339844 80.949219 C 259.15625 86.730469 272.160156 102.679688 279.996094 126.199219 C 263.558594 131.640625 241.863281 139.042969 225.566406 144.253906 C 225.566406 144.253906 224.234375 144.679688 224.234375 144.679688 L 222.785156 144.253906 C 215.828125 142.289062 201.945312 138.101562 195.042969 135.96875 C 195.042969 135.96875 192.433594 135.171875 192.433594 135.171875 L 191.582031 132.265625 L 189.847656 126.226562 L 197.800781 128.5625 C 191.355469 133.632812 188.203125 142.746094 187.007812 150.917969 C 187.007812 150.917969 180.648438 145.679688 180.648438 145.679688 C 186.894531 143.570312 193.425781 142.460938 199.984375 142.316406 C 206.574219 142.230469 213.214844 143.371094 219.347656 145.761719 L 216.90625 152.570312 L 215.742188 152.085938 L 217.84375 145.277344 L 242.886719 154.191406 C 269.773438 162.507812 284.480469 191.011719 284.9375 217.835938 Z M 284.964844 217.835938 " fill-opacity="1" fill-rule="nonzero"/><path fill="#000000" d="M 202.144531 246.429688 C 198.792969 251.355469 195.527344 256.535156 190.332031 260.039062 C 190.332031 260.039062 187.804688 257.820312 187.804688 257.820312 C 177.527344 248.992188 179.457031 234.839844 182.523438 223.417969 C 184.398438 214.875 186.015625 205.394531 191.808594 198.101562 C 194.589844 194.402344 199.21875 191.839844 203.335938 189.730469 C 203.335938 189.730469 206.203125 193.859375 206.203125 193.859375 C 211.824219 202.03125 213.699219 211.773438 212.960938 221.339844 C 212.335938 230.453125 206.828125 239.082031 202.144531 246.457031 Z M 201.207031 245.800781 C 206.0625 238.511719 202.824219 229.285156 201.832031 221.484375 C 200.75 213.992188 200.242188 206.046875 197.203125 199.300781 C 197.203125 199.300781 203.902344 201.378906 203.902344 201.378906 C 194.5625 204.738281 186.214844 213.167969 186.441406 223.847656 C 186.441406 229.285156 188.429688 234.695312 189.707031 239.621094 C 191.070312 244.578125 191.808594 249.191406 193.140625 254.230469 L 189.195312 253.0625 C 193.910156 252.691406 198.652344 249.957031 201.175781 245.800781 Z M 201.207031 245.800781 " fill-opacity="1" fill-rule="nonzero"/><path fill="#000000" d="M 284.398438 217.867188 C 283.828125 191.609375 268.867188 163.617188 242.0625 156.898438 C 242.0625 156.898438 216.652344 149.238281 216.652344 149.238281 L 216.992188 148.097656 L 218.382812 148.582031 L 217.984375 149.722656 C 206.542969 145.847656 193.851562 147.015625 182.664062 151.175781 C 182.664062 151.175781 180.960938 151.828125 180.960938 151.828125 C 182.125 141.292969 185.191406 130.328125 193.738281 123.265625 C 193.738281 123.265625 195.5 121.84375 195.5 121.84375 C 195.867188 123.152344 197.742188 129.246094 198.167969 130.671875 C 198.167969 130.671875 197.0625 129.476562 197.0625 129.476562 L 224.828125 137.648438 L 223.636719 137.648438 C 223.636719 137.648438 275 121.386719 275 121.386719 L 273.097656 125.03125 C 268.15625 110.167969 258.871094 95.957031 244.109375 89.949219 C 237.777344 87.386719 227.414062 84.765625 220.824219 82.632812 C 220.824219 82.632812 214.890625 80.835938 214.890625 80.835938 C 201.746094 76.167969 187.519531 77.535156 173.890625 79.925781 C 118.894531 89.890625 102.371094 139.042969 103.394531 189.304688 C 103.734375 213.421875 105.492188 238.996094 116.480469 260.667969 C 123.695312 274.875 135.335938 287.578125 151.121094 291.648438 C 151.121094 291.648438 150.183594 295.179688 150.183594 295.179688 L 147.996094 294.582031 L 149.019531 291.136719 L 171.5625 298.484375 C 193.683594 306.570312 218.808594 303.808594 240.386719 295.152344 C 270.398438 282.992188 286.214844 249.160156 284.398438 217.835938 Z M 284.398438 217.867188 C 286.382812 249.332031 270.625 283.246094 240.785156 296.089844 C 219.007812 305.230469 193.453125 308.847656 170.710938 301.273438 C 170.710938 301.273438 147.96875 294.582031 147.96875 294.582031 L 148.992188 291.136719 L 151.179688 291.675781 L 150.242188 295.207031 C 124.460938 289.171875 108.929688 263.542969 102.65625 239.421875 C 96.378906 214.847656 94.929688 189.445312 96.804688 164.160156 C 99.757812 118.511719 125.054688 79.527344 172.386719 71.78125 C 187.066406 69.21875 202.824219 68.078125 217.164062 73.460938 C 217.164062 73.460938 223.070312 75.339844 223.070312 75.339844 C 226.988281 76.59375 237.007812 79.785156 240.785156 81.007812 C 251.375 84.195312 260.859375 91.175781 267.277344 100.03125 C 273.097656 107.976562 276.675781 116.917969 279.398438 126.085938 C 279.398438 126.085938 276.617188 126.882812 276.617188 126.882812 L 224.800781 141.605469 L 224.175781 141.777344 L 223.609375 141.578125 L 196.066406 132.605469 L 195.214844 132.324219 C 195.015625 131.609375 193.453125 125.800781 193.226562 124.976562 C 193.226562 124.976562 195.613281 125.6875 195.613281 125.6875 C 191.976562 128.449219 189.28125 132.378906 187.238281 136.621094 C 185.136719 140.894531 184.171875 145.59375 183.375 150.292969 C 183.375 150.292969 181.925781 149.09375 181.925781 149.09375 C 193.625 145.078125 206.6875 144.398438 218.382812 148.554688 L 217.984375 149.691406 L 216.652344 149.210938 L 216.992188 148.070312 L 242.289062 156.1875 C 269.007812 163.476562 284 191.410156 284.398438 217.835938 Z M 284.398438 217.867188 " fill-opacity="1" fill-rule="nonzero"/><path fill="#000000" d="M 201.660156 246.113281 C 198.847656 250.441406 195.101562 254.289062 190.332031 256.621094 C 190.332031 256.621094 190.074219 256.28125 190.074219 256.28125 C 180.394531 242.328125 177.15625 220.855469 185.960938 205.535156 C 189.648438 199.042969 196.179688 194.058594 203.476562 191.808594 C 203.476562 191.808594 204.925781 194.601562 204.925781 194.601562 C 211.9375 208.894531 209.78125 232.730469 201.660156 246.113281 Z M 201.660156 246.113281 C 210.121094 232.359375 206.457031 211.175781 198.453125 198.53125 C 198.453125 198.53125 203.25 200.011719 203.25 200.011719 C 199.105469 202.289062 195.78125 205.820312 193.171875 210.007812 C 186.074219 222.535156 183.886719 242.554688 190.871094 255.769531 C 190.871094 255.769531 190.273438 255.597656 190.273438 255.597656 C 194.960938 253.917969 198.878906 250.328125 201.660156 246.113281 Z M 201.660156 246.113281 " fill-opacity="1" fill-rule="nonzero"/><path fill="#ffffff" d="M 256.742188 209.292969 C 255.71875 188.59375 249.105469 172.417969 236.839844 160.769531 C 224.601562 149.125 210.09375 144.625 193.3125 147.300781 C 184.679688 148.667969 177.15625 151.574219 170.742188 156.042969 C 164.324219 160.515625 158.164062 166.808594 152.257812 174.921875 C 152.769531 151.941406 154.585938 136.707031 157.652344 129.246094 C 161.882812 118.851562 168.242188 113.015625 176.703125 111.648438 C 181.386719 110.90625 185.449219 111.960938 188.828125 114.808594 C 192.207031 117.6875 194.761719 123.097656 196.550781 131.070312 L 248.140625 115.578125 C 244.589844 104.730469 239.792969 95.957031 233.660156 89.351562 C 227.554688 82.773438 220.085938 78.1875 211.199219 75.683594 C 202.339844 73.148438 190.417969 73.0625 175.453125 75.453125 C 150.128906 79.46875 130.761719 91.515625 117.363281 111.5625 C 103.933594 131.582031 98.167969 160.714844 100.042969 198.957031 C 101.320312 225.042969 105.75 245.488281 113.332031 260.238281 C 120.910156 275.019531 130.566406 285.070312 142.289062 290.507812 C 154.015625 295.921875 169.292969 297.117188 188.117188 294.125 C 203.761719 291.648438 216.625 286.636719 226.730469 279.0625 C 236.839844 271.488281 244.535156 261.433594 249.84375 248.960938 C 255.125 236.460938 257.425781 223.246094 256.742188 209.292969 Z M 201.660156 246.113281 C 197.34375 252.722656 191.722656 256.566406 184.878906 257.648438 C 177.441406 258.84375 170.996094 256.59375 165.542969 250.925781 C 160.121094 245.230469 157.113281 236.660156 156.542969 225.183594 C 156.003906 213.9375 158.019531 204.851562 162.648438 198.046875 C 167.25 191.183594 173.210938 187.167969 180.480469 186.027344 C 187.578125 184.890625 193.683594 187.082031 198.765625 192.578125 C 203.875 198.074219 206.714844 206.789062 207.308594 218.71875 C 207.878906 230.394531 205.976562 239.507812 201.660156 246.113281 Z M 201.660156 246.113281 " fill-opacity="1" fill-rule="nonzero"/><path fill="#000000" d="M 181.585938 112.84375 C 190.53125 113.699219 194.164062 123.4375 196.265625 131.125 L 196.550781 131.070312 L 196.636719 131.355469 C 213.984375 126.710938 231.359375 122.15625 248.679688 117.34375 L 250.4375 116.859375 C 250.4375 116.859375 249.871094 115.039062 249.871094 115.039062 C 239.140625 78.160156 211.824219 63.980469 175.425781 75.171875 L 175.511719 75.738281 C 183.289062 75.511719 190.984375 75.371094 198.453125 76.082031 C 213.132812 77.363281 227.183594 84.113281 236.101562 96.128906 C 240.21875 101.597656 243.285156 107.890625 245.753906 114.4375 C 229.398438 119.734375 213.101562 125.261719 196.777344 130.699219 C 196.011719 126.511719 194.929688 122.269531 192.800781 118.398438 C 185.078125 103.875 165.148438 110.394531 158.671875 122.699219 C 149.730469 138.273438 150.75 157.496094 149.445312 174.839844 L 149.078125 183.949219 C 149.078125 183.949219 154.527344 176.546875 154.527344 176.546875 C 178.664062 140.78125 227.183594 138.730469 247.429688 178.96875 C 263.753906 213.9375 253.5625 262.832031 218.894531 282.734375 C 197.769531 294.410156 165.148438 299.792969 142.40625 290.195312 L 142.175781 290.707031 C 148.226562 293.585938 154.839844 295.152344 161.511719 295.804688 C 181.472656 297.316406 202.144531 294.210938 220.03125 284.730469 C 256.6875 264.625 267.871094 213.992188 251.375 177.058594 C 231.417969 135.683594 182.695312 133.71875 155.292969 166.125 C 155.550781 154.050781 156.003906 141.832031 159.523438 130.328125 C 162.621094 120.789062 170.910156 111.707031 181.613281 112.816406 Z M 181.585938 112.84375 " fill-opacity="1" fill-rule="nonzero"/><path fill="#000000" d="M 201.886719 246.257812 C 210.234375 232.871094 211.597656 211.855469 205.265625 197.078125 C 196.152344 177.515625 171.363281 179.308594 160.886719 196.566406 C 152.03125 210.632812 152.851562 231.535156 160.234375 245.972656 C 169.632812 262.972656 191.921875 262.203125 201.886719 246.257812 Z M 164.636719 199.15625 C 170.597656 190.074219 183.714844 184.917969 193.113281 191.554688 C 202.710938 198.445312 204.640625 210.945312 205.863281 222.449219 C 206.457031 230.425781 205.804688 238.96875 201.40625 245.972656 C 192.175781 261.519531 170.570312 261.035156 162.707031 244.632812 C 156.402344 231.050781 156.175781 211.773438 164.636719 199.183594 Z M 164.636719 199.15625 " fill-opacity="1" fill-rule="nonzero"/></svg>