<svg xmlns="http://www.w3.org/2000/svg" xmlns:xlink="http://www.w3.org/1999/xlink" width="500" zoomAndPan="magnify" viewBox="0 0 375 374.999991" height="500" preserveAspectRatio="xMidYMid meet" version="1.0"><defs><clipPath id="7165c43295"><path d="M 75.566406 63.699219 L 299.0625 63.699219 L 299.0625 311.199219 L 75.566406 311.199219 Z M 75.566406 63.699219 " clip-rule="nonzero"/></clipPath></defs><path fill="#000000" d="M 154.890625 303.890625 C 154.539062 303.890625 154.183594 303.753906 153.910156 303.484375 C 153.503906 303.074219 153.257812 302.828125 154.265625 301.492188 L 154.183594 301.355469 C 154.183594 301.355469 154.457031 301.136719 154.730469 300.894531 C 156.335938 298.902344 159.957031 295.058594 167.359375 287.15625 C 170.464844 283.859375 174.058594 280.015625 177.839844 275.980469 C 172.613281 281.296875 167.714844 286.230469 163.765625 290.234375 C 157.667969 296.394531 154.238281 299.910156 152.195312 301.820312 C 151.351562 302.71875 150.863281 303.265625 150.753906 303.402344 L 150.589844 303.265625 C 149.394531 304.191406 149.148438 303.945312 148.738281 303.539062 C 148.277344 303.074219 148.03125 302.828125 148.902344 301.628906 L 148.820312 301.519531 C 148.820312 301.519531 149.203125 301.136719 149.691406 300.648438 C 150.535156 299.667969 151.816406 298.277344 153.75 296.230469 C 151.269531 298.710938 149.746094 300.210938 148.820312 301.109375 C 148.386719 301.574219 148.113281 301.875 148.058594 301.957031 L 147.976562 301.902344 C 147.324219 302.472656 147.1875 302.554688 146.996094 302.445312 C 146.644531 302.445312 146.289062 302.3125 146.042969 302.039062 C 145.554688 301.546875 145.308594 301.300781 146.207031 300.128906 L 146.125 300.046875 C 146.125 300.046875 146.453125 299.722656 146.859375 299.339844 C 147.867188 298.167969 149.582031 296.339844 152.332031 293.425781 L 155.191406 290.398438 C 145.226562 300.292969 144.875 300.292969 144.300781 300.292969 C 143.949219 300.292969 143.59375 300.15625 143.320312 299.882812 C 142.941406 299.503906 142.667969 299.230469 143.675781 297.785156 L 143.675781 297.730469 C 143.675781 297.730469 143.730469 297.675781 143.785156 297.621094 C 144.191406 297.050781 144.792969 296.3125 145.636719 295.359375 C 144.519531 296.449219 143.785156 297.160156 143.296875 297.621094 C 143.242188 297.675781 143.1875 297.730469 143.160156 297.785156 L 143.132812 297.785156 C 142.371094 298.441406 142.234375 298.46875 141.988281 298.441406 C 141.632812 298.441406 141.28125 298.304688 141.035156 298.03125 C 140.574219 297.566406 140.300781 297.324219 141.171875 296.097656 L 141.117188 296.042969 C 141.117188 296.042969 141.308594 295.878906 141.5 295.660156 C 142.832031 293.941406 145.882812 290.726562 152.25 284.019531 C 144.410156 291.953125 141.550781 294.707031 140.328125 295.6875 C 140.328125 295.6875 140.300781 295.742188 140.273438 295.742188 C 139.675781 296.203125 139.402344 296.179688 139.265625 296.203125 C 138.910156 296.203125 138.558594 296.070312 138.285156 295.796875 C 137.742188 295.25 137.523438 295.03125 138.503906 293.777344 C 137.605469 294.515625 137.304688 294.460938 137.195312 294.515625 C 136.84375 294.515625 136.460938 294.378906 136.21875 294.105469 C 135.808594 293.699219 135.535156 293.425781 136.21875 292.28125 C 134.992188 293.234375 134.746094 293.015625 134.3125 292.550781 C 133.929688 292.171875 133.683594 291.925781 134.503906 290.726562 L 134.339844 290.5625 C 134.339844 290.5625 134.800781 290.097656 135.480469 289.417969 C 138.015625 286.339844 144.355469 279.660156 159.03125 264.261719 C 161.996094 261.152344 165.128906 257.855469 168.394531 254.449219 C 135.238281 288.136719 132.839844 290.070312 131.78125 290.097656 C 131.425781 290.097656 131.042969 289.9375 130.800781 289.691406 C 130.363281 289.253906 130.117188 289.007812 131.261719 287.566406 L 131.261719 287.511719 C 131.261719 287.511719 131.316406 287.457031 131.371094 287.402344 C 132.976562 285.382812 137.035156 281.1875 146.261719 271.648438 C 153.640625 264.015625 163.167969 254.175781 173.730469 243.246094 C 129.628906 287.621094 129.464844 287.59375 128.675781 287.59375 C 128.324219 287.59375 127.96875 287.457031 127.722656 287.183594 C 126.851562 286.292969 136.714844 275.171875 157.316406 253.820312 C 163.496094 247.414062 170.355469 240.328125 177.597656 232.859375 C 162.023438 248.585938 148.222656 262.515625 139.183594 271.648438 C 131.886719 279.007812 128.648438 282.304688 127.097656 283.777344 C 126.796875 284.101562 126.605469 284.292969 126.554688 284.402344 L 126.5 284.347656 C 125.789062 284.976562 125.65625 284.976562 125.464844 284.976562 C 125.109375 284.976562 124.757812 284.839844 124.511719 284.566406 C 124.046875 284.101562 123.804688 283.859375 124.292969 283.066406 C 123.859375 283.394531 123.75 283.285156 123.53125 283.394531 C 123.175781 283.394531 122.824219 283.257812 122.550781 282.984375 C 122.171875 282.605469 121.925781 282.359375 122.414062 281.511719 C 122.007812 281.785156 121.679688 281.867188 121.597656 281.839844 C 121.246094 281.839844 120.863281 281.675781 120.617188 281.433594 C 120.210938 281.023438 119.9375 280.75 120.78125 279.414062 C 120.507812 279.359375 120.265625 279.222656 120.074219 279.035156 C 119.609375 278.570312 119.339844 278.296875 120.480469 276.878906 C 120.480469 276.878906 120.480469 276.878906 120.507812 276.851562 C 121.597656 275.460938 123.964844 272.980469 128.621094 268.210938 C 123.339844 273.308594 122.46875 273.828125 121.980469 273.828125 C 121.625 273.828125 121.246094 273.691406 121 273.417969 C 120.402344 272.820312 120.101562 272.519531 122.660156 269.65625 C 122.304688 269.65625 121.980469 269.492188 121.734375 269.25 C 121.300781 268.8125 121.027344 268.539062 121.980469 267.230469 L 121.925781 267.175781 C 121.925781 267.175781 122.0625 267.066406 122.171875 266.957031 C 124.046875 264.449219 129.628906 258.699219 144.085938 243.761719 C 154.78125 232.722656 168.394531 218.714844 182.902344 203.804688 C 178.792969 207.949219 174.820312 211.953125 171.007812 215.824219 C 136.542969 250.632812 127.777344 259.464844 125.246094 261.699219 C 124.375 262.460938 124.238281 262.460938 124.046875 262.460938 C 123.695312 262.460938 123.339844 262.324219 123.09375 262.050781 C 122.6875 261.644531 122.386719 261.34375 123.257812 260.0625 L 123.230469 260.0625 C 123.230469 260.0625 123.3125 259.953125 123.394531 259.871094 C 125.246094 257.226562 131.398438 250.769531 148.875 232.613281 C 127.070312 254.257812 126.417969 254.257812 125.789062 254.257812 C 125.4375 254.257812 125.054688 254.121094 124.8125 253.847656 C 123.914062 252.949219 123.476562 252.511719 139.675781 235.613281 C 132.542969 242.671875 129.792969 245.207031 128.539062 246.078125 C 128.023438 246.433594 127.777344 246.460938 127.558594 246.515625 C 127.207031 246.515625 126.824219 246.351562 126.582031 246.105469 C 126.171875 245.644531 125.953125 245.398438 127.042969 244.035156 L 126.988281 243.925781 C 126.988281 243.925781 127.152344 243.816406 127.289062 243.707031 C 128.757812 241.910156 132.078125 238.503906 138.964844 231.386719 C 144.574219 225.609375 152.113281 217.816406 160.773438 208.875 C 155.625 214.054688 150.945312 218.796875 146.832031 222.910156 C 135.144531 234.667969 128.949219 240.183594 128.242188 239.457031 C 127.640625 238.855469 127.289062 238.503906 129.4375 235.914062 C 129.355469 235.859375 129.300781 235.804688 129.222656 235.75 C 128.839844 235.367188 128.566406 235.09375 129.492188 233.757812 L 129.4375 233.652344 C 129.4375 233.652344 129.628906 233.488281 129.820312 233.324219 C 130.363281 232.585938 131.234375 231.578125 132.488281 230.160156 C 132.050781 230.488281 131.941406 230.488281 131.78125 230.488281 C 131.425781 230.488281 131.070312 230.351562 130.828125 230.078125 C 130.445312 229.699219 130.171875 229.425781 131.042969 228.035156 L 131.042969 227.980469 C 131.042969 227.980469 131.097656 227.925781 131.152344 227.871094 C 131.914062 226.753906 133.386719 224.984375 136.054688 222.039062 C 134.230469 223.785156 134.066406 223.785156 133.792969 223.785156 C 133.414062 223.785156 133.085938 223.648438 132.8125 223.375 C 132.460938 223.019531 132.1875 222.746094 133.003906 221.441406 L 132.921875 221.332031 C 132.921875 221.332031 133.113281 221.140625 133.332031 220.949219 C 133.957031 220.078125 134.992188 218.824219 136.597656 216.996094 C 136.082031 217.433594 135.972656 217.433594 135.808594 217.433594 C 135.453125 217.433594 135.101562 217.296875 134.855469 217.023438 C 134.421875 216.589844 134.175781 216.34375 135.074219 215.144531 L 134.964844 215.007812 C 134.964844 215.007812 135.398438 214.597656 135.917969 214.082031 C 136.761719 213.097656 138.015625 211.734375 139.890625 209.800781 C 138.695312 210.835938 138.449219 210.835938 138.175781 210.835938 C 137.824219 210.835938 137.46875 210.699219 137.195312 210.429688 C 136.253906 209.484375 153.65625 190.457031 189.410156 153.351562 C 182.46875 160.355469 175.933594 166.953125 170.300781 172.675781 C 151.84375 191.347656 145.882812 197.371094 143.730469 199.308594 C 143.621094 199.417969 143.539062 199.523438 143.511719 199.578125 L 143.457031 199.578125 C 142.695312 200.234375 142.558594 200.234375 142.371094 200.234375 C 142.015625 200.234375 141.660156 200.097656 141.417969 199.824219 C 140.980469 199.390625 140.707031 199.117188 141.578125 197.917969 L 141.5 197.835938 C 141.5 197.835938 141.769531 197.589844 142.070312 197.289062 C 142.667969 196.554688 143.566406 195.546875 144.875 194.128906 C 144.601562 194.074219 144.328125 193.9375 144.113281 193.746094 C 143.332031 192.964844 148.375 186.867188 159.246094 175.457031 C 167.6875 166.597656 178.847656 155.015625 190.582031 142.832031 C 188.402344 145.039062 186.308594 147.164062 184.265625 149.234375 C 162.667969 171.167969 151.597656 182.144531 151.054688 182.164062 C 150.699219 182.164062 150.34375 182.027344 150.101562 181.753906 C 149.746094 181.398438 149.449219 181.097656 150.320312 179.738281 L 150.265625 179.683594 C 150.265625 179.683594 150.371094 179.574219 150.480469 179.492188 C 152.523438 176.464844 159.574219 168.726562 180.480469 146.675781 C 177.132812 150.082031 174.109375 153.132812 171.605469 155.667969 C 166 161.367188 163.058594 164.363281 161.398438 165.835938 C 161.152344 166.109375 160.988281 166.300781 160.933594 166.40625 L 160.828125 166.328125 C 159.519531 167.390625 159.273438 167.171875 158.8125 166.707031 C 158.347656 166.246094 158.078125 165.972656 158.894531 164.773438 L 158.839844 164.71875 C 158.839844 164.71875 158.976562 164.582031 159.113281 164.445312 C 160.390625 162.726562 163.523438 159.402344 170.328125 152.179688 C 172.070312 150.328125 173.976562 148.308594 176.015625 146.15625 C 173.730469 148.363281 172.476562 149.453125 171.769531 150.027344 C 171.769531 150.027344 171.769531 150.027344 171.769531 150.054688 C 171.0625 150.597656 170.789062 150.679688 170.707031 150.597656 C 170.355469 150.597656 170 150.460938 169.726562 150.191406 C 169.265625 149.726562 169.019531 149.480469 170.082031 148.089844 L 170.082031 148.035156 C 170.082031 148.035156 170.136719 147.984375 170.191406 147.929688 C 170.761719 147.191406 171.660156 146.183594 173.023438 144.710938 C 170.953125 146.703125 170.816406 146.703125 170.519531 146.703125 C 170.164062 146.703125 169.808594 146.566406 169.566406 146.292969 C 169.183594 145.910156 168.910156 145.636719 169.699219 144.382812 L 169.621094 144.304688 C 169.621094 144.304688 169.808594 144.113281 170.027344 143.894531 C 171.933594 141.195312 177.648438 134.925781 192.648438 118.707031 C 191.996094 119.363281 191.371094 120.015625 190.746094 120.644531 C 173.667969 137.996094 164.855469 146.675781 164.3125 146.675781 C 163.957031 146.675781 163.601562 146.539062 163.359375 146.265625 C 163.03125 145.9375 162.785156 145.691406 163.085938 144.984375 C 162.8125 145.230469 162.597656 145.449219 162.378906 145.636719 C 162.214844 145.828125 162.105469 145.964844 162.050781 146.046875 L 161.996094 145.992188 C 160.773438 147.027344 160.527344 146.78125 160.011719 146.292969 C 159.519531 145.800781 159.273438 145.554688 160.0625 144.382812 L 159.984375 144.304688 C 159.984375 144.304688 160.199219 144.085938 160.5 143.757812 C 161.644531 142.3125 163.929688 139.859375 168.148438 135.28125 C 171.445312 131.710938 175.527344 127.320312 179.992188 122.523438 C 163.574219 139.152344 158.457031 144.304688 156.632812 145.910156 C 156.605469 145.964844 156.578125 145.992188 156.550781 146.019531 C 155.816406 146.648438 155.789062 146.59375 155.4375 146.648438 C 155.082031 146.648438 154.730469 146.511719 154.484375 146.238281 C 154.292969 146.046875 154.128906 145.882812 154.074219 145.691406 C 152.984375 146.648438 152.824219 146.59375 152.578125 146.648438 C 152.222656 146.648438 151.871094 146.511719 151.625 146.238281 C 151.242188 145.855469 151 145.582031 151.898438 144.25 L 151.84375 144.167969 C 151.84375 144.167969 152.007812 144.03125 152.167969 143.894531 C 152.632812 143.265625 153.285156 142.421875 154.238281 141.332031 C 148.847656 146.675781 148.65625 146.675781 148.195312 146.675781 C 147.839844 146.808594 147.488281 146.539062 147.214844 146.265625 C 146.726562 145.773438 146.453125 145.503906 147.433594 144.222656 C 147.433594 144.222656 147.488281 144.140625 147.542969 144.113281 C 147.679688 143.921875 147.839844 143.730469 148.03125 143.511719 C 144.738281 146.703125 144.464844 146.703125 144.03125 146.703125 C 143.675781 146.703125 143.320312 146.566406 143.050781 146.292969 C 142.585938 145.828125 142.34375 145.582031 143.375 144.195312 L 143.375 144.140625 C 143.375 144.140625 143.429688 144.085938 143.484375 144.03125 C 144.113281 143.210938 145.144531 142.039062 146.78125 140.269531 C 140.410156 146.675781 140.21875 146.675781 139.730469 146.675781 C 139.375 146.675781 139.019531 146.539062 138.777344 146.265625 C 138.3125 145.800781 138.039062 145.53125 138.964844 144.195312 C 140.082031 142.613281 142.859375 139.585938 148.957031 133.019531 C 135.453125 146.675781 135.238281 146.675781 134.554688 146.703125 C 134.203125 146.703125 133.847656 146.566406 133.578125 146.292969 C 133.195312 145.910156 132.949219 145.636719 133.902344 144.25 L 133.847656 144.167969 C 133.847656 144.167969 134.011719 144.058594 134.121094 143.921875 C 135.238281 142.394531 137.578125 139.722656 142.179688 134.707031 C 136 140.976562 133.058594 143.949219 131.5625 145.394531 C 131.125 145.855469 130.882812 146.128906 130.800781 146.210938 L 130.746094 146.15625 C 130.117188 146.703125 129.984375 146.621094 129.765625 146.703125 C 129.410156 146.703125 129.058594 146.566406 128.8125 146.320312 C 128.375 145.910156 128.132812 145.664062 129.003906 144.464844 L 128.867188 144.304688 C 128.867188 144.304688 129.492188 143.675781 130.335938 142.832031 C 130.964844 142.09375 131.808594 141.195312 132.867188 140.050781 C 126.199219 146.703125 125.871094 146.703125 125.300781 146.703125 C 124.945312 146.703125 124.566406 146.566406 124.320312 146.292969 C 123.914062 145.882812 123.640625 145.609375 124.675781 144.140625 C 124.675781 144.140625 124.675781 144.140625 124.703125 144.113281 C 126.417969 141.6875 131.589844 136.070312 145.117188 121.351562 C 141.714844 124.8125 138.476562 128.085938 135.644531 130.972656 C 125.335938 141.441406 119.972656 146.675781 119.554688 146.675781 C 119.3125 146.703125 118.847656 146.539062 118.578125 146.265625 C 118.113281 145.800781 117.867188 145.554688 118.710938 144.304688 L 118.683594 144.304688 C 118.683594 144.304688 118.765625 144.195312 118.847656 144.113281 C 120.15625 142.257812 123.640625 138.46875 131.699219 129.664062 C 116.890625 144.492188 116.480469 144.492188 115.855469 144.492188 C 115.5 144.492188 115.148438 144.355469 114.875 144.085938 C 114.238281 143.449219 116.460938 140.359375 121.542969 134.816406 C 124.511719 131.574219 128.269531 127.484375 132.433594 122.960938 C 113.703125 141.875 113.378906 141.875 112.613281 141.875 C 112.261719 141.875 111.90625 141.742188 111.632812 141.46875 C 111.226562 141.058594 110.953125 140.785156 111.988281 139.371094 C 111.988281 139.371094 112.042969 139.289062 112.070312 139.261719 C 113.050781 137.898438 115.148438 135.5 119.203125 131.082031 L 118.304688 131.984375 C 114.875 135.417969 112.859375 137.433594 111.609375 138.550781 C 111.28125 138.933594 111.0625 139.152344 111.007812 139.207031 L 110.898438 139.125 C 109.730469 140.050781 109.484375 139.804688 108.96875 139.34375 C 108.558594 138.90625 108.3125 138.6875 109.15625 137.488281 L 109.046875 137.351562 C 109.046875 137.351562 109.457031 136.972656 109.972656 136.453125 C 111.390625 134.707031 114.113281 131.683594 119.066406 126.230469 L 127.96875 116.390625 C 107.6875 137.050781 107.46875 137.050781 106.625 137.050781 C 106.273438 137.050781 105.917969 136.917969 105.644531 136.644531 C 104.972656 135.972656 107.433594 132.554688 113.023438 126.394531 C 115.554688 123.613281 118.578125 120.261719 121.871094 116.664062 C 104.3125 134.410156 104.121094 134.410156 103.359375 134.410156 C 103.003906 134.464844 102.652344 134.273438 102.378906 134 C 101.96875 133.5625 101.726562 133.316406 102.707031 131.957031 L 102.652344 131.875 C 102.652344 131.875 102.816406 131.738281 102.949219 131.628906 C 103.847656 130.457031 105.535156 128.546875 108.421875 125.359375 C 101.480469 132.28125 101.234375 132.28125 100.71875 132.28125 C 100.417969 132.28125 100.011719 132.144531 99.738281 131.875 C 99.464844 131.601562 99.25 131.382812 99.492188 130.785156 C 99.277344 130.890625 99.140625 130.890625 99.003906 130.890625 C 98.648438 130.890625 98.296875 130.757812 98.023438 130.484375 C 97.613281 130.074219 97.371094 129.828125 98.378906 128.410156 L 98.378906 128.359375 C 98.378906 128.359375 98.457031 128.277344 98.539062 128.222656 C 99.929688 126.339844 103.25 122.578125 110.546875 114.539062 C 96.769531 128.410156 96.609375 128.410156 95.925781 128.4375 C 95.574219 128.4375 95.21875 128.304688 94.972656 128.03125 C 94.484375 127.539062 94.238281 127.292969 95.191406 125.933594 C 96.144531 124.597656 98.296875 122.171875 102.515625 117.347656 C 105.507812 113.9375 109.15625 109.796875 112.996094 105.433594 C 99.765625 118.84375 92.886719 125.550781 92.359375 125.550781 C 92.007812 125.550781 91.652344 125.414062 91.40625 125.140625 C 91.054688 124.785156 90.78125 124.542969 91.652344 123.179688 L 91.570312 123.070312 C 91.570312 123.070312 91.761719 122.90625 91.953125 122.714844 C 93.503906 120.480469 97.507812 115.792969 106.707031 105.242188 C 96.796875 115.21875 93.175781 118.84375 91.707031 120.152344 C 91.679688 120.179688 91.652344 120.234375 91.625 120.261719 C 90.863281 120.917969 90.726562 120.917969 90.507812 120.917969 C 90.15625 120.917969 89.800781 120.78125 89.558594 120.507812 C 89.175781 120.125 88.929688 119.878906 89.773438 118.625 L 89.664062 118.492188 C 89.664062 118.492188 90.019531 118.164062 90.402344 117.78125 C 90.671875 117.453125 90.972656 117.074219 91.355469 116.636719 C 90.945312 116.9375 90.835938 116.882812 90.617188 116.9375 C 90.265625 116.9375 89.910156 116.800781 89.664062 116.527344 C 89.257812 116.121094 89.011719 115.875 89.9375 114.59375 L 89.828125 114.457031 C 89.828125 114.457031 90.101562 114.210938 90.402344 113.9375 C 90.15625 113.882812 89.9375 113.773438 89.746094 113.585938 C 89.257812 113.121094 89.039062 112.902344 89.910156 111.621094 L 89.828125 111.539062 C 89.828125 111.539062 90.019531 111.375 90.265625 111.132812 C 91.246094 109.851562 93.070312 107.722656 96.28125 104.015625 C 97.316406 102.816406 98.484375 101.480469 99.738281 100.011719 C 91.542969 108.296875 91.460938 108.296875 90.835938 108.296875 C 90.484375 108.296875 90.128906 108.160156 89.882812 107.886719 C 89.449219 107.453125 89.203125 107.207031 90.128906 105.925781 L 90.074219 105.84375 C 90.074219 105.84375 90.292969 105.652344 90.507812 105.433594 C 90.589844 105.324219 90.699219 105.1875 90.808594 105.054688 C 90.507812 105.027344 90.210938 104.890625 89.992188 104.644531 C 89.613281 104.261719 89.367188 104.015625 90.238281 102.65625 L 90.183594 102.574219 C 90.183594 102.574219 90.320312 102.464844 90.429688 102.355469 C 91.246094 101.128906 92.851562 99.082031 95.710938 95.539062 C 95.65625 95.59375 95.628906 95.648438 95.574219 95.675781 C 91.652344 99.628906 91.625 99.601562 91.082031 99.601562 C 90.726562 99.601562 90.402344 99.4375 90.15625 99.191406 C 89.800781 98.839844 89.585938 98.621094 90.292969 97.367188 L 90.183594 97.257812 C 90.183594 97.257812 90.375 97.066406 90.617188 96.820312 C 91.515625 95.347656 93.339844 92.816406 96.714844 88.179688 C 94.648438 90.28125 93.339844 91.589844 92.496094 92.296875 C 92.496094 92.296875 92.496094 92.324219 92.496094 92.324219 C 91.191406 93.441406 90.945312 93.222656 90.375 92.652344 C 89.9375 92.214844 89.71875 91.996094 90.484375 90.714844 L 90.429688 90.660156 C 90.429688 90.660156 90.5625 90.550781 90.671875 90.417969 C 90.890625 90.0625 91.191406 89.652344 91.542969 89.164062 C 91.515625 89.164062 91.460938 89.164062 91.433594 89.164062 C 91.082031 89.164062 90.726562 89.027344 90.457031 88.753906 C 89.992188 88.289062 89.773438 88.070312 90.5625 86.816406 L 90.507812 86.761719 C 90.507812 86.761719 90.617188 86.65625 90.726562 86.546875 C 90.808594 86.4375 90.863281 86.328125 90.945312 86.21875 C 90.78125 86.136719 90.617188 86.054688 90.507812 85.917969 C 89.800781 85.210938 89.800781 85.210938 91.925781 81.203125 C 91.816406 81.203125 91.707031 81.203125 91.570312 81.203125 C 91.21875 81.203125 90.890625 81.039062 90.644531 80.792969 C 90.28125 80.429688 90.335938 79.121094 90.808594 76.871094 C 90.972656 76.132812 91.136719 75.371094 91.21875 74.851562 L 90.78125 74.363281 L 91.273438 73.871094 C 91.84375 73.273438 92.523438 72.617188 93.449219 73.246094 C 93.53125 73.296875 93.613281 73.351562 93.667969 73.433594 C 94.074219 73.871094 94.15625 73.953125 93.832031 75.617188 C 96.417969 73.027344 96.5 73.027344 97.015625 73.027344 C 97.398438 73.027344 97.75 73.164062 97.996094 73.433594 C 98.539062 73.980469 98.675781 74.117188 96.933594 77.496094 C 101.371094 73.027344 101.371094 73 101.996094 73.027344 C 102.351562 73.027344 102.707031 73.164062 102.949219 73.433594 C 103.140625 73.625 103.304688 73.789062 103.359375 73.980469 C 103.496094 73.816406 103.578125 73.707031 103.605469 73.652344 L 103.6875 73.707031 C 104.9375 72.699219 105.183594 72.945312 105.671875 73.433594 C 106.164062 73.925781 106.378906 74.144531 105.726562 75.179688 C 106.488281 74.445312 107.007812 73.953125 107.386719 73.625 C 108.097656 73.027344 108.285156 72.972656 108.503906 73.027344 C 108.886719 73.027344 109.238281 73.191406 109.511719 73.460938 C 110.019531 74.027344 108.949219 76.105469 106.300781 79.703125 C 105.292969 81.039062 104.066406 82.730469 102.734375 84.527344 C 103.929688 83.328125 105.101562 82.15625 106.21875 81.011719 C 110.191406 77.03125 112.316406 74.90625 113.566406 73.84375 C 113.675781 73.734375 113.730469 73.625 113.757812 73.597656 L 113.8125 73.597656 C 115.066406 72.644531 115.308594 72.890625 115.828125 73.40625 C 116.289062 73.871094 116.507812 74.117188 115.636719 75.398438 L 115.691406 75.453125 C 115.691406 75.453125 115.554688 75.5625 115.445312 75.671875 C 114.546875 76.925781 112.804688 79.023438 109.648438 82.839844 C 119.339844 73 119.449219 73 120.128906 73 C 120.480469 73 120.835938 73.136719 121.109375 73.40625 C 121.351562 73.652344 121.515625 73.816406 121.488281 74.171875 C 122.769531 73 122.960938 73 123.285156 73 C 123.640625 73 123.992188 73.136719 124.265625 73.40625 C 124.917969 74.0625 121.941406 78.257812 115.335938 86 C 118.605469 82.730469 122.25 79.023438 126.390625 74.878906 C 126.933594 74.335938 127.316406 73.953125 127.613281 73.652344 C 127.722656 73.542969 127.777344 73.460938 127.804688 73.460938 C 128.402344 72.917969 128.566406 72.945312 129.03125 73.027344 C 129.300781 73.082031 129.574219 73.21875 129.765625 73.40625 C 129.957031 73.597656 130.09375 73.734375 130.171875 73.898438 C 131.179688 73 131.398438 73 131.671875 73 C 132.023438 73 132.378906 73.136719 132.625 73.40625 C 133.03125 73.816406 133.277344 74.0625 132.324219 75.425781 L 132.378906 75.507812 C 132.378906 75.507812 132.1875 75.671875 132.023438 75.804688 C 131.941406 75.914062 131.835938 76.050781 131.753906 76.160156 C 132.921875 75.015625 133.683594 74.28125 134.203125 73.816406 C 134.3125 73.679688 134.394531 73.597656 134.421875 73.542969 L 134.476562 73.542969 C 135.183594 72.972656 135.347656 73 135.535156 72.972656 C 135.890625 72.972656 136.21875 73.109375 136.488281 73.351562 C 136.925781 73.761719 137.144531 74.007812 136.269531 75.289062 L 136.378906 75.425781 C 136.378906 75.425781 136.082031 75.699219 135.753906 76.023438 C 134.367188 77.851562 131.453125 81.148438 125.84375 87.527344 C 123.640625 90.035156 121.164062 92.871094 118.550781 95.8125 C 140.816406 73.488281 140.925781 73.488281 141.769531 73.488281 C 142.125 73.488281 142.476562 73.625 142.75 73.898438 C 143.386719 74.535156 141.179688 77.722656 136.136719 83.464844 C 132.839844 87.199219 128.621094 91.996094 124.183594 97.011719 C 124.484375 96.710938 124.757812 96.441406 125.054688 96.140625 C 139.957031 81.039062 147.660156 73.488281 148.167969 73.488281 C 148.523438 73.488281 148.875 73.625 149.121094 73.898438 C 149.5 74.28125 149.746094 74.550781 148.875 75.859375 L 148.957031 75.96875 C 148.957031 75.96875 148.765625 76.132812 148.578125 76.296875 C 147.132812 78.3125 143.59375 82.320312 135.78125 90.960938 C 147.269531 79.269531 151.082031 75.425781 152.578125 74.144531 C 153.3125 73.515625 153.449219 73.515625 153.695312 73.515625 C 154.046875 73.515625 154.402344 73.652344 154.648438 73.925781 C 154.890625 74.199219 155.082031 74.363281 155.109375 74.632812 C 155.246094 74.523438 155.355469 74.417969 155.464844 74.308594 C 155.601562 74.144531 155.679688 74.0625 155.734375 74.007812 L 155.761719 74.007812 C 156.390625 73.515625 156.550781 73.515625 156.769531 73.515625 C 157.070312 73.460938 157.449219 73.652344 157.722656 73.898438 C 158.320312 74.472656 158.566406 74.6875 157.558594 75.96875 C 157.558594 75.96875 157.476562 76.078125 157.421875 76.132812 C 156.769531 76.949219 155.628906 78.175781 153.832031 80.140625 L 148.496094 85.917969 C 160.773438 73.488281 160.910156 73.460938 161.507812 73.542969 C 161.859375 73.542969 162.214844 73.679688 162.460938 73.953125 C 162.949219 74.445312 163.195312 74.6875 162.269531 76.023438 C 161.179688 77.550781 158.511719 80.496094 152.824219 86.816406 C 151.21875 88.589844 149.476562 90.496094 147.652344 92.515625 C 166.269531 73.542969 166.542969 73.542969 167.359375 73.542969 C 167.714844 73.542969 168.066406 73.679688 168.339844 73.953125 C 168.804688 74.445312 169.046875 74.660156 167.984375 76.078125 C 167.984375 76.078125 167.933594 76.160156 167.878906 76.1875 C 166.84375 77.550781 164.636719 79.976562 160.417969 84.636719 L 148.332031 97.992188 C 163.574219 82.675781 169.292969 76.976562 171.605469 74.824219 C 172.042969 74.363281 172.316406 74.0625 172.367188 74.007812 L 172.449219 74.089844 C 173.078125 73.570312 173.238281 73.515625 173.402344 73.570312 C 173.757812 73.570312 174.113281 73.707031 174.355469 73.980469 C 174.875 74.5 175.117188 74.742188 174.164062 75.941406 L 174.21875 76.023438 C 174.21875 76.023438 174.003906 76.242188 173.757812 76.460938 C 172.941406 77.441406 171.578125 78.886719 169.429688 81.175781 C 166.542969 84.257812 163.765625 87.226562 161.097656 90.089844 C 177.351562 73.570312 177.460938 73.570312 178.167969 73.570312 C 178.519531 73.570312 178.875 73.707031 179.121094 73.980469 C 179.554688 74.417969 179.800781 74.660156 178.875 75.96875 L 178.929688 76.050781 C 178.929688 76.050781 178.765625 76.1875 178.601562 76.351562 C 177.160156 78.285156 173.648438 82.128906 166 90.46875 C 163.003906 93.769531 159.628906 97.421875 156.144531 101.238281 C 161.5625 95.757812 166.625 90.632812 170.652344 86.519531 C 178.140625 78.941406 181.214844 75.804688 182.605469 74.523438 C 182.742188 74.363281 182.851562 74.253906 182.878906 74.199219 L 182.929688 74.199219 C 183.640625 73.597656 183.800781 73.570312 183.992188 73.597656 C 184.347656 73.597656 184.699219 73.734375 184.945312 74.007812 C 185.4375 74.5 185.679688 74.742188 184.835938 75.941406 L 184.890625 75.996094 C 184.890625 75.996094 184.699219 76.160156 184.511719 76.378906 C 183.558594 77.578125 181.761719 79.539062 178.574219 83.003906 C 175.773438 86.054688 172.179688 89.925781 168.203125 94.230469 C 188.730469 73.570312 189.164062 73.652344 189.902344 73.597656 C 190.253906 73.597656 190.636719 73.734375 190.878906 74.007812 C 191.371094 74.472656 191.617188 74.714844 190.5 76.132812 C 190.5 76.132812 190.445312 76.214844 190.390625 76.242188 C 189.300781 77.605469 187.070312 80.03125 182.851562 84.609375 C 179.445312 88.289062 174.765625 93.332031 169.539062 98.976562 C 194.445312 73.597656 194.691406 73.597656 195.589844 73.597656 C 195.945312 73.597656 196.296875 73.734375 196.570312 74.007812 C 197.140625 74.578125 197.441406 74.878906 194.992188 77.796875 C 199.347656 73.625 199.644531 73.625 200.054688 73.625 C 200.410156 73.625 200.761719 73.761719 201.035156 74.035156 C 201.960938 74.960938 202.042969 75.042969 195.644531 81.882812 C 203.921875 73.652344 204.21875 73.652344 204.820312 73.625 C 205.171875 73.625 205.527344 73.761719 205.796875 74.035156 C 206.46875 74.707031 203.8125 78.269531 197.824219 84.71875 C 197.113281 85.484375 196.40625 86.246094 195.617188 87.089844 C 209.011719 73.652344 209.335938 73.652344 210.019531 73.652344 C 210.425781 73.761719 210.753906 73.789062 211 74.0625 C 211.460938 74.523438 211.707031 74.769531 210.671875 76.160156 C 210.671875 76.160156 210.589844 76.242188 210.535156 76.296875 C 210.15625 76.816406 209.582031 77.46875 208.820312 78.3125 C 213.558594 73.652344 213.855469 73.734375 214.292969 73.652344 C 214.644531 73.652344 215 73.789062 215.273438 74.0625 C 215.871094 74.660156 216.144531 74.933594 214.15625 77.25 C 215.789062 75.671875 216.714844 74.769531 217.3125 74.28125 C 217.367188 74.226562 217.394531 74.199219 217.394531 74.171875 C 218.050781 73.652344 218.210938 73.652344 218.429688 73.652344 C 218.785156 73.652344 219.136719 73.789062 219.382812 74.0625 C 219.953125 74.632812 220.199219 74.878906 219.164062 76.160156 C 218.484375 76.976562 217.285156 78.257812 215.328125 80.332031 L 209.582031 86.410156 C 217.042969 78.886719 220.144531 75.804688 221.535156 74.550781 C 221.617188 74.445312 221.667969 74.363281 221.722656 74.335938 L 221.75 74.335938 C 222.511719 73.679688 222.648438 73.679688 222.867188 73.679688 C 223.222656 73.679688 223.574219 73.816406 223.820312 74.089844 C 224.011719 74.28125 224.148438 74.417969 224.230469 74.605469 C 225.289062 73.707031 225.398438 73.679688 225.753906 73.707031 C 226.105469 73.707031 226.460938 73.84375 226.734375 74.117188 C 227.441406 74.824219 223.476562 79.867188 214.835938 89.242188 C 224.390625 79.675781 228.203125 75.996094 229.863281 74.578125 C 230.109375 74.308594 230.273438 74.171875 230.300781 74.144531 L 230.355469 74.199219 C 230.980469 73.707031 231.144531 73.597656 231.304688 73.707031 C 231.660156 73.707031 232.015625 73.84375 232.285156 74.117188 C 232.53125 74.363281 232.667969 74.6875 232.695312 75.015625 C 234.164062 73.707031 234.355469 73.679688 234.738281 73.707031 C 235.089844 73.707031 235.445312 73.84375 235.714844 74.117188 C 236.125 74.523438 236.371094 74.769531 235.363281 76.242188 C 235.363281 76.242188 235.308594 76.324219 235.253906 76.351562 C 233.539062 78.777344 228.476562 84.308594 215.4375 98.402344 C 232.640625 81.09375 237.921875 75.914062 239.773438 74.390625 C 239.828125 74.335938 239.855469 74.308594 239.855469 74.28125 C 240.5625 73.734375 240.671875 73.707031 240.917969 73.734375 C 241.269531 73.734375 241.625 73.871094 241.894531 74.144531 C 242.332031 74.578125 242.578125 74.824219 241.597656 76.160156 L 241.652344 76.242188 C 241.652344 76.242188 241.460938 76.40625 241.269531 76.570312 C 240.617188 77.386719 239.582031 78.53125 238.03125 80.222656 C 239.066406 79.160156 240.125 78.070312 241.214844 76.976562 C 243.683594 74.472656 245.246094 73.5 245.898438 74.0625 C 246.253906 74.417969 246.523438 74.6875 245.789062 75.886719 L 245.953125 76.050781 C 245.953125 76.050781 245.542969 76.488281 244.890625 77.113281 C 243.585938 78.804688 241.160156 81.53125 236.832031 86.191406 C 249.4375 73.707031 249.953125 73.707031 250.5 73.707031 C 250.851562 73.707031 251.234375 73.84375 251.480469 74.117188 C 252.148438 74.789062 249.546875 78.222656 243.664062 84.417969 C 238.738281 89.625 231.851562 96.847656 224.011719 105.054688 C 222.269531 106.878906 220.445312 108.789062 218.566406 110.75 C 253.167969 75.777344 255.535156 73.953125 256.542969 73.953125 C 256.894531 73.953125 257.277344 74.117188 257.523438 74.363281 C 258.476562 75.316406 258.800781 75.671875 241.707031 93.660156 C 257.632812 77.605469 259.019531 76.625 259.835938 76.625 C 260.191406 76.625 260.570312 76.789062 260.816406 77.03125 C 261.171875 77.386719 261.414062 77.632812 261.007812 78.421875 C 261.414062 78.125 261.550781 78.152344 261.714844 78.125 C 262.070312 78.125 262.421875 78.257812 262.695312 78.53125 C 263.867188 79.703125 264.164062 80.003906 234.164062 111.105469 C 263.972656 80.984375 264.382812 80.984375 265.226562 80.957031 C 265.582031 80.957031 265.933594 81.09375 266.207031 81.367188 C 266.613281 81.777344 266.886719 82.046875 265.851562 83.492188 C 265.851562 83.492188 265.824219 83.519531 265.796875 83.546875 C 265.199219 84.363281 264.191406 85.535156 262.585938 87.308594 C 264.21875 85.699219 265.28125 84.691406 265.988281 84.039062 C 266.207031 83.792969 266.34375 83.628906 266.425781 83.519531 L 266.507812 83.574219 C 267.296875 82.867188 267.429688 82.867188 267.59375 82.867188 C 267.949219 82.867188 268.300781 83.003906 268.546875 83.273438 C 269.011719 83.738281 269.253906 83.984375 268.382812 85.210938 L 268.4375 85.292969 C 268.4375 85.292969 268.222656 85.484375 267.976562 85.726562 C 267.785156 85.972656 267.566406 86.21875 267.324219 86.519531 C 268.902344 85.183594 269.582031 84.773438 269.882812 84.773438 C 270.179688 84.855469 270.617188 84.9375 270.890625 85.183594 C 271.570312 85.863281 271.921875 86.21875 265.144531 93.46875 C 268.222656 90.441406 269.9375 88.808594 270.941406 87.910156 C 271.269531 87.582031 271.460938 87.363281 271.515625 87.335938 L 271.570312 87.390625 C 272.195312 86.871094 272.332031 86.816406 272.523438 86.871094 C 272.875 86.871094 273.230469 87.007812 273.503906 87.28125 C 274.046875 87.828125 274.265625 88.070312 273.257812 89.296875 L 273.257812 89.351562 C 273.257812 89.351562 273.121094 89.488281 272.984375 89.625 C 272.683594 89.980469 272.277344 90.417969 271.789062 90.933594 C 274.210938 88.699219 274.453125 88.699219 274.78125 88.699219 C 275.136719 88.699219 275.488281 88.835938 275.761719 89.109375 C 276.007812 89.351562 276.222656 89.570312 276.222656 89.925781 C 276.25 89.925781 276.277344 89.925781 276.304688 89.925781 C 276.660156 89.925781 277.015625 90.0625 277.285156 90.335938 C 277.695312 90.742188 277.941406 90.988281 276.933594 92.324219 L 277.015625 92.460938 C 277.015625 92.460938 276.742188 92.679688 276.496094 92.894531 C 275.21875 94.449219 272.683594 97.148438 267.976562 102.054688 C 277.175781 92.949219 278.429688 92.132812 279.082031 92.132812 C 279.355469 92.132812 279.816406 92.269531 280.0625 92.542969 C 281.097656 93.578125 256.050781 120.261719 204.925781 172.59375 C 204.464844 173.058594 204.003906 173.523438 203.539062 174.011719 C 227.113281 150.21875 250.472656 126.558594 264.738281 112.113281 C 275.273438 101.429688 279.300781 97.367188 280.988281 95.785156 C 281.125 95.648438 281.207031 95.511719 281.261719 95.457031 L 281.316406 95.457031 C 282.078125 94.804688 282.242188 94.886719 282.402344 94.804688 C 282.757812 94.804688 283.113281 94.941406 283.355469 95.214844 C 283.765625 95.621094 284.011719 95.867188 283.195312 97.066406 L 283.300781 97.203125 C 283.300781 97.203125 282.921875 97.585938 282.402344 98.101562 C 280.335938 100.609375 275.433594 105.679688 264.710938 116.800781 C 256.1875 125.660156 245.328125 136.863281 233.457031 149.101562 C 282.867188 99.410156 283.410156 99.410156 284.253906 99.410156 C 284.609375 99.410156 284.964844 99.546875 285.234375 99.820312 C 286.269531 100.855469 286.460938 101.046875 271.40625 116.691406 C 281.234375 107.070312 283.410156 105.351562 284.09375 105.351562 C 284.445312 105.351562 284.828125 105.515625 285.070312 105.761719 C 285.507812 106.199219 285.835938 106.523438 284.039062 108.867188 C 284.390625 108.867188 284.746094 109.03125 284.988281 109.277344 C 285.699219 109.988281 286.105469 110.394531 280.226562 116.828125 C 281.125 115.929688 281.777344 115.273438 282.269531 114.8125 C 282.566406 114.484375 282.757812 114.292969 282.839844 114.210938 L 282.894531 114.210938 C 283.546875 113.667969 283.683594 113.695312 283.929688 113.695312 C 284.28125 113.695312 284.609375 113.828125 284.882812 114.101562 C 285.316406 114.539062 285.5625 114.785156 284.746094 115.929688 L 284.882812 116.066406 C 284.882812 116.066406 284.609375 116.335938 284.199219 116.746094 C 284.417969 116.800781 284.664062 116.9375 284.828125 117.101562 C 285.34375 117.617188 285.699219 117.972656 283.902344 120.261719 C 284.226562 120.289062 284.527344 120.425781 284.746094 120.671875 C 285.398438 121.324219 285.644531 121.570312 283.574219 123.914062 C 283.628906 123.914062 283.65625 123.914062 283.683594 123.914062 C 284.039062 123.914062 284.390625 124.050781 284.664062 124.324219 C 285.097656 124.757812 285.371094 125.03125 284.335938 126.449219 C 284.335938 126.449219 284.308594 126.503906 284.28125 126.503906 C 282.621094 128.710938 277.832031 133.671875 265.796875 146.128906 C 257.605469 154.605469 247.285156 165.207031 236.042969 176.792969 C 244.183594 168.617188 251.75 160.984375 258.367188 154.386719 C 265.609375 147.136719 271.652344 141.085938 275.871094 136.890625 C 280.953125 131.835938 283.835938 129.65625 284.527344 130.347656 C 285.015625 130.839844 285.289062 131.109375 284.308594 132.390625 C 284.308594 132.390625 284.253906 132.472656 284.199219 132.5 C 283.085938 133.945312 280.527344 136.617188 275.324219 142.09375 C 270.617188 147.027344 264.355469 153.542969 257.03125 161.121094 C 258.910156 159.429688 259.457031 159.210938 259.808594 159.210938 C 260.164062 159.210938 260.542969 159.375 260.789062 159.621094 C 261.226562 160.058594 261.46875 160.300781 260.351562 161.773438 C 260.351562 161.773438 260.328125 161.828125 260.300781 161.828125 C 258.800781 163.765625 254.964844 167.796875 246.253906 176.929688 C 237.324219 186.304688 225.101562 199.089844 212.058594 212.746094 C 211.949219 212.855469 211.84375 212.960938 211.734375 213.070312 C 229.890625 194.863281 237.40625 187.394531 240.617188 184.316406 C 241.515625 183.390625 242.058594 182.816406 242.167969 182.679688 L 242.277344 182.761719 C 242.957031 182.164062 243.066406 182.136719 243.230469 182.164062 C 243.585938 182.164062 243.9375 182.296875 244.183594 182.542969 C 244.726562 183.089844 244.972656 183.335938 244.046875 184.507812 L 244.101562 184.5625 C 244.101562 184.5625 243.855469 184.804688 243.558594 185.078125 C 242.6875 186.085938 241.1875 187.613281 238.820312 190.011719 C 238.601562 190.230469 238.410156 190.449219 238.167969 190.667969 C 238.519531 190.667969 238.875 190.804688 239.121094 191.074219 C 239.609375 191.566406 239.855469 191.8125 239.039062 192.984375 L 239.09375 193.039062 C 239.09375 193.039062 238.902344 193.230469 238.65625 193.472656 C 237.8125 194.539062 236.289062 196.144531 233.757812 198.84375 C 234.109375 198.84375 234.492188 198.980469 234.738281 199.253906 C 235.691406 200.207031 235.851562 200.371094 226.214844 210.5625 C 228.421875 208.546875 228.691406 208.546875 229.019531 208.546875 C 229.375 208.546875 229.753906 208.683594 230 208.957031 C 230.84375 209.800781 231.0625 210.019531 225.453125 215.960938 C 225.589844 215.90625 225.699219 215.90625 225.78125 215.90625 C 226.132812 215.90625 226.488281 216.042969 226.761719 216.316406 C 227.304688 216.859375 227.523438 217.105469 226.570312 218.359375 C 226.570312 218.359375 226.515625 218.441406 226.460938 218.46875 C 225.644531 219.503906 224.039062 221.222656 221.207031 224.273438 C 219.925781 225.664062 218.429688 227.246094 216.796875 228.988281 C 219.246094 226.589844 220.554688 225.390625 221.289062 224.792969 C 222.023438 224.191406 222.1875 224.273438 222.40625 224.191406 C 222.757812 224.191406 223.113281 224.328125 223.386719 224.601562 C 223.820312 225.039062 224.066406 225.28125 223.085938 226.617188 L 223.140625 226.699219 C 223.140625 226.699219 222.949219 226.863281 222.785156 227 C 222.078125 227.925781 220.878906 229.261719 219 231.304688 C 219.574219 230.871094 219.792969 230.953125 219.925781 230.871094 C 220.28125 230.871094 220.636719 231.007812 220.90625 231.28125 C 221.289062 231.660156 221.5625 231.933594 220.582031 233.40625 C 220.582031 233.40625 220.554688 233.460938 220.527344 233.460938 C 219.628906 234.796875 217.667969 237.085938 213.882812 241.28125 C 216.550781 238.746094 216.824219 238.746094 217.207031 238.746094 C 217.53125 238.613281 217.941406 238.882812 218.183594 239.15625 C 218.59375 239.566406 218.867188 239.839844 217.859375 241.308594 C 216.46875 243.355469 212.605469 247.742188 203.210938 258.074219 C 213.585938 247.632812 213.855469 247.632812 214.511719 247.632812 C 214.863281 247.632812 215.21875 247.769531 215.488281 248.042969 C 215.871094 248.449219 216.144531 248.695312 215.136719 250.085938 L 215.191406 250.167969 C 215.191406 250.167969 215.027344 250.304688 214.890625 250.414062 C 214.183594 251.339844 213.039062 252.675781 211.214844 254.691406 C 211.296875 254.636719 211.351562 254.582031 211.433594 254.503906 C 211.652344 254.257812 211.816406 254.066406 211.871094 253.984375 L 211.976562 254.066406 C 213.257812 253.085938 213.503906 253.355469 213.964844 253.792969 C 214.375 254.203125 214.59375 254.449219 213.695312 255.730469 L 213.800781 255.863281 C 213.800781 255.863281 213.503906 256.136719 213.175781 256.4375 C 212.632812 257.117188 211.871094 258.046875 210.808594 259.246094 C 211.378906 258.78125 211.515625 258.78125 211.707031 258.78125 C 212.058594 258.78125 212.414062 258.917969 212.660156 259.164062 C 213.066406 259.570312 213.339844 259.816406 212.414062 261.152344 L 212.46875 261.261719 C 212.46875 261.261719 212.277344 261.425781 212.058594 261.617188 C 211.679688 262.105469 211.1875 262.734375 210.507812 263.523438 C 210.535156 263.523438 210.589844 263.523438 210.617188 263.523438 C 210.863281 263.523438 211.324219 263.660156 211.597656 263.933594 C 212.085938 264.421875 212.332031 264.667969 211.460938 265.894531 L 211.460938 265.949219 C 211.460938 265.949219 211.378906 266.058594 211.296875 266.140625 C 210.753906 266.875 209.855469 267.941406 208.464844 269.546875 C 209.121094 269.003906 209.285156 269.003906 209.527344 269.003906 C 209.882812 269.003906 210.234375 269.140625 210.480469 269.382812 C 210.890625 269.792969 211.132812 270.039062 210.261719 271.402344 L 210.316406 271.457031 C 210.316406 271.457031 210.207031 271.566406 210.101562 271.648438 C 208.957031 273.335938 206.289062 276.605469 200.789062 283.3125 C 204.601562 279.441406 206.261719 277.808594 207.078125 277.097656 C 207.703125 276.582031 207.867188 276.582031 208.140625 276.582031 C 208.492188 276.582031 208.820312 276.714844 209.066406 276.933594 C 209.664062 277.507812 209.910156 277.699219 208.902344 279.035156 C 208.902344 279.035156 208.902344 279.035156 208.875 279.058594 C 208.546875 279.496094 208.113281 280.015625 207.515625 280.722656 C 207.839844 280.722656 208.167969 280.886719 208.414062 281.132812 C 208.847656 281.566406 209.066406 281.785156 208.332031 283.039062 L 208.386719 283.09375 C 208.386719 283.09375 208.304688 283.175781 208.222656 283.257812 C 207.621094 284.210938 206.5625 285.710938 204.710938 288.164062 C 206.617188 286.339844 206.777344 286.5 207.515625 287.210938 C 207.949219 287.671875 208.195312 287.890625 207.433594 289.144531 L 207.488281 289.199219 C 207.488281 289.199219 207.378906 289.308594 207.296875 289.390625 C 207.050781 289.773438 206.75 290.234375 206.34375 290.808594 C 206.589844 290.863281 206.832031 290.972656 207.023438 291.164062 C 207.496094 291.617188 206.914062 293.632812 205.28125 297.214844 C 205.28125 297.214844 205.226562 297.351562 205.199219 297.40625 L 205.308594 297.40625 L 205.308594 298.765625 C 205.308594 298.765625 204.300781 299.695312 204.300781 299.695312 L 205.28125 298.765625 L 206.179688 299.804688 C 206.015625 299.9375 205.308594 300.675781 204.546875 301.464844 C 201.933594 304.109375 201.960938 304.109375 201.335938 304.109375 C 200.980469 304.109375 200.652344 303.972656 200.382812 303.726562 C 199.753906 303.101562 199.671875 303.046875 201.742188 298.46875 C 196.132812 304.136719 196.054688 304.136719 195.480469 304.136719 C 195.128906 304.136719 194.773438 304 194.527344 303.726562 C 194.175781 303.375 193.957031 303.15625 194.121094 302.664062 C 192.597656 304.109375 192.40625 304.109375 192.050781 304.109375 C 191.699219 304.109375 191.34375 303.972656 191.097656 303.699219 C 190.636719 303.238281 190.417969 303.019531 191.261719 301.65625 C 191.832031 300.730469 192.894531 299.257812 194.691406 296.886719 C 190.773438 300.8125 188.949219 302.609375 187.996094 303.457031 C 187.996094 303.457031 187.96875 303.484375 187.941406 303.511719 C 187.179688 304.164062 187.042969 304.136719 186.796875 304.164062 C 186.445312 304.164062 186.089844 304.027344 185.84375 303.78125 C 185.546875 303.484375 185.328125 303.265625 185.734375 302.472656 C 183.964844 304.164062 183.75 304.164062 183.367188 304.191406 C 183.011719 304.191406 182.660156 304.054688 182.386719 303.78125 C 181.980469 303.375 181.734375 303.128906 182.632812 301.710938 C 182.632812 301.710938 182.6875 301.628906 182.714844 301.601562 C 183.804688 299.910156 186.390625 296.695312 191.886719 289.9375 C 191.671875 290.152344 191.480469 290.34375 191.261719 290.5625 C 182.878906 299.039062 179.71875 302.257812 178.359375 303.457031 C 178.304688 303.535156 178.25 303.589844 178.222656 303.617188 C 177.542969 304.191406 177.378906 304.191406 177.160156 304.191406 C 176.804688 304.191406 176.453125 304.054688 176.207031 303.808594 C 175.800781 303.402344 175.554688 303.183594 176.453125 301.902344 L 176.34375 301.765625 C 176.34375 301.765625 176.726562 301.410156 177.132812 301.003906 C 177.785156 300.183594 178.710938 299.066406 180.019531 297.566406 C 176.617188 300.976562 174.929688 302.636719 174.03125 303.457031 C 174.03125 303.457031 174.003906 303.511719 173.976562 303.511719 C 173.1875 304.21875 173.050781 304.21875 172.804688 304.21875 C 172.449219 304.21875 172.097656 304.082031 171.851562 303.808594 C 171.445312 303.402344 171.199219 303.15625 172.015625 301.957031 L 171.988281 301.957031 C 171.28125 302.636719 170.761719 303.15625 170.410156 303.484375 C 170.273438 303.617188 170.191406 303.726562 170.164062 303.726562 C 169.621094 304.191406 169.484375 304.191406 169.15625 304.191406 C 168.449219 304.191406 167.851562 303.617188 167.796875 302.910156 C 167.796875 302.636719 167.796875 302.5 168.230469 301.902344 L 168.175781 301.847656 C 168.175781 301.847656 168.367188 301.65625 168.640625 301.382812 C 169.128906 300.8125 169.890625 299.992188 171.035156 298.738281 C 168.367188 301.410156 166.980469 302.773438 166.214844 303.484375 C 165.425781 304.191406 165.292969 304.191406 165.046875 304.191406 C 164.691406 304.191406 164.339844 304.054688 164.09375 303.78125 C 163.710938 303.402344 163.46875 303.15625 164.257812 301.957031 L 164.121094 301.820312 C 164.121094 301.820312 164.472656 301.464844 164.964844 301.003906 C 165.238281 300.675781 165.535156 300.265625 165.917969 299.832031 C 161.507812 304.21875 161.207031 304.246094 160.800781 304.21875 C 160.445312 304.21875 160.089844 304.082031 159.847656 303.808594 C 159.464844 303.429688 159.21875 303.183594 160.144531 301.820312 L 160.0625 301.710938 C 160.0625 301.710938 160.308594 301.492188 160.527344 301.300781 C 162.515625 298.65625 167.90625 292.742188 181.109375 278.296875 C 155.65625 304.21875 155.546875 304.21875 154.648438 304.21875 Z M 154.890625 303.890625 " fill-opacity="1" fill-rule="nonzero"/><g clip-path="url(#7165c43295)"><path fill="#000000" d="M 113.730469 157.304688 C 113.730469 157.304688 114.574219 157.25 114.574219 157.25 C 124.8125 156.785156 144.246094 155.75 156.578125 155.015625 C 147.324219 170.359375 140.109375 186.605469 134.554688 203.449219 C 127.695312 221.847656 122.824219 241.039062 119.449219 260.636719 C 117.761719 267.121094 116.179688 273.636719 114.738281 280.179688 L 115.855469 281.1875 C 115.855469 281.1875 118.550781 283.640625 119.339844 284.375 C 119.3125 284.757812 119.230469 285.410156 119.230469 285.410156 C 119.230469 285.410156 119.367188 285.492188 119.503906 285.601562 C 119.503906 285.683594 119.503906 285.792969 119.503906 285.875 L 128.296875 292.578125 C 135.15625 298.847656 142.042969 305.171875 142.042969 305.171875 C 142.042969 305.171875 143.867188 305.28125 145.039062 305.363281 L 152.386719 310.976562 L 152.714844 311.222656 L 153.148438 311.222656 C 153.148438 311.222656 179.09375 310.242188 179.09375 310.242188 C 190.609375 310.050781 202.421875 309.804688 212.167969 309.777344 C 212.167969 309.507812 212.222656 309.261719 212.222656 308.988281 L 216.359375 308.824219 L 218.265625 308.742188 C 218.265625 308.742188 218.375 306.78125 218.375 306.78125 C 219.410156 276.988281 224.773438 246.925781 234.953125 218.824219 C 242.332031 204.894531 251.015625 191.675781 261.007812 179.519531 C 271.214844 167.28125 282.867188 156.296875 295.472656 146.59375 L 295.472656 146.238281 C 295.472656 146.238281 299.144531 105.378906 299.144531 105.378906 L 299.199219 104.917969 L 298.847656 104.589844 C 298.847656 104.589844 292.992188 99.191406 287.628906 94.230469 L 287.46875 89.679688 L 287.46875 88.480469 C 287.46875 88.480469 286.488281 87.800781 286.488281 87.800781 L 253.304688 64.140625 L 252.703125 63.703125 L 252.023438 63.757812 C 252.023438 63.757812 229.644531 65.230469 218.238281 65.992188 C 201.878906 66.15625 185.546875 66.347656 169.183594 66.730469 C 152.035156 67.164062 129.65625 67.4375 109.621094 67.875 C 104.53125 67.546875 101.535156 67.355469 101.507812 67.355469 L 99.902344 67.246094 C 99.902344 67.246094 99.875 67.683594 99.820312 68.121094 C 95.191406 68.257812 90.726562 68.390625 86.617188 68.527344 L 84.140625 68.609375 L 84.140625 71.035156 C 84.140625 71.035156 84.140625 73.488281 84.140625 73.488281 C 82.34375 73.570312 80.519531 73.652344 78.722656 73.707031 L 78.722656 74.851562 C 78.722656 74.851562 78.804688 79.214844 78.804688 79.214844 C 78.558594 79.214844 78.285156 79.269531 78.042969 79.296875 L 75.589844 79.484375 L 75.726562 81.910156 L 78.394531 129.964844 L 78.449219 131 L 79.265625 131.546875 L 79.539062 131.710938 C 79.539062 131.710938 79.539062 131.957031 79.539062 131.957031 C 85.253906 136.207031 90.917969 140.542969 96.6875 144.738281 L 113.105469 156.785156 L 113.757812 157.277344 Z M 83.433594 129.585938 C 83.351562 127.539062 82.015625 96.683594 81.472656 84.09375 C 82.34375 84.039062 83.242188 83.984375 84.140625 83.929688 L 84.25 119.171875 L 84.25 120.207031 C 84.25 120.207031 85.039062 120.808594 85.039062 120.808594 L 88.875 123.695312 L 88.875 124.570312 C 88.875 124.570312 89.585938 125.058594 89.585938 125.058594 C 89.585938 125.058594 92.632812 127.292969 93.558594 127.976562 L 93.558594 128.304688 C 93.558594 128.304688 93.558594 129.339844 93.558594 129.339844 L 94.320312 129.9375 L 118.304688 148.746094 C 115.71875 148.882812 113.105469 148.992188 110.519531 149.128906 C 107.742188 147.136719 104.800781 145.011719 101.808594 142.859375 C 93.96875 137.1875 85.691406 131.164062 83.460938 129.558594 Z M 287.277344 140.675781 C 272.957031 153.652344 260.707031 168.535156 250.390625 184.699219 C 260.246094 166.871094 272.46875 150.382812 287.332031 135.988281 Z M 193.710938 306.070312 C 188.265625 305.992188 182.386719 305.910156 182.386719 305.910156 C 179.066406 305.855469 175.746094 305.828125 172.394531 305.828125 C 184.074219 304.84375 196.324219 303.726562 206.671875 302.910156 C 206.5625 303.699219 206.453125 304.492188 206.34375 305.28125 C 202.722656 305.527344 198.367188 305.800781 193.710938 306.097656 Z M 154.703125 302.175781 C 154.703125 302.175781 155.027344 302.417969 155.027344 302.417969 C 154.019531 302.472656 153.011719 302.554688 151.980469 302.609375 C 150.917969 301.875 149.746094 301.03125 148.496094 300.128906 C 149.636719 300.128906 150.808594 300.128906 151.980469 300.074219 L 154.675781 302.148438 Z M 142.503906 207.839844 C 151.460938 187.476562 163.683594 168.78125 177.460938 151.363281 C 177.460938 151.363281 177.542969 151.28125 177.542969 151.28125 C 177.839844 151.28125 178.113281 151.28125 178.386719 151.28125 C 158.269531 175.785156 144.65625 203.667969 135.453125 233.242188 C 137.441406 224.683594 139.757812 216.207031 142.503906 207.894531 Z M 171.660156 151.878906 C 167.742188 156.894531 163.929688 162.019531 160.308594 167.253906 C 163.222656 161.992188 166.324219 156.839844 169.484375 151.714844 L 171.660156 151.851562 Z M 165.644531 147.300781 C 166.324219 146.183594 167.035156 145.039062 167.742188 143.921875 C 169.890625 143.8125 172.042969 143.675781 174.21875 143.59375 C 173.292969 144.929688 172.394531 146.292969 171.472656 147.628906 Z M 165.480469 151.472656 L 168.75 151.6875 C 163.820312 159.238281 159.273438 167.007812 155.109375 175.019531 C 148.550781 185.1875 142.667969 195.816406 137.796875 206.882812 C 139.703125 200.617188 141.90625 194.457031 144.382812 188.40625 C 150.019531 175.648438 156.6875 163.355469 164.039062 151.5 C 164.5 151.5 164.992188 151.5 165.453125 151.472656 Z M 128.976562 244.988281 C 131.316406 237.085938 133.957031 229.261719 136.871094 221.574219 C 133.332031 234.167969 130.582031 246.980469 128.402344 259.871094 C 127.179688 265.488281 126.0625 271.128906 125.082031 276.796875 C 124.972656 276.714844 124.890625 276.632812 124.785156 276.554688 C 125.816406 265.976562 127.179688 255.429688 128.976562 244.960938 Z M 206.042969 297.867188 C 206.097656 297.078125 206.152344 296.257812 206.207031 295.46875 C 206.152344 296.257812 206.097656 297.078125 206.070312 297.867188 Z M 210.316406 249.921875 C 206.777344 264.777344 204.410156 279.878906 202.832031 295.058594 C 200.136719 295.058594 176.125 295.113281 176.125 295.113281 C 167.359375 295.113281 158.59375 295.277344 149.828125 295.386719 C 142.804688 290.152344 131.996094 282.085938 129.273438 280.042969 C 132.867188 258.074219 137.878906 236.292969 145.199219 215.253906 C 153.09375 192.273438 165.617188 171.207031 178.820312 150.925781 C 178.441406 150.925781 178.085938 150.925781 177.703125 150.925781 C 178.167969 150.328125 179.9375 148.089844 179.9375 148.089844 L 175.878906 147.847656 L 171.933594 147.628906 C 172.832031 146.183594 173.730469 144.738281 174.628906 143.292969 C 172.503906 143.375 170.246094 143.457031 167.933594 143.484375 C 168.585938 142.421875 169.238281 141.359375 169.917969 140.296875 C 153.558594 140.378906 137.035156 139.96875 120.507812 139.941406 L 98.785156 120.152344 C 98.894531 118.871094 100.664062 97.257812 101.863281 82.757812 C 101.996094 82.757812 102.132812 82.757812 102.269531 82.757812 C 125.761719 82.949219 156.878906 83.164062 179.367188 83.058594 C 205.144531 83.191406 230.925781 82.894531 256.734375 82.785156 C 263.566406 87.5 269.582031 91.640625 270.398438 92.1875 L 272.46875 128.710938 C 249.382812 152.753906 232.777344 182.109375 221.886719 213.480469 C 217.230469 225.363281 213.394531 237.546875 210.371094 249.894531 Z M 242.386719 72.917969 C 242.714844 73.136719 246.089844 75.480469 248.023438 76.789062 C 239.230469 76.214844 228.421875 75.535156 216.6875 74.769531 C 224.527344 74.171875 232.367188 73.570312 240.234375 73 C 240.972656 72.972656 241.679688 72.945312 242.386719 72.917969 Z M 197.714844 76.214844 L 218.539062 77.414062 C 206.453125 77.332031 194.363281 77.304688 182.277344 77.359375 C 187.421875 76.976562 192.570312 76.597656 197.6875 76.214844 Z M 276.195312 130.046875 C 276.195312 129.855469 276.195312 129.339844 276.195312 129.339844 L 275 93.851562 C 276.523438 95.078125 276.632812 95.160156 278.074219 96.304688 L 278.210938 128.113281 C 277.53125 128.738281 276.90625 129.394531 276.222656 130.046875 Z M 281.859375 129.394531 C 281.859375 129.148438 281.859375 128.902344 281.859375 128.902344 L 282.050781 118.707031 L 282.214844 129.039062 C 282.214844 129.039062 281.96875 129.285156 281.859375 129.394531 Z M 259.890625 77.578125 C 259.128906 77.523438 258.3125 77.46875 257.46875 77.414062 L 250.714844 72.589844 C 251.613281 72.5625 252.457031 72.507812 253.304688 72.480469 C 254.554688 73.433594 256.949219 75.289062 259.890625 77.550781 Z M 92.441406 77.714844 C 94.621094 77.660156 96.796875 77.605469 98.976562 77.523438 C 98.976562 77.523438 98.976562 77.550781 98.976562 77.578125 C 98.296875 77.632812 97.585938 77.6875 96.90625 77.742188 C 96.878906 77.742188 96.824219 77.742188 96.796875 77.742188 L 94.320312 77.742188 C 94.320312 77.742188 94.320312 77.933594 94.320312 77.933594 C 93.695312 77.988281 93.070312 78.042969 92.441406 78.070312 C 92.441406 77.933594 92.441406 77.824219 92.441406 77.6875 Z M 97.804688 124.242188 L 111.769531 137.132812 C 108.394531 134.410156 104.230469 131.027344 97.75 125.824219 C 97.75 125.660156 97.804688 124.515625 97.804688 124.269531 Z M 123.394531 142.585938 C 138.722656 141.984375 154.046875 141.085938 169.511719 140.625 C 168.75 141.605469 168.011719 142.585938 167.277344 143.566406 C 153.476562 143.8125 137.089844 143.511719 125.054688 144.085938 Z M 166.953125 144.003906 C 166.269531 144.875 165.589844 145.773438 164.9375 146.648438 C 162.976562 146.757812 161.015625 146.835938 159.03125 146.945312 L 137.523438 145.691406 C 147.214844 145.121094 157.015625 144.519531 166.953125 144.003906 Z M 164.609375 146.917969 C 164.609375 146.917969 164.472656 147.136719 164.394531 147.246094 L 162.296875 147.136719 C 163.058594 147.082031 163.847656 147 164.609375 146.917969 Z M 223.113281 215.308594 C 229.890625 197.480469 238.738281 180.5 249.925781 164.910156 C 257.820312 153.925781 266.886719 143.867188 276.6875 134.625 C 239.964844 172.40625 219.273438 223.210938 212.523438 275.246094 C 211.542969 279.007812 210.644531 282.820312 209.800781 286.636719 C 211.078125 262.40625 215.355469 238.257812 223.113281 215.308594 Z M 92.414062 83.410156 C 93.015625 83.382812 93.613281 83.328125 94.210938 83.300781 L 93.640625 122.496094 C 93.230469 122.171875 92.769531 121.789062 92.414062 121.515625 C 92.46875 108.8125 92.441406 96.113281 92.414062 83.410156 Z M 88.765625 118.574219 C 88.765625 118.574219 88.359375 118.246094 88.332031 118.21875 C 88.332031 117.753906 88.441406 111.160156 88.523438 106.769531 C 88.605469 110.695312 88.660156 114.648438 88.765625 118.574219 Z M 120.589844 146.648438 C 121.054688 146.648438 121.515625 146.59375 121.980469 146.566406 L 123.941406 148.363281 C 123.941406 148.363281 123.992188 148.417969 124.019531 148.445312 C 123.613281 148.445312 123.230469 148.472656 122.824219 148.5 C 122.550781 148.28125 121.164062 147.109375 120.589844 146.648438 Z M 136.109375 149.589844 L 144.355469 150.136719 C 140.734375 150.027344 137.089844 149.945312 133.46875 149.863281 C 134.339844 149.78125 135.210938 149.699219 136.109375 149.589844 Z M 206.617188 305.226562 C 206.777344 304.4375 206.914062 303.644531 207.078125 302.855469 C 207.8125 302.800781 208.574219 302.746094 209.285156 302.691406 C 209.285156 302.066406 209.285156 301.4375 209.285156 300.785156 L 209.746094 300.785156 C 209.554688 302.203125 209.363281 303.617188 209.175781 305.0625 C 208.359375 305.117188 207.488281 305.171875 206.5625 305.226562 Z M 210.183594 297.730469 L 209.363281 297.730469 C 209.390625 295.332031 209.472656 292.878906 209.554688 290.453125 C 210.316406 286.828125 211.105469 283.203125 211.953125 279.578125 C 211.378906 284.621094 210.917969 289.691406 210.617188 294.761719 C 210.453125 295.769531 210.316406 296.75 210.183594 297.757812 Z M 121.246094 151.0625 L 122.550781 152.070312 C 119.882812 152.207031 117.40625 152.371094 115.148438 152.480469 C 114.792969 152.234375 114.410156 151.960938 114.058594 151.6875 C 116.453125 151.472656 118.847656 151.28125 121.246094 151.035156 Z M 212.929688 300.675781 C 212.929688 300.675781 213.257812 300.675781 213.257812 300.675781 C 213.257812 300.675781 213.367188 299.3125 213.367188 299.3125 C 213.503906 296.96875 213.71875 294.652344 213.910156 292.308594 C 214.402344 288.382812 215.027344 284.484375 215.679688 280.585938 C 214.863281 288.628906 214.402344 296.667969 214.210938 304.738281 C 213.746094 304.765625 213.203125 304.816406 212.605469 304.84375 C 212.714844 303.457031 212.824219 302.066406 212.957031 300.675781 Z M 297.214844 105.707031 C 296.832031 110.257812 293.890625 146.101562 293.890625 146.101562 C 283.492188 153.050781 269.582031 167.28125 260.027344 178.671875 C 251.507812 189.167969 244.046875 200.453125 237.460938 212.226562 C 238.03125 210.753906 238.683594 209.28125 239.28125 207.8125 C 244.753906 197.042969 251.097656 186.6875 258.367188 176.957031 C 267.703125 164.417969 278.539062 153.050781 290.351562 142.859375 L 290.953125 142.339844 L 290.953125 141.523438 C 290.953125 141.523438 292.367188 103.0625 292.367188 103.0625 L 292.367188 101.972656 C 292.367188 101.972656 291.523438 101.238281 291.523438 101.238281 L 287.792969 98.183594 L 287.792969 97.066406 C 287.792969 97.066406 297.242188 105.707031 297.242188 105.707031 Z M 81.144531 75.914062 C 81.308594 75.914062 83.621094 75.777344 84.140625 75.722656 L 84.140625 78.722656 C 83.160156 78.804688 82.207031 78.886719 81.253906 78.96875 C 81.253906 78.53125 81.117188 76.023438 81.117188 75.886719 Z M 81.144531 75.914062 " fill-opacity="1" fill-rule="nonzero"/></g><path fill="#ffffff" d="M 256.515625 74.796875 L 255.589844 113.285156 C 240.917969 126.339844 228.585938 140.460938 218.59375 155.640625 C 206.453125 174.09375 196.734375 194.671875 189.4375 217.324219 C 183.640625 234.957031 179.527344 255.808594 177.078125 279.851562 L 120.671875 279.851562 C 125.953125 246.378906 133.605469 218.304688 143.703125 195.65625 C 153.777344 172.976562 169.484375 148.746094 190.773438 122.933594 L 90.15625 122.933594 C 90.15625 122.933594 91.328125 74.796875 91.328125 74.796875 Z M 256.515625 74.796875 " fill-opacity="1" fill-rule="nonzero"/></svg>