<svg xmlns="http://www.w3.org/2000/svg" xmlns:xlink="http://www.w3.org/1999/xlink" width="500" zoomAndPan="magnify" viewBox="0 0 375 374.999991" height="500" preserveAspectRatio="xMidYMid meet" version="1.0"><defs><clipPath id="bf3231523a"><path d="M 84 66 L 291 66 L 291 311.308594 L 84 311.308594 Z M 84 66 " clip-rule="nonzero"/></clipPath></defs><path fill="#000000" d="M 192.550781 234.792969 C 192.203125 234.792969 191.855469 234.660156 191.589844 234.394531 C 191.109375 233.941406 190.871094 233.671875 191.882812 232.367188 L 191.882812 232.316406 C 191.882812 232.316406 191.9375 232.234375 192.015625 232.179688 C 193.1875 230.691406 195.800781 227.945312 201.078125 222.378906 C 201.769531 221.65625 202.492188 220.914062 203.238281 220.113281 C 199.984375 223.308594 198.359375 224.828125 197.480469 225.546875 C 197.480469 225.546875 197.480469 225.574219 197.453125 225.601562 C 196.707031 226.214844 196.546875 226.214844 196.359375 226.214844 C 196.015625 226.214844 195.667969 226.082031 195.425781 225.8125 C 194.976562 225.359375 194.734375 225.121094 195.695312 223.816406 L 195.695312 223.761719 C 195.695312 223.761719 195.800781 223.65625 195.878906 223.550781 C 196.066406 223.308594 196.308594 223.015625 196.601562 222.671875 C 196.441406 222.617188 196.308594 222.511719 196.175781 222.378906 C 195.746094 221.925781 195.507812 221.710938 196.414062 220.460938 L 196.332031 220.351562 C 196.332031 220.351562 196.601562 220.113281 196.894531 219.847656 C 198.226562 218.222656 200.972656 215.316406 206.195312 209.800781 C 207.15625 208.789062 208.167969 207.722656 209.207031 206.605469 C 203.824219 211.960938 201.023438 214.730469 199.503906 216.144531 C 199.050781 216.648438 198.757812 216.96875 198.652344 217.101562 L 198.546875 217.023438 C 197.828125 217.660156 197.71875 217.660156 197.558594 217.660156 C 197.214844 217.660156 196.867188 217.527344 196.628906 217.261719 C 196.148438 216.78125 195.90625 216.542969 196.734375 215.398438 L 196.679688 215.316406 C 196.679688 215.316406 196.921875 215.105469 197.214844 214.8125 C 198.011719 213.851562 199.34375 212.386719 201.476562 210.121094 C 200.066406 211.453125 199.210938 212.226562 198.652344 212.679688 C 198.652344 212.679688 198.652344 212.707031 198.625 212.734375 C 197.851562 213.347656 197.613281 213.398438 197.535156 213.347656 C 197.1875 213.347656 196.839844 213.210938 196.574219 212.945312 C 195.917969 212.289062 198.867188 208.453125 205.421875 201.4375 C 210.167969 196.347656 216.457031 189.6875 223.226562 182.46875 C 221.839844 183.855469 220.507812 185.210938 219.203125 186.519531 C 196.574219 209.296875 196.414062 209.429688 195.800781 209.429688 C 195.480469 209.375 195.109375 209.296875 194.839844 209.03125 C 194.46875 208.65625 194.203125 208.390625 194.976562 207.136719 L 194.921875 207.058594 C 194.921875 207.058594 195.082031 206.925781 195.214844 206.765625 C 196.386719 205.085938 199.160156 201.890625 205.101562 195.441406 C 187.777344 212.734375 187.300781 212.734375 186.605469 212.734375 C 186.257812 212.734375 185.886719 212.601562 185.644531 212.332031 C 185.113281 211.828125 185.113281 210.976562 185.644531 210.441406 C 185.78125 210.308594 185.941406 210.203125 186.125 210.121094 C 189.617188 207.566406 230.527344 166.058594 252.621094 143.652344 C 264.242188 131.847656 268.347656 127.691406 269.972656 126.226562 C 270.027344 126.148438 270.078125 126.09375 270.105469 126.066406 L 270.132812 126.066406 C 270.878906 125.429688 271.011719 125.296875 271.226562 125.429688 C 271.574219 125.429688 271.917969 125.5625 272.160156 125.828125 C 272.636719 126.308594 272.90625 126.574219 272.027344 127.746094 L 272.050781 127.746094 C 272.050781 127.746094 271.945312 127.878906 271.867188 127.960938 C 270.851562 129.292969 268.585938 131.714844 264.136719 136.457031 C 259.660156 141.226562 253.714844 147.566406 247.160156 154.496094 C 272.132812 129.453125 272.34375 129.453125 273.011719 129.453125 C 273.359375 129.453125 273.703125 129.585938 273.945312 129.851562 C 274.398438 130.304688 274.664062 130.570312 273.730469 131.875 C 272.371094 133.792969 268.535156 137.898438 259.207031 147.914062 C 256.222656 151.136719 252.890625 154.65625 249.425781 158.359375 C 256.488281 151.21875 264.164062 143.464844 272.371094 135.152344 C 272.691406 134.832031 272.957031 134.566406 273.199219 134.355469 C 273.332031 134.21875 273.410156 134.140625 273.4375 134.113281 C 274.132812 133.527344 274.503906 133.472656 275.144531 133.902344 C 275.492188 134.140625 275.730469 134.539062 275.730469 134.964844 C 275.730469 135.179688 275.730469 135.285156 275.277344 135.871094 L 275.355469 135.953125 L 274.265625 137.042969 C 274.265625 137.042969 274.15625 137.152344 274.132812 137.179688 C 272.71875 138.722656 270.105469 141.46875 265.203125 146.636719 C 264.667969 147.195312 264.109375 147.78125 263.550781 148.394531 L 271.519531 140.429688 C 272.691406 139.253906 273.492188 138.457031 274.078125 137.921875 C 274.105469 137.871094 274.132812 137.84375 274.15625 137.816406 C 275.332031 136.804688 275.542969 137.019531 276.15625 137.65625 C 276.554688 138.058594 276.769531 138.296875 275.96875 139.441406 L 276.101562 139.601562 C 276.101562 139.601562 275.625 140.054688 274.957031 140.746094 C 273.757812 142.1875 271.679688 144.425781 268.292969 148.019531 C 272.027344 144.316406 273.785156 142.664062 274.664062 141.921875 C 275.355469 141.359375 275.515625 141.359375 275.730469 141.359375 C 276.078125 141.359375 276.421875 141.492188 276.664062 141.761719 C 277.117188 142.214844 277.382812 142.480469 276.394531 143.757812 L 276.449219 143.8125 C 276.449219 143.8125 276.371094 143.863281 276.316406 143.917969 C 276.503906 143.972656 276.691406 144.105469 276.847656 144.238281 C 277.25 144.636719 277.515625 144.902344 276.714844 146.074219 L 276.824219 146.183594 C 276.824219 146.183594 276.53125 146.476562 276.15625 146.847656 C 274.824219 148.527344 272.078125 151.511719 266.75 157.160156 C 275.277344 148.632812 275.4375 148.632812 275.941406 148.632812 L 275.941406 149.964844 C 275.941406 149.964844 275.011719 150.898438 275.011719 150.898438 L 275.941406 149.964844 L 276.714844 151.03125 C 275.703125 151.855469 260.859375 166.828125 245.160156 182.679688 C 193.640625 234.6875 193.457031 234.6875 192.496094 234.6875 Z M 192.550781 234.792969 " fill-opacity="1" fill-rule="nonzero"/><path fill="#000000" d="M 192.894531 143.679688 C 192.550781 143.679688 192.203125 143.546875 191.9375 143.277344 C 191.535156 142.878906 191.296875 142.640625 192.230469 141.332031 L 192.175781 141.226562 C 192.175781 141.226562 192.390625 141.039062 192.574219 140.882812 C 193.164062 140.136719 194.042969 139.097656 195.347656 137.628906 C 195.347656 137.628906 195.292969 137.628906 195.269531 137.628906 C 194.921875 137.628906 194.574219 137.496094 194.308594 137.230469 C 193.933594 136.859375 193.695312 136.617188 194.628906 135.257812 L 194.574219 135.152344 C 194.574219 135.152344 194.734375 135.019531 194.867188 134.914062 C 196.121094 133.179688 198.917969 129.929688 204.703125 123.402344 C 200.25 127.90625 198.226562 129.929688 197.214844 130.808594 C 197.105469 130.917969 197.054688 130.996094 197.027344 131.023438 L 197 131.023438 C 196.359375 131.53125 196.199219 131.476562 195.988281 131.53125 C 195.640625 131.53125 195.292969 131.398438 195.054688 131.128906 C 194.601562 130.675781 194.363281 130.4375 195.269531 129.210938 L 195.214844 129.132812 C 195.214844 129.132812 195.425781 128.945312 195.613281 128.757812 C 196.574219 127.507812 198.414062 125.457031 201.609375 121.859375 C 202.675781 120.660156 203.875 119.300781 205.183594 117.835938 C 204.25 118.796875 203.316406 119.699219 202.4375 120.605469 C 193.785156 129.292969 189.261719 133.632812 188.871094 133.632812 L 188.871094 132.300781 C 188.871094 132.300781 189.804688 131.371094 189.804688 131.371094 L 188.871094 132.300781 L 187.992188 131.316406 C 188.339844 130.996094 194.015625 125.296875 200.542969 118.714844 C 230.742188 88.371094 230.902344 88.210938 231.621094 88.210938 C 231.941406 88.210938 232.3125 88.34375 232.582031 88.609375 C 232.925781 88.957031 233.167969 89.195312 232.367188 90.476562 L 232.449219 90.582031 C 232.449219 90.582031 232.207031 90.792969 231.96875 91.035156 C 231.140625 92.207031 229.648438 94.019531 227.117188 96.976562 C 233.648438 90.449219 233.859375 90.449219 234.417969 90.449219 C 234.765625 90.449219 235.113281 90.582031 235.378906 90.847656 C 235.753906 91.222656 235.992188 91.460938 235.058594 92.820312 L 235.113281 92.925781 C 235.113281 92.925781 234.925781 93.085938 234.765625 93.21875 C 233.539062 94.898438 230.820312 98.042969 225.332031 104.222656 C 236.523438 92.847656 236.660156 92.847656 237.351562 92.847656 C 237.699219 92.847656 238.042969 92.980469 238.285156 93.246094 C 238.683594 93.644531 238.921875 93.886719 238.019531 95.191406 L 238.070312 95.269531 C 238.949219 94.496094 239.136719 94.472656 239.375 94.472656 L 239.375 95.804688 C 239.375 95.804688 238.445312 96.734375 238.445312 96.734375 L 239.375 95.804688 L 240.148438 96.867188 C 239.351562 97.507812 229.890625 107.074219 220.746094 116.34375 C 202.75 134.550781 193.457031 143.644531 192.867188 143.625 Z M 192.894531 143.679688 " fill-opacity="1" fill-rule="nonzero"/><path fill="#000000" d="M 196.148438 303.847656 C 195.800781 303.847656 195.453125 303.714844 195.214844 303.449219 C 194.816406 303.046875 194.546875 302.78125 195.425781 301.53125 L 195.375 301.449219 C 195.375 301.449219 195.5625 301.289062 195.746094 301.101562 C 197.398438 298.917969 201.746094 294.28125 211.871094 283.519531 C 210.246094 285.171875 208.671875 286.742188 207.234375 288.207031 C 197.828125 297.71875 194.175781 301.421875 192.628906 302.835938 C 192.496094 302.96875 192.417969 303.074219 192.363281 303.128906 L 192.308594 303.128906 C 191.589844 303.742188 191.457031 303.742188 191.242188 303.742188 C 190.898438 303.742188 190.550781 303.609375 190.308594 303.339844 C 189.910156 302.941406 189.671875 302.703125 190.496094 301.53125 L 190.390625 301.394531 C 188.019531 303.582031 187.75 303.582031 187.433594 303.582031 C 187.085938 303.582031 186.738281 303.449219 186.472656 303.179688 C 185.671875 302.382812 185.539062 302.25 189.964844 297.585938 C 184.101562 303.339844 183.753906 303.316406 183.246094 303.316406 C 182.902344 303.316406 182.527344 303.179688 182.289062 302.914062 C 181.578125 302.203125 185.238281 297.59375 193.269531 289.085938 C 196.414062 285.757812 200.09375 281.867188 204.117188 277.632812 C 178.929688 302.863281 178.476562 302.863281 177.8125 302.863281 C 177.464844 302.863281 177.117188 302.726562 176.851562 302.460938 C 175.707031 301.316406 175.519531 301.101562 200.679688 274.355469 C 180.957031 294.335938 175.386719 299.957031 173.519531 301.554688 C 172.773438 302.195312 172.558594 302.25 172.402344 302.167969 C 172.054688 302.167969 171.707031 302.035156 171.46875 301.769531 C 171.015625 301.316406 170.746094 301.050781 171.679688 299.769531 L 171.679688 299.71875 C 171.679688 299.71875 171.761719 299.636719 171.8125 299.558594 C 173.011719 297.984375 175.839844 295.003906 181.703125 288.792969 C 187.113281 283.066406 194.253906 275.554688 202.089844 267.320312 C 168.429688 301.289062 168.082031 301.289062 167.230469 301.289062 C 166.964844 301.34375 166.535156 301.15625 166.269531 300.890625 C 165.765625 300.382812 165.496094 300.144531 166.644531 298.652344 C 164.511719 300.597656 164.246094 300.597656 163.898438 300.597656 C 163.550781 300.730469 163.179688 300.464844 162.9375 300.199219 C 162.21875 299.476562 161.871094 299.132812 169.707031 290.660156 C 160.726562 299.609375 160.460938 299.609375 159.902344 299.609375 C 159.554688 299.609375 159.207031 299.476562 158.941406 299.210938 C 158.382812 298.652344 158.089844 298.359375 159.660156 296.46875 C 157.261719 298.707031 156.96875 298.757812 156.808594 298.707031 C 156.460938 298.707031 156.117188 298.570312 155.875 298.304688 C 155.554688 297.984375 155.316406 297.746094 155.554688 297.160156 C 154.730469 297.828125 154.542969 297.851562 154.277344 297.828125 C 153.929688 297.828125 153.558594 297.691406 153.316406 297.425781 C 152.382812 296.496094 152.039062 296.175781 169.070312 278.296875 C 157.742188 289.726562 153.609375 293.9375 151.933594 295.457031 C 151.824219 295.5625 151.773438 295.640625 151.71875 295.695312 L 151.664062 295.695312 C 150.917969 296.335938 150.839844 296.308594 150.574219 296.335938 C 150.226562 296.335938 149.878906 296.199219 149.640625 295.933594 C 149.1875 295.480469 148.921875 295.214844 149.773438 294.042969 L 149.71875 293.988281 C 149.71875 293.988281 149.90625 293.804688 150.144531 293.5625 C 150.492188 293.136719 150.945312 292.605469 151.53125 291.964844 C 150.867188 292.578125 150.332031 293.109375 149.878906 293.511719 C 149.347656 294.070312 149.027344 294.390625 148.945312 294.496094 L 148.8125 294.390625 C 147.613281 295.296875 147.375 295.054688 146.949219 294.628906 C 146.628906 294.308594 146.386719 294.070312 146.789062 293.378906 C 146.121094 293.855469 145.960938 293.855469 145.800781 293.855469 C 145.457031 293.855469 145.082031 293.722656 144.84375 293.457031 C 144.523438 293.136719 144.28125 292.898438 144.707031 292.097656 C 144.070312 292.578125 143.828125 292.578125 143.644531 292.578125 C 143.296875 292.578125 142.921875 292.445312 142.683594 292.179688 C 142.285156 291.777344 142.070312 291.539062 142.46875 290.847656 C 141.9375 291.300781 141.804688 291.300781 141.644531 291.300781 C 141.296875 291.300781 140.949219 291.164062 140.710938 290.898438 C 140.339844 290.527344 140.042969 290.234375 140.871094 288.929688 L 140.84375 288.929688 C 140.84375 288.929688 140.925781 288.820312 140.976562 288.769531 C 141.457031 288.050781 142.285156 287.011719 143.617188 285.519531 C 139.617188 289.355469 139.351562 289.355469 138.980469 289.355469 C 138.632812 289.355469 138.285156 289.222656 138.019531 288.953125 C 137.398438 288.332031 139.164062 285.605469 143.324219 280.777344 C 145.5625 278.164062 148.308594 274.96875 151.265625 271.558594 C 136.339844 286.636719 136.285156 286.664062 135.566406 286.664062 C 135.222656 286.664062 134.875 286.53125 134.632812 286.265625 C 134.234375 285.863281 134.023438 285.652344 134.902344 284.34375 L 134.820312 284.210938 C 134.820312 284.210938 135.113281 283.972656 135.378906 283.707031 C 135.515625 283.519531 135.675781 283.332031 135.859375 283.121094 C 133.941406 284.878906 133.703125 284.878906 133.410156 284.878906 C 133.0625 284.878906 132.714844 284.746094 132.449219 284.480469 C 131.703125 283.734375 131.542969 283.574219 135.222656 279.390625 C 131.621094 282.855469 131.355469 282.855469 130.957031 282.855469 C 130.609375 282.855469 130.261719 282.71875 129.996094 282.453125 C 129.652344 282.132812 129.4375 281.894531 129.570312 281.496094 C 129.464844 281.523438 129.304688 281.496094 129.304688 281.523438 C 128.957031 281.523438 128.609375 281.386719 128.371094 281.121094 C 128 280.75 127.757812 280.507812 128.609375 279.285156 L 128.503906 279.125 C 128.503906 279.125 128.878906 278.777344 129.277344 278.378906 C 130.558594 276.726562 133.0625 273.875 137.671875 268.785156 C 127.226562 279.257812 127.09375 279.257812 126.558594 279.257812 C 126.132812 279.335938 125.867188 279.125 125.625 278.859375 C 125.253906 278.484375 124.988281 278.21875 125.839844 276.9375 L 125.785156 276.859375 C 125.785156 276.859375 125.945312 276.726562 126.078125 276.59375 C 127.679688 274.300781 132.074219 269.292969 142.921875 257.25 C 123.867188 276.433594 123.761719 276.433594 123.066406 276.433594 C 122.667969 276.328125 122.375 276.300781 122.109375 276.035156 C 121.816406 275.742188 121.601562 275.527344 121.707031 275.074219 C 121.601562 275.128906 121.496094 275.128906 121.441406 275.128906 C 121.09375 275.128906 120.722656 274.96875 120.480469 274.726562 C 119.859375 274.089844 121.316406 271.964844 124.851562 268.359375 L 136.738281 256.183594 C 141.511719 251.308594 147.320312 245.34375 153.851562 238.683594 C 145.054688 247.527344 135.621094 257.011719 125.492188 267.214844 C 119.550781 273.183594 119.523438 273.183594 118.964844 273.183594 C 118.617188 273.183594 118.296875 273.023438 118.058594 272.78125 C 117.738281 272.464844 117.46875 272.195312 118.191406 271.023438 L 118.058594 270.890625 C 118.058594 270.890625 118.351562 270.570312 118.828125 270.117188 C 121.230469 266.949219 128.265625 259.460938 146.839844 240.28125 C 116.832031 270.625 116.617188 270.625 115.816406 270.625 C 115.523438 270.652344 115.125 270.492188 114.859375 270.226562 C 114.511719 269.878906 114.21875 269.585938 115.152344 268.199219 C 115.152344 268.199219 115.207031 268.121094 115.257812 268.09375 C 117.285156 265.03125 124.640625 256.984375 147.585938 233.195312 C 125.8125 255.121094 117.789062 263.191406 114.671875 266.175781 C 113.953125 266.894531 113.554688 267.320312 113.445312 267.429688 L 113.367188 267.347656 C 112.726562 267.882812 112.59375 267.882812 112.433594 267.882812 C 112.085938 267.882812 111.742188 267.746094 111.5 267.480469 C 111.152344 267.136719 110.941406 266.921875 111.207031 266.363281 C 111.046875 266.441406 110.996094 266.441406 110.886719 266.441406 C 110.542969 266.441406 110.195312 266.308594 109.953125 266.042969 C 109.554688 265.644531 109.289062 265.375 110.222656 264.042969 L 110.222656 263.992188 C 110.222656 263.992188 110.273438 263.910156 110.355469 263.859375 C 111.261719 262.605469 113.074219 260.527344 116.539062 256.851562 C 112.328125 261.007812 110.40625 262.820312 109.421875 263.617188 C 109.367188 263.671875 109.339844 263.699219 109.316406 263.726562 C 108.675781 264.230469 108.515625 264.230469 108.300781 264.230469 C 107.957031 264.230469 107.609375 264.097656 107.34375 263.832031 C 106.835938 263.324219 106.597656 263.085938 107.636719 261.808594 C 107.636719 261.808594 107.742188 261.699219 107.796875 261.648438 C 107.902344 261.539062 108.007812 261.40625 108.117188 261.273438 C 107.984375 261.40625 107.847656 261.515625 107.714844 261.621094 C 107.609375 261.726562 107.53125 261.832031 107.503906 261.859375 L 107.476562 261.859375 C 106.78125 262.417969 106.625 262.417969 106.4375 262.417969 C 106.089844 262.417969 105.742188 262.285156 105.476562 262.019531 C 105.078125 261.621094 104.835938 261.378906 105.742188 260.15625 L 105.636719 260.023438 C 105.636719 260.023438 106.035156 259.648438 106.488281 259.222656 C 107.421875 258.105469 108.941406 256.476562 111.3125 254.027344 C 104.972656 260.316406 104.785156 260.316406 104.410156 260.316406 C 104.066406 260.316406 103.71875 260.183594 103.476562 259.914062 C 103.132812 259.570312 102.867188 259.300781 103.691406 258.023438 L 103.613281 257.917969 C 103.613281 257.917969 103.824219 257.730469 104.039062 257.515625 C 105.105469 256 107.371094 253.414062 111.765625 248.671875 C 104.464844 255.8125 102.597656 257.222656 101.960938 257.222656 C 101.613281 257.222656 101.238281 257.066406 101 256.824219 C 100.652344 256.476562 100.386719 256.210938 100.761719 255.464844 C 100.734375 255.464844 100.707031 255.464844 100.679688 255.464844 C 100.332031 255.464844 99.988281 255.332031 99.746094 255.066406 C 99.375 254.695312 99.105469 254.425781 99.933594 253.148438 L 99.878906 253.066406 C 99.878906 253.066406 100.039062 252.933594 100.199219 252.773438 C 101.214844 251.363281 103.320312 248.9375 107.476562 244.488281 C 102.917969 248.886719 100.707031 250.832031 99.585938 251.628906 C 99.082031 251.976562 98.734375 252.109375 98.601562 252.082031 C 98.253906 252.082031 97.882812 251.921875 97.640625 251.683594 C 97.160156 251.175781 96.921875 250.9375 97.800781 249.816406 C 97.613281 249.898438 97.480469 249.925781 97.402344 249.898438 C 97.054688 249.898438 96.707031 249.765625 96.441406 249.5 C 96.070312 249.125 95.800781 248.859375 96.28125 248.007812 C 95.988281 247.980469 95.695312 247.847656 95.484375 247.632812 C 95.054688 247.207031 94.789062 246.941406 95.695312 245.6875 L 95.644531 245.609375 C 95.644531 245.609375 95.828125 245.449219 95.988281 245.289062 C 96.175781 245.074219 96.363281 244.808594 96.601562 244.542969 C 96.390625 244.78125 96.253906 244.914062 96.203125 244.96875 L 96.121094 244.890625 C 95.484375 245.394531 95.347656 245.394531 95.214844 245.394531 C 94.496094 245.394531 93.910156 244.808594 93.882812 244.089844 C 93.882812 243.902344 93.882812 243.769531 94.523438 242.996094 L 94.523438 242.945312 C 94.523438 242.945312 94.65625 242.8125 94.789062 242.679688 C 95.722656 241.613281 97.589844 239.640625 101.347656 235.726562 L 99.1875 237.910156 C 97.242188 239.878906 96.042969 241.078125 95.242188 241.773438 C 95.242188 241.773438 95.214844 241.824219 95.191406 241.824219 C 93.964844 242.863281 93.722656 242.652344 93.136719 242.066406 C 92.738281 241.664062 92.472656 241.398438 93.296875 240.226562 L 93.191406 240.121094 C 93.191406 240.121094 93.511719 239.828125 93.882812 239.429688 C 95.324219 237.617188 98.386719 234.3125 104.4375 227.917969 C 93.777344 238.628906 93.484375 238.628906 92.84375 238.628906 C 92.496094 238.628906 92.152344 238.496094 91.882812 238.230469 C 91.378906 237.75 91.136719 237.484375 91.9375 236.417969 C 91.699219 236.363281 91.457031 236.230469 91.273438 236.070312 C 90.898438 235.671875 90.605469 235.40625 91.511719 234.125 C 91.246094 234.074219 90.980469 233.964844 90.765625 233.753906 C 89.777344 232.765625 89.511719 232.5 102.917969 218.433594 C 91.910156 229.304688 91.511719 229.304688 90.925781 229.304688 C 90.578125 229.304688 90.207031 229.171875 89.964844 228.90625 C 89.324219 228.265625 91.34375 225.539062 96.015625 220.726562 L 112.035156 204.207031 C 123.921875 191.953125 140.019531 175.328125 156.382812 158.410156 C 140.925781 173.890625 125.679688 189.15625 113.871094 200.984375 C 107.183594 207.699219 101.558594 213.292969 97.640625 217.207031 C 92.878906 221.949219 90.179688 224.003906 89.539062 223.363281 C 89.167969 222.988281 88.871094 222.695312 89.699219 221.472656 L 89.621094 221.390625 C 89.621094 221.390625 89.804688 221.230469 89.992188 221.046875 C 90.285156 220.644531 90.683594 220.164062 91.164062 219.578125 C 90.738281 219.898438 90.578125 219.898438 90.417969 219.898438 C 90.074219 219.898438 89.726562 219.765625 89.460938 219.5 C 89.058594 219.101562 88.792969 218.832031 89.726562 217.476562 L 89.726562 217.421875 C 89.726562 217.421875 89.777344 217.367188 89.832031 217.316406 C 91.9375 214.359375 99.320312 206.660156 121.335938 183.640625 C 127.757812 176.925781 134.742188 169.628906 141.964844 162.113281 C 135.621094 168.507812 129.570312 174.636719 124.105469 180.203125 C 101.160156 203.433594 94.390625 210.308594 92.125 212.332031 C 92.019531 212.441406 91.964844 212.519531 91.9375 212.574219 L 91.910156 212.574219 C 91.191406 213.1875 91.03125 213.1875 90.84375 213.1875 C 90.5 213.1875 90.152344 213.050781 89.914062 212.785156 C 89.433594 212.308594 89.167969 212.039062 90.074219 210.839844 L 90.046875 210.839844 C 90.046875 210.839844 90.152344 210.707031 90.257812 210.628906 C 90.5 210.308594 90.820312 209.960938 91.191406 209.535156 C 90.898438 209.484375 90.632812 209.347656 90.417969 209.164062 C 89.914062 208.65625 89.699219 208.417969 90.660156 207.21875 L 90.605469 207.136719 C 90.605469 207.136719 90.84375 206.953125 91.058594 206.738281 C 91.273438 206.5 91.484375 206.234375 91.777344 205.9375 C 91.566406 205.886719 91.40625 205.726562 91.191406 205.511719 C 90.820312 205.140625 90.578125 204.898438 91.324219 203.703125 L 91.21875 203.59375 C 91.21875 203.59375 91.457031 203.355469 91.75 203.0625 C 92.632812 201.835938 94.203125 199.890625 96.921875 196.695312 C 95.054688 198.480469 94.871094 198.480469 94.496094 198.480469 C 94.148438 198.480469 93.804688 198.347656 93.5625 198.105469 C 93.164062 197.707031 92.925781 197.492188 93.804688 196.136719 L 93.75 196.054688 C 93.75 196.054688 93.882812 195.949219 94.015625 195.816406 C 94.871094 194.535156 96.523438 192.433594 99.453125 188.703125 L 99.453125 187.957031 C 99.453125 187.957031 100.386719 187.023438 100.386719 187.023438 L 99.453125 187.957031 L 98.574219 186.96875 C 98.789062 186.757812 100.546875 185 102.570312 182.949219 C 106.570312 178.925781 108.355469 177.113281 109.261719 176.3125 C 109.261719 176.289062 109.316406 176.261719 109.316406 176.234375 C 109.980469 175.675781 110.113281 175.675781 110.382812 175.675781 C 110.726562 175.675781 111.074219 175.808594 111.3125 176.074219 C 111.742188 176.5 111.953125 176.714844 111.152344 177.964844 L 111.207031 178.046875 C 111.207031 178.046875 111.046875 178.207031 110.886719 178.367188 C 110.515625 178.898438 110.007812 179.589844 109.316406 180.496094 C 109.742188 180.042969 110.167969 179.617188 110.59375 179.21875 C 115.152344 174.609375 117.605469 172.132812 119.015625 170.90625 C 119.203125 170.691406 119.308594 170.53125 119.363281 170.480469 L 119.441406 170.53125 C 120.695312 169.519531 120.933594 169.761719 121.414062 170.238281 C 121.816406 170.640625 122.054688 170.878906 121.230469 172.105469 L 121.308594 172.210938 C 121.308594 172.210938 121.070312 172.449219 120.777344 172.71875 C 119.816406 174.023438 118.058594 176.128906 114.964844 179.722656 C 215.015625 79.074219 215.417969 79.074219 216.296875 79.074219 C 216.644531 79.074219 216.988281 79.207031 217.230469 79.472656 C 217.441406 79.683594 217.628906 79.871094 217.574219 80.246094 C 217.949219 80.003906 218.1875 79.898438 218.320312 79.953125 C 218.667969 79.953125 219.042969 80.113281 219.28125 80.351562 C 219.574219 80.644531 219.789062 80.859375 219.574219 81.390625 C 220.054688 81.042969 220.320312 80.992188 220.480469 80.964844 C 220.828125 80.964844 221.199219 81.125 221.441406 81.363281 C 221.894531 81.816406 222.132812 82.054688 221.039062 83.496094 C 219.789062 85.066406 216.910156 88.105469 210.832031 94.417969 C 204.167969 101.371094 194.867188 111.042969 184.367188 121.9375 C 180.34375 126.121094 176.078125 130.570312 171.679688 135.125 C 223.117188 83.230469 223.570312 83.203125 224.585938 83.203125 C 224.929688 83.203125 225.304688 83.335938 225.542969 83.601562 C 226.050781 84.109375 226.289062 84.347656 225.199219 85.707031 C 224.636719 86.398438 223.730469 87.359375 222.320312 88.796875 C 226.984375 84.160156 227.089844 84.242188 227.941406 85.09375 C 228.316406 85.464844 228.582031 85.734375 227.808594 86.984375 L 227.863281 87.066406 C 227.863281 87.066406 227.730469 87.199219 227.570312 87.332031 C 225.730469 89.996094 219.867188 96.335938 203.609375 113.332031 C 229.460938 87.25 229.730469 87.25 230.476562 87.25 C 230.820312 87.25 231.167969 87.382812 231.433594 87.652344 C 231.886719 88.105469 232.128906 88.34375 231.140625 89.675781 L 231.140625 89.730469 C 231.140625 89.730469 231.0625 89.808594 230.980469 89.890625 C 229.515625 91.78125 225.785156 95.617188 217.363281 104.328125 C 208.621094 113.359375 196.519531 125.800781 183.300781 139.390625 C 181.355469 141.386719 179.355469 143.4375 177.359375 145.515625 C 178.183594 144.796875 178.371094 144.796875 178.582031 144.796875 C 178.929688 144.796875 179.277344 144.929688 179.515625 145.195312 C 179.917969 145.597656 180.210938 145.863281 179.277344 147.195312 C 179.277344 147.195312 179.222656 147.273438 179.171875 147.328125 C 178.957031 147.621094 178.71875 147.941406 178.398438 148.339844 C 178.582031 148.421875 178.742188 148.5 178.875 148.660156 C 179.25 149.035156 179.542969 149.328125 178.582031 150.683594 C 178.582031 150.683594 178.53125 150.765625 178.476562 150.792969 C 178.398438 150.898438 178.316406 151.03125 178.210938 151.164062 C 178.421875 151.21875 178.609375 151.351562 178.742188 151.484375 C 179.222656 151.964844 179.464844 152.203125 178.371094 153.589844 C 177.25 155.054688 174.664062 157.796875 169.363281 163.367188 C 184.019531 148.820312 184.5 148.820312 185.085938 148.820312 C 185.40625 148.6875 185.804688 148.953125 186.046875 149.21875 C 186.703125 149.875 184.082031 153.3125 178.183594 159.53125 C 178.183594 159.53125 178.183594 159.53125 178.15625 159.558594 C 195.933594 141.707031 212.589844 124.949219 223.546875 113.972656 L 236.046875 101.425781 C 239.757812 97.695312 241.925781 96.140625 242.546875 96.761719 C 242.976562 97.1875 243.242188 97.457031 242.496094 98.652344 L 242.546875 98.707031 C 242.546875 98.707031 242.441406 98.8125 242.308594 98.945312 C 243.214844 98.203125 243.507812 98.09375 243.746094 98.09375 C 244.09375 98.09375 244.46875 98.226562 244.707031 98.496094 C 244.945312 98.734375 245.132812 98.921875 245 99.425781 C 245.132812 99.375 245.265625 99.375 245.320312 99.347656 C 245.667969 99.347656 246.039062 99.507812 246.28125 99.746094 C 246.625 100.09375 246.867188 100.332031 246.28125 101.316406 C 246.839844 100.867188 247 100.867188 247.1875 100.867188 C 247.425781 100.785156 247.878906 101 248.117188 101.265625 C 248.625 101.769531 248.863281 102.011719 247.878906 103.261719 L 247.878906 103.316406 C 247.878906 103.316406 247.746094 103.449219 247.613281 103.582031 C 246.679688 104.703125 244.921875 106.488281 241.910156 109.578125 L 225.4375 126.496094 C 214.164062 138.058594 198.226562 154.441406 181.488281 171.625 C 205.636719 147.460938 230.554688 122.472656 249.265625 103.714844 C 249.503906 103.476562 249.851562 103.316406 250.199219 103.316406 C 250.542969 103.316406 250.890625 103.449219 251.128906 103.714844 C 251.421875 104.007812 251.636719 104.222656 251.449219 104.753906 C 251.609375 104.675781 251.691406 104.675781 251.824219 104.648438 C 252.167969 104.648438 252.542969 104.808594 252.78125 105.046875 C 253.527344 105.792969 247.914062 112.347656 235.9375 124.710938 C 230.609375 130.199219 224.265625 136.699219 217.308594 143.839844 C 253.902344 107.179688 254.25 107.179688 254.941406 107.179688 C 255.289062 107.179688 255.632812 107.3125 255.902344 107.578125 C 256.273438 107.953125 256.539062 108.21875 255.609375 109.550781 L 255.660156 109.65625 C 255.660156 109.65625 255.476562 109.816406 255.289062 109.976562 C 255.046875 110.296875 254.726562 110.667969 254.355469 111.097656 C 256.378906 109.285156 256.886719 109.042969 257.207031 109.042969 C 257.527344 108.992188 257.925781 109.175781 258.167969 109.445312 C 258.539062 109.816406 258.832031 110.109375 258.085938 111.335938 C 258.113281 111.335938 258.140625 111.28125 258.191406 111.253906 C 258.191406 111.253906 258.191406 111.253906 258.191406 111.230469 C 258.832031 110.722656 259.019531 110.722656 259.207031 110.722656 C 259.550781 110.722656 259.898438 110.855469 260.164062 111.121094 C 260.644531 111.601562 260.886719 111.839844 259.820312 113.148438 L 259.820312 113.199219 C 259.820312 113.199219 259.738281 113.28125 259.632812 113.359375 C 258.460938 114.800781 255.980469 117.328125 251.15625 122.257812 C 245.988281 127.558594 238.871094 134.859375 230.554688 143.359375 C 260.75 113.039062 260.992188 113.039062 261.710938 113.039062 C 262.058594 113.039062 262.402344 113.171875 262.644531 113.441406 C 262.9375 113.734375 263.175781 113.972656 262.855469 114.640625 C 263.015625 114.585938 263.230469 114.585938 263.175781 114.585938 C 263.523438 114.585938 263.871094 114.71875 264.136719 114.984375 C 264.863281 115.714844 260.078125 121.386719 249.769531 132.007812 C 242.253906 139.761719 232.339844 149.9375 221.28125 161.289062 C 260.03125 122.230469 264.910156 117.863281 266.054688 117.863281 C 266.402344 117.863281 266.773438 118.023438 267.015625 118.261719 C 267.796875 119.042969 261.144531 126.714844 247.050781 141.28125 C 244.199219 144.238281 241.082031 147.433594 237.804688 150.816406 C 258.433594 130.25 264.960938 123.964844 267.203125 122.046875 C 267.28125 121.9375 267.335938 121.886719 267.363281 121.832031 L 267.414062 121.832031 C 268.214844 121.191406 268.347656 121.191406 268.480469 121.191406 C 268.828125 121.191406 269.171875 121.324219 269.414062 121.59375 C 269.867188 122.046875 270.105469 122.285156 269.148438 123.617188 L 269.148438 123.671875 C 269.148438 123.671875 269.09375 123.75 269.015625 123.804688 C 267.972656 125.164062 265.789062 127.507812 261.496094 131.984375 C 265.894531 127.558594 267.949219 125.5625 268.960938 124.65625 C 269.785156 123.9375 269.921875 123.988281 270.105469 123.9375 C 270.453125 123.9375 270.800781 124.070312 271.039062 124.335938 C 271.464844 124.761719 271.757812 125.054688 270.878906 126.28125 L 270.90625 126.28125 C 270.90625 126.28125 270.828125 126.386719 270.746094 126.46875 C 269.039062 128.785156 263.738281 134.195312 249.503906 148.605469 C 236.363281 161.929688 218.695312 179.722656 200.757812 197.789062 C 193.296875 205.300781 185.59375 213.054688 178.105469 220.59375 C 178.289062 220.886719 178.265625 221.230469 177.625 222.191406 L 177.730469 222.324219 C 177.730469 222.324219 177.410156 222.617188 177.089844 222.9375 C 175.066406 225.601562 169.816406 231.410156 157.34375 245.234375 C 157.261719 245.316406 157.183594 245.421875 157.101562 245.503906 C 172.535156 229.96875 172.613281 229.96875 173.226562 229.96875 C 173.574219 229.96875 173.917969 230.101562 174.160156 230.371094 C 174.53125 230.742188 174.773438 230.984375 173.917969 232.234375 L 174.027344 232.367188 C 174.027344 232.367188 173.734375 232.632812 173.414062 232.925781 C 172.292969 234.417969 170.136719 236.898438 166.21875 241.265625 C 169.175781 238.335938 170.613281 236.949219 171.414062 236.257812 C 171.414062 236.257812 171.414062 236.257812 171.441406 236.230469 C 172.132812 235.644531 172.292969 235.644531 172.507812 235.644531 C 172.851562 235.644531 173.199219 235.777344 173.464844 236.042969 C 173.945312 236.523438 174.1875 236.765625 173.253906 238.015625 L 173.253906 238.070312 C 173.253906 238.070312 173.148438 238.175781 173.039062 238.28125 C 172.960938 238.390625 172.851562 238.523438 172.746094 238.65625 C 172.988281 238.65625 173.171875 238.84375 173.386719 239.054688 C 173.894531 239.5625 174.132812 239.800781 173.28125 240.972656 L 173.28125 241.027344 C 173.28125 241.027344 173.199219 241.160156 173.039062 241.292969 C 172.242188 242.332031 170.722656 244.011719 168.109375 246.914062 C 167.816406 247.234375 167.550781 247.554688 167.230469 247.875 C 168.003906 247.101562 168.777344 246.300781 169.574219 245.476562 C 171.28125 243.753906 172.320312 242.890625 172.695312 242.890625 C 173.039062 242.890625 173.386719 243.023438 173.625 243.292969 C 174 243.664062 174.238281 243.902344 173.464844 245.050781 L 173.601562 245.183594 C 173.601562 245.183594 173.199219 245.582031 172.613281 246.195312 C 172.535156 246.300781 172.425781 246.40625 172.347656 246.542969 C 174.1875 244.808594 174.371094 244.808594 174.71875 244.808594 C 175.066406 244.808594 175.410156 244.941406 175.652344 245.210938 C 176.273438 245.832031 174.363281 248.734375 169.921875 253.921875 C 166.988281 257.332031 163.230469 261.671875 159.394531 266.148438 C 175.863281 249.683594 199.160156 226.1875 219.574219 205.621094 C 260.75 164.113281 271.171875 153.617188 274.183594 150.976562 C 274.398438 150.765625 274.53125 150.605469 274.585938 150.550781 L 274.636719 150.605469 C 275.277344 150.070312 275.410156 150.070312 275.625 150.070312 C 275.96875 150.070312 276.316406 150.207031 276.554688 150.445312 C 277.089844 150.976562 277.328125 151.191406 276.34375 152.417969 L 276.34375 152.46875 C 276.34375 152.46875 276.210938 152.628906 276.050781 152.761719 C 275.171875 153.800781 273.542969 155.453125 270.851562 158.199219 L 255.6875 173.675781 C 252.808594 176.605469 249.609375 179.882812 246.171875 183.402344 C 274.210938 155.292969 274.371094 155.292969 274.984375 155.292969 C 275.332031 155.292969 275.675781 155.425781 275.917969 155.695312 C 276.316406 156.09375 276.582031 156.359375 275.730469 157.636719 L 275.730469 157.691406 C 275.730469 157.691406 275.675781 157.773438 275.570312 157.878906 C 275.25 158.304688 274.824219 158.863281 274.265625 159.53125 C 274.53125 159.582031 274.769531 159.714844 274.957031 159.902344 C 275.515625 160.460938 275.835938 160.78125 272.238281 164.832031 C 272.585938 164.777344 272.773438 164.964844 273.039062 165.203125 C 273.542969 165.710938 273.8125 165.976562 272.984375 167.070312 L 273.039062 167.121094 C 273.039062 167.121094 272.851562 167.308594 272.636719 167.523438 C 271.625 168.773438 269.574219 170.90625 265.816406 174.769531 C 262.109375 178.605469 257.179688 183.667969 251.421875 189.582031 C 251.53125 189.636719 251.636719 189.714844 251.714844 189.792969 C 252.089844 190.167969 252.355469 190.433594 251.476562 191.738281 L 251.53125 191.820312 C 251.53125 191.820312 251.371094 191.953125 251.210938 192.113281 C 251.078125 192.300781 250.917969 192.511719 250.730469 192.753906 C 252.488281 191.179688 252.675781 191.074219 252.996094 191.207031 C 253.34375 191.207031 253.6875 191.339844 253.957031 191.605469 C 254.683594 192.335938 250.730469 197.191406 242.09375 206.179688 C 241.054688 207.273438 239.9375 208.417969 238.789062 209.617188 C 254.835938 193.472656 255.046875 193.550781 255.820312 193.496094 C 256.167969 193.496094 256.515625 193.632812 256.78125 193.898438 C 257.179688 194.296875 257.445312 194.5625 256.859375 195.523438 C 257.421875 195.042969 257.582031 195.070312 257.738281 195.042969 C 258.085938 195.042969 258.433594 195.175781 258.671875 195.441406 C 259.046875 195.816406 259.3125 196.109375 258.566406 197.308594 L 258.644531 197.386719 C 258.644531 197.386719 258.484375 197.546875 258.300781 197.734375 C 258.21875 197.867188 258.113281 198 258.007812 198.160156 C 259.472656 196.855469 259.6875 196.855469 259.953125 196.855469 C 260.296875 196.855469 260.644531 196.988281 260.910156 197.253906 C 261.621094 197.964844 257.828125 202.652344 249.53125 211.320312 C 246.464844 214.519531 242.921875 218.195312 239.058594 222.21875 C 254.355469 206.738281 259.417969 201.625 261.339844 199.972656 C 261.550781 199.757812 261.683594 199.625 261.710938 199.574219 L 261.765625 199.574219 C 262.351562 199.121094 262.484375 199.121094 262.699219 199.144531 C 263.417969 199.144531 264.003906 199.730469 264.03125 200.453125 C 264.03125 200.691406 264.03125 200.824219 263.417969 201.542969 C 263.417969 201.542969 263.285156 201.675781 263.203125 201.757812 C 262.722656 202.316406 261.925781 203.140625 260.699219 204.449219 C 264.164062 201.0625 264.402344 201.0625 264.804688 201.0625 C 265.148438 201.0625 265.496094 201.199219 265.734375 201.464844 C 266.082031 201.808594 266.347656 202.078125 265.46875 203.410156 L 265.523438 203.488281 C 265.523438 203.488281 265.363281 203.621094 265.203125 203.753906 C 263.628906 205.964844 259.472656 210.574219 249.53125 221.125 C 266.5625 204.101562 267.015625 204.101562 267.707031 204.101562 C 268.054688 204.101562 268.425781 204.234375 268.667969 204.5 C 269.289062 205.121094 267.363281 207.777344 262.882812 212.464844 C 244.652344 231.59375 229.355469 247.714844 217.015625 260.769531 C 230.449219 247.261719 244.46875 233.085938 254.222656 223.230469 C 264.617188 212.734375 270.007812 207.484375 270.398438 207.484375 C 270.746094 207.484375 271.09375 207.617188 271.332031 207.882812 C 271.707031 208.230469 271.945312 208.496094 271.171875 209.722656 L 271.253906 209.828125 C 271.253906 209.828125 271.011719 210.042969 270.746094 210.335938 C 268.828125 212.972656 263.308594 218.992188 249.15625 233.941406 C 271.757812 211.027344 271.945312 211.027344 272.746094 211.027344 C 273.089844 211.027344 273.4375 211.160156 273.703125 211.429688 C 274.132812 211.855469 274.398438 212.121094 273.4375 213.503906 C 272.636719 214.625 271.011719 216.464844 268 219.738281 C 270.480469 217.261719 271.890625 215.824219 272.773438 215.023438 C 273.039062 214.730469 273.226562 214.542969 273.277344 214.464844 L 273.332031 214.519531 C 273.996094 213.933594 274.15625 213.933594 274.34375 213.933594 C 274.691406 213.933594 275.039062 214.066406 275.277344 214.332031 C 275.703125 214.757812 275.941406 214.996094 275.117188 216.144531 L 275.222656 216.25 C 275.222656 216.25 274.796875 216.648438 274.238281 217.210938 C 274.050781 217.421875 273.863281 217.660156 273.625 217.902344 C 275.089844 216.621094 275.332031 216.621094 275.597656 216.597656 C 275.941406 216.597656 276.289062 216.730469 276.554688 216.996094 C 277.179688 217.617188 275.214844 220.335938 270.667969 225.148438 L 259.527344 236.898438 C 276.183594 220.167969 276.371094 220.167969 277.007812 220.167969 C 277.355469 220.167969 277.703125 220.300781 277.941406 220.566406 C 278.34375 220.964844 278.609375 221.230469 277.703125 222.539062 L 277.753906 222.589844 C 277.753906 222.589844 277.648438 222.695312 277.542969 222.777344 C 276.078125 224.800781 272.160156 229.039062 263.015625 238.816406 C 272.027344 229.808594 275.515625 226.398438 277.007812 225.09375 C 277.089844 225.015625 277.144531 224.933594 277.167969 224.910156 L 277.195312 224.910156 C 277.941406 224.296875 278.074219 224.296875 278.261719 224.296875 C 278.609375 224.296875 278.953125 224.429688 279.195312 224.695312 C 279.675781 225.175781 279.914062 225.441406 279.035156 226.667969 C 279.035156 226.667969 278.953125 226.773438 278.875 226.828125 C 277.914062 228.105469 275.835938 230.316406 271.890625 234.605469 C 267.335938 239.507812 261.070312 246.25 254.222656 253.601562 C 252.863281 255.066406 251.476562 256.558594 250.039062 258.078125 C 278.316406 229.4375 278.449219 229.4375 279.300781 229.4375 C 279.621094 229.542969 279.996094 229.570312 280.261719 229.835938 C 280.765625 230.34375 281.007812 230.609375 279.996094 231.914062 C 279.96875 231.96875 279.914062 231.996094 279.886719 232.046875 C 280.15625 232.101562 280.394531 232.234375 280.582031 232.421875 C 281.058594 232.902344 281.328125 233.167969 280.367188 234.417969 C 280.367188 234.417969 280.3125 234.5 280.261719 234.527344 C 279.726562 235.246094 278.820312 236.257812 277.4375 237.777344 C 279.460938 235.804688 279.621094 235.777344 279.914062 235.804688 C 280.261719 235.804688 280.609375 235.9375 280.847656 236.203125 C 281.195312 236.550781 281.460938 236.816406 280.714844 238.015625 L 280.820312 238.121094 C 280.820312 238.121094 280.605469 238.335938 280.3125 238.628906 C 278.796875 240.761719 275.039062 245.074219 266.457031 254.453125 C 279.0625 241.746094 279.195312 241.746094 279.835938 241.746094 C 280.179688 241.746094 280.527344 241.878906 280.765625 242.144531 C 281.140625 242.519531 281.378906 242.757812 280.5 244.0625 L 280.582031 244.171875 C 280.582031 244.171875 280.339844 244.355469 280.128906 244.570312 C 278.394531 246.914062 273.917969 251.976562 263.390625 263.644531 C 278.046875 248.777344 278.234375 248.777344 278.980469 248.777344 C 279.328125 248.777344 279.675781 248.914062 279.941406 249.179688 C 280.339844 249.578125 280.554688 249.816406 279.621094 251.148438 L 279.675781 251.257812 C 279.675781 251.257812 279.460938 251.417969 279.273438 251.601562 C 277.941406 253.363281 274.984375 256.636719 269.066406 263.191406 C 273.359375 258.851562 275.304688 256.929688 276.289062 256.050781 C 276.34375 255.972656 276.394531 255.945312 276.394531 255.917969 C 277.0625 255.359375 277.222656 255.359375 277.4375 255.359375 C 277.78125 255.359375 278.128906 255.492188 278.367188 255.757812 C 278.820312 256.210938 279.035156 256.425781 278.183594 257.675781 L 278.234375 257.757812 C 278.234375 257.757812 278.074219 257.917969 277.914062 258.078125 C 276.957031 259.410156 275.035156 261.671875 271.519531 265.828125 C 269.652344 268.042969 267.414062 270.679688 265.070312 273.476562 C 268.480469 270.039062 270.480469 268.042969 271.707031 266.949219 C 271.972656 266.628906 272.132812 266.414062 272.183594 266.363281 L 272.292969 266.441406 C 273.464844 265.511719 273.703125 265.75 274.183594 266.203125 C 274.71875 266.761719 274.902344 266.976562 274.078125 268.121094 L 274.105469 268.121094 C 274.105469 268.121094 274.023438 268.253906 273.917969 268.335938 C 273.359375 269.082031 272.453125 270.171875 271.011719 271.878906 C 270 273.078125 268.640625 274.703125 267.175781 276.433594 L 267.175781 276.914062 C 267.175781 276.914062 266.242188 277.84375 266.242188 277.84375 L 267.175781 276.914062 L 268.054688 277.925781 C 267.789062 278.164062 265.976562 280.003906 263.871094 282.132812 C 259.980469 286.078125 257.898438 288.183594 256.699219 289.195312 C 256.699219 289.195312 256.675781 289.246094 256.648438 289.246094 C 255.339844 290.3125 255.101562 290.074219 254.570312 289.566406 C 254.167969 289.167969 253.957031 288.929688 254.703125 287.730469 C 249.726562 292.738281 247.007812 295.222656 246.546875 295.1875 C 246.199219 295.1875 245.851562 295.054688 245.585938 294.789062 C 245.214844 294.417969 244.972656 294.175781 245.828125 292.816406 L 245.773438 292.765625 C 245.773438 292.765625 245.878906 292.683594 245.960938 292.605469 C 247.078125 290.898438 249.746094 287.570312 255.527344 280.667969 C 237.40625 299 237.21875 299 236.472656 299 C 236.125 299 235.777344 298.867188 235.511719 298.597656 C 235.140625 298.226562 234.898438 297.984375 235.832031 296.628906 L 235.777344 296.519531 C 235.777344 296.519531 235.9375 296.386719 236.097656 296.253906 C 237.109375 294.871094 239.109375 292.472656 242.894531 288.234375 C 230.527344 300.757812 230.394531 300.757812 229.675781 300.757812 C 229.328125 300.757812 228.984375 300.625 228.714844 300.355469 C 228.34375 299.984375 228.101562 299.746094 229.007812 298.386719 L 228.957031 298.277344 C 228.957031 298.277344 229.140625 298.121094 229.300781 297.984375 C 231.035156 295.613281 235.617188 290.445312 246.679688 278.164062 C 222.90625 302.195312 222.773438 302.195312 221.972656 302.195312 C 221.625 302.195312 221.28125 302.0625 221.039062 301.796875 C 220.640625 301.394531 220.402344 301.183594 221.359375 299.851562 L 221.28125 299.71875 C 221.28125 299.71875 221.574219 299.476562 221.839844 299.238281 C 223.464844 297.1875 227.171875 293.164062 234.925781 284.746094 C 237.164062 282.320312 239.667969 279.601562 242.335938 276.699219 C 223.8125 295.296875 218.269531 300.785156 216.347656 302.410156 C 215.578125 303.074219 215.46875 303.15625 215.230469 303.074219 C 214.882812 303.074219 214.535156 302.941406 214.296875 302.675781 C 213.84375 302.222656 213.578125 301.957031 214.484375 300.675781 C 214.484375 300.675781 214.535156 300.597656 214.589844 300.542969 C 214.832031 300.199219 215.175781 299.796875 215.601562 299.316406 C 214.003906 300.890625 212.992188 301.847656 212.324219 302.460938 C 211.976562 302.808594 211.792969 303.019531 211.765625 303.046875 L 211.710938 302.996094 C 211.125 303.472656 210.914062 303.472656 210.777344 303.472656 C 210.167969 303.472656 209.660156 303.074219 209.5 302.515625 C 208.167969 303.714844 207.953125 303.742188 207.660156 303.714844 C 207.3125 303.714844 206.96875 303.582031 206.703125 303.316406 C 206.328125 302.941406 206.0625 302.675781 206.996094 301.289062 L 206.996094 301.238281 C 206.996094 301.238281 207.046875 301.183594 207.101562 301.128906 C 208.914062 298.519531 214.644531 292.179688 230.367188 275.234375 C 229.277344 276.328125 228.210938 277.390625 227.171875 278.457031 C 211.5 294.203125 205.503906 300.199219 203.078125 302.515625 C 202.597656 303.019531 202.304688 303.339844 202.222656 303.421875 L 202.144531 303.339844 C 201.476562 303.925781 201.371094 303.925781 201.183594 303.902344 C 200.839844 303.902344 200.492188 303.765625 200.25 303.5 C 199.746094 302.996094 199.503906 302.753906 200.386719 301.609375 L 200.332031 301.554688 C 200.332031 301.554688 200.570312 301.34375 200.839844 301.050781 C 201.664062 300.0625 203.050781 298.597656 205.261719 296.253906 L 218.054688 282.667969 C 220.1875 280.402344 222.507812 277.925781 224.984375 275.3125 C 204.78125 295.667969 198.917969 301.53125 196.945312 303.234375 C 196.175781 303.902344 196.015625 303.902344 195.828125 303.902344 Z M 196.148438 303.847656 " fill-opacity="1" fill-rule="nonzero"/><path fill="#000000" d="M 123.066406 170.800781 C 122.722656 170.800781 122.375 170.667969 122.109375 170.398438 C 121.867188 170.160156 121.734375 169.839844 121.707031 169.492188 C 121.707031 168.960938 121.707031 168.933594 125.171875 165.363281 C 123.628906 166.882812 122.667969 167.761719 122.054688 168.269531 C 121.894531 168.429688 121.789062 168.535156 121.761719 168.5625 L 121.734375 168.5625 C 121.148438 168.988281 120.988281 168.988281 120.800781 168.988281 C 120.457031 168.988281 120.109375 168.855469 119.84375 168.589844 C 119.523438 168.269531 119.335938 168.082031 119.363281 167.761719 C 119.363281 167.761719 119.308594 167.761719 119.308594 167.761719 C 118.964844 167.761719 118.617188 167.628906 118.351562 167.363281 C 117.621094 166.632812 121.671875 161.589844 130.503906 152.230469 C 132.34375 150.285156 134.339844 148.179688 136.445312 145.941406 C 123.199219 159.261719 118.964844 163.417969 117.363281 164.699219 C 117.285156 164.777344 117.230469 164.832031 117.203125 164.859375 C 116.617188 165.285156 116.566406 165.203125 116.246094 165.285156 C 115.898438 165.285156 115.550781 165.152344 115.285156 164.886719 C 114.886719 164.351562 114.671875 164.085938 115.605469 162.886719 L 115.550781 162.808594 C 115.550781 162.808594 115.765625 162.648438 115.925781 162.488281 C 116.246094 162.113281 116.671875 161.632812 117.175781 161.074219 C 116.351562 161.902344 115.765625 162.433594 115.339844 162.808594 C 115.257812 162.886719 115.207031 162.964844 115.179688 162.992188 L 115.152344 162.992188 C 114.484375 163.554688 114.351562 163.605469 114.113281 163.527344 C 113.765625 163.527344 113.417969 163.394531 113.179688 163.125 C 112.726562 162.671875 112.488281 162.433594 113.394531 161.183594 L 113.339844 161.101562 C 113.339844 161.101562 113.554688 160.914062 113.738281 160.730469 C 114.886719 159.289062 117.257812 156.8125 121.65625 152.125 C 126.933594 146.527344 134.179688 138.855469 142.097656 130.492188 C 142.871094 129.691406 143.644531 128.867188 144.414062 128.039062 C 135.488281 137.042969 127.304688 145.332031 121.707031 150.953125 C 116.003906 156.734375 113.578125 159.15625 112.433594 160.195312 C 112.40625 160.222656 112.378906 160.277344 112.351562 160.300781 C 111.605469 160.96875 111.449219 160.96875 111.234375 160.96875 C 110.886719 160.96875 110.542969 160.835938 110.300781 160.570312 C 109.953125 160.222656 109.714844 159.984375 109.929688 159.421875 C 109.394531 159.664062 109.183594 159.449219 108.863281 159.15625 C 108.4375 158.730469 108.167969 158.464844 108.96875 157.320312 L 108.890625 157.210938 C 108.890625 157.210938 109.183594 156.917969 109.554688 156.546875 C 111.046875 154.679688 114.378906 151.164062 121.09375 144.050781 C 121.976562 143.117188 122.90625 142.132812 123.867188 141.121094 C 114.085938 150.953125 110.355469 154.65625 108.78125 156.039062 C 108.648438 156.171875 108.570312 156.28125 108.542969 156.332031 L 108.488281 156.332031 C 107.796875 156.890625 107.664062 156.890625 107.476562 156.890625 C 107.128906 156.890625 106.78125 156.757812 106.542969 156.492188 C 106.035156 155.988281 105.824219 155.746094 106.730469 154.519531 L 106.730469 154.46875 C 106.730469 154.46875 106.835938 154.363281 106.941406 154.226562 C 107.847656 153.082031 109.636719 151.164062 112.78125 147.78125 C 116.699219 143.570312 122.1875 137.683594 128.34375 131.078125 C 130.851562 128.386719 133.515625 125.535156 136.234375 122.605469 C 105.984375 153.109375 105.742188 153.109375 104.917969 153.109375 C 104.570312 153.109375 104.222656 152.976562 103.957031 152.710938 C 103.453125 152.203125 103.210938 151.992188 104.25 150.660156 C 104.25 150.660156 104.277344 150.605469 104.304688 150.605469 C 105.238281 149.40625 107.210938 147.328125 110.859375 143.4375 C 114.753906 139.28125 120.003906 133.714844 125.839844 127.507812 C 111.875 141.625 106.730469 146.769531 104.675781 148.660156 C 104.277344 149.058594 104.066406 149.300781 104.011719 149.328125 L 103.957031 149.273438 C 103.371094 149.753906 103.265625 149.859375 103.050781 149.753906 C 102.707031 149.753906 102.359375 149.621094 102.117188 149.351562 C 101.558594 148.792969 101.347656 148.582031 101.984375 147.726562 C 101.691406 147.699219 101.398438 147.566406 101.1875 147.355469 C 100.785156 146.929688 100.546875 146.714844 101.453125 145.464844 L 101.371094 145.328125 C 101.371094 145.328125 101.71875 145.035156 102.066406 144.691406 C 103.613281 142.824219 106.835938 139.335938 113.234375 132.515625 L 113.285156 132.460938 C 101.585938 144.265625 101.453125 144.265625 100.867188 144.265625 C 100.546875 144.398438 100.171875 144.132812 99.90625 143.863281 C 99.558594 143.519531 99.292969 143.253906 100.148438 141.945312 L 100.066406 141.839844 C 100.066406 141.839844 100.28125 141.652344 100.464844 141.46875 C 101.480469 140.082031 103.476562 137.738281 107.183594 133.660156 C 103.796875 137.019531 102.066406 138.722656 101.105469 139.601562 C 101 139.734375 100.917969 139.816406 100.894531 139.867188 L 100.839844 139.867188 C 100.09375 140.480469 99.960938 140.507812 99.773438 140.480469 C 99.425781 140.480469 99.082031 140.347656 98.839844 140.082031 C 98.335938 139.574219 98.09375 139.335938 98.972656 138.136719 C 98.972656 138.136719 99.054688 138.03125 99.105469 137.976562 C 99.988281 136.832031 101.824219 134.832031 105.289062 131.128906 C 106.730469 129.585938 108.355469 127.828125 110.140625 125.933594 C 99.960938 136.140625 99.640625 136.140625 99.027344 136.140625 C 98.679688 136.140625 98.335938 136.003906 98.066406 135.738281 C 97.695312 135.367188 97.429688 135.101562 98.414062 133.742188 L 98.359375 133.660156 C 98.359375 133.660156 98.496094 133.554688 98.601562 133.472656 C 98.679688 133.367188 98.789062 133.234375 98.867188 133.128906 C 98.8125 133.128906 98.761719 133.128906 98.679688 133.128906 C 98.335938 133.128906 97.988281 132.996094 97.722656 132.730469 C 97.296875 132.300781 97.054688 132.0625 97.933594 130.785156 L 97.882812 130.730469 C 97.882812 130.730469 98.015625 130.597656 98.148438 130.492188 C 98.839844 129.558594 100.066406 128.121094 102.09375 125.882812 C 101.078125 126.867188 100.359375 127.585938 99.800781 128.066406 C 99.71875 128.171875 99.667969 128.226562 99.640625 128.28125 L 99.585938 128.28125 C 98.359375 129.292969 98.121094 129.050781 97.589844 128.492188 C 97.1875 128.09375 96.949219 127.851562 97.773438 126.679688 L 97.667969 126.546875 C 97.667969 126.546875 98.015625 126.226562 98.441406 125.800781 C 98.972656 125.109375 99.746094 124.230469 100.785156 123.03125 C 99.320312 124.335938 99.105469 124.335938 98.789062 124.335938 C 98.441406 124.335938 98.09375 124.203125 97.828125 123.9375 C 97.1875 123.296875 99.597656 119.84375 105.050781 113.574219 C 106.835938 111.523438 108.835938 109.230469 110.941406 106.804688 L 108.808594 108.9375 C 105.050781 112.722656 102.890625 114.851562 101.613281 115.996094 C 101.292969 116.34375 101.132812 116.558594 101.078125 116.609375 L 100.972656 116.53125 C 99.828125 117.4375 99.585938 117.195312 99.105469 116.71875 C 98.65625 116.183594 98.46875 115.945312 99.242188 114.824219 L 99.1875 114.746094 C 99.1875 114.746094 99.375 114.585938 99.558594 114.398438 C 100.28125 113.464844 101.507812 112.054688 103.503906 109.738281 C 104.144531 108.992188 104.890625 108.136719 105.664062 107.234375 C 105.050781 107.871094 104.410156 108.511719 103.773438 109.152344 C 103.425781 109.496094 103.160156 109.789062 102.597656 109.789062 C 102.253906 109.789062 101.90625 109.65625 101.640625 109.390625 C 101.238281 108.964844 101 108.75 101.746094 107.605469 L 101.640625 107.5 L 101.851562 107.285156 C 101.851562 107.285156 102.09375 107.046875 102.199219 106.941406 C 103.078125 105.742188 104.652344 103.824219 107.34375 100.625 L 107.34375 100.253906 C 107.34375 100.253906 108.277344 99.320312 108.277344 99.320312 L 107.34375 100.253906 L 106.488281 99.238281 C 106.757812 99 109.074219 96.65625 111.3125 94.390625 C 118.964844 86.664062 118.882812 86.640625 119.601562 86.664062 C 119.949219 86.664062 120.296875 86.796875 120.535156 87.066406 C 120.828125 87.359375 121.042969 87.570312 120.800781 88.15625 C 128.15625 80.804688 128.371094 80.804688 128.90625 80.804688 C 129.117188 80.832031 129.597656 80.9375 129.863281 81.203125 C 130.289062 81.628906 130.53125 81.871094 129.625 83.175781 L 129.675781 83.230469 C 129.675781 83.230469 129.570312 83.335938 129.464844 83.414062 C 128.636719 84.5625 127.039062 86.480469 124.214844 89.753906 C 131.515625 82.429688 134.582031 79.367188 135.96875 78.085938 C 136.101562 77.925781 136.179688 77.820312 136.234375 77.765625 L 136.285156 77.765625 C 137.007812 77.179688 137.113281 77.15625 137.351562 77.179688 C 137.699219 77.179688 138.046875 77.3125 138.285156 77.582031 C 138.792969 78.085938 139.003906 78.300781 138.207031 79.472656 L 138.207031 79.527344 C 138.207031 79.527344 138.125 79.632812 137.992188 79.765625 C 137.246094 80.75 135.886719 82.324219 133.570312 84.988281 C 130.664062 88.34375 126.691406 92.871094 122.507812 97.667969 C 125.757812 94.363281 128.90625 91.167969 131.648438 88.398438 C 139.566406 80.378906 142.816406 77.074219 144.28125 75.714844 C 144.550781 75.421875 144.707031 75.261719 144.734375 75.210938 L 144.789062 75.261719 C 145.375 74.757812 145.535156 74.757812 145.75 74.757812 C 146.015625 74.835938 146.441406 74.890625 146.707031 75.15625 C 147.1875 75.636719 147.402344 75.847656 146.519531 77.046875 L 146.601562 77.15625 C 146.601562 77.15625 146.308594 77.449219 145.960938 77.792969 C 144.976562 78.964844 143.296875 80.777344 140.550781 83.789062 C 140.445312 83.921875 140.3125 84.054688 140.203125 84.1875 C 141.246094 83.148438 142.230469 82.164062 143.136719 81.257812 L 150.171875 74.222656 C 150.707031 73.691406 151.664062 73.585938 152.199219 74.089844 C 152.597656 74.488281 152.835938 74.730469 152.039062 75.847656 L 152.171875 76.007812 C 152.171875 76.007812 151.636719 76.542969 150.839844 77.339844 C 149.90625 78.40625 148.546875 79.898438 146.574219 82.03125 C 155.636719 72.945312 155.824219 72.945312 156.382812 72.945312 C 156.730469 72.945312 157.074219 73.078125 157.316406 73.34375 C 157.636719 73.664062 157.847656 73.878906 157.742188 74.277344 C 159.554688 72.546875 159.742188 72.546875 160.085938 72.546875 C 160.433594 72.546875 160.78125 72.679688 161.019531 72.945312 C 161.394531 73.316406 161.660156 73.585938 160.78125 74.917969 L 160.78125 74.96875 C 160.78125 74.96875 160.699219 75.050781 160.621094 75.128906 C 159.554688 76.675781 157.128906 79.472656 152.089844 84.960938 C 159.421875 77.632812 162.59375 74.488281 164.085938 73.15625 C 164.324219 72.890625 164.484375 72.707031 164.539062 72.652344 L 164.589844 72.707031 C 165.230469 72.171875 165.417969 72.171875 165.578125 72.171875 C 165.925781 72.171875 166.242188 72.304688 166.511719 72.546875 C 166.9375 72.972656 167.175781 73.183594 166.269531 74.410156 L 166.378906 74.570312 C 166.378906 74.570312 165.925781 74.96875 165.445312 75.449219 C 163.976562 77.179688 161.179688 80.136719 156.167969 85.464844 C 169.574219 72.039062 169.894531 72.039062 170.535156 72.011719 C 170.882812 72.011719 171.226562 72.144531 171.496094 72.414062 C 171.949219 72.863281 172.1875 73.105469 171.175781 74.4375 L 171.175781 74.488281 C 171.175781 74.488281 171.09375 74.570312 170.988281 74.648438 C 169.894531 76.035156 167.65625 78.433594 163.367188 83.015625 C 174.371094 72.039062 174.691406 72.039062 175.277344 72.039062 C 175.519531 72.039062 175.972656 72.171875 176.238281 72.4375 C 176.425781 72.625 176.585938 72.785156 176.585938 73.078125 C 177.675781 72.117188 177.890625 72.117188 178.128906 72.117188 C 178.476562 72.117188 178.824219 72.253906 179.089844 72.519531 C 179.515625 72.945312 179.78125 73.210938 178.796875 74.570312 C 178.796875 74.570312 178.742188 74.625 178.71875 74.648438 C 177.222656 76.675781 173.171875 81.015625 163.417969 91.460938 C 182.339844 72.359375 182.449219 72.332031 183.140625 72.332031 C 183.433594 72.253906 183.835938 72.464844 184.101562 72.730469 C 184.527344 73.15625 184.792969 73.425781 183.914062 74.730469 C 183.914062 74.730469 183.886719 74.785156 183.859375 74.808594 C 182.339844 76.996094 177.730469 81.976562 165.789062 94.871094 C 164.113281 96.683594 162.378906 98.574219 160.566406 100.492188 C 188.097656 72.8125 188.230469 72.8125 188.976562 72.8125 C 189.324219 72.8125 189.671875 72.945312 189.910156 73.210938 C 190.363281 73.664062 190.605469 73.902344 189.671875 75.183594 L 189.671875 75.234375 C 189.671875 75.234375 189.589844 75.34375 189.484375 75.449219 C 188.472656 76.78125 186.339844 79.097656 182.289062 83.414062 C 192.523438 73.34375 192.949219 73.34375 193.457031 73.34375 C 193.800781 73.34375 194.148438 73.476562 194.414062 73.746094 C 194.601562 73.929688 194.761719 74.089844 194.789062 74.355469 C 195.585938 73.691406 195.667969 73.636719 195.960938 73.691406 C 196.308594 73.691406 196.652344 73.824219 196.921875 74.089844 C 197.347656 74.515625 197.613281 74.785156 196.601562 76.140625 C 196.601562 76.140625 196.546875 76.222656 196.519531 76.25 C 195.242188 77.980469 192.070312 81.445312 185.035156 88.957031 C 199.503906 74.515625 199.90625 74.515625 200.570312 74.515625 C 200.917969 74.515625 201.292969 74.648438 201.53125 74.917969 C 202.011719 75.394531 202.25 75.636719 201.183594 77.019531 C 201.078125 77.15625 200.945312 77.3125 200.8125 77.5 C 203.238281 75.183594 203.449219 75.183594 203.796875 75.183594 C 204.144531 75.183594 204.488281 75.316406 204.757812 75.582031 C 205.503906 76.328125 200.882812 82.003906 190.898438 92.605469 C 189.351562 94.257812 187.699219 96.015625 185.964844 97.828125 C 207.234375 76.300781 207.421875 76.300781 208.195312 76.300781 C 208.539062 76.300781 208.886719 76.433594 209.152344 76.703125 C 209.339844 76.886719 209.472656 77.019531 209.527344 77.261719 C 209.980469 76.914062 210.140625 76.914062 210.300781 76.914062 C 210.644531 76.914062 210.992188 77.046875 211.257812 77.3125 C 211.765625 77.820312 212.113281 78.167969 209.980469 80.777344 C 212.886719 77.925781 213.042969 77.925781 213.363281 77.925781 L 213.363281 79.257812 C 213.363281 79.257812 212.433594 80.191406 212.433594 80.191406 L 213.363281 79.257812 L 214.21875 80.269531 C 213.65625 80.777344 204.4375 90.074219 192.734375 101.851562 C 139.777344 155.242188 127.652344 167.28125 124.425781 170 C 124.214844 170.214844 124.105469 170.320312 124.082031 170.375 L 124.027344 170.320312 C 123.441406 170.800781 123.28125 170.800781 123.09375 170.800781 Z M 123.066406 170.800781 " fill-opacity="1" fill-rule="nonzero"/><path fill="#000000" d="M 176.71875 153.214844 C 176.71875 153.402344 176.71875 153.507812 176.71875 153.507812 C 178.128906 153.296875 179.570312 152.976562 180.980469 152.601562 C 180.980469 152.683594 180.929688 152.738281 180.929688 152.816406 C 180.210938 155.480469 180.449219 158.703125 180.664062 161.421875 C 180.664062 161.421875 183.753906 160.753906 183.753906 160.753906 C 192.789062 159.34375 197.347656 151.164062 201.078125 143.757812 C 203.421875 139.683594 203.691406 136.40625 203.636719 132.195312 L 200.679688 132.808594 C 199.425781 133.046875 198.304688 133.527344 197.238281 134.140625 C 197.800781 131.183594 197.878906 128.171875 197.398438 125.324219 C 196.359375 125.617188 195.347656 126.042969 194.363281 126.46875 C 194.574219 124.816406 194.601562 123.136719 194.546875 121.300781 L 191.617188 121.964844 C 187.964844 122.683594 185.300781 125.535156 182.820312 128.144531 C 179.890625 130.011719 177.703125 133.15625 175.4375 135.578125 C 172.132812 139.121094 167.894531 143.039062 167.417969 148.179688 C 166.882812 150.871094 167.363281 154.070312 167.734375 156.785156 C 167.734375 156.785156 170.773438 155.90625 170.773438 155.90625 C 173.039062 155.375 174.984375 154.441406 176.691406 153.214844 Z M 186.710938 138.804688 C 186.578125 138.9375 186.417969 139.015625 186.285156 139.121094 C 186.472656 138.667969 186.6875 138.214844 186.871094 137.765625 C 188.125 135.179688 188.632812 132.941406 188.765625 130.625 C 189.136719 130.382812 189.539062 130.144531 189.9375 129.929688 C 189.9375 133.234375 189.351562 136.457031 186.710938 138.804688 Z M 184.289062 138.777344 C 184.152344 138.882812 184.019531 138.988281 183.886719 139.121094 C 183.382812 139.789062 183.433594 140.828125 183.355469 141.253906 C 183.035156 141.441406 182.714844 141.601562 182.421875 141.785156 L 182.339844 141.734375 C 182.339844 141.734375 182.289062 141.679688 182.261719 141.625 C 182.554688 139.230469 183.167969 136.882812 184.445312 134.832031 C 184.5 136.164062 184.472656 137.496094 184.261719 138.777344 Z M 184.234375 132.089844 C 184.289062 132.621094 184.339844 133.15625 184.367188 133.6875 C 181.78125 136.191406 179.382812 139.253906 177.917969 142.664062 L 177.703125 142.664062 C 177.8125 141.46875 177.96875 140.214844 178.078125 138.9375 C 178.210938 137.125 178.582031 135.179688 179.355469 133.449219 C 180.902344 132.808594 182.582031 132.4375 184.234375 132.117188 Z M 186.3125 154.441406 C 186.445312 152.976562 186.632812 151.511719 186.792969 149.992188 C 187.058594 149.804688 187.324219 149.671875 187.59375 149.484375 C 187.246094 150.84375 187.003906 152.230469 186.925781 153.640625 C 191.644531 152.308594 195.375 149.539062 197.960938 145.890625 C 197.453125 147.25 196.679688 148.5 195.453125 149.566406 C 192.761719 151.910156 189.644531 153.535156 186.3125 154.46875 Z M 194.496094 143.703125 C 195.773438 142.425781 197.238281 141.414062 198.839844 140.613281 C 198.839844 141.46875 198.757812 142.320312 198.652344 143.144531 C 196.652344 145.996094 193.828125 148.289062 190.628906 149.59375 C 191.535156 147.355469 192.84375 145.355469 194.496094 143.703125 Z M 195.242188 128.121094 C 195.054688 131.902344 193.882812 135.550781 191.910156 138.667969 C 191.191406 139.414062 190.46875 140.136719 189.75 140.800781 C 188.257812 142.214844 186.578125 143.679688 185.085938 145.277344 C 184.527344 145.597656 183.96875 145.890625 183.382812 146.15625 C 187.273438 142.691406 189.859375 137.65625 192.148438 132.941406 C 193.027344 131.34375 193.617188 129.851562 193.960938 128.386719 C 194.386719 128.28125 194.789062 128.226562 195.214844 128.144531 Z M 188.765625 129.878906 C 188.765625 129.050781 188.765625 128.199219 188.710938 127.292969 C 189.085938 127.242188 189.484375 127.160156 189.859375 127.105469 C 189.882812 127.746094 189.910156 128.386719 189.910156 129.027344 C 189.511719 129.292969 189.136719 129.558594 188.765625 129.851562 Z M 188.765625 129.878906 " fill-opacity="1" fill-rule="nonzero"/><g clip-path="url(#bf3231523a)"><path fill="#000000" d="M 196.601562 311.332031 C 196.601562 311.332031 196.601562 311.09375 196.628906 310.773438 C 218.988281 311.332031 242.28125 307.3125 256.808594 298.8125 C 265.949219 293.484375 273.277344 285.464844 278.367188 276.140625 C 293.535156 254.453125 295.960938 223.496094 279.996094 201.542969 C 277.300781 197.652344 273.890625 194.269531 270.238281 191.207031 C 272.851562 188.890625 275.277344 186.359375 277.382812 183.535156 C 290.84375 166.03125 290.84375 139.628906 276.875 122.390625 C 274.050781 116.34375 270.132812 110.800781 265.121094 106.273438 C 260.351562 101.425781 252.410156 96.816406 247.132812 92.632812 L 228.929688 79.738281 C 222.558594 75.34375 215.390625 72.332031 208.035156 70.46875 C 205.050781 69.773438 202.039062 69.1875 199 68.710938 C 174.210938 63.886719 144.203125 65.671875 122.746094 77.472656 C 117.390625 80.589844 112.328125 84.453125 108.007812 88.984375 C 106.25 90.582031 104.542969 92.234375 102.972656 94.019531 C 98.8125 98.386719 95.617188 103.449219 93.296875 108.882812 C 91.429688 112.480469 89.992188 116.289062 89.113281 120.3125 C 86.394531 133.527344 88.738281 147.996094 96.707031 158.996094 C 99.453125 163.472656 102.890625 167.550781 107.101562 170.933594 C 102.8125 173.917969 98.894531 177.460938 95.722656 181.75 C 91.378906 187.796875 88.5 194.644531 86.953125 201.808594 C 79.199219 226.878906 87.300781 257.785156 108.914062 273.503906 C 108.914062 273.503906 108.863281 273.554688 108.863281 273.554688 L 110.089844 274.410156 L 128.824219 287.410156 C 128.824219 287.410156 131.410156 289.222656 133.886719 290.925781 C 134.527344 291.511719 135.140625 292.046875 135.675781 292.523438 C 152.570312 306.804688 175.464844 309.707031 196.652344 311.308594 Z M 102.332031 98.8125 C 106.4375 94.230469 111.074219 90.449219 116.164062 87.4375 C 107.796875 94.472656 101.347656 103.53125 98.546875 114.320312 C 96.414062 122.710938 96.523438 131.742188 98.8125 140.136719 C 93.589844 126.949219 94.871094 111.015625 102.332031 98.8125 Z M 284.125 253.789062 C 280.765625 267.667969 273.039062 280.5625 261.84375 289.328125 C 251.183594 297.1875 238.765625 301.6875 225.835938 304.21875 C 213.578125 305.898438 200.652344 305.871094 188.816406 304.804688 C 204.117188 304.621094 220.082031 302.195312 233.511719 297.800781 C 241.933594 295.695312 250.0625 292.605469 257.605469 288.101562 C 272.613281 278.722656 282.417969 261.914062 284.84375 244.355469 C 284.84375 247.5 284.605469 250.671875 284.097656 253.789062 Z M 275.917969 153.535156 C 273.171875 165.925781 265.441406 177.488281 253.636719 185.292969 L 253.34375 185.503906 C 253.34375 185.503906 253.636719 185.71875 253.636719 185.71875 C 256.195312 187.691406 258.859375 189.609375 261.523438 191.605469 C 261.042969 191.980469 260.566406 192.378906 260.085938 192.753906 C 256.355469 189.554688 252.464844 186.625 249.238281 184.066406 C 269.039062 171.464844 277.597656 149.832031 273.171875 130.089844 C 273.890625 131.210938 274.558594 132.355469 275.144531 133.527344 C 276.742188 140.082031 276.984375 146.902344 275.917969 153.5625 Z M 257.554688 194.535156 C 257.101562 194.855469 256.648438 195.148438 256.167969 195.441406 C 256.167969 195.441406 255.660156 195.789062 255.660156 195.789062 C 260.484375 199.679688 265.601562 203.355469 270.105469 207.589844 C 275.730469 216.328125 278.261719 226.398438 278.074219 236.550781 C 277.035156 250.804688 270.746094 264.871094 260.726562 275.046875 C 238.84375 297.398438 189.539062 297.160156 160.648438 291.140625 C 157.929688 290.527344 155.316406 289.699219 152.785156 288.714844 C 148.867188 286.714844 145.160156 284.292969 141.699219 281.308594 L 118.003906 263.457031 C 118.003906 263.457031 118.003906 263.433594 118.003906 263.433594 C 108.0625 256.34375 101.347656 245.449219 98.203125 233.511719 C 96.175781 219.5 98.921875 204.765625 106.890625 193.363281 C 112.351562 185.824219 120.457031 180.390625 129.171875 176.660156 C 129.171875 176.660156 131.621094 175.621094 131.621094 175.621094 C 130.875 175.007812 128.53125 173.171875 126.1875 171.359375 C 126.1875 171.359375 129.515625 169.839844 129.515625 169.839844 C 129.144531 169.574219 128.585938 169.148438 127.945312 168.667969 C 128.050781 168.640625 128.15625 168.589844 128.265625 168.535156 L 126.105469 166.511719 C 120.800781 161.660156 115.285156 157.160156 111.980469 150.738281 C 105.929688 139.734375 105.050781 126.148438 108.59375 114.132812 C 110.566406 109.605469 113.257812 105.367188 116.699219 101.796875 C 136.472656 79.820312 168.484375 78.058594 196.015625 81.496094 C 201.558594 82.242188 207.019531 83.335938 212.324219 84.855469 C 220.160156 89.304688 227.222656 95.191406 234.792969 100.144531 C 239.695312 103.847656 247.71875 108.378906 251.957031 112.640625 C 274.609375 133.582031 269.574219 167.949219 245.398438 185.558594 C 245.398438 185.558594 244.921875 185.957031 244.921875 185.957031 C 249.078125 188.863281 253.421875 191.578125 257.5 194.617188 Z M 123.28125 172.746094 C 124.105469 173.410156 124.90625 174.078125 125.679688 174.714844 C 117.363281 178.3125 109.449219 183.480469 103.746094 190.914062 C 102.8125 192.164062 101.960938 193.496094 101.132812 194.804688 C 102.144531 192.59375 103.265625 190.433594 104.597656 188.382812 C 109.207031 181.667969 115.898438 176.527344 123.308594 172.71875 Z M 261.578125 117.464844 C 263.230469 118.796875 264.804688 120.128906 266.160156 121.433594 C 276.183594 139.921875 271.464844 162.566406 256.085938 177.378906 C 271.492188 160.195312 273.785156 135.980469 261.605469 117.464844 Z M 218.054688 81.898438 C 217.148438 81.628906 216.214844 81.417969 215.308594 81.152344 C 212.003906 79.285156 208.566406 77.632812 204.96875 76.382812 C 208.992188 77.128906 212.992188 78.085938 216.9375 79.257812 C 219.8125 80.859375 222.53125 82.667969 225.199219 84.613281 C 222.90625 83.523438 220.535156 82.589844 218.027344 81.871094 Z M 177.542969 75.929688 C 180.527344 76.117188 183.515625 76.433594 186.472656 76.835938 C 167.550781 76.035156 147.988281 79.019531 132.582031 87.117188 C 125.625 90.980469 119.175781 96.125 114.085938 102.277344 C 123.121094 87.945312 137.484375 79.976562 153.558594 76.300781 C 161.632812 75.554688 169.761719 75.503906 177.570312 75.929688 Z M 279.167969 236.550781 C 279.488281 228.769531 278.34375 221.019531 275.542969 213.773438 C 275.597656 213.851562 275.675781 213.933594 275.730469 214.039062 C 280.527344 220.914062 283.324219 228.636719 284.390625 236.605469 C 283.777344 254.851562 274.664062 273.078125 259.660156 283.441406 C 272.371094 271.636719 279.433594 253.921875 279.195312 236.523438 Z M 274.023438 211.695312 C 275.675781 215.503906 276.875 219.445312 277.542969 223.496094 C 276.34375 218.542969 274.449219 213.746094 271.839844 209.269531 C 272.265625 209.695312 272.691406 210.148438 273.089844 210.574219 C 273.410156 210.949219 273.730469 211.320312 274.023438 211.695312 Z M 261.84375 199.625 C 260.21875 198.292969 258.644531 197.042969 257.234375 195.867188 C 257.632812 195.628906 258.007812 195.390625 258.378906 195.148438 C 259.125 195.734375 259.871094 196.320312 260.59375 196.933594 C 260.246094 197.148438 259.898438 197.359375 259.550781 197.574219 C 260.296875 198.265625 261.070312 198.984375 261.816406 199.652344 Z M 258.9375 194.777344 C 259.445312 194.457031 259.925781 194.109375 260.40625 193.765625 C 261.125 194.378906 261.84375 195.015625 262.5625 195.683594 C 262.085938 196.003906 261.632812 196.296875 261.152344 196.589844 C 260.433594 195.976562 259.710938 195.363281 258.964844 194.777344 Z M 258.140625 194.164062 C 254.167969 191.074219 250.011719 188.277344 246.574219 185.824219 C 247.1875 185.398438 247.800781 184.945312 248.386719 184.492188 C 252.089844 187.371094 255.953125 190.113281 259.605469 193.125 C 259.125 193.472656 258.644531 193.84375 258.140625 194.191406 Z M 103.105469 128.039062 C 102.625 132.460938 102.679688 136.9375 103.34375 141.332031 C 100.546875 133.023438 100.148438 123.777344 102.226562 115.226562 C 106.222656 99.292969 118.777344 87.359375 133.460938 80.484375 C 115.871094 89.96875 103.078125 107.660156 103.105469 128.039062 Z M 268.1875 203.835938 C 266.507812 201.625 264.402344 199.464844 262.058594 197.414062 C 262.511719 197.121094 262.9375 196.800781 263.390625 196.507812 C 266.1875 199.171875 268.71875 202.078125 270.773438 205.433594 C 271.226562 206.152344 271.597656 206.898438 272 207.617188 C 270.800781 206.339844 269.519531 205.058594 268.214844 203.835938 Z M 260.886719 193.445312 C 261.417969 193.070312 261.925781 192.699219 262.429688 192.300781 C 263.230469 192.910156 264.003906 193.523438 264.777344 194.136719 C 264.214844 194.5625 263.628906 194.964844 263.015625 195.363281 C 262.324219 194.722656 261.605469 194.058594 260.886719 193.445312 Z M 258.035156 184.734375 L 255.847656 186.703125 C 255.316406 186.304688 254.78125 185.90625 254.273438 185.53125 C 262.617188 179.882812 268.988281 172.453125 273.011719 164.164062 C 269.972656 171.839844 265.015625 178.953125 258.058594 184.757812 Z M 146.363281 72.570312 C 140.070312 74.011719 133.863281 76.355469 128.050781 79.445312 C 123.308594 81.285156 118.804688 83.441406 114.644531 86.027344 C 113.3125 86.878906 112.035156 87.8125 110.753906 88.769531 C 119.574219 81.203125 130.503906 75.796875 141.644531 73.238281 C 147.402344 71.960938 153.289062 71.054688 159.234375 70.46875 C 154.917969 71 150.625 71.667969 146.386719 72.570312 Z M 118.351562 168.613281 C 117.042969 169.28125 115.792969 170 114.59375 170.746094 C 114.457031 170.667969 114.351562 170.585938 114.21875 170.507812 C 115.472656 169.761719 116.777344 169.066406 118.082031 168.402344 C 118.164062 168.480469 118.242188 168.5625 118.351562 168.613281 Z M 282.394531 224.589844 C 280.953125 220.699219 279.0625 216.941406 276.609375 213.398438 C 275.785156 212.039062 274.71875 210.65625 273.519531 209.296875 C 272.796875 207.882812 272.050781 206.5 271.199219 205.140625 C 269.492188 202.050781 266.855469 199.039062 263.871094 196.164062 C 264.484375 195.734375 265.097656 195.308594 265.710938 194.882812 C 269.867188 198.292969 273.679688 201.996094 276.476562 206.550781 C 281.035156 213.664062 283.511719 221.683594 284.207031 229.917969 C 283.699219 228.132812 283.113281 226.375 282.394531 224.640625 Z M 264.214844 186.519531 C 268.933594 181.988281 273.199219 176.742188 276.15625 170.773438 C 277.117188 168.960938 277.914062 167.097656 278.636719 165.179688 C 276.503906 173.4375 272.105469 181.242188 265.789062 187.691406 C 265.257812 187.289062 264.722656 186.890625 264.191406 186.519531 Z M 97.1875 105.289062 C 96.523438 106.941406 95.9375 108.617188 95.457031 110.375 C 91.777344 124.550781 93.9375 140.535156 103.023438 152.308594 C 104.144531 153.800781 105.609375 155.320312 107.210938 156.8125 C 108.410156 158.304688 109.742188 159.691406 111.152344 161.023438 C 111.289062 161.207031 111.421875 161.421875 111.554688 161.609375 C 112.621094 163.074219 114.007812 164.566406 115.5 166.03125 C 114.007812 166.75 112.511719 167.550781 111.074219 168.402344 C 110.035156 167.707031 109.207031 167.121094 108.753906 166.804688 C 107.421875 165.976562 106.171875 165.097656 104.972656 164.140625 C 94.84375 153.933594 89.9375 139.175781 91.246094 124.65625 C 91.777344 118.074219 93.644531 111.949219 96.523438 106.351562 C 96.734375 106.007812 96.921875 105.632812 97.160156 105.316406 Z M 286.019531 239.214844 C 285.882812 237.9375 285.699219 236.65625 285.457031 235.378906 C 285.40625 229.945312 284.660156 224.535156 283.085938 219.339844 C 285.191406 225.734375 286.125 232.449219 286.019531 239.214844 Z M 269.28125 190.355469 C 268.480469 189.714844 267.679688 189.074219 266.882812 188.460938 C 280.207031 175.808594 285.617188 158.089844 281.941406 141.601562 C 281.621094 137.628906 280.875 133.714844 279.726562 129.878906 C 291.082031 149.886719 285.910156 174.847656 269.253906 190.328125 Z M 269.28125 190.355469 " fill-opacity="1" fill-rule="nonzero"/></g><path fill="#000000" d="M 203.609375 210.574219 C 203.503906 207.699219 203.050781 204.792969 202.304688 201.996094 C 200.652344 202.128906 199.027344 202.476562 197.398438 202.902344 C 197.1875 201.808594 196.921875 200.71875 196.574219 199.574219 C 186.234375 200.160156 178.128906 207.113281 174.078125 216.195312 C 171.066406 223.125 168.109375 230.714844 168.960938 238.414062 C 168.777344 241.371094 168.988281 244.355469 169.894531 247.3125 C 169.894531 247.3125 170.589844 249.5 170.589844 249.5 C 172.535156 249.230469 174.292969 248.621094 175.972656 247.792969 C 176.023438 249.152344 176.183594 250.511719 176.476562 251.871094 C 176.476562 251.871094 177.011719 254.082031 177.011719 254.082031 C 184.339844 253.601562 189.882812 248.246094 194.523438 243.210938 C 204.035156 234.152344 207.925781 223.390625 204.277344 210.496094 C 204.035156 210.496094 203.824219 210.546875 203.609375 210.574219 Z M 197.453125 226.535156 C 197.640625 225.867188 197.773438 225.226562 197.90625 224.5625 C 198.464844 222.085938 198.546875 219.5 198.519531 216.941406 C 198.574219 216.941406 198.597656 216.941406 198.652344 216.914062 C 198.652344 220.191406 198.332031 223.46875 197.453125 226.535156 Z M 184.046875 241.453125 C 184.046875 241.453125 183.886719 241.507812 183.835938 241.53125 C 184.820312 240.46875 185.726562 239.375 186.632812 238.28125 C 190.761719 235.273438 193.722656 230.769531 194.816406 225.839844 C 195.773438 223.390625 196.414062 220.859375 196.679688 218.246094 C 196.761719 218.007812 196.839844 217.769531 196.921875 217.527344 C 197.320312 217.421875 197.691406 217.316406 198.09375 217.261719 C 198.09375 217.261719 198.144531 217.261719 198.171875 217.261719 C 197.984375 217.289062 197.800781 217.261719 197.613281 217.207031 C 197.90625 217.128906 198.199219 217.050781 198.492188 216.96875 C 198.039062 226.878906 192.734375 236.871094 184.046875 241.453125 Z M 184.820312 233.273438 C 184.234375 233.992188 183.621094 234.710938 183.007812 235.40625 C 182.609375 235.644531 182.207031 235.910156 181.78125 236.125 C 181.621094 232.421875 183.007812 228.769531 185.328125 225.921875 C 185.941406 224.960938 186.550781 224.003906 187.191406 223.042969 C 187.832031 222.402344 188.5 221.792969 189.21875 221.230469 C 189.9375 220.699219 190.683594 220.21875 191.457031 219.765625 C 191.457031 219.898438 191.457031 220.058594 191.457031 220.191406 C 189.832031 224.828125 187.964844 229.359375 184.820312 233.246094 Z M 180.15625 241.371094 C 181.570312 241 182.929688 240.46875 184.179688 239.773438 C 182.953125 240.761719 181.59375 241.585938 180.183594 242.226562 C 180.183594 241.933594 180.183594 241.640625 180.15625 241.371094 Z M 190.710938 211.480469 C 190.84375 212.464844 190.976562 213.453125 191.082031 214.4375 C 190.738281 214.625 190.417969 214.835938 190.070312 215.023438 C 186.578125 216.355469 183.675781 219.179688 181.996094 222.539062 C 181.433594 223.363281 180.929688 224.214844 180.449219 225.09375 C 181.007812 223.417969 181.675781 221.792969 182.527344 220.246094 C 184.472656 216.757812 187.351562 213.691406 190.710938 211.480469 Z M 174.800781 222.617188 C 176.292969 220.007812 178.316406 217.6875 180.664062 215.742188 C 176.691406 222.324219 175.253906 230.371094 176.105469 238.070312 C 175.359375 238.230469 174.585938 238.363281 173.839844 238.441406 C 173.386719 235.085938 172.90625 231.542969 172.933594 228.078125 C 173.253906 226.1875 173.839844 224.347656 174.800781 222.617188 Z M 176.316406 241.824219 C 176.316406 241.824219 176.316406 241.957031 176.316406 242.011719 C 176.238281 242.546875 176.183594 243.105469 176.132812 243.664062 C 175.4375 243.851562 174.773438 243.984375 174.078125 244.117188 C 174 243.691406 173.917969 243.265625 173.839844 242.839844 C 174.691406 242.570312 175.519531 242.226562 176.316406 241.824219 Z M 198.011719 211.640625 C 198.066406 210.976562 198.09375 210.308594 198.09375 209.617188 C 198.171875 210.253906 198.253906 210.894531 198.332031 211.5625 C 198.226562 211.585938 198.121094 211.613281 198.011719 211.640625 Z M 194.148438 242.839844 C 190.710938 246.648438 185.804688 248.40625 180.847656 248.9375 C 180.714844 247.820312 180.582031 246.703125 180.476562 245.554688 C 185.804688 243.609375 190.363281 239.800781 193.5625 235.058594 C 193.5625 235.058594 193.617188 235.003906 193.617188 235.003906 C 196.039062 232.394531 198.171875 229.492188 199.878906 226.320312 C 199.585938 232.367188 198.171875 238.253906 194.148438 242.839844 Z M 194.148438 242.839844 " fill-opacity="1" fill-rule="nonzero"/><path fill="#ffffff" d="M 245.746094 189.929688 C 250.835938 198.507812 253.261719 207.964844 253.023438 218.382812 C 252.78125 228.796875 250.25 237.777344 245.453125 246.460938 C 240.65625 255.171875 234.871094 261.886719 228.101562 266.628906 C 221.332031 271.371094 212.9375 274.859375 202.945312 277.097656 C 192.976562 279.335938 182.367188 280.457031 171.121094 280.457031 C 150.011719 280.457031 133.914062 277.953125 122.882812 272.917969 C 111.847656 267.90625 103.558594 260.527344 98.015625 250.75 C 92.445312 241.027344 89.804688 230.128906 90.097656 218.089844 C 90.390625 206.046875 93.351562 196.375 99 188.222656 C 104.625 180.070312 113.179688 173.757812 124.613281 169.308594 C 116.003906 164.644531 109.792969 159.476562 105.957031 153.722656 C 100.679688 145.890625 98.203125 136.859375 98.441406 126.65625 C 98.839844 109.898438 107.023438 96.175781 122.960938 85.492188 C 135.433594 77.289062 151.691406 73.15625 171.839844 73.15625 C 198.492188 73.15625 218.054688 78.300781 230.554688 88.476562 C 243.054688 98.679688 249.105469 111.523438 248.730469 127.027344 C 248.519531 136.058594 245.773438 144.476562 240.496094 152.308594 C 236.550781 158.144531 230.421875 163.792969 222.132812 169.253906 C 232.792969 174.449219 240.65625 181.347656 245.773438 189.875 Z M 189.03125 237.722656 C 194.441406 232.023438 197.238281 224.800781 197.453125 216.035156 C 197.667969 207.273438 195.1875 199.972656 190.015625 194.324219 C 184.875 188.675781 178.769531 185.851562 171.789062 185.851562 C 164.804688 185.851562 158.835938 188.570312 153.558594 194.03125 C 148.308594 199.492188 145.5625 206.871094 145.347656 216.195312 C 145.136719 225.519531 147.613281 232.234375 152.835938 237.855469 C 158.0625 243.449219 164.113281 246.25 171.015625 246.25 C 177.917969 246.25 183.621094 243.425781 189.03125 237.722656 M 157.183594 113.441406 C 152.863281 117.703125 150.625 123.164062 150.4375 129.929688 C 150.253906 136.699219 152.304688 142.453125 156.515625 146.664062 C 160.699219 150.925781 166.402344 153.03125 173.546875 153.03125 C 179.890625 153.03125 185.167969 150.953125 189.351562 146.742188 C 193.535156 142.53125 195.695312 137.125 195.855469 130.492188 C 196.015625 123.855469 194.042969 117.941406 189.882812 113.601562 C 185.726562 109.285156 180.34375 107.097656 173.734375 107.097656 C 167.125 107.097656 161.527344 109.230469 157.183594 113.464844 " fill-opacity="1" fill-rule="nonzero"/></svg>