<svg xmlns="http://www.w3.org/2000/svg" xmlns:xlink="http://www.w3.org/1999/xlink" width="500" zoomAndPan="magnify" viewBox="0 0 375 374.999991" height="500" preserveAspectRatio="xMidYMid meet" version="1.0"><path fill="#000000" d="M 192.65625 303.25 C 192.304688 303.25 191.957031 303.117188 191.6875 302.847656 C 191.445312 302.609375 191.257812 302.421875 191.230469 302.152344 C 190.050781 303.171875 189.835938 303.171875 189.59375 303.171875 C 189.246094 303.171875 188.894531 303.035156 188.628906 302.769531 C 188.277344 302.394531 188.035156 302.179688 188.277344 301.644531 C 186.855469 302.847656 186.453125 303.011719 186.15625 303.011719 C 185.835938 303.0625 185.433594 302.875 185.191406 302.609375 C 184.789062 302.207031 184.519531 301.9375 185.136719 300.972656 C 183.175781 302.742188 182.933594 302.742188 182.585938 302.769531 C 182.238281 302.769531 181.886719 302.636719 181.621094 302.367188 C 181.136719 301.882812 180.894531 301.644531 181.96875 300.273438 C 181.96875 300.273438 182.023438 300.195312 182.050781 300.167969 C 183.203125 298.691406 185.753906 296.011719 190.910156 290.59375 C 196.710938 284.480469 204.738281 276.0625 213.679688 266.648438 C 217.007812 263.136719 220.550781 259.410156 224.230469 255.574219 C 224.203125 255.601562 224.148438 255.65625 224.121094 255.683594 C 191.125 288.851562 181.671875 298.371094 178.667969 301.078125 C 178.34375 301.402344 178.15625 301.617188 178.101562 301.695312 L 178.046875 301.644531 C 177.402344 302.179688 177.242188 302.179688 177.082031 302.179688 C 176.734375 302.179688 176.382812 302.042969 176.140625 301.777344 C 175.605469 301.242188 175.363281 301 176.332031 299.820312 L 176.332031 299.765625 C 176.332031 299.765625 176.464844 299.605469 176.652344 299.445312 C 176.949219 299.09375 177.296875 298.691406 177.753906 298.210938 C 174.425781 301.320312 173.832031 301.5625 173.375 301.644531 C 173.027344 301.644531 172.652344 301.507812 172.410156 301.242188 C 171.363281 300.195312 171.28125 300.113281 189.378906 281.183594 C 169.941406 300.8125 169.726562 300.8125 169 300.839844 C 168.652344 300.839844 168.300781 300.703125 168.035156 300.4375 C 167.632812 300.035156 167.390625 299.792969 168.355469 298.453125 L 168.300781 298.34375 C 168.300781 298.34375 168.515625 298.15625 168.703125 297.996094 C 170.449219 295.769531 174.933594 291.105469 185.136719 280.378906 C 191.339844 273.890625 198.804688 266.085938 206.804688 257.71875 C 176.167969 288.421875 167.925781 296.628906 165.457031 298.828125 C 165.457031 298.855469 165.402344 298.878906 165.402344 298.90625 C 164.570312 299.632812 164.382812 299.632812 164.246094 299.632812 C 163.898438 299.632812 163.550781 299.496094 163.308594 299.230469 C 162.90625 298.828125 162.636719 298.558594 163.175781 297.648438 C 162.984375 297.808594 162.796875 297.96875 162.664062 298.101562 C 162.53125 298.238281 162.449219 298.316406 162.449219 298.34375 L 162.421875 298.34375 C 161.832031 298.773438 161.671875 298.773438 161.480469 298.773438 C 161 298.773438 160.785156 298.640625 160.515625 298.371094 C 160.03125 297.886719 159.789062 297.648438 160.839844 296.359375 L 160.785156 296.28125 C 160.785156 296.28125 161 296.09375 161.1875 295.929688 C 161.375 295.714844 161.589844 295.449219 161.859375 295.179688 C 160.917969 296.09375 160.273438 296.683594 159.816406 297.058594 C 159.765625 297.136719 159.710938 297.164062 159.683594 297.21875 C 159.039062 297.726562 158.878906 297.726562 158.664062 297.726562 C 158.3125 297.726562 157.964844 297.59375 157.722656 297.324219 C 157.214844 296.816406 156.972656 296.574219 157.964844 295.339844 L 157.910156 295.289062 C 157.910156 295.289062 158.097656 295.125 158.234375 294.992188 C 158.449219 294.722656 158.714844 294.429688 159.011719 294.109375 C 158.796875 294.296875 158.609375 294.484375 158.449219 294.671875 C 157.644531 295.503906 157.160156 296.011719 157.050781 296.117188 L 156.972656 296.066406 C 156.355469 296.601562 156.167969 296.574219 156.003906 296.601562 C 155.65625 296.601562 155.308594 296.46875 155.066406 296.199219 C 154.824219 295.929688 154.609375 295.742188 154.664062 295.421875 C 154.339844 295.636719 154.234375 295.691406 154.042969 295.636719 C 153.695312 295.636719 153.347656 295.503906 153.078125 295.234375 C 152.808594 294.964844 152.59375 294.75 152.675781 294.320312 C 152.300781 294.617188 152.164062 294.617188 152.03125 294.617188 C 151.683594 294.617188 151.332031 294.484375 151.089844 294.214844 C 150.6875 293.8125 150.445312 293.570312 150.957031 292.765625 C 150.230469 293.332031 150.042969 293.332031 149.855469 293.332031 C 149.507812 293.332031 149.132812 293.195312 148.890625 292.929688 C 148.109375 292.148438 147.84375 291.882812 154.070312 285.230469 C 147.761719 291.425781 147.414062 291.425781 146.902344 291.425781 C 146.554688 291.480469 146.179688 291.292969 145.9375 291.023438 C 145.398438 290.488281 145.105469 290.191406 146.984375 287.886719 C 144.996094 289.601562 144.726562 289.601562 144.460938 289.601562 C 144.109375 289.601562 143.734375 289.441406 143.492188 289.199219 C 143.117188 288.824219 142.847656 288.558594 143.386719 287.589844 C 142.902344 287.914062 142.632812 288.019531 142.445312 288.019531 C 142.097656 288.019531 141.722656 287.859375 141.480469 287.617188 C 141.050781 287.191406 140.78125 286.921875 141.558594 285.796875 C 140.808594 286.386719 140.671875 286.464844 140.40625 286.386719 C 140.054688 286.386719 139.707031 286.25 139.4375 285.984375 C 138.820312 285.367188 138.605469 285.152344 140.539062 282.84375 C 140.082031 283.246094 139.734375 283.597656 139.410156 283.835938 C 139.386719 283.890625 139.332031 283.917969 139.332031 283.945312 L 139.304688 283.945312 C 138.015625 284.964844 137.746094 284.695312 137.238281 284.214844 C 136.835938 283.8125 136.59375 283.570312 137.476562 282.28125 L 137.398438 282.175781 C 137.398438 282.175781 137.640625 281.960938 137.882812 281.71875 C 138.015625 281.558594 138.148438 281.371094 138.3125 281.15625 C 136.566406 282.792969 136.324219 282.792969 135.976562 282.792969 C 135.519531 282.871094 135.277344 282.65625 135.007812 282.390625 C 134.714844 282.09375 134.472656 281.851562 134.847656 281.15625 C 134.523438 281.398438 134.417969 281.398438 134.230469 281.398438 C 133.878906 281.398438 133.53125 281.261719 133.289062 280.996094 C 132.886719 280.59375 132.671875 280.378906 133.449219 279.199219 L 133.316406 279.066406 C 133.316406 279.066406 133.691406 278.6875 134.203125 278.179688 C 135.570312 276.4375 138.203125 273.433594 142.984375 267.910156 C 132.054688 278.929688 131.867188 278.929688 131.195312 278.929688 C 130.847656 278.929688 130.496094 278.796875 130.230469 278.527344 C 129.90625 278.207031 129.691406 277.992188 130.148438 277.160156 C 129.71875 277.457031 129.476562 277.429688 129.34375 277.457031 C 128.992188 277.457031 128.644531 277.320312 128.375 277.054688 C 127.972656 276.652344 127.730469 276.410156 128.671875 275.042969 L 128.617188 274.960938 C 128.617188 274.960938 128.753906 274.855469 128.832031 274.773438 C 130.121094 272.976562 133.15625 269.4375 139.625 261.902344 C 140.164062 261.285156 140.726562 260.644531 141.292969 259.972656 C 126.738281 274.585938 126.363281 274.585938 125.796875 274.585938 C 125.449219 274.585938 125.101562 274.453125 124.832031 274.183594 C 124.457031 273.808594 124.214844 273.59375 125.179688 272.199219 L 125.128906 272.09375 C 125.128906 272.09375 125.316406 271.957031 125.476562 271.796875 C 126.871094 269.894531 130.066406 266.140625 136.78125 258.308594 C 123.355469 271.933594 123.300781 271.746094 122.496094 271.878906 C 122.148438 271.878906 121.796875 271.746094 121.53125 271.476562 C 121.125 271.074219 120.886719 270.859375 121.851562 269.464844 L 121.796875 269.382812 C 121.796875 269.382812 121.960938 269.25 122.09375 269.144531 C 122.84375 268.125 124.105469 266.597656 126.226562 264.210938 C 120.617188 269.734375 120.347656 269.734375 119.863281 269.734375 C 119.515625 269.734375 119.167969 269.597656 118.898438 269.332031 C 118.066406 268.5 117.933594 268.390625 122.925781 262.734375 C 120.457031 265.175781 119.167969 266.40625 118.441406 267.023438 C 118.414062 267.050781 118.386719 267.105469 118.363281 267.105469 C 117.691406 267.667969 117.527344 267.667969 117.289062 267.667969 C 116.9375 267.667969 116.589844 267.535156 116.347656 267.292969 C 115.917969 266.863281 115.675781 266.648438 116.589844 265.363281 L 116.507812 265.253906 C 116.507812 265.253906 116.722656 265.039062 116.964844 264.851562 C 118.039062 263.429688 120.160156 261.019531 124.054688 256.648438 C 115.433594 265.308594 115.191406 265.308594 114.601562 265.308594 C 114.253906 265.308594 113.90625 265.175781 113.636719 264.90625 C 113.261719 264.53125 113.019531 264.289062 113.929688 262.867188 L 113.929688 262.816406 C 113.929688 262.816406 113.984375 262.761719 114.039062 262.707031 C 114.925781 261.421875 116.722656 259.195312 120.132812 255.253906 C 116.667969 258.710938 114.628906 260.667969 113.367188 261.714844 C 113.207031 261.902344 113.125 262.039062 113.070312 262.117188 L 112.964844 262.039062 C 111.621094 263.082031 111.378906 262.839844 110.949219 262.414062 C 110.546875 262.011719 110.304688 261.769531 111.191406 260.457031 L 111.140625 260.375 C 111.140625 260.375 111.300781 260.242188 111.433594 260.105469 C 111.570312 259.917969 111.703125 259.730469 111.863281 259.515625 C 110.496094 260.804688 110.304688 260.832031 109.984375 260.804688 C 109.636719 260.804688 109.285156 260.667969 109.042969 260.402344 C 108.722656 260.078125 108.507812 259.867188 108.828125 259.195312 C 108.75 259.195312 108.667969 259.195312 108.589844 259.195312 C 108.238281 259.195312 107.890625 259.0625 107.621094 258.792969 C 107.300781 258.472656 107.085938 258.257812 107.433594 257.585938 C 107.378906 257.585938 107.351562 257.585938 107.300781 257.585938 C 106.949219 257.585938 106.601562 257.453125 106.359375 257.183594 C 105.984375 256.808594 105.742188 256.59375 106.601562 255.308594 C 106.171875 255.65625 106.039062 255.65625 105.824219 255.65625 C 105.445312 255.574219 105.125 255.519531 104.855469 255.253906 C 104.453125 254.851562 104.238281 254.636719 105.070312 253.347656 L 104.988281 253.269531 C 104.988281 253.269531 105.179688 253.109375 105.339844 252.945312 C 106.304688 251.578125 108.183594 249.191406 111.648438 244.875 C 104.292969 252.355469 104.078125 252.332031 103.566406 252.332031 C 103.21875 252.332031 102.867188 252.195312 102.628906 251.929688 C 102.199219 251.5 101.957031 251.257812 102.867188 249.945312 L 102.867188 249.890625 C 102.867188 249.890625 102.949219 249.808594 103.03125 249.730469 C 103.03125 249.730469 103.058594 249.675781 103.082031 249.675781 C 102.574219 250.078125 102.492188 249.996094 102.226562 250.078125 C 101.875 250.078125 101.554688 249.945312 101.3125 249.703125 C 100.738281 249.167969 101.75 247.082031 104.347656 243.453125 C 105.042969 242.488281 105.824219 241.363281 106.683594 240.183594 C 100.855469 246.109375 100.773438 246.109375 100.15625 246.109375 C 99.78125 246.109375 99.460938 245.976562 99.191406 245.707031 C 98.734375 245.25 98.492188 245.011719 99.296875 243.804688 C 99.21875 243.804688 99.136719 243.804688 99.082031 243.804688 C 98.734375 243.804688 98.386719 243.667969 98.144531 243.402344 C 97.472656 242.730469 97.363281 242.625 100.371094 237.449219 C 98.035156 239.808594 97.957031 239.808594 97.445312 239.808594 C 96.960938 239.808594 96.53125 239.566406 96.289062 239.136719 C 95.886719 238.46875 96.074219 238.144531 96.695312 237.019531 C 96.695312 236.992188 96.71875 236.964844 96.746094 236.910156 C 96.640625 236.9375 96.640625 236.9375 96.425781 236.9375 C 96.074219 236.9375 95.726562 236.804688 95.484375 236.535156 C 95.253906 236.304688 95.019531 235.214844 94.789062 233.265625 L 94.734375 232.890625 C 94.117188 232.78125 93.632812 232.21875 93.632812 231.574219 C 93.632812 231.199219 93.792969 230.851562 94.035156 230.609375 C 95.136719 229.484375 95.269531 229.402344 95.859375 229.375 C 96.183594 229.375 96.480469 229.511719 96.71875 229.726562 C 97.070312 230.046875 97.097656 230.074219 97.390625 232.675781 C 97.554688 232.515625 97.742188 232.328125 97.902344 232.140625 C 100.246094 229.761719 101.617188 228.574219 102.011719 228.574219 C 102.359375 228.574219 102.707031 228.707031 102.949219 228.976562 C 103.351562 229.375 103.511719 229.539062 102.84375 231.011719 C 106.386719 227.472656 106.519531 227.582031 107.351562 228.386719 C 108.078125 229.109375 108.132812 229.164062 105.097656 234.445312 C 105.097656 234.445312 105.097656 234.445312 105.125 234.417969 C 112.292969 227.203125 112.347656 227.230469 112.910156 227.203125 C 113.261719 227.203125 113.609375 227.339844 113.851562 227.605469 C 114.144531 227.929688 114.359375 228.117188 114.171875 228.652344 C 116.160156 226.722656 116.320312 226.722656 116.722656 226.722656 C 117.074219 226.722656 117.421875 226.855469 117.664062 227.097656 C 118.039062 227.472656 118.253906 227.6875 117.476562 229.082031 L 117.476562 229.136719 C 117.476562 229.136719 117.449219 229.1875 117.394531 229.242188 C 116.667969 230.503906 115.167969 232.675781 112.402344 236.589844 C 114.332031 234.660156 116.1875 232.78125 117.691406 231.253906 C 120.402344 228.519531 121.746094 227.179688 122.496094 226.507812 C 123.222656 225.863281 123.355469 225.863281 123.652344 225.863281 C 124 225.863281 124.320312 226 124.589844 226.238281 C 124.964844 226.613281 125.207031 226.855469 124.644531 227.792969 C 127.167969 225.328125 127.355469 225.328125 127.8125 225.328125 C 128.1875 225.273438 128.539062 225.460938 128.777344 225.730469 C 129.128906 226.078125 129.34375 226.292969 128.484375 227.660156 L 128.5625 227.769531 C 128.5625 227.769531 128.375 227.929688 128.1875 228.089844 C 127.25 229.484375 125.421875 231.816406 122.148438 235.945312 C 129.128906 228.921875 131.839844 226.1875 133.046875 225.140625 C 133.128906 225.058594 133.183594 225.007812 133.183594 224.980469 C 133.800781 224.496094 133.988281 224.441406 134.203125 224.496094 C 134.578125 224.496094 134.929688 224.65625 135.167969 224.925781 C 135.546875 225.300781 135.761719 225.542969 135.4375 226.132812 C 136.109375 225.460938 136.59375 225.007812 136.914062 224.683594 C 136.941406 224.65625 136.96875 224.628906 136.96875 224.605469 C 137.667969 223.988281 137.828125 224.066406 138.070312 223.988281 C 138.417969 223.988281 138.765625 224.121094 139.007812 224.390625 C 139.171875 224.550781 139.332031 224.710938 139.332031 224.925781 C 140.78125 223.585938 140.996094 223.585938 141.34375 223.585938 C 141.695312 223.585938 142.042969 223.71875 142.3125 223.988281 C 142.5 224.175781 142.660156 224.335938 142.6875 224.578125 C 144.191406 223.15625 144.40625 223.15625 144.753906 223.15625 C 145.105469 223.15625 145.453125 223.289062 145.695312 223.558594 C 146.125 223.988281 146.367188 224.203125 145.425781 225.515625 L 145.480469 225.597656 C 145.480469 225.597656 145.292969 225.757812 145.105469 225.917969 C 144.996094 226.050781 144.890625 226.210938 144.753906 226.375 C 146.445312 224.710938 147.441406 223.773438 148.03125 223.238281 C 148.085938 223.15625 148.136719 223.101562 148.164062 223.074219 C 148.78125 222.566406 148.945312 222.566406 149.183594 222.566406 C 149.535156 222.566406 149.855469 222.699219 150.125 222.941406 C 150.660156 223.449219 150.875 223.664062 149.9375 224.953125 L 149.9375 225.007812 C 149.9375 225.007812 149.855469 225.113281 149.777344 225.195312 C 148.996094 226.1875 147.601562 227.769531 145.265625 230.421875 C 143.679688 232.21875 141.722656 234.445312 139.574219 236.886719 C 147.753906 228.609375 152.074219 224.460938 152.542969 224.441406 C 152.890625 224.441406 153.238281 224.578125 153.480469 224.84375 C 153.855469 225.21875 154.097656 225.460938 153.265625 226.75 L 153.347656 226.855469 C 153.347656 226.855469 153.132812 227.070312 152.890625 227.285156 C 151.871094 228.707031 149.882812 231.09375 146.230469 235.304688 C 150.851562 230.636719 152.996094 228.519531 154.070312 227.554688 C 154.179688 227.445312 154.234375 227.367188 154.285156 227.3125 L 154.3125 227.3125 C 155.011719 226.75 155.144531 226.75 155.359375 226.75 C 155.710938 226.75 156.058594 226.882812 156.300781 227.152344 C 156.675781 227.527344 156.917969 227.769531 156.085938 228.976562 L 156.21875 229.136719 C 156.21875 229.136719 155.816406 229.511719 155.359375 229.96875 C 154.3125 231.308594 152.488281 233.398438 149.507812 236.75 C 149.585938 236.671875 149.667969 236.589844 149.75 236.507812 C 153.992188 232.21875 155.871094 230.316406 156.785156 229.484375 C 157.535156 228.8125 157.667969 228.8125 157.9375 228.8125 C 158.289062 228.8125 158.636719 228.949219 158.878906 229.214844 C 159.253906 229.589844 159.46875 229.804688 158.691406 231.011719 L 158.824219 231.148438 C 158.824219 231.148438 158.476562 231.496094 158.019531 231.925781 C 157.214844 232.96875 155.953125 234.5 153.964844 236.777344 C 159.765625 230.933594 159.953125 230.933594 160.542969 230.933594 C 160.890625 230.933594 161.242188 231.066406 161.507812 231.335938 C 162.136719 231.960938 159.96875 235.167969 155.011719 240.960938 C 152.890625 243.429688 150.445312 246.296875 147.84375 249.300781 C 152.113281 245.011719 156.863281 240.15625 162.101562 234.847656 C 163.148438 233.773438 163.683594 233.238281 164.597656 233.855469 C 165.027344 234.285156 165.320312 234.550781 164.652344 235.757812 L 164.8125 235.917969 L 164.085938 236.671875 C 162.636719 238.761719 159.359375 242.730469 152.488281 250.773438 C 166.558594 236.507812 166.609375 236.507812 167.390625 236.484375 C 167.738281 236.484375 168.085938 236.617188 168.355469 236.886719 C 168.703125 237.234375 168.945312 237.449219 168.410156 238.332031 C 168.867188 237.984375 169.027344 237.984375 169.242188 237.984375 C 169.589844 237.984375 169.941406 238.117188 170.183594 238.386719 C 170.636719 238.84375 170.878906 239.082031 169.992188 240.398438 L 170.019531 240.398438 C 170.019531 240.398438 169.941406 240.503906 169.886719 240.558594 C 168.839844 242.035156 166.503906 244.742188 161.75 250.183594 C 171.46875 240.476562 171.710938 240.453125 172.277344 240.453125 C 172.625 240.453125 172.972656 240.585938 173.214844 240.855469 C 173.539062 241.175781 173.753906 241.390625 173.375 242.085938 C 173.699219 241.871094 173.832031 241.871094 173.996094 241.871094 C 174.34375 241.871094 174.691406 242.007812 174.933594 242.273438 C 175.335938 242.675781 175.578125 242.917969 174.691406 244.207031 L 174.773438 244.3125 C 174.773438 244.3125 174.53125 244.527344 174.316406 244.742188 C 174.046875 245.117188 173.699219 245.546875 173.242188 246.082031 C 174.449219 244.902344 175.230469 244.125 175.765625 243.640625 C 175.902344 243.480469 175.980469 243.375 176.035156 243.320312 L 176.089844 243.320312 C 176.761719 242.757812 176.921875 242.757812 177.136719 242.757812 C 177.484375 242.757812 177.832031 242.890625 178.101562 243.160156 C 178.613281 243.667969 178.855469 243.910156 177.96875 245.089844 L 177.96875 245.144531 C 177.96875 245.144531 177.886719 245.277344 177.753906 245.414062 C 176.976562 246.378906 175.578125 247.933594 173.242188 250.507812 C 173.160156 250.585938 173.082031 250.667969 173.027344 250.75 C 184.277344 239.40625 197.058594 226.507812 209.195312 214.226562 C 277.5 145.152344 277.796875 145.152344 278.898438 145.152344 C 279.246094 145.152344 279.59375 145.285156 279.863281 145.554688 C 280.238281 145.929688 280.507812 146.199219 279.515625 147.644531 C 279.515625 147.644531 279.460938 147.699219 279.433594 147.726562 C 279.328125 147.886719 279.191406 148.074219 279.03125 148.289062 C 279.40625 148.019531 279.621094 148.074219 279.730469 148.019531 C 280.078125 148.019531 280.425781 148.15625 280.667969 148.421875 C 281.125 148.878906 281.367188 149.121094 280.425781 150.40625 L 280.480469 150.488281 C 280.480469 150.488281 280.292969 150.648438 280.160156 150.78125 C 280.050781 150.917969 279.917969 151.078125 279.78125 151.238281 C 280.210938 150.890625 280.375 150.945312 280.507812 150.917969 C 280.855469 150.917969 281.207031 151.050781 281.449219 151.320312 C 281.878906 151.75 282.117188 151.988281 281.285156 153.144531 L 281.394531 153.25 C 281.394531 153.25 280.992188 153.652344 280.398438 154.242188 C 279.996094 154.726562 279.460938 155.316406 278.816406 156.011719 C 280.453125 154.589844 280.964844 154.402344 281.285156 154.375 C 281.636719 154.375 282.011719 154.535156 282.253906 154.777344 C 283.003906 155.527344 277.007812 162.464844 264.261719 175.585938 C 260.074219 179.902344 255.324219 184.8125 250.195312 190.066406 C 256.019531 184.167969 261.230469 178.9375 265.472656 174.648438 C 276.175781 163.832031 281.726562 158.425781 282.117188 158.425781 C 282.46875 158.425781 282.816406 158.558594 283.058594 158.828125 C 283.460938 159.230469 283.757812 159.523438 282.976562 160.757812 C 282.976562 160.757812 282.925781 160.8125 282.898438 160.867188 C 282.789062 161.027344 282.683594 161.214844 282.519531 161.402344 C 282.519531 161.402344 282.574219 161.402344 282.574219 161.402344 C 282.925781 161.402344 283.300781 161.535156 283.542969 161.804688 C 284.023438 162.285156 284.292969 162.554688 283.164062 164.054688 C 283.460938 164.109375 283.730469 164.21875 283.917969 164.433594 C 284.292969 164.808594 284.5625 165.074219 283.621094 166.390625 L 283.703125 166.496094 C 283.703125 166.496094 283.621094 166.578125 283.542969 166.628906 C 283.808594 166.683594 284.078125 166.816406 284.265625 167.007812 C 284.777344 167.515625 285.097656 167.835938 283.328125 170.0625 C 283.460938 170.007812 283.59375 170.007812 283.675781 169.980469 C 284.023438 169.980469 284.402344 170.144531 284.640625 170.382812 C 285.125 170.867188 285.449219 171.1875 283.273438 173.816406 C 283.703125 173.523438 283.945312 173.523438 284 173.523438 C 284.347656 173.523438 284.695312 173.65625 284.9375 173.925781 C 285.3125 174.300781 285.609375 174.59375 284.667969 175.988281 C 284.667969 175.988281 284.617188 176.042969 284.589844 176.070312 C 284.375 176.363281 284.132812 176.714844 283.785156 177.113281 C 284.023438 176.953125 284.105469 176.953125 284.214844 176.953125 C 284.5625 176.953125 284.910156 177.089844 285.152344 177.355469 C 285.554688 177.757812 285.796875 178 284.910156 179.207031 L 285.019531 179.339844 C 285.019531 179.339844 284.640625 179.6875 284.214844 180.117188 C 282.171875 182.613281 277.285156 187.761719 266.382812 199.15625 C 264.960938 200.660156 263.457031 202.242188 261.902344 203.847656 C 281.929688 183.792969 283.59375 182.640625 284.429688 182.613281 C 284.777344 182.613281 285.152344 182.773438 285.394531 183.015625 C 286.074219 183.695312 281.789062 188.851562 272.535156 198.488281 C 267.433594 203.796875 261.121094 210.339844 254.195312 217.523438 C 273.847656 197.628906 283.960938 187.679688 284.535156 187.679688 C 284.75 187.679688 285.234375 187.8125 285.5 188.082031 C 286.121094 188.699219 286.46875 189.046875 283.21875 192.773438 C 284.160156 191.96875 284.320312 191.96875 284.535156 191.96875 C 284.882812 191.96875 285.234375 192.105469 285.476562 192.371094 C 285.878906 192.773438 286.121094 193.015625 285.207031 194.332031 L 285.261719 194.410156 C 285.261719 194.410156 285.070312 194.570312 284.9375 194.707031 C 282.949219 197.332031 277.097656 203.527344 261.847656 219.671875 C 261.28125 220.261719 260.71875 220.875 260.128906 221.464844 C 283.164062 198.21875 283.570312 198.21875 284.375 198.21875 C 284.75 198.296875 285.097656 198.351562 285.339844 198.621094 C 285.957031 199.238281 286.226562 199.503906 283.703125 202.375 C 283.945312 202.214844 284.023438 202.214844 284.214844 202.214844 C 284.5625 202.214844 284.910156 202.347656 285.152344 202.617188 C 285.609375 203.070312 285.851562 203.3125 284.882812 204.546875 L 284.964844 204.652344 C 284.964844 204.652344 284.617188 204.976562 284.238281 205.324219 C 284 205.59375 283.730469 205.886719 283.40625 206.234375 C 283.703125 206.019531 283.835938 206.019531 283.972656 206.019531 C 284.320312 206.019531 284.667969 206.15625 284.910156 206.421875 C 285.285156 206.800781 285.554688 207.066406 284.695312 208.355469 L 284.75 208.433594 C 284.75 208.433594 284.5625 208.59375 284.402344 208.757812 C 284.238281 208.972656 284.078125 209.210938 283.863281 209.453125 C 284.132812 209.507812 284.402344 209.640625 284.589844 209.828125 C 284.992188 210.230469 285.234375 210.472656 284.292969 211.757812 L 284.375 211.867188 C 284.375 211.867188 284.105469 212.109375 283.835938 212.351562 C 282.066406 214.546875 277.847656 219.054688 268.53125 228.921875 C 266.921875 230.609375 265.230469 232.40625 263.484375 234.285156 C 282.066406 215.488281 282.28125 215.488281 283.03125 215.488281 C 283.378906 215.488281 283.730469 215.621094 284 215.890625 C 284.375 216.265625 284.640625 216.53125 283.703125 217.898438 L 283.703125 217.953125 C 283.703125 217.953125 283.621094 218.035156 283.542969 218.113281 C 283.433594 218.277344 283.300781 218.4375 283.164062 218.625 C 283.328125 218.703125 283.488281 218.785156 283.621094 218.917969 C 284 219.292969 284.265625 219.5625 283.355469 220.929688 L 283.40625 221.011719 C 283.40625 221.011719 283.273438 221.117188 283.191406 221.199219 C 282.789062 221.761719 282.226562 222.457031 281.421875 223.398438 C 281.742188 223.183594 281.878906 223.101562 282.011719 223.183594 C 282.359375 223.183594 282.710938 223.316406 282.949219 223.585938 C 283.433594 224.039062 283.675781 224.28125 282.683594 225.597656 L 282.683594 225.648438 C 282.683594 225.648438 282.601562 225.757812 282.496094 225.835938 C 281.339844 227.285156 278.898438 229.941406 274.0625 235.089844 C 272.398438 236.886719 270.546875 238.871094 268.53125 240.988281 C 279.945312 229.566406 280.210938 229.566406 280.828125 229.566406 C 281.179688 229.566406 281.527344 229.699219 281.796875 229.96875 C 282.546875 230.71875 282.734375 230.90625 279.40625 234.445312 C 279.59375 234.335938 279.675781 234.390625 279.808594 234.335938 C 280.160156 234.335938 280.507812 234.472656 280.75 234.738281 C 281.179688 235.167969 281.394531 235.382812 280.535156 236.644531 L 280.613281 236.75 C 280.613281 236.75 280.347656 237.019531 280.023438 237.3125 C 278.65625 239.058594 275.808594 242.195312 270.25 248.335938 C 267.242188 251.632812 263.808594 255.441406 260.183594 259.4375 C 270.414062 249.191406 274.414062 245.199219 276.105469 243.617188 C 276.265625 243.429688 276.398438 243.292969 276.425781 243.214844 L 276.480469 243.265625 C 277.207031 242.625 277.339844 242.625 277.527344 242.625 C 277.875 242.625 278.226562 242.757812 278.46875 243.027344 C 278.921875 243.480469 279.164062 243.722656 278.332031 244.902344 L 278.414062 244.984375 C 278.414062 244.984375 278.199219 245.199219 277.929688 245.464844 C 276.800781 246.914062 274.519531 249.433594 270.277344 254.152344 C 269.847656 254.636719 269.417969 255.117188 268.960938 255.601562 C 274.011719 250.640625 274.25 250.640625 274.707031 250.613281 C 275.058594 250.613281 275.40625 250.75 275.648438 251.015625 C 276.023438 251.390625 276.265625 251.632812 275.378906 253 L 275.433594 253.054688 C 275.433594 253.054688 275.324219 253.136719 275.246094 253.214844 C 274.011719 255.09375 270.949219 258.820312 264.183594 266.835938 C 264.960938 266.058594 265.765625 265.226562 266.597656 264.398438 C 267.726562 263.253906 268.496094 262.691406 268.910156 262.707031 L 268.71875 265.390625 L 268.828125 264.046875 L 269.769531 265.015625 L 268.503906 266.273438 C 250.410156 284.589844 245.171875 289.84375 243.347656 291.347656 C 243.347656 291.371094 243.292969 291.398438 243.292969 291.425781 C 242.621094 291.960938 242.433594 291.9375 242.246094 291.960938 C 241.898438 291.960938 241.546875 291.828125 241.308594 291.585938 C 240.824219 291.105469 240.582031 290.890625 241.523438 289.574219 L 241.523438 289.523438 C 241.523438 289.523438 241.574219 289.441406 241.65625 289.363281 C 242.515625 288.183594 244.179688 286.25 247.132812 282.765625 C 249.523438 279.976562 252.636719 276.304688 255.886719 272.46875 C 251.644531 276.730469 247.375 281.023438 243.859375 284.589844 C 237.546875 290.96875 234.191406 294.320312 232.339844 296.011719 C 231.882812 296.519531 231.585938 296.84375 231.507812 296.949219 L 231.34375 296.84375 C 230.136719 297.808594 229.894531 297.566406 229.464844 297.136719 C 228.984375 296.65625 228.742188 296.414062 229.601562 295.234375 L 229.546875 295.179688 C 229.546875 295.179688 229.734375 294.992188 229.949219 294.804688 C 230.890625 293.597656 232.6875 291.613281 235.855469 288.128906 C 237.304688 286.519531 238.972656 284.695312 240.742188 282.738281 C 230.324219 293.140625 226.164062 297.273438 224.363281 298.90625 C 224.097656 299.203125 223.933594 299.390625 223.882812 299.46875 L 223.800781 299.417969 C 223.128906 300.007812 222.96875 299.980469 222.808594 300.007812 C 222.457031 300.007812 222.109375 299.871094 221.867188 299.632812 C 221.410156 299.175781 221.167969 298.933594 222.054688 297.726562 L 221.976562 297.648438 C 221.976562 297.648438 222.214844 297.433594 222.484375 297.164062 C 223.558594 295.824219 225.574219 293.597656 229.117188 289.683594 L 240.582031 277.082031 C 216.066406 301.75 215.851562 301.75 215.101562 301.75 C 214.753906 301.75 214.402344 301.617188 214.136719 301.347656 C 213.757812 300.972656 213.515625 300.730469 214.457031 299.363281 C 211.316406 302.421875 211.101562 302.421875 210.699219 302.421875 C 210.347656 302.421875 210 302.285156 209.757812 302.019531 C 209.328125 301.589844 209.085938 301.347656 210 300.035156 L 209.945312 299.953125 C 209.945312 299.953125 210.105469 299.820312 210.242188 299.710938 C 211.691406 297.808594 215.261719 293.972656 223.101562 285.582031 C 223.238281 285.445312 223.371094 285.285156 223.503906 285.152344 C 205.730469 303.035156 205.515625 303.035156 204.816406 303.035156 C 204.46875 303.171875 204.121094 302.902344 203.851562 302.636719 C 203.339844 302.125 203.097656 301.882812 204.09375 300.570312 C 204.09375 300.570312 204.09375 300.542969 204.121094 300.542969 C 204.363281 300.25 204.65625 299.871094 205.03125 299.445312 C 203.339844 301.078125 202.347656 302.019531 201.757812 302.554688 C 201.757812 302.582031 201.703125 302.609375 201.703125 302.636719 C 200.953125 303.277344 200.738281 303.226562 200.601562 303.25 C 200.253906 303.25 199.90625 303.117188 199.664062 302.847656 C 199.527344 302.714844 199.421875 302.609375 199.339844 302.5 C 198.375 303.304688 198.160156 303.304688 197.890625 303.304688 C 197.542969 303.304688 197.191406 303.171875 196.925781 302.902344 C 196.46875 302.445312 196.226562 302.207031 197.300781 300.839844 L 197.300781 300.785156 C 197.300781 300.785156 197.355469 300.730469 197.40625 300.675781 C 198.695312 299.042969 201.621094 295.929688 207.71875 289.46875 C 210.242188 286.789062 213.113281 283.757812 216.230469 280.460938 C 193.515625 303.304688 193.164062 303.304688 192.414062 303.304688 Z M 192.65625 303.25 " fill-opacity="1" fill-rule="nonzero"/><path fill="#000000" d="M 195.878906 160.167969 C 195.527344 160.167969 195.179688 160.035156 194.910156 159.765625 C 194.535156 159.390625 194.265625 159.121094 195.207031 157.753906 L 195.152344 157.675781 C 195.152344 157.675781 195.257812 157.566406 195.367188 157.511719 C 196.976562 155.261719 201.40625 150.273438 212.203125 138.289062 C 199.714844 150.863281 199.449219 150.863281 198.777344 150.863281 C 198.425781 150.863281 198.078125 150.730469 197.808594 150.460938 C 196.871094 149.523438 196.84375 149.46875 203.582031 142.042969 C 200.09375 145.472656 199.878906 145.472656 199.449219 145.472656 C 199.097656 145.472656 198.75 145.339844 198.507812 145.070312 C 198.105469 144.667969 197.835938 144.402344 198.777344 143.113281 L 198.722656 143.035156 C 198.722656 143.035156 198.910156 142.871094 199.070312 142.710938 C 199.179688 142.578125 199.285156 142.417969 199.421875 142.257812 C 199.125 142.203125 198.882812 142.066406 198.667969 141.878906 C 198.265625 141.476562 198.023438 141.238281 198.9375 139.976562 L 198.832031 139.84375 C 198.832031 139.84375 199.179688 139.519531 199.554688 139.144531 C 200.011719 138.582031 200.574219 137.910156 201.355469 137.054688 C 200.09375 138.234375 199.929688 138.125 199.554688 138.234375 C 199.207031 138.234375 198.855469 138.101562 198.617188 137.832031 C 198.214844 137.429688 197.972656 137.1875 198.882812 135.875 L 198.832031 135.765625 C 198.832031 135.765625 199.019531 135.605469 199.207031 135.445312 C 200.039062 134.34375 201.515625 132.601562 203.984375 129.8125 C 202.078125 131.746094 201.03125 132.789062 200.386719 133.378906 C 200.335938 133.433594 200.308594 133.488281 200.28125 133.515625 C 199.609375 134.105469 199.476562 134.105469 199.179688 134.105469 C 198.832031 134.105469 198.507812 133.96875 198.238281 133.730469 C 197.863281 133.351562 197.648438 133.140625 198.425781 131.960938 L 198.265625 131.796875 C 198.265625 131.796875 198.722656 131.34375 199.339844 130.726562 C 200.386719 129.410156 202.078125 127.425781 204.816406 124.316406 C 201.703125 127.425781 200.226562 128.847656 199.449219 129.492188 C 198.777344 130.054688 198.667969 130.054688 198.375 130.027344 C 198.023438 130.027344 197.675781 129.894531 197.40625 129.625 C 197.03125 129.25 196.816406 129.007812 197.191406 128.3125 C 195.207031 130.1875 194.964844 130.1875 194.613281 130.1875 C 194.265625 130.1875 193.917969 130.054688 193.648438 129.785156 C 193.246094 129.386719 193.003906 129.144531 193.945312 127.777344 L 193.890625 127.695312 C 193.890625 127.695312 194.023438 127.589844 194.105469 127.507812 C 194.964844 126.300781 196.628906 124.371094 199.636719 120.992188 C 187.742188 133.03125 187.714844 133.03125 187.070312 133.03125 L 187.070312 131.691406 C 187.070312 131.691406 188.011719 130.753906 188.011719 130.753906 L 187.070312 131.691406 L 186.238281 130.644531 C 186.800781 130.164062 193.03125 123.859375 199.636719 117.15625 C 228.660156 87.769531 228.820312 87.742188 229.707031 87.742188 C 230.003906 87.742188 230.40625 87.875 230.675781 88.144531 C 231.078125 88.546875 231.34375 88.8125 230.378906 90.207031 C 230.378906 90.207031 230.324219 90.289062 230.273438 90.316406 C 229.519531 91.363281 228.152344 93.050781 225.707031 95.8125 C 228.527344 92.96875 230.03125 91.46875 230.890625 90.691406 C 231.050781 90.503906 231.15625 90.371094 231.210938 90.34375 L 231.265625 90.34375 C 231.882812 89.832031 232.042969 89.832031 232.257812 89.832031 C 232.609375 89.832031 232.929688 89.96875 233.199219 90.207031 C 233.734375 90.71875 233.976562 90.960938 233.199219 92.003906 C 233.871094 91.414062 234.03125 91.414062 234.273438 91.414062 C 234.621094 91.414062 234.96875 91.550781 235.238281 91.816406 C 235.722656 92.300781 235.964844 92.542969 235.078125 93.800781 C 235.078125 93.800781 235.023438 93.855469 234.996094 93.882812 C 234.246094 94.929688 232.796875 96.617188 230.164062 99.59375 C 236.230469 93.585938 236.5 93.585938 236.984375 93.585938 C 237.332031 93.585938 237.683594 93.722656 237.949219 93.988281 C 238.351562 94.390625 238.59375 94.632812 237.65625 96 L 237.710938 96.082031 C 237.710938 96.082031 237.574219 96.1875 237.46875 96.296875 C 236.929688 97.019531 236.125 98.011719 234.917969 99.433594 C 238.78125 95.625 239.023438 95.625 239.507812 95.625 C 239.855469 95.625 240.207031 95.757812 240.472656 96.027344 C 241.039062 96.589844 241.28125 96.859375 239.453125 99.109375 C 241.226562 97.476562 241.441406 97.476562 241.789062 97.476562 C 242.140625 97.476562 242.488281 97.609375 242.757812 97.878906 C 243.050781 98.171875 243.265625 98.386719 243.023438 98.976562 C 243.238281 98.84375 243.347656 98.84375 243.480469 98.84375 C 243.832031 98.84375 244.179688 98.976562 244.421875 99.246094 C 244.933594 99.753906 245.171875 99.996094 244.261719 101.230469 C 244.261719 101.230469 244.179688 101.335938 244.125 101.390625 C 243.214844 102.597656 241.308594 104.6875 237.734375 108.628906 C 237.601562 108.765625 237.46875 108.898438 237.359375 109.058594 C 245.359375 100.960938 245.496094 100.960938 246.058594 100.960938 C 246.410156 100.960938 246.757812 101.09375 247 101.363281 C 247.375 101.738281 247.644531 102.007812 246.785156 103.292969 L 246.839844 103.375 C 246.839844 103.375 246.675781 103.535156 246.515625 103.667969 C 244.769531 106.136719 239.832031 111.6875 227.398438 125.46875 C 241.664062 111.042969 249.058594 103.832031 249.578125 103.832031 L 249.578125 105.171875 C 249.578125 105.171875 248.636719 106.109375 248.636719 106.109375 L 249.578125 105.171875 L 250.355469 106.269531 C 249.496094 106.96875 238.890625 117.695312 228.660156 128.042969 C 196.84375 160.222656 196.628906 160.195312 195.878906 160.195312 Z M 195.878906 160.167969 " fill-opacity="1" fill-rule="nonzero"/><path fill="#000000" d="M 191.015625 233.453125 C 190.667969 233.453125 190.320312 233.320312 190.050781 233.050781 C 189.460938 232.460938 189.136719 232.140625 192.359375 228.410156 C 190.425781 230.261719 189.324219 231.253906 188.65625 231.816406 C 188.601562 231.871094 188.574219 231.898438 188.546875 231.925781 C 187.847656 232.460938 187.6875 232.460938 187.5 232.460938 C 187.152344 232.460938 186.800781 232.328125 186.535156 232.058594 C 186.398438 231.925781 186.292969 231.816406 186.210938 231.683594 C 185.082031 232.621094 184.867188 232.621094 184.601562 232.621094 C 184.25 232.621094 183.875 232.488281 183.632812 232.21875 C 183.230469 231.816406 182.960938 231.550781 184.007812 230.101562 C 184.117188 229.941406 184.222656 229.777344 184.359375 229.617188 C 181.21875 232.648438 180.921875 232.566406 180.707031 232.648438 C 180.359375 232.648438 180.007812 232.515625 179.765625 232.246094 C 179.390625 231.871094 179.121094 231.601562 179.980469 230.289062 L 179.929688 230.234375 C 179.929688 230.234375 180.0625 230.128906 180.167969 230.019531 C 181.457031 228.195312 184.652344 224.605469 191.796875 217.015625 C 189.59375 219.214844 187.582031 221.226562 185.78125 222.996094 C 180.8125 227.929688 178.316406 230.421875 176.949219 231.550781 C 175.550781 232.675781 175.308594 232.433594 174.800781 231.953125 C 174.425781 231.574219 174.15625 231.308594 174.988281 230.046875 L 174.90625 229.941406 C 174.90625 229.941406 175.09375 229.753906 175.308594 229.566406 C 172.785156 231.898438 172.492188 231.898438 172.113281 231.898438 C 171.765625 231.898438 171.390625 231.761719 171.148438 231.496094 C 170.449219 230.796875 174.246094 226.097656 182.53125 217.390625 C 188.171875 211.492188 195.449219 203.902344 203.394531 195.617188 C 202.859375 196.152344 202.347656 196.664062 201.8125 197.199219 L 178.183594 220.851562 C 173.941406 225.113281 171.363281 227.660156 169.753906 229.164062 C 168.972656 229.992188 168.515625 230.476562 168.4375 230.558594 L 168.300781 230.421875 C 167.175781 231.28125 166.933594 231.039062 166.503906 230.636719 C 166.019531 230.15625 165.804688 229.941406 166.636719 228.785156 L 166.53125 228.679688 C 166.53125 228.679688 166.960938 228.25 167.550781 227.6875 C 168.625 226.453125 170.371094 224.605469 173.136719 221.679688 L 190.050781 203.796875 C 193.003906 200.683594 196.171875 197.332031 199.449219 193.847656 C 165.832031 227.957031 163.710938 229.699219 162.664062 229.699219 C 162.316406 229.699219 161.9375 229.539062 161.695312 229.296875 C 161.105469 228.707031 160.839844 228.4375 162.71875 226.238281 C 160.140625 228.574219 159.84375 228.574219 159.523438 228.574219 C 159.171875 228.574219 158.796875 228.410156 158.554688 228.171875 C 158.449219 228.0625 158.339844 227.902344 158.261719 227.742188 C 157.910156 226.9375 158.3125 226.507812 159.09375 225.703125 C 169.082031 215.21875 179.472656 204.332031 189.648438 193.660156 C 158.582031 225.167969 156.542969 226.800781 155.496094 226.828125 C 155.144531 226.828125 154.769531 226.667969 154.527344 226.425781 C 153.507812 225.410156 153.1875 225.085938 179.820312 196.984375 C 152.351562 224.628906 152.164062 224.628906 151.414062 224.628906 C 151.066406 224.628906 150.714844 224.496094 150.472656 224.226562 C 150.257812 224.015625 150.070312 223.828125 150.125 223.449219 C 149.910156 223.558594 149.910156 223.53125 149.640625 223.558594 C 149.292969 223.558594 148.917969 223.425781 148.675781 223.15625 C 147.996094 222.476562 151.773438 217.8125 160.003906 209.160156 C 167.039062 201.785156 176.734375 191.648438 187.230469 180.707031 C 193.003906 174.675781 199.234375 168.1875 205.460938 161.667969 C 195.042969 172.207031 184.601562 182.773438 175.925781 191.566406 C 156.507812 211.25 146.542969 221.089844 146.042969 221.089844 C 145.695312 221.089844 145.34375 220.957031 145.105469 220.6875 C 144.648438 220.234375 144.378906 219.964844 145.265625 218.703125 C 145.265625 218.703125 145.320312 218.625 145.371094 218.570312 C 146.769531 216.640625 150.636719 212.589844 159.898438 202.855469 C 162.503906 200.121094 165.347656 197.117188 168.410156 193.929688 C 145.320312 217.097656 143.519531 218.382812 142.632812 218.382812 C 142.285156 218.382812 141.910156 218.222656 141.667969 217.980469 C 141.210938 217.523438 140.96875 217.285156 141.746094 216.128906 C 141.023438 216.746094 140.835938 216.746094 140.566406 216.746094 C 140.21875 216.746094 139.867188 216.613281 139.601562 216.34375 C 139.195312 215.941406 138.957031 215.703125 139.867188 214.308594 C 139.867188 214.308594 139.921875 214.226562 139.976562 214.199219 C 141.15625 212.484375 144.03125 209.078125 150.394531 201.839844 C 148.21875 204.035156 146.230469 206.019531 144.621094 207.628906 C 141.128906 211.117188 139.492188 212.777344 138.632812 213.554688 C 138.632812 213.554688 138.632812 213.554688 138.632812 213.582031 C 137.90625 214.226562 137.773438 214.226562 137.503906 214.226562 C 137.15625 214.226562 136.808594 214.09375 136.566406 213.824219 C 136.214844 213.476562 135.976562 213.234375 136.753906 212.054688 L 136.59375 211.894531 C 136.59375 211.894531 136.996094 211.492188 137.558594 210.929688 C 138.257812 210.015625 139.332031 208.757812 140.863281 206.988281 C 135.625 212.160156 135.382812 212.160156 134.953125 212.160156 C 134.605469 212.160156 134.257812 212.027344 134.015625 211.757812 C 133.613281 211.355469 133.371094 211.117188 134.257812 209.800781 L 134.203125 209.722656 C 134.203125 209.722656 134.335938 209.613281 134.472656 209.507812 C 136.054688 207.253906 140.351562 202.292969 150.824219 190.308594 C 146.714844 194.464844 142.792969 198.433594 139.789062 201.488281 C 136.027344 205.296875 134.09375 207.253906 133.046875 208.273438 C 132.699219 208.648438 132.511719 208.863281 132.457031 208.890625 L 132.402344 208.835938 C 131.8125 209.347656 131.707031 209.347656 131.4375 209.347656 C 130.710938 209.347656 130.148438 208.78125 130.09375 208.058594 C 130.09375 207.816406 130.09375 207.683594 130.308594 207.363281 C 129.828125 207.738281 129.691406 207.738281 129.476562 207.738281 C 129.128906 207.738281 128.777344 207.601562 128.539062 207.363281 C 128.109375 206.933594 127.894531 206.71875 128.777344 205.457031 L 128.671875 205.324219 C 128.671875 205.324219 128.992188 205.027344 129.34375 204.679688 C 130.710938 202.964844 133.503906 199.855469 138.792969 194.035156 C 139.144531 193.660156 139.492188 193.257812 139.867188 192.855469 C 127.492188 205.378906 127.25 205.378906 126.550781 205.378906 C 126.203125 205.378906 125.851562 205.242188 125.585938 204.976562 C 125.128906 204.519531 124.886719 204.277344 125.878906 202.910156 C 125.878906 202.910156 125.933594 202.855469 125.960938 202.832031 C 127.085938 201.300781 129.636719 198.433594 134.929688 192.585938 C 124.535156 202.992188 124.242188 202.992188 123.597656 202.992188 C 123.25 202.992188 122.898438 202.855469 122.628906 202.589844 C 122.226562 202.1875 121.984375 201.945312 122.953125 200.550781 L 122.953125 200.496094 C 122.953125 200.496094 123.007812 200.417969 123.085938 200.363281 C 123.570312 199.71875 124.269531 198.835938 125.316406 197.628906 C 121.851562 201.035156 121.609375 201.035156 121.152344 201.035156 C 120.804688 201.035156 120.457031 200.898438 120.1875 200.632812 C 119.917969 200.363281 119.703125 200.148438 119.945312 199.558594 C 119.730469 199.691406 119.625 199.691406 119.488281 199.691406 C 119.140625 199.691406 118.792969 199.558594 118.550781 199.289062 C 118.308594 199.050781 118.09375 198.835938 118.253906 198.324219 C 118.199219 198.324219 118.148438 198.324219 118.09375 198.324219 C 117.742188 198.324219 117.394531 198.191406 117.125 197.921875 C 116.75 197.546875 116.507812 197.304688 117.074219 196.367188 C 116.507812 196.796875 116.375 196.824219 116.160156 196.796875 C 115.8125 196.796875 115.460938 196.664062 115.191406 196.394531 C 114.738281 195.9375 114.46875 195.671875 115.40625 194.328125 C 116.832031 192.347656 120.992188 187.976562 131.277344 177.195312 C 133.101562 175.265625 135.0625 173.226562 137.101562 171.082031 C 114.144531 194.0625 113.769531 194.0625 113.046875 194.0625 C 112.695312 194.0625 112.347656 193.929688 112.078125 193.660156 C 111.703125 193.285156 111.433594 193.015625 112.425781 191.621094 L 112.375 191.542969 C 112.375 191.542969 112.507812 191.433594 112.617188 191.355469 C 113.421875 190.28125 114.898438 188.589844 117.394531 185.882812 C 111.355469 191.703125 111.03125 191.703125 110.65625 191.703125 C 110.304688 191.703125 109.957031 191.566406 109.6875 191.300781 C 109.285156 190.898438 109.019531 190.628906 110.011719 189.234375 C 110.011719 189.234375 110.066406 189.15625 110.089844 189.128906 C 111.164062 187.652344 113.636719 184.917969 118.65625 179.609375 C 113.796875 184.433594 111.355469 186.820312 110.039062 188 C 109.6875 188.378906 109.472656 188.589844 109.421875 188.671875 L 109.339844 188.617188 C 108.667969 189.179688 108.535156 189.179688 108.375 189.179688 C 108.023438 189.179688 107.675781 189.046875 107.433594 188.804688 C 107.003906 188.378906 106.761719 188.136719 107.675781 186.929688 L 107.566406 186.796875 C 107.566406 186.796875 107.996094 186.417969 108.480469 185.9375 C 110.039062 184.113281 113.097656 180.921875 118.792969 174.96875 C 120.1875 173.523438 121.691406 171.941406 123.273438 170.277344 C 107.085938 186.472656 106.789062 186.472656 106.089844 186.445312 C 105.742188 186.445312 105.394531 186.3125 105.125 186.042969 C 104.75 185.667969 104.480469 185.402344 105.472656 184.007812 L 105.472656 183.953125 C 105.472656 183.953125 105.527344 183.871094 105.609375 183.820312 C 107.191406 181.621094 111.542969 176.875 122.148438 165.71875 C 110.226562 177.730469 106.332031 181.511719 104.855469 182.71875 C 104.828125 182.746094 104.800781 182.773438 104.777344 182.800781 C 104.15625 183.28125 103.863281 183.253906 103.78125 183.28125 C 103.433594 183.28125 103.082031 183.148438 102.816406 182.878906 C 102.332031 182.398438 102.089844 182.15625 103.109375 180.84375 L 103.109375 180.789062 C 103.109375 180.789062 103.21875 180.679688 103.296875 180.601562 C 104.320312 179.367188 106.332031 177.25 109.984375 173.441406 L 119.246094 163.761719 C 102.84375 180.171875 102.441406 180.171875 101.769531 180.171875 C 101.417969 180.171875 101.070312 180.039062 100.800781 179.769531 C 100.34375 179.3125 100.078125 179.046875 101.152344 177.679688 C 101.152344 177.679688 101.203125 177.597656 101.230469 177.570312 C 101.339844 177.410156 101.472656 177.25 101.632812 177.089844 C 100.828125 177.703125 100.585938 177.652344 100.371094 177.703125 C 100.023438 177.703125 99.648438 177.570312 99.40625 177.300781 C 99.082031 176.980469 98.839844 176.738281 99.246094 175.910156 C 98.949219 175.855469 98.679688 175.71875 98.492188 175.53125 C 98.117188 175.15625 97.847656 174.890625 98.867188 173.414062 C 98.867188 173.414062 98.867188 173.386719 98.894531 173.359375 C 99.78125 172.128906 101.554688 170.035156 104.964844 166.363281 C 98.761719 172.421875 98.410156 172.421875 97.847656 172.421875 C 97.5 172.421875 97.125 172.289062 96.882812 172.019531 C 95.835938 170.972656 95.78125 170.921875 108.667969 157.433594 C 102.519531 163.628906 99.621094 166.523438 98.171875 167.863281 C 97.875 168.1875 97.6875 168.398438 97.605469 168.480469 L 97.554688 168.425781 C 96.855469 169.042969 96.667969 168.988281 96.53125 169.015625 C 96.183594 169.015625 95.835938 168.882812 95.59375 168.613281 C 95.164062 168.1875 94.921875 167.945312 95.78125 166.765625 L 95.671875 166.628906 C 95.671875 166.628906 96.050781 166.28125 96.503906 165.800781 C 95.96875 166.175781 95.835938 166.066406 95.621094 166.175781 C 95.269531 166.175781 94.921875 166.039062 94.652344 165.773438 C 94.007812 165.128906 96.246094 162.097656 101.367188 156.683594 C 105.609375 152.203125 111.515625 145.957031 118.253906 138.878906 C 120.75 136.25 123.464844 133.40625 126.253906 130.457031 C 95.566406 161.457031 95.242188 161.457031 94.382812 161.457031 C 94.035156 161.457031 93.6875 161.320312 93.417969 161.054688 C 92.691406 160.328125 92.476562 160.113281 95.835938 156.441406 C 94.195312 157.914062 93.953125 157.914062 93.6875 157.914062 C 93.335938 157.914062 92.988281 157.78125 92.71875 157.511719 C 92.15625 156.921875 91.914062 156.707031 93.335938 155.019531 C 93.308594 155.019531 93.285156 155.019531 93.230469 155.019531 C 92.882812 155.019531 92.53125 154.886719 92.289062 154.617188 C 91.914062 154.242188 91.644531 153.972656 92.53125 152.6875 L 92.453125 152.578125 C 92.453125 152.578125 92.613281 152.445312 92.746094 152.3125 C 92.453125 152.257812 92.183594 152.125 91.96875 151.9375 C 91.59375 151.558594 91.324219 151.292969 92.316406 149.871094 L 92.316406 149.816406 C 92.316406 149.816406 92.371094 149.765625 92.398438 149.738281 C 93.902344 147.644531 97.902344 143.195312 107.59375 132.871094 C 93.417969 147.054688 93.230469 147.054688 92.613281 147.054688 C 92.261719 147.054688 91.914062 146.921875 91.644531 146.652344 C 91.269531 146.277344 91 146.011719 91.914062 144.695312 L 91.859375 144.617188 C 91.859375 144.617188 92.023438 144.480469 92.183594 144.347656 C 92.476562 143.972656 92.828125 143.515625 93.285156 142.953125 C 92.882812 143.273438 92.71875 143.355469 92.585938 143.246094 C 92.238281 143.246094 91.886719 143.113281 91.644531 142.84375 C 91.269531 142.46875 91 142.203125 91.832031 140.863281 L 91.832031 140.808594 C 91.832031 140.808594 91.886719 140.726562 91.96875 140.648438 C 93.5 138.367188 98.007812 133.246094 109.660156 120.5625 C 99.109375 131.234375 95.511719 134.800781 94.089844 136.007812 C 94.089844 136.007812 94.0625 136.0625 94.035156 136.0625 C 93.363281 136.625 93.203125 136.625 92.960938 136.625 C 92.613281 136.625 92.261719 136.492188 92.023438 136.25 C 91.511719 135.738281 91.269531 135.5 92.238281 134.238281 C 92.238281 134.238281 92.289062 134.15625 92.34375 134.105469 C 93.175781 133.03125 94.789062 131.261719 97.632812 128.152344 C 100.910156 124.558594 105.339844 119.703125 110.226562 114.339844 C 94.839844 129.761719 94.574219 129.761719 93.953125 129.761719 C 93.523438 129.761719 93.257812 129.625 92.988281 129.359375 C 92.613281 128.984375 92.371094 128.742188 93.285156 127.375 L 93.230469 127.292969 C 93.230469 127.292969 93.390625 127.160156 93.550781 127.023438 C 94.921875 125.121094 98.195312 121.421875 105.285156 113.5625 C 96.53125 122.304688 96.289062 122.304688 95.726562 122.304688 C 95.378906 122.304688 95.027344 122.171875 94.789062 121.902344 C 94.410156 121.527344 94.167969 121.285156 95.082031 119.945312 L 95.003906 119.839844 C 95.003906 119.839844 95.21875 119.652344 95.40625 119.488281 C 96.023438 118.660156 96.988281 117.503906 98.4375 115.816406 C 98.171875 115.976562 98.035156 115.976562 97.875 115.976562 C 97.527344 115.976562 97.175781 115.84375 96.910156 115.574219 C 96.480469 115.144531 96.238281 114.90625 97.175781 113.5625 L 97.175781 113.511719 C 97.175781 113.511719 97.257812 113.429688 97.339844 113.347656 C 97.929688 112.570312 98.839844 111.472656 100.292969 109.835938 C 100.105469 109.78125 99.941406 109.648438 99.753906 109.460938 C 99.351562 109.058594 99.109375 108.816406 99.890625 107.585938 L 99.78125 107.476562 C 99.78125 107.476562 99.996094 107.261719 100.265625 106.996094 C 101.285156 105.574219 103.273438 103.132812 106.921875 98.789062 L 106.921875 98.414062 L 107.863281 97.476562 L 106.921875 98.414062 L 106.089844 97.367188 C 106.601562 96.910156 112.832031 90.636719 116.1875 87.285156 C 117.609375 85.835938 118.441406 85.007812 118.980469 84.523438 C 119.003906 84.496094 119.03125 84.46875 119.03125 84.441406 C 119.675781 83.878906 119.8125 83.878906 120.132812 83.878906 C 120.484375 83.878906 120.804688 84.015625 121.046875 84.253906 C 121.53125 84.738281 121.769531 84.953125 120.964844 86.132812 C 125.746094 81.332031 127.785156 79.320312 128.777344 78.515625 C 128.832031 78.464844 128.886719 78.410156 128.886719 78.382812 C 129.476562 77.925781 129.636719 77.925781 129.878906 77.925781 C 130.230469 77.925781 130.578125 78.0625 130.820312 78.328125 C 131.195312 78.703125 131.410156 78.917969 131.277344 79.320312 C 132.859375 77.738281 133.828125 76.773438 134.445312 76.210938 C 134.578125 76.078125 134.660156 75.96875 134.6875 75.917969 L 134.714844 75.917969 C 135.382812 75.351562 135.597656 75.351562 135.761719 75.378906 C 136.109375 75.378906 136.457031 75.515625 136.726562 75.78125 C 137.101562 76.183594 137.34375 76.398438 136.511719 77.578125 L 136.644531 77.738281 C 136.644531 77.738281 136.164062 78.222656 135.519531 78.867188 C 134.902344 79.589844 134.070312 80.554688 132.96875 81.789062 C 136.78125 77.953125 138.980469 75.78125 140.324219 74.601562 C 140.566406 74.335938 140.699219 74.144531 140.78125 74.039062 L 140.914062 74.121094 C 142.230469 73.074219 142.472656 73.316406 142.902344 73.742188 C 143.277344 74.121094 143.519531 74.359375 142.6875 75.59375 L 142.792969 75.726562 C 142.792969 75.726562 142.472656 76.050781 142.070312 76.425781 C 140.269531 78.8125 135.921875 83.640625 126.335938 94.230469 C 129.800781 90.746094 133.074219 87.417969 135.894531 84.605469 C 142.472656 77.980469 145.828125 74.574219 147.65625 72.964844 C 147.949219 72.617188 148.136719 72.375 148.21875 72.269531 L 148.351562 72.375 C 149.640625 71.359375 149.882812 71.597656 150.285156 72.027344 C 150.714844 72.457031 150.957031 72.699219 150.152344 73.90625 L 150.230469 73.984375 C 150.230469 73.984375 150.015625 74.171875 149.777344 74.414062 C 148.378906 76.292969 145.023438 79.964844 137.933594 87.769531 C 136.726562 89.109375 135.464844 90.503906 134.148438 91.953125 C 155.359375 70.554688 155.601562 70.554688 156.355469 70.554688 C 156.703125 70.554688 157.050781 70.6875 157.320312 70.957031 C 157.945312 71.582031 156.558594 73.734375 153.160156 77.417969 C 150.5 80.285156 146.769531 84.335938 142.445312 89 C 139.277344 92.40625 135.597656 96.402344 131.679688 100.613281 C 162.234375 70.125 162.53125 70.125 163.335938 70.125 C 163.683594 70.125 164.03125 70.257812 164.300781 70.527344 C 164.8125 71.035156 165.082031 71.304688 164.113281 72.617188 C 166.851562 69.964844 167.039062 69.964844 167.363281 69.964844 C 167.710938 69.964844 168.058594 70.097656 168.300781 70.367188 C 168.785156 70.847656 169.054688 71.117188 168.140625 72.375 C 167.039062 73.933594 164.195312 76.933594 157.964844 83.613281 C 155.789062 85.917969 153.375 88.492188 150.769531 91.28125 C 171.875 69.9375 172.167969 69.9375 172.972656 69.910156 C 173.324219 69.910156 173.699219 70.042969 173.941406 70.3125 C 174.183594 70.554688 174.371094 70.742188 174.289062 71.144531 C 175.550781 69.988281 175.710938 69.964844 175.925781 69.964844 C 176.167969 69.910156 176.625 70.097656 176.894531 70.367188 C 177.191406 70.660156 177.429688 70.902344 177.027344 71.679688 C 177.136719 71.574219 177.242188 71.492188 177.324219 71.382812 C 177.808594 70.902344 178.074219 70.605469 178.128906 70.527344 L 178.183594 70.582031 C 178.773438 70.070312 178.933594 70.070312 179.121094 70.070312 C 179.847656 70.070312 180.4375 70.660156 180.464844 71.382812 C 180.464844 71.597656 180.464844 71.734375 179.902344 72.402344 L 179.953125 72.457031 C 179.953125 72.457031 179.6875 72.699219 179.417969 72.964844 C 178.746094 73.71875 177.617188 74.925781 175.792969 76.828125 C 182.371094 70.3125 182.613281 70.3125 183.125 70.3125 C 183.472656 70.3125 183.820312 70.445312 184.089844 70.714844 C 184.4375 71.0625 184.707031 71.359375 183.792969 72.726562 L 183.847656 72.777344 C 183.847656 72.777344 183.742188 72.859375 183.660156 72.941406 C 181.699219 75.730469 175.445312 82.59375 157.722656 101.363281 C 160.328125 98.707031 162.851562 96.1875 165.214844 93.800781 C 180.195312 78.652344 185.269531 73.53125 187.203125 71.761719 C 187.339844 71.625 187.417969 71.519531 187.472656 71.464844 L 187.527344 71.464844 C 188.25 70.875 188.386719 70.875 188.574219 70.875 C 188.921875 70.875 189.273438 71.007812 189.511719 71.277344 C 189.917969 71.679688 190.15625 71.921875 189.296875 73.128906 C 191.3125 71.304688 191.554688 71.304688 191.824219 71.304688 C 192.277344 71.332031 192.519531 71.4375 192.789062 71.707031 C 193.515625 72.429688 193.78125 72.671875 189.296875 77.523438 C 194.9375 72 195.285156 72 195.824219 72 C 196.171875 72 196.546875 72.136719 196.789062 72.402344 C 197.808594 73.421875 197.863281 73.476562 186.9375 84.925781 C 198.964844 72.914062 199.339844 72.914062 200.039062 72.914062 C 200.386719 72.914062 200.761719 73.046875 201.003906 73.316406 C 201.167969 73.476562 201.300781 73.609375 201.382812 73.746094 C 201.835938 73.449219 202.027344 73.476562 202.214844 73.449219 C 202.5625 73.449219 202.9375 73.582031 203.179688 73.851562 C 203.636719 74.308594 203.90625 74.574219 202.671875 76.210938 C 204.683594 74.308594 204.898438 74.308594 205.246094 74.308594 C 205.597656 74.308594 205.945312 74.441406 206.1875 74.710938 C 206.699219 75.21875 206.9375 75.460938 205.945312 76.773438 C 205.945312 76.773438 205.917969 76.800781 205.890625 76.828125 C 204.898438 78.089844 202.777344 80.339844 198.640625 84.738281 C 197.675781 85.757812 196.65625 86.828125 195.554688 88.007812 C 208.011719 75.621094 208.390625 75.621094 209.035156 75.621094 C 209.382812 75.621094 209.757812 75.753906 210 76.023438 C 210.734375 76.757812 206.097656 82.359375 196.089844 92.835938 C 192.789062 96.296875 189.003906 100.238281 184.949219 104.445312 C 211.988281 77.175781 212.175781 77.175781 212.953125 77.175781 C 213.300781 77.175781 213.652344 77.3125 213.894531 77.578125 C 214.554688 78.238281 212.542969 81.039062 207.851562 85.972656 C 204.226562 89.78125 199.207031 95.0625 193.300781 101.257812 C 206.617188 87.929688 212.066406 82.511719 214.402344 80.3125 C 214.914062 79.777344 215.234375 79.429688 215.316406 79.320312 L 215.398438 79.402344 C 216.066406 78.8125 216.230469 78.8125 216.363281 78.8125 C 216.710938 78.8125 217.0625 78.945312 217.304688 79.1875 C 217.785156 79.644531 218.027344 79.886719 217.113281 81.089844 L 217.195312 81.199219 C 217.195312 81.199219 216.847656 81.519531 216.445312 81.921875 C 215.234375 83.316406 213.0625 85.597656 209.273438 89.511719 C 204.226562 94.738281 197.164062 102.0625 189.136719 110.375 C 187.847656 111.6875 186.53125 113.054688 185.191406 114.449219 C 194.480469 105.089844 202.644531 96.859375 208.148438 91.308594 C 213.140625 86.265625 215.800781 83.585938 217.304688 82.136719 C 217.972656 81.441406 218.378906 81.011719 218.457031 80.929688 L 218.539062 80.984375 C 219.128906 80.476562 219.261719 80.476562 219.476562 80.476562 C 219.828125 80.476562 220.148438 80.609375 220.417969 80.851562 C 220.980469 81.386719 221.222656 81.628906 220.335938 82.726562 L 220.390625 82.78125 C 220.390625 82.78125 220.042969 83.101562 219.585938 83.585938 C 218.886719 84.363281 217.867188 85.410156 216.417969 86.910156 L 205.703125 97.984375 C 202.882812 100.90625 199.636719 104.257812 196.117188 107.90625 C 221.546875 82.269531 221.652344 82.269531 222.351562 82.246094 C 222.671875 82.136719 223.050781 82.378906 223.316406 82.648438 C 223.773438 83.101562 224.042969 83.371094 223.128906 84.65625 C 223.128906 84.65625 223.074219 84.710938 223.050781 84.765625 C 221.570312 86.804688 217.304688 91.308594 206.589844 102.542969 C 205.167969 104.046875 203.664062 105.628906 202.105469 107.234375 C 224.605469 84.683594 224.980469 84.683594 225.734375 84.683594 C 226.082031 84.683594 226.433594 84.820312 226.699219 85.085938 C 227.128906 85.515625 227.371094 85.757812 226.671875 86.75 C 227.828125 85.757812 228.042969 85.972656 228.632812 86.5625 C 229.089844 87.015625 229.359375 87.285156 228.554688 88.4375 L 228.605469 88.519531 C 228.605469 88.519531 228.390625 88.734375 228.125 89 C 226.699219 90.773438 223.34375 94.175781 216.308594 101.308594 C 208.683594 109.085938 198.1875 119.652344 186.960938 130.992188 C 185.164062 132.816406 183.3125 134.667969 181.433594 136.570312 C 181.808594 136.945312 182.023438 137.242188 181.136719 138.527344 L 181.136719 138.582031 C 181.136719 138.582031 181.054688 138.691406 180.976562 138.769531 C 180.25 139.734375 178.988281 141.238281 176.8125 143.570312 C 176.921875 143.625 177.027344 143.703125 177.109375 143.785156 C 177.511719 144.1875 177.753906 144.429688 176.785156 145.796875 L 176.839844 145.875 C 176.839844 145.875 176.707031 145.984375 176.597656 146.0625 C 175.875 147.054688 174.585938 148.558594 172.4375 150.917969 C 172.652344 150.703125 172.867188 150.515625 173.027344 150.378906 C 173.109375 150.273438 173.1875 150.191406 173.214844 150.167969 L 173.242188 150.167969 C 173.886719 149.628906 174.046875 149.710938 174.261719 149.65625 C 174.613281 149.65625 174.960938 149.789062 175.203125 150.058594 C 175.738281 150.59375 175.953125 150.808594 175.015625 152.042969 C 175.015625 152.042969 174.933594 152.152344 174.851562 152.230469 C 174.128906 153.144531 172.867188 154.5625 170.746094 156.898438 L 162.234375 166.308594 C 172.4375 155.984375 172.570312 155.984375 173.242188 155.984375 C 173.589844 155.984375 173.941406 156.117188 174.183594 156.386719 C 174.558594 156.761719 174.800781 157.003906 173.914062 158.371094 L 173.96875 158.453125 C 173.96875 158.453125 173.804688 158.585938 173.699219 158.691406 C 172.652344 160.195312 170.449219 162.796875 166.128906 167.675781 C 172.222656 161.617188 172.4375 161.617188 172.945312 161.617188 C 173.214844 161.589844 173.644531 161.75 173.914062 162.019531 C 174.34375 162.449219 174.613281 162.714844 173.671875 164.03125 L 173.671875 164.082031 C 173.671875 164.082031 173.617188 164.164062 173.539062 164.21875 C 173.351562 164.484375 173.109375 164.78125 172.839844 165.128906 C 172.894531 165.128906 172.945312 165.128906 173 165.128906 C 173.351562 165.128906 173.699219 165.261719 173.96875 165.53125 C 174.371094 165.933594 174.640625 166.175781 173.671875 167.621094 C 172.277344 169.714844 168.300781 174.328125 158.582031 185.480469 C 161.9375 182.128906 165.617188 178.402344 169.644531 174.351562 C 170.90625 173.066406 171.765625 172.207031 172.382812 171.671875 C 172.4375 171.617188 172.464844 171.5625 172.492188 171.539062 C 173.617188 170.574219 173.832031 170.761719 174.449219 171.269531 C 174.855469 171.671875 175.09375 171.914062 174.34375 173.066406 L 174.503906 173.253906 C 174.503906 173.253906 174.019531 173.738281 173.324219 174.433594 C 172.4375 175.53125 171.09375 177.089844 169.109375 179.339844 C 175.550781 172.957031 175.710938 172.957031 176.167969 172.957031 C 176.519531 172.957031 176.867188 173.09375 177.109375 173.359375 C 177.511719 173.761719 177.753906 174.003906 176.894531 175.265625 L 176.976562 175.34375 C 176.976562 175.34375 176.785156 175.507812 176.597656 175.695312 C 175.335938 177.4375 172.492188 180.761719 166.558594 187.519531 C 184.277344 169.554688 184.386719 169.554688 185.191406 169.554688 C 185.539062 169.554688 185.890625 169.6875 186.15625 169.957031 C 186.585938 170.382812 186.800781 170.625 185.835938 171.914062 L 185.914062 172.019531 C 185.914062 172.019531 185.675781 172.234375 185.433594 172.421875 C 184.4375 173.65625 182.640625 175.613281 179.578125 178.9375 C 190.5625 167.863281 202.402344 155.851562 212.847656 145.257812 C 238.53125 119.214844 251.6875 106.191406 252.316406 106.191406 C 252.664062 106.191406 253.011719 106.324219 253.253906 106.59375 C 254.042969 107.378906 248.199219 114.339844 235.722656 127.480469 C 253.121094 110.160156 254.839844 108.953125 255.644531 108.953125 C 255.992188 108.953125 256.371094 109.113281 256.613281 109.355469 C 257.417969 110.160156 250.320312 118.460938 235.320312 134.265625 C 257.578125 111.820312 257.980469 111.820312 258.785156 111.820312 C 259.136719 111.820312 259.511719 111.957031 259.753906 112.222656 C 260.074219 112.546875 260.289062 112.757812 260.15625 113.269531 C 260.183594 113.269531 260.234375 113.269531 260.234375 113.269531 C 260.585938 113.269531 260.933594 113.402344 261.203125 113.671875 C 261.6875 114.152344 261.925781 114.421875 260.933594 115.710938 C 260.933594 115.710938 260.855469 115.789062 260.800781 115.84375 C 259.78125 117.15625 257.578125 119.4375 253.417969 123.808594 C 248.53125 128.957031 241.65625 136.117188 233.816406 144.292969 C 227.128906 151.292969 219.371094 159.417969 211.394531 167.757812 C 261.738281 116.566406 262.0625 116.566406 263.191406 116.566406 C 263.566406 116.539062 263.914062 116.703125 264.15625 116.96875 C 264.585938 117.398438 264.855469 117.667969 263.78125 119.089844 C 262.304688 121.046875 258.4375 125.148438 249.363281 134.722656 C 242.40625 142.066406 233.601562 151.347656 224.257812 161.1875 C 234.351562 150.96875 243.722656 141.476562 250.652344 134.480469 C 260.335938 124.664062 265.375 119.757812 265.765625 119.757812 C 266.117188 119.757812 266.464844 119.890625 266.707031 120.160156 C 267.054688 120.507812 267.351562 120.804688 266.546875 122.011719 L 266.625 122.117188 C 266.625 122.117188 266.410156 122.332031 266.144531 122.601562 C 265.902344 122.921875 265.605469 123.324219 265.230469 123.78125 C 266.921875 122.277344 267.191406 122.277344 267.511719 122.277344 C 267.863281 122.277344 268.238281 122.414062 268.480469 122.679688 C 269.105469 123.308594 266.527344 126.703125 260.746094 132.871094 C 255.886719 138.046875 249.09375 145.257812 241.359375 153.4375 C 238.917969 156.011719 236.394531 158.691406 233.816406 161.429688 C 259.1875 136.0625 266.4375 128.847656 268.746094 126.8125 C 268.746094 126.8125 268.746094 126.8125 268.746094 126.785156 C 269.632812 126.007812 269.769531 126.007812 269.929688 126.007812 C 270.277344 126.007812 270.628906 126.140625 270.867188 126.410156 C 271.21875 126.757812 271.484375 127.023438 270.679688 128.285156 L 270.761719 128.394531 C 270.761719 128.394531 270.519531 128.605469 270.277344 128.847656 C 268.34375 131.476562 262.894531 137.402344 248.984375 151.988281 C 264.074219 136.730469 268.960938 131.824219 270.734375 130.269531 C 270.789062 130.214844 270.816406 130.1875 270.839844 130.164062 C 271.59375 129.546875 271.726562 129.546875 271.941406 129.546875 C 272.292969 129.546875 272.640625 129.679688 272.882812 129.949219 C 273.367188 130.429688 273.605469 130.671875 272.695312 131.90625 L 272.695312 131.960938 C 272.695312 131.960938 272.613281 132.066406 272.480469 132.171875 C 271.863281 132.953125 270.867188 134.078125 269.285156 135.738281 C 270.628906 134.425781 271.460938 133.59375 272.023438 133.085938 C 272.105469 133.003906 272.15625 132.925781 272.183594 132.871094 L 272.210938 132.871094 C 272.988281 132.199219 273.125 132.199219 273.3125 132.199219 C 273.660156 132.199219 274.011719 132.335938 274.25 132.601562 C 274.707031 133.058594 274.976562 133.328125 274.171875 134.480469 L 274.226562 134.535156 C 274.226562 134.535156 274.089844 134.667969 273.902344 134.855469 C 272.613281 136.519531 269.554688 139.734375 263 146.601562 C 259.1875 150.59375 254.652344 155.339844 249.628906 160.542969 C 266.492188 143.648438 271.863281 138.261719 273.769531 136.542969 C 273.769531 136.542969 273.769531 136.519531 273.796875 136.519531 C 274.65625 135.765625 274.871094 135.738281 274.976562 135.765625 C 275.324219 135.765625 275.675781 135.902344 275.917969 136.167969 C 276.292969 136.542969 276.5625 136.8125 275.726562 138.019531 L 275.835938 138.125 C 275.835938 138.125 275.566406 138.394531 275.21875 138.714844 C 275.03125 138.957031 274.816406 139.226562 274.574219 139.519531 C 274.65625 139.46875 274.707031 139.386719 274.761719 139.332031 C 274.894531 139.199219 274.976562 139.089844 275.03125 139.039062 L 275.085938 139.039062 C 275.78125 138.476562 276.078125 138.476562 276.132812 138.476562 C 276.480469 138.476562 276.828125 138.609375 277.070312 138.878906 C 277.421875 139.226562 277.660156 139.46875 277.125 140.324219 C 277.367188 140.351562 277.582031 140.539062 277.847656 140.808594 C 278.304688 141.265625 278.546875 141.503906 277.6875 142.632812 L 277.796875 142.765625 C 277.796875 142.765625 277.179688 143.382812 276.292969 144.265625 C 275.03125 145.660156 273.042969 147.726562 269.984375 150.890625 C 267.21875 153.757812 263.617188 157.488281 259.484375 161.777344 C 277.367188 143.730469 277.445312 143.730469 278.0625 143.703125 L 278.0625 145.042969 C 278.0625 145.042969 277.125 145.984375 277.125 145.984375 L 278.0625 145.042969 L 278.871094 146.117188 C 278.0625 146.8125 266.332031 158.640625 252.773438 172.34375 C 192.089844 233.640625 191.714844 233.640625 190.695312 233.640625 Z M 191.015625 233.453125 " fill-opacity="1" fill-rule="nonzero"/><path fill="#000000" d="M 282.601562 134.210938 C 276.640625 120.722656 267.699219 108.363281 255.726562 99.621094 L 248.503906 94.445312 C 248.503906 94.445312 243.644531 90.960938 239.589844 88.035156 C 237.171875 86 234.78125 84.148438 232.472656 82.671875 C 231.828125 82.269531 231.128906 81.921875 230.460938 81.519531 C 226.78125 78.8125 222.699219 75.730469 219.101562 74.039062 C 209.542969 69.023438 197.515625 66.046875 184.816406 65.003906 C 176.304688 63.929688 167.65625 63.824219 159.199219 64.199219 C 133.53125 64.976562 111.40625 76.613281 98.679688 96.324219 C 90.089844 106.429688 84.34375 119.195312 82.679688 134.105469 C 80.664062 150.730469 84.074219 168.050781 92.640625 182.15625 C 97.097656 190.710938 103.296875 198.324219 111.21875 204.414062 C 111.21875 204.414062 111.164062 204.464844 111.164062 204.464844 C 117.933594 209.5625 124.726562 214.628906 131.542969 219.671875 L 114.386719 221.976562 L 93.929688 223.238281 L 91.402344 223.398438 C 91.511719 223.933594 91.617188 224.46875 91.726562 225.007812 C 91.054688 225.085938 89.550781 225.300781 89.550781 225.300781 C 89.902344 226.613281 90.332031 227.902344 90.734375 229.1875 C 90.304688 229.269531 89.875 229.351562 89.472656 229.429688 L 86.8125 229.914062 C 86.8125 229.914062 87.699219 232.40625 87.699219 232.40625 C 92.613281 248.253906 100.988281 263.886719 114.761719 273.730469 L 114.710938 273.808594 L 115.863281 274.613281 L 133.371094 286.789062 C 133.371094 286.789062 134.820312 287.804688 136.539062 288.984375 C 137.71875 290.085938 138.605469 290.890625 138.605469 290.890625 C 153.265625 305.101562 174.289062 309.230469 193.917969 310.382812 C 193.917969 310.382812 193.917969 310.304688 193.917969 310.167969 C 218.269531 311.429688 243.214844 305.90625 261.417969 289.308594 C 271.699219 280.21875 278.519531 268.605469 283.003906 256.03125 C 287.191406 246.644531 290.09375 236.082031 291.597656 224.335938 C 292.804688 214.308594 293.476562 204.144531 293.421875 193.953125 C 294.390625 171.941406 291.703125 151.828125 282.574219 134.210938 Z M 85.925781 147.699219 C 85.765625 141.828125 86.277344 135.902344 87.457031 130.164062 C 85.578125 151.585938 92.53125 173.789062 108.292969 188.457031 C 111.835938 193.605469 116.160156 198.21875 121.261719 202.132812 C 121.261719 202.132812 121.261719 202.160156 121.261719 202.160156 C 121.261719 202.160156 131.652344 210.472656 136.082031 213.984375 C 137.371094 215.191406 138.5 216.210938 139.359375 217.015625 C 139.867188 217.496094 140.378906 217.953125 140.886719 218.4375 L 138.714844 218.730469 C 138.5 218.570312 130.042969 212.617188 130.042969 212.617188 L 114.414062 201.570312 L 114.46875 201.460938 C 109.6875 198.378906 105.394531 194.597656 101.660156 190.363281 C 91.859375 178.457031 86.679688 163.25 85.953125 147.726562 Z M 102.359375 99.058594 C 105.582031 95.222656 109.207031 91.953125 113.152344 89.136719 C 98.171875 104.070312 90.277344 125.925781 92.398438 147.859375 C 92.828125 155.796875 94.734375 163.601562 97.875 170.839844 C 96.425781 168 95.191406 165.046875 94.222656 162.019531 C 87.644531 141.238281 90.570312 117.34375 102.386719 99.03125 Z M 124.535156 82.648438 C 126.175781 81.894531 127.839844 81.226562 129.53125 80.609375 C 109.367188 93.480469 97.742188 116.753906 96.316406 140.433594 C 95.886719 145.3125 95.914062 150.21875 96.398438 155.101562 C 94.707031 146.359375 94.546875 137.296875 96.023438 128.554688 C 98.707031 110.050781 109.3125 93.105469 124.5625 82.671875 Z M 187.527344 226.828125 C 186.960938 226.855469 186.398438 226.882812 185.835938 226.910156 C 186.425781 226.855469 186.988281 226.804688 187.582031 226.75 C 187.582031 226.75 187.582031 226.804688 187.554688 226.804688 Z M 181.296875 248.386719 L 177.617188 245.332031 C 178.238281 245.011719 178.828125 244.6875 179.390625 244.339844 L 180.707031 245.414062 C 182.910156 244.582031 184.839844 243.265625 186.613281 241.710938 C 188.386719 240.585938 189.96875 239.246094 191.445312 237.742188 C 192.574219 237.691406 193.730469 237.582031 194.855469 237.5 C 191.714844 242.515625 187.070312 246.804688 181.324219 248.363281 Z M 179.5 238.683594 C 179.5 238.734375 179.472656 238.761719 179.445312 238.816406 C 179.445312 238.789062 179.445312 238.761719 179.445312 238.734375 C 179.445312 238.734375 179.472656 238.734375 179.5 238.683594 Z M 180.839844 234.445312 C 179.820312 234.390625 178.828125 234.3125 177.808594 234.175781 C 175.847656 233.988281 173.859375 233.613281 171.875 233.210938 L 171.175781 232.675781 C 175.121094 232.917969 179.097656 232.835938 183.042969 232.460938 C 182.34375 233.15625 181.59375 233.828125 180.8125 234.417969 Z M 154.339844 226.210938 C 153.804688 225.863281 153.238281 225.488281 152.703125 225.113281 L 152.863281 225.113281 C 152.863281 225.113281 154.339844 226.210938 154.339844 226.210938 Z M 163.363281 233.050781 L 173.109375 240.453125 C 173.109375 240.453125 173.671875 240.878906 173.671875 240.878906 C 173.96875 240.800781 174.234375 240.691406 174.53125 240.585938 L 177.164062 242.542969 C 176.570312 242.863281 175.953125 243.160156 175.308594 243.402344 L 162.234375 232.542969 C 162.609375 232.703125 162.984375 232.890625 163.363281 233.023438 Z M 185.054688 234.578125 L 185.433594 233.535156 C 185.890625 233.023438 186.34375 232.542969 186.773438 232.003906 C 186.9375 232.003906 187.097656 231.953125 187.257812 231.925781 C 186.773438 232.835938 186.265625 233.722656 185.699219 234.578125 C 185.484375 234.578125 185.296875 234.578125 185.082031 234.578125 Z M 178.476562 230.851562 C 175.121094 231.066406 171.792969 230.960938 168.488281 230.609375 L 165.242188 228.144531 C 169.859375 229.539062 174.613281 230.421875 179.417969 230.769531 C 179.097656 230.769531 178.773438 230.851562 178.476562 230.851562 Z M 150.421875 225.488281 C 150.609375 225.621094 150.796875 225.785156 150.984375 225.917969 C 150.714844 225.785156 150.421875 225.648438 150.152344 225.542969 Z M 147.117188 228.410156 L 147.226562 228.492188 L 146.230469 228.597656 Z M 188.789062 234.527344 C 188.789062 234.527344 188.546875 234.527344 188.441406 234.527344 C 189.164062 233.292969 189.753906 232.003906 190.320312 230.691406 C 190.855469 230.636719 191.394531 230.582031 191.957031 230.53125 C 191.015625 231.953125 189.96875 233.292969 188.816406 234.527344 Z M 251.777344 273.753906 C 228.152344 294.914062 192.84375 297.511719 163.039062 290.488281 C 161.75 290.164062 160.515625 289.738281 159.28125 289.308594 C 151.761719 285.285156 144.996094 279.601562 138.203125 274.640625 C 138.203125 274.640625 124.511719 264.398438 123.355469 263.539062 C 123.355469 263.539062 123.355469 263.511719 123.355469 263.511719 C 114.523438 257.210938 108.238281 248.121094 103.96875 238.171875 L 151.816406 231.628906 L 173.511719 246.378906 L 174.101562 246.78125 C 174.261719 246.726562 174.425781 246.644531 174.585938 246.59375 L 180.144531 250.960938 C 180.144531 250.960938 180.679688 251.390625 180.679688 251.390625 C 189.136719 249.460938 195.257812 242.597656 198.75 234.980469 C 197.113281 235.0625 195.285156 235.25 193.433594 235.4375 C 195.742188 232.515625 197.621094 229.1875 199.019531 225.757812 C 196.089844 226.023438 193.164062 226.347656 190.238281 226.613281 C 190.667969 225.8125 191.070312 224.980469 191.445312 224.175781 C 187.582031 224.46875 182.746094 225.246094 178.882812 225.246094 C 172.894531 225.328125 166.960938 224.417969 161.265625 222.699219 C 155.953125 220.472656 150.929688 217.445312 146.339844 213.769531 L 137.71875 207.335938 L 122.363281 195.859375 L 122.414062 195.804688 C 121.664062 195.320312 120.964844 194.785156 120.269531 194.25 C 106.898438 182.210938 100.238281 165.023438 99.59375 147.40625 C 100.15625 130.054688 106.519531 112.839844 118.363281 100.128906 C 136.054688 80.878906 163.816406 77.285156 188.816406 78.8125 C 195.421875 79.1875 202.050781 80.152344 208.46875 81.816406 C 210.992188 83.101562 213.464844 84.605469 215.800781 86.292969 C 220.980469 89.753906 234.78125 99.109375 240.097656 102.703125 C 251.242188 109.570312 259.941406 119.597656 266.117188 131.074219 C 278.0625 153.972656 279.757812 180.679688 278.949219 206.046875 C 278.574219 214.976562 277.554688 224.09375 275.621094 232.941406 C 271.296875 248.441406 263.96875 262.949219 251.777344 273.78125 Z M 281.125 197.28125 C 280.398438 174.433594 277.3125 151.160156 266.597656 130.777344 C 260.476562 119.222656 251.644531 109.058594 240.6875 101.871094 C 240.6875 101.871094 224.820312 90.421875 224.820312 90.421875 C 222.324219 88.761719 219.425781 86.480469 216.523438 84.363281 C 222.621094 86.722656 228.390625 89.886719 233.519531 94.175781 C 238.460938 97.984375 251.535156 108.28125 256.613281 112.25 C 260.371094 114.933594 263.753906 118.015625 266.839844 121.367188 C 268.613281 124.183594 270.199219 127.105469 271.621094 130.109375 C 281.179688 151.023438 282.441406 174.515625 281.097656 197.28125 Z M 252.664062 103.644531 C 261.363281 110.480469 268.15625 118.925781 273.3125 128.367188 C 271.351562 125.578125 269.230469 122.894531 266.921875 120.375 C 262.976562 114.152344 258.195312 108.496094 252.664062 103.617188 Z M 222.242188 81.628906 C 222.753906 82.003906 223.265625 82.378906 223.746094 82.78125 C 228.742188 86.507812 242.03125 96.5625 247.160156 100.453125 C 253.980469 105.171875 259.753906 111.125 264.503906 117.828125 C 262.222656 115.574219 259.804688 113.457031 257.253906 111.5 C 257.253906 111.5 242.246094 98.976562 242.246094 98.976562 C 237.65625 95.4375 231.855469 89.617188 226.863281 86.722656 C 220.308594 82.621094 213.195312 79.804688 205.8125 77.902344 C 199.070312 74.710938 191.957031 72.699219 184.652344 71.546875 C 194.320312 72.027344 203.984375 73.476562 213.113281 76.320312 C 216.308594 77.820312 219.371094 79.589844 222.269531 81.628906 Z M 170.183594 74.011719 C 174.558594 73.957031 178.933594 74.144531 183.3125 74.628906 C 178.640625 74.386719 173.96875 74.359375 169.347656 74.496094 C 149.964844 74.738281 132.539062 81.199219 119.515625 92.730469 C 126.390625 85.597656 134.820312 80.125 144.082031 76.558594 C 152.703125 74.84375 161.589844 74.121094 170.207031 74.039062 Z M 278.898438 233.988281 C 281.125 224.710938 282.332031 215.164062 282.84375 205.832031 C 283.945312 180.253906 282.949219 153.492188 272.105469 129.867188 C 271.136719 127.75 270.035156 125.710938 268.882812 123.699219 C 271.460938 126.757812 273.820312 130 275.890625 133.433594 C 280.695312 143.597656 283.808594 154.699219 285.664062 165.988281 C 287.382812 179.476562 287.273438 193.257812 286.441406 206.664062 C 284.882812 227.875 279.835938 250.320312 266.625 267.160156 C 272.9375 257.128906 276.75 245.707031 278.871094 233.933594 Z M 191.769531 304.484375 C 204.65625 304.21875 217.542969 302.042969 229.332031 297.40625 C 241.414062 293.707031 252.609375 287.617188 261.875 278.609375 C 274.761719 266.246094 281.796875 249.730469 285.339844 232.460938 C 280.828125 256.703125 270.492188 276.703125 252.71875 289.84375 C 235.292969 302.152344 213.167969 306.066406 191.742188 304.484375 Z M 165.75 68.542969 C 158.234375 69.078125 150.875 70.257812 144.003906 71.894531 C 139.789062 72.5625 135.707031 73.53125 131.785156 74.761719 C 133.261719 74.171875 134.765625 73.609375 136.269531 73.101562 C 145.722656 70.179688 155.738281 68.863281 165.75 68.570312 Z M 165.75 68.542969 " fill-opacity="1" fill-rule="nonzero"/><path fill="#000000" d="M 202.832031 131.179688 C 202.589844 129.007812 202.1875 126.890625 201.570312 124.800781 C 201.570312 124.800781 200.925781 122.574219 200.925781 122.574219 C 199.769531 122.601562 198.617188 122.734375 197.460938 122.921875 C 197.191406 121.957031 196.925781 120.992188 196.574219 120.054688 C 187.605469 120.292969 181.457031 124.210938 177.164062 129.949219 C 168.542969 136.679688 165.457031 149.039062 164.300781 160.730469 C 163.628906 166.441406 164.300781 172.421875 166.53125 177.839844 C 170.183594 177.277344 173.457031 175.71875 176.355469 173.65625 C 176.519531 176.523438 177.027344 179.367188 177.941406 182.101562 C 185.484375 181.460938 191.769531 176.632812 196.628906 171.296875 C 207.074219 160.867188 210.296875 144.910156 205.703125 130.992188 C 204.710938 130.992188 203.769531 131.074219 202.832031 131.179688 Z M 184.0625 171.644531 C 184.0625 171.1875 184.0625 170.761719 184.0625 170.304688 C 187.527344 168.507812 190.640625 166.066406 193.191406 163.171875 C 197.570312 158.316406 200.550781 152.230469 202.027344 145.742188 C 202.050781 148.183594 202.027344 150.621094 201.890625 153.0625 C 201.863281 154.136719 201.785156 155.261719 201.703125 156.359375 C 198.453125 164.03125 192.761719 170.144531 184.089844 171.644531 Z M 173.511719 140.378906 C 174.046875 138.929688 174.828125 137.589844 175.660156 136.304688 C 177.109375 135.070312 178.71875 134.023438 180.410156 133.191406 C 173.351562 142.46875 172.4375 155.234375 174.398438 166.710938 C 173.996094 166.765625 173.617188 166.816406 173.214844 166.84375 C 172.277344 158.15625 170.289062 148.773438 173.511719 140.378906 Z M 176.410156 159.285156 C 176.464844 161.078125 176.492188 162.875 176.464844 164.726562 C 176.355469 162.929688 176.355469 161.105469 176.410156 159.285156 Z M 181.21875 163.652344 C 180.949219 163.921875 180.679688 164.21875 180.382812 164.484375 C 180.195312 159.847656 180.546875 155.234375 182.265625 150.917969 C 183.203125 148.53125 184.601562 146.414062 186.265625 144.5625 C 183.148438 150.140625 181.621094 156.976562 181.191406 163.652344 Z M 187.847656 138.5 C 183.125 143.515625 180.222656 150.488281 178.371094 157.78125 C 178.746094 154.886719 179.578125 152.015625 180.867188 149.414062 C 182.453125 145.019531 184.625 141.050781 187.796875 137.75 C 187.796875 137.992188 187.847656 138.234375 187.847656 138.476562 Z M 185.460938 157.78125 C 186.128906 154.859375 187.097656 152.015625 188.386719 149.414062 C 188.386719 149.523438 188.386719 149.628906 188.386719 149.738281 C 187.6875 152.5 186.773438 155.207031 185.460938 157.753906 Z M 187.042969 132.738281 C 187.175781 133.488281 187.285156 134.238281 187.390625 134.988281 C 185.164062 135.765625 183.148438 137.160156 181.457031 138.878906 C 182.960938 136.515625 184.816406 134.398438 187.015625 132.738281 Z M 193.085938 133.835938 C 192.871094 132.46875 192.601562 131.128906 192.226562 129.785156 C 192.414062 129.707031 192.574219 129.625 192.761719 129.574219 C 192.898438 130.992188 193.003906 132.414062 193.085938 133.835938 Z M 175.09375 170.359375 C 175.175781 170.761719 175.28125 171.136719 175.390625 171.511719 C 173.566406 172.179688 171.683594 172.636719 169.777344 172.878906 C 169.671875 172.15625 169.539062 171.402344 169.429688 170.652344 C 169.539062 170.972656 169.589844 171.324219 169.699219 171.644531 C 171.578125 171.457031 173.402344 171 175.121094 170.332031 Z M 180.789062 169.875 C 180.789062 169.875 181.027344 169.605469 181.136719 169.5 C 181.136719 169.820312 181.136719 170.144531 181.164062 170.464844 C 181.054688 170.492188 180.949219 170.519531 180.839844 170.574219 C 180.839844 170.359375 180.789062 170.117188 180.789062 169.902344 Z M 184.144531 167.085938 C 188.519531 164.191406 191.367188 159.683594 192.789062 154.644531 C 195.527344 150.328125 197.328125 145.5 198.1875 140.484375 C 198.667969 148.476562 197.675781 156.496094 192.734375 162.847656 C 190.425781 165.746094 187.390625 167.972656 184.035156 169.417969 C 184.035156 168.640625 184.089844 167.890625 184.117188 167.085938 Z M 168.679688 146.4375 C 169.375 144.238281 170.421875 142.230469 171.765625 140.40625 C 170.183594 144.910156 169.109375 149.738281 168.382812 154.457031 C 167.980469 156.789062 167.871094 159.175781 167.925781 161.589844 C 167.253906 156.46875 167.09375 151.347656 168.679688 146.4375 Z M 196.226562 170.949219 C 192.546875 175.210938 186.988281 177.0625 181.539062 177.382812 C 181.378906 175.507812 181.164062 173.601562 180.976562 171.699219 C 181.054688 171.671875 181.164062 171.617188 181.242188 171.589844 C 181.324219 172.691406 181.433594 173.761719 181.539062 174.78125 C 191.015625 173.761719 197.328125 168.132812 201.058594 160.703125 C 200.308594 164.457031 198.910156 168.078125 196.199219 170.949219 Z M 196.226562 170.949219 " fill-opacity="1" fill-rule="nonzero"/><path fill="#ffffff" d="M 247.722656 114.503906 C 254.625 129.574219 257.765625 149.523438 257.175781 174.300781 C 256.289062 210.714844 247.992188 237.367188 232.339844 254.316406 C 216.660156 271.234375 195.339844 279.679688 168.273438 279.679688 C 152.300781 279.679688 139.734375 277.804688 130.605469 274.105469 C 121.476562 270.375 113.929688 264.960938 107.996094 257.773438 C 102.0625 250.640625 97.554688 241.683594 94.546875 230.960938 L 150.207031 223.933594 C 151.46875 231.738281 153.804688 237.234375 157.214844 240.453125 C 160.597656 243.640625 164.8125 245.25 169.832031 245.25 C 178.773438 245.25 185.890625 240.71875 191.125 231.628906 C 194.964844 224.925781 198.023438 210.765625 200.386719 189.101562 C 193.542969 195.992188 186.558594 201.035156 179.445312 204.25 C 172.328125 207.441406 164.167969 209.050781 154.929688 209.050781 C 136.941406 209.050781 121.90625 202.644531 109.851562 189.796875 C 97.792969 176.953125 91.996094 160.703125 92.476562 141.101562 C 92.800781 127.722656 96.238281 115.496094 102.816406 104.527344 C 109.394531 93.507812 118.253906 85.195312 129.449219 79.5625 C 140.621094 73.933594 154.609375 71.089844 171.308594 71.089844 C 191.394531 71.089844 207.449219 74.546875 219.425781 81.492188 C 231.425781 88.410156 240.851562 99.433594 247.75 114.53125 Z M 191.042969 165.773438 C 196.386719 159.980469 199.207031 151.722656 199.449219 140.996094 C 199.691406 130.269531 197.191406 121.554688 191.875 115.359375 C 186.535156 109.140625 179.953125 106.054688 172.089844 106.054688 C 164.675781 106.054688 158.476562 108.84375 153.453125 114.449219 C 148.40625 120.054688 145.773438 128.417969 145.507812 139.628906 C 145.238281 150.835938 147.546875 159.523438 152.460938 165.476562 C 157.375 171.457031 163.628906 174.40625 171.230469 174.40625 C 178.828125 174.40625 185.675781 171.539062 191.015625 165.746094 " fill-opacity="1" fill-rule="nonzero"/></svg>